<?xml version="1.0" encoding="utf-8"?>
<!-- Generator: Adobe Illustrator 26.5.0, SVG Export Plug-In . SVG Version: 6.00 Build 0)  -->
<svg version="1.1" id="Layer_1" xmlns="http://www.w3.org/2000/svg" xmlns:xlink="http://www.w3.org/1999/xlink" x="0px" y="0px"
	 viewBox="0 0 96 120" style="enable-background:new 0 0 96 120;" xml:space="preserve">
<style type="text/css">
	.st0{fill:#2A8E5C;}
</style>
<path class="st0" d="M60.7,51c0.6-0.2,0.9-0.8,0.9-1.4v-3.3c0-0.6-0.4-1.1-0.9-1.4l-1.3-0.5c-0.2-0.7-0.5-1.4-0.8-2l0.6-1.3
	c0.2-0.6,0.1-1.2-0.3-1.6l-2.3-2.3c-0.4-0.4-1.1-0.5-1.6-0.3l-1.3,0.6c-0.6-0.3-1.3-0.6-2-0.8L51,35.3c-0.2-0.6-0.8-0.9-1.4-0.9
	h-3.3c-0.6,0-1.1,0.4-1.4,0.9l-0.5,1.3c-0.7,0.2-1.4,0.5-2,0.8l-1.3-0.6c-0.6-0.2-1.2-0.1-1.6,0.3l-2.3,2.3
	c-0.4,0.4-0.5,1.1-0.3,1.6l0.6,1.3c-0.3,0.6-0.6,1.3-0.8,2L35.3,45c-0.6,0.2-0.9,0.8-0.9,1.4v3.3c0,0.6,0.4,1.1,0.9,1.4l1.3,0.5
	c0.2,0.7,0.5,1.4,0.8,2l-0.6,1.3c-0.2,0.6-0.1,1.2,0.3,1.6l2.3,2.3c0.4,0.4,1.1,0.5,1.6,0.3l1.3-0.6c0.6,0.3,1.3,0.6,2,0.8l0.5,1.3
	c0.2,0.6,0.8,0.9,1.4,0.9h3.3c0.6,0,1.1-0.4,1.4-0.9l0.5-1.3c0.7-0.2,1.4-0.5,2-0.8l1.3,0.6c0.6,0.2,1.2,0.1,1.6-0.3l2.3-2.3
	c0.4-0.4,0.5-1.1,0.3-1.6l-0.6-1.3c0.3-0.6,0.6-1.3,0.8-2L60.7,51z M58.7,48.6l-1.1,0.4c-0.4,0.2-0.8,0.6-0.9,1
	c-0.2,0.9-0.6,1.8-1.1,2.6c-0.3,0.4-0.3,0.9-0.1,1.4l0.5,1.1L55.1,56L54,55.5c-0.4-0.2-0.9-0.2-1.4,0.1c-0.8,0.5-1.7,0.9-2.6,1.1
	c-0.5,0.1-0.9,0.4-1,0.9l-0.4,1.1h-1.3l-0.4-1.1c-0.2-0.4-0.6-0.8-1-0.9c-0.9-0.2-1.8-0.6-2.6-1.1c-0.4-0.3-0.9-0.3-1.4-0.1L40.9,56
	L40,55.1l0.5-1.1c0.2-0.4,0.2-0.9-0.1-1.4c-0.5-0.8-0.9-1.7-1.1-2.6c-0.1-0.5-0.4-0.9-0.9-1l-1.1-0.4v-1.3l1.1-0.4
	c0.4-0.2,0.8-0.6,0.9-1c0.2-0.9,0.6-1.8,1.1-2.6c0.3-0.4,0.3-0.9,0.1-1.4L40,40.9l0.9-0.9l1.1,0.5c0.4,0.2,0.9,0.2,1.4-0.1
	c0.8-0.5,1.7-0.9,2.6-1.1c0.5-0.1,0.9-0.4,1-0.9l0.4-1.1h1.3l0.4,1.1c0.2,0.4,0.6,0.8,1,0.9c0.9,0.2,1.8,0.6,2.6,1.1
	c0.4,0.3,0.9,0.3,1.4,0.1l1.1-0.5l0.9,0.9L55.5,42c-0.2,0.4-0.2,0.9,0.1,1.4c0.5,0.8,0.9,1.7,1.1,2.6c0.1,0.5,0.4,0.9,0.9,1l1.1,0.4
	L58.7,48.6L58.7,48.6z M48,40.8c-4,0-7.2,3.2-7.2,7.2s3.2,7.2,7.2,7.2s7.2-3.2,7.2-7.2S52,40.8,48,40.8z M48,52.3
	c-2.4,0-4.3-1.9-4.3-4.3s1.9-4.3,4.3-4.3s4.3,1.9,4.3,4.3C52.3,50.4,50.4,52.3,48,52.3z M76.6,74.3c0.6,0.6,0.6,1.5,0,2.1
	C73,80,68.8,82.9,64,85c-0.2,0.1-0.4,0.1-0.6,0.1c-0.6,0-1.1-0.3-1.3-0.9c-0.3-0.7,0-1.6,0.8-1.9c4.4-1.9,8.3-4.6,11.7-8
	C75.1,73.7,76.1,73.7,76.6,74.3z M76,23.2c-0.5-0.6-0.5-1.5,0.1-2.1s1.5-0.5,2.1,0.1c1.4,1.6,2.7,3.3,3.8,5c0.4,0.7,0.2,1.6-0.4,2
	c-0.2,0.2-0.5,0.2-0.8,0.2c-0.5,0-1-0.2-1.2-0.7C78.5,26.3,77.3,24.7,76,23.2z M33.9,84.2c-0.2,0.6-0.8,0.9-1.3,0.9
	c-0.2,0-0.4,0-0.6-0.1c-8.4-3.7-15.4-10.2-19.7-18.3c-0.4-0.7-0.1-1.6,0.6-2c0.7-0.4,1.6-0.1,2,0.6c4,7.6,10.4,13.6,18.3,17
	C33.9,82.6,34.2,83.5,33.9,84.2z M12.3,29.3c1.5-2.9,3.4-5.6,5.5-8c0.5-0.6,1.5-0.7,2.1-0.1s0.7,1.5,0.1,2.1c-2,2.3-3.7,4.8-5.1,7.4
	c-0.3,0.5-0.8,0.8-1.3,0.8c-0.2,0-0.5-0.1-0.7-0.2C12.2,30.9,11.9,30,12.3,29.3z M24.4,31h47.3c0.8,0,1.5-0.7,1.5-1.5V4.2
	c0-0.8-0.7-1.5-1.5-1.5H24.4c-0.8,0-1.5,0.7-1.5,1.5v25.3C22.9,30.4,23.5,31,24.4,31z M25.8,5.7h44.4v22.4H25.8V5.7z M67.2,10.8
	c-1,0-1.7-0.8-1.7-1.8c0-0.8-0.7-1.5-1.5-1.5H32c-0.8,0-1.5,0.7-1.5,1.5c0,1-0.8,1.8-1.7,1.8c-0.8,0-1.5,0.7-1.5,1.5v9.3
	c0,0.8,0.7,1.5,1.5,1.5c1,0,1.7,0.8,1.7,1.8c0,0.8,0.7,1.5,1.5,1.5H64c0.8,0,1.5-0.7,1.5-1.5c0-1,0.8-1.8,1.7-1.8
	c0.8,0,1.5-0.7,1.5-1.5v-9.3C68.7,11.5,68,10.8,67.2,10.8z M65.8,20.3c-1.4,0.5-2.5,1.6-3,3H33.2c-0.5-1.4-1.6-2.6-3-3v-6.8
	c1.4-0.5,2.5-1.6,3-3h29.6c0.5,1.4,1.6,2.6,3,3V20.3z M42.7,16.9c0,0.8-0.7,1.5-1.5,1.5h-4.5c-0.8,0-1.5-0.7-1.5-1.5
	s0.7-1.5,1.5-1.5h4.5C42.1,15.5,42.7,16.1,42.7,16.9z M60.7,16.9c0,0.8-0.7,1.5-1.5,1.5h-4.5c-0.8,0-1.5-0.7-1.5-1.5
	s0.7-1.5,1.5-1.5h4.5C60.1,15.5,60.7,16.1,60.7,16.9z M50.3,16.1c0.1,0,0.3,0,0.4-0.1c0.7-0.3,1.1-1.2,0.8-1.9c-0.4-1-1.1-1.7-2-2
	c-0.1-0.7-0.7-1.3-1.4-1.3c-0.8,0-1.4,0.6-1.5,1.3c-1.3,0.5-2.2,1.7-2.1,3.1c0,0.6,0.2,1.5,1.1,2.2c-0.1,0-0.2,0-0.2,0
	c-0.8,0.2-1.3,1-1.1,1.8c0.3,1.2,1.2,2.1,2.3,2.5c0.1,0.7,0.7,1.3,1.4,1.3c0.7,0,1.3-0.5,1.4-1.2c0.7-0.2,1.3-0.6,1.7-1
	c0.5-0.6,0.8-1.4,0.7-2.3C51.7,17.7,51.3,16.8,50.3,16.1z M48.1,19c-0.3,0-0.9-0.1-1-0.5c0-0.1-0.1-0.3-0.2-0.4
	c0.3,0.1,0.5,0.1,0.9,0.2c0.3,0.1,1.1,0.2,1.1,0.5c0,0,0,0,0,0C48.8,18.9,48.5,19,48.1,19z M48.2,15.4c-0.6-0.1-0.8-0.3-0.9-0.3
	c0,0,0,0,0,0c0-0.2,0.3-0.3,0.4-0.3c0.1,0,0.8-0.2,1,0.4c0.1,0.1,0.1,0.3,0.2,0.4C48.8,15.5,48.5,15.5,48.2,15.4z M63.5,78.2
	c0.6-0.8,0.8-1.7,0.6-2.7c-0.2-1-0.7-1.8-1.4-2.4L50.2,64c-1.3-1-3-1-4.3,0l-12.6,9.1c-1.6,1.2-2,3.4-0.8,5c0.9,1.3,2.6,1.8,4,1.3
	v9.2c0,2.5,2,4.5,4.5,4.5h13.8c2.5,0,4.5-2,4.5-4.5v-9.2c0.4,0.1,0.7,0.2,1.1,0.2c0.2,0,0.4,0,0.6,0C62.1,79.5,62.9,79,63.5,78.2z
	 M50.9,90.3h-5.7v-9.1h5.7V90.3z M54.9,90.3h-1.1v-10c0-1.1-0.9-2-2-2h-7.6c-1.1,0-2,0.9-2,2v10h-1.2c-0.9,0-1.6-0.7-1.6-1.6V77.6
	l8.5-6.2l8.5,6.2v11.1C56.5,89.6,55.8,90.3,54.9,90.3z M61.1,76.5c-0.2,0.3-0.7,0.4-1,0.2l-11.3-8.2c-0.3-0.2-0.6-0.3-0.9-0.3
	s-0.6,0.1-0.9,0.3l-11.3,8.2c-0.3,0.2-0.7,0.2-1-0.2s-0.2-0.7,0.2-1l12.6-9.1c0.2-0.2,0.6-0.2,0.8,0c0,0,0,0,0,0L61,75.5
	c0.2,0.1,0.3,0.3,0.3,0.5C61.3,76.1,61.3,76.3,61.1,76.5z M31.5,48c0-7.9-6.4-14.3-14.4-14.3S2.8,40.1,2.8,48s6.4,14.3,14.4,14.3
	C25,62.3,31.5,55.9,31.5,48z M5.7,48c0-6.3,5.1-11.4,11.4-11.4S28.6,41.7,28.6,48s-5.1,11.4-11.4,11.4S5.7,54.3,5.7,48z M17.1,57.6
	c-0.8,0-1.5-0.7-1.5-1.5v-0.5c-2-0.5-3.6-1.9-4.1-3.8c-0.2-0.8,0.3-1.6,1.1-1.8c0.8-0.2,1.6,0.3,1.8,1.1c0.3,1.3,1.8,1.8,2.9,1.8
	c1,0,1.9-0.4,2.3-0.8c0.2-0.2,0.3-0.5,0.2-0.9c0-0.4-0.2-1.4-2.9-1.8C13,48.7,12,46.7,12,45c-0.1-2.2,1.4-4.1,3.7-4.6v-0.6
	c0-0.8,0.7-1.5,1.5-1.5s1.5,0.7,1.5,1.5v0.5c1.5,0.4,2.9,1.3,3.7,3.1c0.3,0.7,0,1.6-0.8,1.9s-1.6,0-1.9-0.8c-0.6-1.4-2-1.7-3.1-1.4
	c-0.3,0.1-1.7,0.4-1.6,1.7c0,0.3,0.1,1.2,2.5,1.6c3.2,0.5,5,2,5.3,4.3c0.1,1.2-0.2,2.3-0.9,3.1c-0.7,0.8-1.9,1.4-3.2,1.7v0.5
	C18.6,57,17.9,57.6,17.1,57.6z M93.2,44.1c0-7.2-5.8-13-13-13s-13,5.8-13,13c0,3.4,1.1,5.2,2.1,6.9c1.1,1.9,2.3,3.9,2.6,8.6v1.8
	c0,1.3,0.8,2.4,1.9,3v0.8c0,1.3,0.8,2.5,1.9,3v0.7c0,1.8,1.5,3.3,3.3,3.3h2.4c1.8,0,3.3-1.5,3.3-3.3v-0.7c1.1-0.5,1.9-1.7,1.9-3
	v-0.8c1.1-0.5,1.9-1.7,1.9-3v-1.8c0.3-4.7,1.4-6.6,2.6-8.6C92.2,49.2,93.2,47.4,93.2,44.1z M76.8,45.4h-1.2c-0.7,0-1.2-0.5-1.2-1.2
	c0-0.7,0.5-1.2,1.2-1.2c0.7,0,1.2,0.5,1.2,1.2L76.8,45.4L76.8,45.4z M80.8,58h-1.1v-9.8h1.1V58z M85.7,61v0.4c0,0.2-0.2,0.4-0.4,0.4
	h-10c-0.2,0-0.4-0.2-0.4-0.4V61H85.7z M83.4,65.5h-6.3c-0.2,0-0.4-0.2-0.4-0.4v-0.4h7.1v0.4C83.8,65.3,83.6,65.5,83.4,65.5z
	 M81.5,69.3H79c-0.2,0-0.4-0.2-0.4-0.4v-0.4h3.2v0.4C81.9,69.1,81.7,69.3,81.5,69.3z M88.6,49.5c-1.1,1.8-2.4,4.1-2.8,8.5h-2.1v-9.8
	h1.2c2.3,0,4.1-1.9,4.1-4.1S87.2,40,84.9,40c-2.3,0-4.1,1.9-4.1,4.1v1.2h-1.1v-1.2c0-2.3-1.9-4.1-4.1-4.1c-2.3,0-4.1,1.9-4.1,4.1
	s1.9,4.1,4.1,4.1h1.2V58h-2.1c-0.5-4.5-1.8-6.7-2.8-8.5c-1-1.7-1.7-2.9-1.7-5.5c0-5.5,4.5-10,10.1-10s10.1,4.5,10.1,10
	C90.3,46.7,89.6,47.9,88.6,49.5z M83.7,45.4v-1.2c0-0.7,0.5-1.2,1.2-1.2c0.7,0,1.2,0.5,1.2,1.2c0,0.7-0.5,1.2-1.2,1.2L83.7,45.4
	L83.7,45.4z"/>
</svg>
