<?xml version="1.0" encoding="utf-8"?>
<!-- Generator: Adobe Illustrator 26.5.0, SVG Export Plug-In . SVG Version: 6.00 Build 0)  -->
<svg version="1.1" id="Layer_1" xmlns="http://www.w3.org/2000/svg" xmlns:xlink="http://www.w3.org/1999/xlink" x="0px" y="0px"
	 viewBox="0 0 29 36.2" style="enable-background:new 0 0 29 36.2;" xml:space="preserve">
<style type="text/css">
	.st0{fill:#2A8E5C;}
</style>
<path class="st0" d="M14.5,20.6c-0.8,0-1.4,0.6-1.4,1.4s0.6,1.4,1.4,1.4c0.8,0,1.4-0.6,1.4-1.4l0,0C15.9,21.2,15.3,20.6,14.5,20.6
	C14.5,20.6,14.5,20.6,14.5,20.6z M23.9,21.5c-2.2-3-5.7-4.7-9.4-4.7c-3.7-0.1-7.2,1.7-9.4,4.7c-0.2,0.3-0.2,0.6,0,0.9
	c2.2,3,5.7,4.7,9.4,4.7c3.7,0.1,7.2-1.7,9.4-4.7C24,22.2,24,21.8,23.9,21.5z M14.5,26.1c-2.3,0-4.1-1.8-4.1-4.1s1.8-4.1,4.1-4.1
	s4.1,1.8,4.1,4.1C18.6,24.3,16.8,26.1,14.5,26.1z M18.8,11.8c0.2,0.2,0.5,0.1,0.7-0.1c0,0,0,0,0,0c1.3-1.9,1.3-4.4,0-6.3
	c-0.2-0.2-0.5-0.3-0.7-0.1c-0.2,0.2-0.3,0.5-0.1,0.7c1.1,1.6,1.1,3.6,0,5.2C18.5,11.3,18.6,11.6,18.8,11.8
	C18.8,11.8,18.8,11.8,18.8,11.8z M21.2,14.7c0.2,0.2,0.5,0.1,0.7-0.1c0,0,0,0,0,0c2.6-3.6,2.6-8.5,0-12.1c-0.2-0.2-0.5-0.3-0.7-0.1
	C21,2.5,21,2.8,21.1,3c2.3,3.3,2.3,7.6,0,10.9C21,14.2,21,14.5,21.2,14.7z M6.2,12.5h2.8c0.2,0,0.3,0,0.4,0.1l4.3,2.2
	c0.5,0.2,1.1,0,1.3-0.4c0.1-0.1,0.1-0.3,0.1-0.4V3.1c0-0.6-0.4-1-1-1c-0.2,0-0.3,0-0.4,0.1L9.4,4.4C9.2,4.5,9.1,4.5,8.9,4.5H6.2
	c-0.6,0-1,0.4-1,1v6C5.2,12.1,5.6,12.5,6.2,12.5z"/>
</svg>
