<?xml version="1.0" encoding="utf-8"?>
<!-- Generator: Adobe Illustrator 26.5.0, SVG Export Plug-In . SVG Version: 6.00 Build 0)  -->
<svg version="1.1" xmlns="http://www.w3.org/2000/svg" xmlns:xlink="http://www.w3.org/1999/xlink" x="0px" y="0px"
	 viewBox="0 0 100 125" style="enable-background:new 0 0 100 125;" xml:space="preserve">
<style type="text/css">
	.st0{fill:#2A8E5C;}
</style>
<g id="Layer_2">
</g>
<g id="Layer_1">
	<path class="st0" d="M22.1,69.3c0.3,0.2,0.6,0.3,1,0.3h9.1c1,0,1.8-0.8,1.8-1.8S33.2,66,32.2,66h-3c0.7-1.1,1.1-2.4,1.1-3.7V49.7
		v-2.1V35c0-1.9,1.6-3.5,3.5-3.5s3.5,1.6,3.5,3.5v51.1c0,0.1,0,0.2,0,0.4c0,0.1,0,0.1,0.1,0.2v0.1c0,0.1,0.1,0.2,0.1,0.2v0.1
		c0.1,0.1,0.1,0.2,0.2,0.3l0,0l3.1,3.1c0.7,0.7,1.9,0.7,2.6,0l4.9-4.9l4.9,4.9c0.3,0.3,0.8,0.5,1.3,0.5s0.9-0.2,1.3-0.5l4.9-4.9
		l4.9,4.9c0.3,0.3,0.8,0.5,1.3,0.5s0.9-0.2,1.3-0.5l4.9-4.9l4.9,4.9c0.4,0.4,0.8,0.5,1.3,0.5s0.9-0.2,1.3-0.5l3.1-3.1
		c0.3-0.3,0.5-0.8,0.5-1.3V35c0-4-3.2-7.2-7.2-7.2H65.9V11c0-1-0.8-1.8-1.8-1.8H18c-1,0-1.8,0.8-1.8,1.8v51.1
		C15.9,65.8,18.7,68.8,22.1,69.3z M80.4,34.8v50.4l-1.2,1.2l-4.9-4.9c-0.7-0.7-1.9-0.7-2.6,0l-4.9,4.9l-4.9-4.9
		c-0.7-0.7-1.9-0.7-2.6,0l-4.9,4.9l-4.9-4.9c-0.7-0.7-1.9-0.7-2.6,0L42,86.4l-1.2-1.2V34.8c0-1.3-0.3-2.5-0.9-3.5h36.8
		C78.8,31.2,80.4,32.8,80.4,34.8z M19.6,12.9h42.5v14.7H33.8c-4,0-7.2,3.2-7.2,7.2v12.6v2.1v12.6c0,1.9-1.6,3.5-3.5,3.5
		s-3.5-1.6-3.5-3.5V12.9z M76.1,40.8c0,1-0.8,1.8-1.8,1.8H46.9c-1,0-1.8-0.8-1.8-1.8s0.8-1.8,1.8-1.8h27.4
		C75.3,38.9,76.1,39.8,76.1,40.8z M45.1,48.5c0-1,0.8-1.8,1.8-1.8H67c1,0,1.8,0.8,1.8,1.8S68,50.3,67,50.3H46.9
		C45.9,50.4,45.1,49.5,45.1,48.5z M76.1,56.3c0,1-0.8,1.8-1.8,1.8H46.9c-1,0-1.8-0.8-1.8-1.8s0.8-1.8,1.8-1.8h27.4
		C75.3,54.5,76.1,55.3,76.1,56.3z M51,64.1c0,1-0.8,1.8-1.8,1.8h-2.3c-1,0-1.8-0.8-1.8-1.8s0.8-1.8,1.8-1.8h2.3
		C50.2,62.2,51,63.1,51,64.1z M51,71.8c0,1-0.8,1.8-1.8,1.8h-2.3c-1,0-1.8-0.8-1.8-1.8s0.8-1.8,1.8-1.8h2.3C50.2,70,51,70.8,51,71.8
		z M76.1,64.1c0,1-0.8,1.8-1.8,1.8H55.6c-1,0-1.8-0.8-1.8-1.8s0.8-1.8,1.8-1.8h18.7C75.3,62.2,76.1,63.1,76.1,64.1z M68.8,71.8
		c0,1-0.8,1.8-1.8,1.8H55.6c-1,0-1.8-0.8-1.8-1.8s0.8-1.8,1.8-1.8H67C68,70,68.8,70.8,68.8,71.8z"/>
</g>
</svg>
