<?xml version="1.0" encoding="utf-8"?>
<!-- Generator: Adobe Illustrator 26.5.0, SVG Export Plug-In . SVG Version: 6.00 Build 0)  -->
<svg version="1.1" id="Layer_1" xmlns="http://www.w3.org/2000/svg" xmlns:xlink="http://www.w3.org/1999/xlink" x="0px" y="0px"
	 viewBox="0 0 95 118.8" style="enable-background:new 0 0 95 118.8;" xml:space="preserve">
<style type="text/css">
	.st0{fill-rule:evenodd;clip-rule:evenodd;fill:#2A8E5C;}
</style>
<path class="st0" d="M73.2,65.9H21.8c-1.3,0-2.4,1.1-2.4,2.4v10.3c0,1.4,1.1,2.4,2.4,2.4h51.3c1.4,0,2.4-1.1,2.4-2.4V68.3
	C75.6,67,74.5,65.9,73.2,65.9z M57.1,25.1c7.7-4.5,17.5-1.9,22,5.7c1,1.7,1.7,3.6,2,5.5c3.2,1.1,6,3.2,8,5.9
	c2.2,2.9,3.3,6.5,3.4,10.1c0,8.5-6.3,15.8-14.8,16.9v9.4c0,2.5-2,4.6-4.6,4.6H21.8c-2.5,0-4.6-2-4.6-4.6v-9.4
	C8,68,1.4,59.5,2.6,50.1c1.1-8,7.6-14.1,15.6-14.7c-0.1-0.3-0.1-0.7-0.1-1C18,33.6,18,32.8,18,32c0-11.2,9-20.2,20.2-20.2
	C46.6,11.8,54.2,17.1,57.1,25.1z M81.4,38.7c2.4,1,4.5,2.7,6.1,4.8c1.9,2.6,2.9,5.7,2.9,8.9c0,7.4-5.5,13.7-12.8,14.8
	c-0.2-0.8-0.6-1.5-1.2-2.1c-0.1-0.1-0.2-0.2-0.3-0.3c0.1-0.1,0.2-0.2,0.3-0.3c0.9-0.9,1.3-2,1.3-3.2V51c0-2.5-2-4.6-4.6-4.6H21.8
	c-2.5,0-4.6,2-4.6,4.6v10.3c0,1.2,0.5,2.4,1.3,3.2c0.1,0.1,0.2,0.2,0.3,0.3c-0.1,0.1-0.2,0.2-0.3,0.3c-0.6,0.6-1,1.3-1.2,2.1
	C9.3,66,3.6,58.4,4.8,50.3c1-7.3,7.3-12.8,14.8-12.8c0.6,0,1.1-0.5,1.1-1.1c0-0.1,0-0.2,0-0.3c-0.2-0.7-0.3-1.3-0.3-2
	c-0.1-0.7-0.1-1.4-0.1-2.1c0-10,8.1-18.1,18.1-18.1c9.1,0,16.8,6.7,18,15.7c0.1,0.6,0.6,1,1.2,0.9c0.6-0.1,1-0.6,0.9-1.2
	c-0.1-0.8-0.2-1.5-0.4-2.2c6.5-4.1,15.2-2.2,19.3,4.3c1.8,2.8,2.5,6.2,2,9.6c-0.1,0.7-0.2,1.4-0.4,2c-0.2,0.6,0.1,1.1,0.7,1.3
	c0.6,0.2,1.1-0.1,1.3-0.7l0,0c0.2-0.8,0.4-1.5,0.5-2.3c0.1-0.8,0.2-1.6,0.2-2.4C81.4,38.9,81.4,38.8,81.4,38.7L81.4,38.7z
	 M38.9,71.4c1.1,0,2,0.9,2,2c0,1.1-0.9,2-2,2s-2-0.9-2-2c0-0.5,0.2-1.1,0.6-1.4C37.9,71.6,38.4,71.4,38.9,71.4z M36,70.5
	c1.6-1.6,4.3-1.6,5.9,0c1.6,1.6,1.6,4.3,0,5.9c-1.6,1.6-4.3,1.6-5.9,0c-0.8-0.8-1.2-1.8-1.2-2.9C34.8,72.4,35.2,71.3,36,70.5z
	 M70.6,72.4c0.6,0,1.1,0.5,1.1,1.1s-0.5,1.1-1.1,1.1h-20c-0.6,0-1.1-0.5-1.1-1.1s0.5-1.1,1.1-1.1H70.6z M27.5,71.4c1.1,0,2,0.9,2,2
	c0,1.1-0.9,2-2,2s-2-0.9-2-2c0-0.5,0.2-1.1,0.6-1.4C26.4,71.6,27,71.4,27.5,71.4z M24.6,70.5c1.6-1.6,4.3-1.6,5.9,0
	c1.6,1.6,1.6,4.3,0,5.9s-4.3,1.6-5.9,0c-0.8-0.8-1.2-1.8-1.2-2.9C23.3,72.4,23.8,71.3,24.6,70.5z M38.9,60.3c2.3,0,4.2-1.9,4.2-4.2
	c0-2.3-1.9-4.2-4.2-4.2c-2.3,0-4.2,1.9-4.2,4.2c0,1.1,0.4,2.2,1.2,2.9C36.8,59.9,37.8,60.3,38.9,60.3z M37.5,57.6
	c0.8,0.8,2.1,0.8,2.9,0c0.8-0.8,0.8-2.1,0-2.9c-0.8-0.8-2.1-0.8-2.9,0c-0.4,0.4-0.6,0.9-0.6,1.4C36.9,56.7,37.1,57.2,37.5,57.6z
	 M70.6,55.1h-20c-0.6,0-1.1,0.4-1.1,1s0.4,1.1,1,1.1c0,0,0,0,0.1,0h20c0.6,0,1.1-0.4,1.1-1C71.7,55.6,71.2,55.1,70.6,55.1
	C70.6,55.1,70.6,55.1,70.6,55.1z M27.5,60.3c2.3,0,4.2-1.9,4.2-4.2c0-2.3-1.9-4.2-4.2-4.2s-4.2,1.9-4.2,4.2c0,1.1,0.4,2.2,1.2,2.9
	C25.3,59.9,26.4,60.3,27.5,60.3z M26.1,57.6c0.8,0.8,2.1,0.8,2.9,0c0.8-0.8,0.8-2.1,0-2.9c-0.8-0.8-2.1-0.8-2.9,0
	c-0.4,0.4-0.6,0.9-0.6,1.4C25.5,56.7,25.7,57.2,26.1,57.6z M21.8,63.8h51.3c1.4,0,2.4-1.1,2.4-2.4V51c0-1.4-1.1-2.4-2.4-2.4H21.8
	c-1.3,0-2.4,1.1-2.4,2.4v10.3C19.4,62.7,20.5,63.8,21.8,63.8L21.8,63.8z"/>
</svg>
