<?xml version="1.0" encoding="utf-8"?>
<!-- Generator: Adobe Illustrator 26.5.0, SVG Export Plug-In . SVG Version: 6.00 Build 0)  -->
<svg version="1.1" id="Layer_1" xmlns="http://www.w3.org/2000/svg" xmlns:xlink="http://www.w3.org/1999/xlink" x="0px" y="0px"
	 viewBox="0 0 50 62.5" style="enable-background:new 0 0 50 62.5;" xml:space="preserve">
<style type="text/css">
	.st0{fill:#2A8E5C;}
</style>
<g>
	<path class="st0" d="M23.2,2.8h0.2v2.7h3.2V2.8h0.2c0.2,0,0.4-0.2,0.4-0.4V1.5C27.2,1.2,27,1,26.8,1h-3.6c-0.2,0-0.4,0.2-0.4,0.4
		v0.9C22.8,2.6,23,2.8,23.2,2.8z"/>
	<path class="st0" d="M28.4,46.3h-1.8V35.5h-3.2v10.9h-1.8c-1.5,0-2.6,1.2-2.6,2.6h12.1C31.1,47.5,29.9,46.3,28.4,46.3z"/>
	<path class="st0" d="M34.3,6.5H15.7c-1.1,0-2,0.9-2,2v24c0,1.1,0.9,2,2,2h18.7c1.1,0,2-0.9,2-2v-24C36.3,7.4,35.4,6.5,34.3,6.5z
		 M15.3,33.5c-0.4,0-0.6-0.3-0.6-0.6c0-0.4,0.3-0.6,0.6-0.6c0.4,0,0.6,0.3,0.6,0.6C16,33.2,15.7,33.5,15.3,33.5z M15.3,8.8
		c-0.4,0-0.6-0.3-0.6-0.6c0-0.4,0.3-0.6,0.6-0.6c0.4,0,0.6,0.3,0.6,0.6C16,8.5,15.7,8.8,15.3,8.8z M33.3,30.4H16.7
		c-0.3,0-0.5-0.2-0.5-0.5s0.2-0.5,0.5-0.5h16.6c0.3,0,0.5,0.2,0.5,0.5C33.8,30.2,33.6,30.4,33.3,30.4z M33.3,27.8H16.7
		c-0.3,0-0.5-0.2-0.5-0.5s0.2-0.5,0.5-0.5h16.6c0.3,0,0.5,0.2,0.5,0.5C33.8,27.5,33.6,27.8,33.3,27.8z M33.8,22.7
		c0,0.6-0.5,1.1-1.1,1.1H17.2c-0.6,0-1.1-0.5-1.1-1.1V10.6c0-0.6,0.5-1.1,1.1-1.1h15.6c0.6,0,1.1,0.5,1.1,1.1v12.1H33.8z M34.7,33.5
		c-0.4,0-0.6-0.3-0.6-0.6c0-0.4,0.3-0.6,0.6-0.6c0.4,0,0.6,0.3,0.6,0.6S35.1,33.5,34.7,33.5z M34.7,8.8c-0.4,0-0.6-0.3-0.6-0.6
		c0-0.4,0.3-0.6,0.6-0.6c0.4,0,0.6,0.3,0.6,0.6C35.3,8.5,35.1,8.8,34.7,8.8z"/>
</g>
</svg>
