<?xml version="1.0" encoding="utf-8"?>
<!-- Generator: Adobe Illustrator 26.5.0, SVG Export Plug-In . SVG Version: 6.00 Build 0)  -->
<svg version="1.1" id="Layer_1" xmlns="http://www.w3.org/2000/svg" xmlns:xlink="http://www.w3.org/1999/xlink" x="0px" y="0px"
	 viewBox="0 0 100 125" style="enable-background:new 0 0 100 125;" xml:space="preserve">
<style type="text/css">
	.st0{fill-rule:evenodd;clip-rule:evenodd;fill:#2A8E5C;}
</style>
<path class="st0" d="M57.4,86.8l2.2,3.7H9.3c-0.9,0.1-1.7-0.5-1.9-1.4L3,60c-0.1-0.5,0.1-0.9,0.5-1.2c0.4-0.4,0.9-0.6,1.4-0.5h66.5
	c0.5,0,1,0.2,1.4,0.5c0.4,0.3,0.5,0.8,0.4,1.2l-0.3,2h-1.2c-1.7,0-3,1.3-3,3v2.3c-0.6,0.3-1.2,0.6-1.7,1l-2-1.2
	c-1.4-0.8-3.3-0.3-4.1,1.1l-3.4,6c-0.8,1.4-0.3,3.3,1.1,4.1l2,1.2c0,0.7,0,1.3,0,2l-2,1.2C57.1,83.5,56.6,85.3,57.4,86.8z
	 M87.8,79.1c0.1,0.9,0.1,1.9,0,2.8c-0.1,0.4,0.2,0.8,0.5,1l2.5,1.5c0.5,0.3,0.7,0.9,0.4,1.4l-3.4,6c-0.3,0.5-0.9,0.7-1.4,0.4
	l-2.5-1.5c-0.4-0.2-0.8-0.2-1.1,0.1c-0.8,0.6-1.6,1-2.4,1.4c-0.4,0.2-0.6,0.5-0.6,0.9V96c0,0.6-0.5,1-1,1h-6.9c-0.6,0-1-0.5-1-1V93
	c0-0.4-0.2-0.8-0.6-0.9c-0.9-0.4-1.7-0.8-2.4-1.4c-0.3-0.2-0.8-0.3-1.1-0.1L64,92.1c-0.5,0.3-1.1,0.1-1.4-0.4l-3.4-6
	c-0.3-0.5-0.1-1.1,0.4-1.4l2.5-1.5c0.4-0.2,0.6-0.6,0.5-1c-0.1-0.9-0.1-1.9,0-2.8c0.1-0.4-0.2-0.8-0.5-1l-2.5-1.5
	c-0.5-0.3-0.7-0.9-0.4-1.4l3.4-6c0.3-0.5,0.9-0.7,1.4-0.4l2.5,1.5c0.4,0.2,0.8,0.2,1.1-0.1c0.8-0.6,1.6-1,2.4-1.4
	c0.4-0.2,0.6-0.5,0.6-0.9V65c0-0.6,0.5-1,1-1h6.9c0.6,0,1,0.5,1,1v2.9c0,0.4,0.2,0.8,0.6,0.9c0.9,0.4,1.7,0.8,2.4,1.4
	c0.3,0.2,0.8,0.3,1.1,0.1l2.5-1.5c0.5-0.3,1.1-0.1,1.4,0.4l3.4,6c0.3,0.5,0.1,1.1-0.4,1.4l-2.5,1.5C87.9,78.3,87.7,78.7,87.8,79.1z
	 M83,80.5c0-4.4-3.5-7.9-7.9-7.9c-4.4,0-7.9,3.5-7.9,7.9c0,4.4,3.5,7.9,7.9,7.9c0,0,0,0,0,0C79.5,88.4,83,84.8,83,80.5z M39.5,46.3
	h-2.8c-0.9,0-1.4-0.7-2-1.4l-3-4.4c-0.5-0.7-1.1-1.4-2-1.4H11c-1.1,0-2.1,0.9-2.1,2.1v15.1h30.6V46.3z M97,18.9V66
	c0,2.5-2,4.5-4.5,4.5h-1.7l-1.3-2.3c-0.8-1.4-2.7-1.9-4.1-1.1l-2,1.2c-0.6-0.4-1.1-0.7-1.7-1V65c0-1.7-1.3-3-3-3h-3.7l0.3-1.7
	c0.2-1.1-0.2-2.2-1-3c-0.7-0.7-1.7-1.1-2.8-1.1H41.4V7.5C41.4,5,43.5,3,46,3h35.1v10.4c0,3,2.5,5.5,5.5,5.5L97,18.9z M85.6,51.2
	c0-0.5-0.4-1-1-1c0,0,0,0,0,0H54.4c-0.5,0-1,0.5-0.9,1c0,0.5,0.4,0.9,0.9,0.9h30.2C85.1,52.2,85.6,51.7,85.6,51.2
	C85.6,51.2,85.6,51.2,85.6,51.2z M85.6,38.3c0-0.5-0.4-1-1-1c0,0,0,0,0,0H54.4c-0.5,0-1,0.5-0.9,1c0,0.5,0.4,0.9,0.9,0.9h30.2
	C85.1,39.2,85.6,38.8,85.6,38.3C85.6,38.3,85.6,38.3,85.6,38.3z M85.6,25.3c0-0.5-0.4-1-1-1c0,0,0,0,0,0H54.4c-0.5,0-1,0.5-0.9,1
	c0,0.5,0.4,0.9,0.9,0.9h30.2C85.1,26.3,85.6,25.9,85.6,25.3C85.6,25.3,85.6,25.3,85.6,25.3z M86.6,17H96L83,4v9.5
	C83,15.4,84.6,17,86.6,17z"/>
</svg>
