<?xml version="1.0" encoding="utf-8"?>
<!-- Generator: Adobe Illustrator 26.5.0, SVG Export Plug-In . SVG Version: 6.00 Build 0)  -->
<svg version="1.1" id="Layer_1" xmlns="http://www.w3.org/2000/svg" xmlns:xlink="http://www.w3.org/1999/xlink" x="0px" y="0px"
	 viewBox="0 0 96 120" style="enable-background:new 0 0 96 120;" xml:space="preserve">
<style type="text/css">
	.st0{fill:#2A8E5C;}
</style>
<path class="st0" d="M66.1,4.9c0.7,0,1.3,0.6,1.3,1.3v3.3c-0.1,0.7,0.5,1.3,1.2,1.4C69.4,11,70,10.5,70,9.8c0-0.1,0-0.2,0-0.2V6.2
	c0-2.2-1.8-3.9-3.9-3.9H24.3c-0.2,0-0.3,0-0.5,0.1c-0.1,0-0.2,0.1-0.2,0.2c-0.1,0-0.1,0.1-0.2,0.1L7.9,17.8l0,0
	c-0.2,0.2-0.4,0.6-0.4,0.9v59.5c0,2.2,1.8,3.9,3.9,3.9h10.3c0.7-0.1,1.2-0.7,1.2-1.4c-0.1-0.6-0.6-1.1-1.2-1.2H11.4
	c-0.7,0-1.3-0.6-1.4-1.3V20.1h11.6c2.2,0,3.9-1.8,3.9-3.9V4.9H66.1z M21.6,17.5H12L23,6.7v9.4C23,16.9,22.4,17.5,21.6,17.5
	L21.6,17.5z M84.6,13.8H42.8c-0.2,0-0.3,0-0.5,0.1c-0.1,0-0.2,0.1-0.2,0.1c-0.1,0-0.1,0.1-0.2,0.1l0,0L26.3,29.3l0,0
	c-0.2,0.2-0.4,0.6-0.4,0.9v59.5c0,2.2,1.8,3.9,3.9,3.9h54.7c2.2,0,3.9-1.8,3.9-3.9v-72C88.5,15.6,86.8,13.8,84.6,13.8z M41.5,18.2
	v9.4c0,0.7-0.5,1.4-1.3,1.4c0,0,0,0-0.1,0h-9.7L41.5,18.2z M85.9,89.8c0,0.7-0.6,1.3-1.3,1.3H29.9c-0.7,0-1.3-0.6-1.4-1.3V31.5h11.6
	c2.2,0,3.9-1.8,3.9-3.9V16.4h40.5c0.7,0,1.3,0.6,1.3,1.4L85.9,89.8z M82.7,38.3c0,0.7-0.6,1.3-1.3,1.3l0,0H44
	c-0.7-0.1-1.2-0.7-1.2-1.4c0.1-0.6,0.6-1.1,1.2-1.2h37.4C82.1,37.1,82.7,37.6,82.7,38.3z M82.7,49.2c0,0.7-0.6,1.3-1.3,1.3H40.2
	c-0.7-0.1-1.2-0.7-1.2-1.4c0.1-0.6,0.6-1.1,1.2-1.2h41.2C82.1,47.9,82.7,48.5,82.7,49.2C82.7,49.2,82.7,49.2,82.7,49.2z M82.7,60.1
	c0,0.7-0.6,1.3-1.3,1.3l0,0H40.2c-0.7-0.1-1.2-0.7-1.2-1.4c0.1-0.6,0.6-1.1,1.2-1.2h41.2C82.1,58.8,82.7,59.3,82.7,60.1z M82.7,70.9
	c0,0.7-0.6,1.3-1.3,1.3H40.2c-0.7-0.1-1.2-0.7-1.2-1.4c0.1-0.6,0.6-1.1,1.2-1.2h41.2C82.1,69.6,82.7,70.2,82.7,70.9z M82.7,81.8
	c0,0.7-0.6,1.3-1.3,1.3h0H40.8c-0.7-0.1-1.2-0.7-1.2-1.4c0.1-0.6,0.6-1.1,1.2-1.2h40.6C82.1,80.5,82.7,81.1,82.7,81.8z"/>
</svg>
