<?xml version="1.0" encoding="utf-8"?>
<!-- Generator: Adobe Illustrator 26.5.0, SVG Export Plug-In . SVG Version: 6.00 Build 0)  -->
<svg version="1.1" id="Layer_1" xmlns="http://www.w3.org/2000/svg" xmlns:xlink="http://www.w3.org/1999/xlink" x="0px" y="0px"
	 viewBox="0 0 512 640" style="enable-background:new 0 0 512 640;" xml:space="preserve">
<style type="text/css">
	.st0{fill:#2A8E5C;}
</style>
<g>
	<path class="st0" d="M427.7,479.7c-0.5,0-1-0.1-1.5-0.2l-87.3-26.9H238.2l-100.1,22.4c-2.7,0.6-5.4-1.1-6-3.8s1.1-5.4,3.8-6
		l100.7-22.5c0.4-0.1,0.7-0.1,1.1-0.1h102c0.5,0,1,0.1,1.5,0.2l88,27.2c2.6,0.8,4.1,3.6,3.3,6.2
		C431.8,478.2,429.9,479.7,427.7,479.7L427.7,479.7z"/>
	<path class="st0" d="M496.5,500.5h-480c-2.8,0-5-2.2-5-5c0-0.8,0.2-1.6,0.5-2.3l32-63.7c0.7-1.5,2.2-2.5,3.8-2.7l64-8.5
		c1.4-0.2,2.8,0.2,3.9,1.1l48,40.2c2.1,1.8,2.2,5,0.4,7.1c-1.8,2-4.7,2.2-6.8,0.6L111,428.6l-59.2,7.8l-27.2,54.1h464l-11.8-25.4
		l-43.6-14.9l-29.9,20.2c-2.3,1.5-5.4,0.8-6.9-1.5c-1.4-2.2-0.9-5.2,1.3-6.7l32-21.6c1.3-0.9,2.9-1.1,4.4-0.6l48,16.4
		c1.3,0.5,2.3,1.4,2.9,2.6l16,34.4c1.2,2.5,0.1,5.5-2.4,6.6C497.9,500.4,497.2,500.5,496.5,500.5L496.5,500.5z"/>
	<path class="st0" d="M128.5,441.7c-2.8,0-5-2.2-5-5V196.5h-22v229c0,2.8-2.2,5-5,5s-5-2.2-5-5v-234c0-2.8,2.2-5,5-5h32
		c2.8,0,5,2.2,5,5v245.2C133.5,439.5,131.3,441.7,128.5,441.7z"/>
	<path class="st0" d="M497,292.5H160.5c-2.8,0-5-2.2-5-5v-32c0-2.8,2.2-5,5-5l0,0H497c2.8,0,5,2.2,5,5l0,0v32
		C502,290.2,499.8,292.5,497,292.5z M165.5,282.5H492v-22H165.5L165.5,282.5z"/>
	<path class="st0" d="M497,356.5H160.5c-2.8,0-5-2.2-5-5v-32c0-2.8,2.2-5,5-5H497c2.8,0,5,2.2,5,5v32
		C502,354.2,499.8,356.5,497,356.5z M165.5,346.5H492v-22H165.5L165.5,346.5z"/>
	<path class="st0" d="M497,420.5H160.5c-2.8,0-5-2.2-5-5v-32c0-2.8,2.2-5,5-5H497c2.8,0,5,2.2,5,5v32
		C502,418.3,499.8,420.5,497,420.5z M165.5,410.5H492v-22H165.5L165.5,410.5z"/>
	<path class="st0" d="M497,228.4H160.5c-2.8,0-5-2.2-5-5v-32c0-2.8,2.2-5,5-5H497c2.8,0,5,2.2,5,5v32
		C502,226.2,499.8,228.4,497,228.4z M165.5,218.4H492v-22H165.5L165.5,218.4z"/>
	<path class="st0" d="M497,164.4H160.5c-2.8,0-5-2.2-5-5v-32c0-2.8,2.2-5,5-5H497c2.8,0,5,2.2,5,5v32
		C502,162.2,499.8,164.4,497,164.4z M165.5,154.4H492v-22H165.5L165.5,154.4z"/>
	<path class="st0" d="M497,100.4H160.5c-2.8,0-5-2.2-5-5v-32c0-2.8,2.2-5,5-5H497c2.8,0,5,2.2,5,5v32
		C502,98.2,499.8,100.4,497,100.4z M165.5,90.4H492v-22H165.5L165.5,90.4z"/>
	<path class="st0" d="M184.5,132.4c-2.8,0-5-2.2-5-5v-32c0-2.8,2.2-5,5-5s5,2.2,5,5v32C189.5,130.2,187.2,132.4,184.5,132.4z"/>
	<path class="st0" d="M233,132.4c-2.8,0-5-2.2-5-5v-32c0-2.8,2.2-5,5-5s5,2.2,5,5v32C238,130.2,235.8,132.4,233,132.4z"/>
	<path class="st0" d="M281,132.4c-2.8,0-5-2.2-5-5v-32c0-2.8,2.2-5,5-5s5,2.2,5,5v32C286,130.2,283.8,132.4,281,132.4z"/>
	<path class="st0" d="M329.5,132.4c-2.8,0-5-2.2-5-5v-32c0-2.8,2.2-5,5-5s5,2.2,5,5v32C334.5,130.2,332.2,132.4,329.5,132.4z"/>
	<path class="st0" d="M376.5,132.4c-2.8,0-5-2.2-5-5v-32c0-2.8,2.2-5,5-5s5,2.2,5,5v32C381.5,130.2,379.2,132.4,376.5,132.4z"/>
	<path class="st0" d="M425,132.4c-2.8,0-5-2.2-5-5v-32c0-2.8,2.2-5,5-5s5,2.2,5,5v32C430,130.2,427.8,132.4,425,132.4z"/>
	<path class="st0" d="M473,132.4c-2.8,0-5-2.2-5-5v-32c0-2.8,2.2-5,5-5s5,2.2,5,5v32C478,130.2,475.8,132.4,473,132.4z"/>
	<path class="st0" d="M184.5,68.5c-2.8,0-5-2.2-5-5v-32c0-2.8,2.2-5,5-5s5,2.2,5,5v32C189.5,66.3,187.2,68.5,184.5,68.5z"/>
	<path class="st0" d="M233,68.5c-2.8,0-5-2.2-5-5v-48c0-2.8,2.2-5,5-5s5,2.2,5,5v48C238,66.3,235.8,68.5,233,68.5z"/>
	<path class="st0" d="M281,68.5c-2.8,0-5-2.2-5-5v-48c0-2.8,2.2-5,5-5s5,2.2,5,5v48C286,66.3,283.8,68.5,281,68.5z"/>
	<path class="st0" d="M329.5,68.5c-2.8,0-5-2.2-5-5v-48c0-2.8,2.2-5,5-5s5,2.2,5,5v48C334.5,66.3,332.2,68.5,329.5,68.5z"/>
	<path class="st0" d="M376.5,68.5c-2.8,0-5-2.2-5-5v-48c0-2.8,2.2-5,5-5s5,2.2,5,5v48C381.5,66.3,379.2,68.5,376.5,68.5z"/>
	<path class="st0" d="M425,68.5c-2.8,0-5-2.2-5-5v-48c0-2.8,2.2-5,5-5s5,2.2,5,5v48C430,66.3,427.8,68.5,425,68.5z"/>
	<path class="st0" d="M473,68.5c-2.8,0-5-2.2-5-5v-32c0-2.8,2.2-5,5-5s5,2.2,5,5v32C478,66.3,475.8,68.5,473,68.5z"/>
	<path class="st0" d="M184.5,196.5c-2.8,0-5-2.2-5-5v-32c0-2.8,2.2-5,5-5s5,2.2,5,5v32C189.5,194.3,187.2,196.5,184.5,196.5z"/>
	<path class="st0" d="M233,196.5c-2.8,0-5-2.2-5-5v-32c0-2.8,2.2-5,5-5s5,2.2,5,5v32C238,194.3,235.8,196.5,233,196.5z"/>
	<path class="st0" d="M281,196.5c-2.8,0-5-2.2-5-5v-32c0-2.8,2.2-5,5-5s5,2.2,5,5v32C286,194.3,283.8,196.5,281,196.5z"/>
	<path class="st0" d="M329.5,196.5c-2.8,0-5-2.2-5-5v-32c0-2.8,2.2-5,5-5s5,2.2,5,5v32C334.5,194.3,332.2,196.5,329.5,196.5z"/>
	<path class="st0" d="M376.5,196.5c-2.8,0-5-2.2-5-5v-32c0-2.8,2.2-5,5-5s5,2.2,5,5v32C381.5,194.3,379.2,196.5,376.5,196.5z"/>
	<path class="st0" d="M425,196.5c-2.8,0-5-2.2-5-5v-32c0-2.8,2.2-5,5-5s5,2.2,5,5v32C430,194.3,427.8,196.5,425,196.5z"/>
	<path class="st0" d="M473,196.5c-2.8,0-5-2.2-5-5v-32c0-2.8,2.2-5,5-5s5,2.2,5,5v32C478,194.3,475.8,196.5,473,196.5z"/>
	<path class="st0" d="M184.5,260.4c-2.8,0-5-2.2-5-5v-32c0-2.8,2.2-5,5-5s5,2.2,5,5v32C189.5,258.2,187.2,260.4,184.5,260.4z"/>
	<path class="st0" d="M233,260.4c-2.8,0-5-2.2-5-5v-32c0-2.8,2.2-5,5-5s5,2.2,5,5v32C238,258.2,235.8,260.4,233,260.4z"/>
	<path class="st0" d="M281,260.4c-2.8,0-5-2.2-5-5v-32c0-2.8,2.2-5,5-5s5,2.2,5,5v32C286,258.2,283.8,260.4,281,260.4z"/>
	<path class="st0" d="M329.5,260.4c-2.8,0-5-2.2-5-5v-32c0-2.8,2.2-5,5-5s5,2.2,5,5v32C334.5,258.2,332.2,260.4,329.5,260.4z"/>
	<path class="st0" d="M376.5,260.4c-2.8,0-5-2.2-5-5v-32c0-2.8,2.2-5,5-5s5,2.2,5,5v32C381.5,258.2,379.2,260.4,376.5,260.4z"/>
	<path class="st0" d="M425,260.4c-2.8,0-5-2.2-5-5v-32c0-2.8,2.2-5,5-5s5,2.2,5,5v32C430,258.2,427.8,260.4,425,260.4z"/>
	<path class="st0" d="M473,260.4c-2.8,0-5-2.2-5-5v-32c0-2.8,2.2-5,5-5s5,2.2,5,5v32C478,258.2,475.8,260.4,473,260.4z"/>
	<path class="st0" d="M184.5,324.5c-2.8,0-5-2.2-5-5v-32c0-2.8,2.2-5,5-5s5,2.2,5,5v32C189.5,322.2,187.2,324.5,184.5,324.5z"/>
	<path class="st0" d="M233,324.5c-2.8,0-5-2.2-5-5v-32c0-2.8,2.2-5,5-5s5,2.2,5,5v32C238,322.2,235.8,324.5,233,324.5z"/>
	<path class="st0" d="M281,324.5c-2.8,0-5-2.2-5-5v-32c0-2.8,2.2-5,5-5s5,2.2,5,5v32C286,322.2,283.8,324.5,281,324.5z"/>
	<path class="st0" d="M329.5,324.5c-2.8,0-5-2.2-5-5v-32c0-2.8,2.2-5,5-5s5,2.2,5,5v32C334.5,322.2,332.2,324.5,329.5,324.5z"/>
	<path class="st0" d="M376.5,324.5c-2.8,0-5-2.2-5-5v-32c0-2.8,2.2-5,5-5s5,2.2,5,5v32C381.5,322.2,379.2,324.5,376.5,324.5z"/>
	<path class="st0" d="M425,324.5c-2.8,0-5-2.2-5-5v-32c0-2.8,2.2-5,5-5s5,2.2,5,5v32C430,322.2,427.8,324.5,425,324.5z"/>
	<path class="st0" d="M473,324.5c-2.8,0-5-2.2-5-5v-32c0-2.8,2.2-5,5-5s5,2.2,5,5v32C478,322.2,475.8,324.5,473,324.5z"/>
	<path class="st0" d="M184.5,388.5c-2.8,0-5-2.2-5-5v-32c0-2.8,2.2-5,5-5s5,2.2,5,5v32C189.5,386.2,187.2,388.5,184.5,388.5z"/>
	<path class="st0" d="M233,388.5c-2.8,0-5-2.2-5-5v-32c0-2.8,2.2-5,5-5s5,2.2,5,5v32C238,386.2,235.8,388.5,233,388.5z"/>
	<path class="st0" d="M281,388.5c-2.8,0-5-2.2-5-5v-32c0-2.8,2.2-5,5-5s5,2.2,5,5v32C286,386.2,283.8,388.5,281,388.5z"/>
	<path class="st0" d="M329.5,388.5c-2.8,0-5-2.2-5-5v-32c0-2.8,2.2-5,5-5s5,2.2,5,5v32C334.5,386.2,332.2,388.5,329.5,388.5z"/>
	<path class="st0" d="M376.5,388.5c-2.8,0-5-2.2-5-5v-32c0-2.8,2.2-5,5-5s5,2.2,5,5v32C381.5,386.2,379.2,388.5,376.5,388.5z"/>
	<path class="st0" d="M425,388.5c-2.8,0-5-2.2-5-5v-32c0-2.8,2.2-5,5-5s5,2.2,5,5v32C430,386.2,427.8,388.5,425,388.5z"/>
	<path class="st0" d="M473,388.5c-2.8,0-5-2.2-5-5v-32c0-2.8,2.2-5,5-5s5,2.2,5,5v32C478,386.2,475.8,388.5,473,388.5z"/>
	<path class="st0" d="M184.5,464.4c-2.8,0-5-2.2-5-5v-43.7c0-2.8,2.2-5,5-5s5,2.2,5,5v43.7C189.5,462.2,187.2,464.4,184.5,464.4z"/>
	<path class="st0" d="M233,452.7c-2.8,0-5-2.2-5-5v-32c0-2.8,2.2-5,5-5s5,2.2,5,5v32C238,450.5,235.8,452.7,233,452.7z"/>
	<path class="st0" d="M281,451.7c-2.8,0-5-2.2-5-5v-31c0-2.8,2.2-5,5-5s5,2.2,5,5v31C286,449.5,283.8,451.7,281,451.7z"/>
	<path class="st0" d="M329.5,451.7c-2.8,0-5-2.2-5-5v-31c0-2.8,2.2-5,5-5s5,2.2,5,5v31C334.5,449.5,332.2,451.7,329.5,451.7z"/>
	<path class="st0" d="M376.5,462.7c-2.8,0-5-2.2-5-5v-41.9c0-2.8,2.2-5,5-5s5,2.2,5,5v41.9C381.5,460.4,379.2,462.7,376.5,462.7z"/>
	<path class="st0" d="M425,452.7c-2.8,0-5-2.2-5-5v-32c0-2.8,2.2-5,5-5s5,2.2,5,5v32C430,450.5,427.8,452.7,425,452.7z"/>
	<path class="st0" d="M473,462.7c-2.8,0-5-2.2-5-5v-41.9c0-2.8,2.2-5,5-5s5,2.2,5,5v41.9C478,460.4,475.8,462.7,473,462.7z"/>
	<path class="st0" d="M96.5,227.7h-16c-2.8,0-5-2.2-5-5s2.2-5,5-5h16c2.8,0,5,2.2,5,5S99.3,227.7,96.5,227.7z"/>
	<path class="st0" d="M96.5,282.1h-16c-2.8,0-5-2.2-5-5s2.2-5,5-5h16c2.8,0,5,2.2,5,5S99.3,282.1,96.5,282.1z"/>
	<path class="st0" d="M96.5,336.4h-16c-2.8,0-5-2.2-5-5s2.2-5,5-5h16c2.8,0,5,2.2,5,5S99.3,336.4,96.5,336.4z"/>
	<path class="st0" d="M96.5,390.8h-16c-2.8,0-5-2.2-5-5s2.2-5,5-5h16c2.8,0,5,2.2,5,5S99.3,390.8,96.5,390.8z"/>
	<path class="st0" d="M160.5,227.7h-32c-2.8,0-5-2.2-5-5s2.2-5,5-5h32c2.8,0,5,2.2,5,5S163.3,227.7,160.5,227.7z"/>
	<path class="st0" d="M160.5,282.1h-32c-2.8,0-5-2.2-5-5s2.2-5,5-5h32c2.8,0,5,2.2,5,5S163.3,282.1,160.5,282.1z"/>
	<path class="st0" d="M160.5,336.4h-32c-2.8,0-5-2.2-5-5s2.2-5,5-5h32c2.8,0,5,2.2,5,5S163.3,336.4,160.5,336.4z"/>
	<path class="st0" d="M160.5,390.8h-32c-2.8,0-5-2.2-5-5s2.2-5,5-5h32c2.8,0,5,2.2,5,5S163.3,390.8,160.5,390.8z"/>
	<path class="st0" d="M400,42.8H256c-2.8,0-5-2.2-5-5s2.2-5,5-5h144c2.8,0,5,2.2,5,5S402.8,42.8,400,42.8z"/>
	<path class="st0" d="M160.5,133.3H16c-2.8,0-5-2.2-5-5c0-1.1,0.4-2.2,1.1-3.1l26-33c0.9-1.2,2.4-1.9,3.9-1.9h135c2.8,0,5,2.2,5,5
		s-2.2,5-5,5H44.4l-18.1,23h134.2c2.8,0,5,2.2,5,5C165.5,131.1,163.3,133.3,160.5,133.3z"/>
	<path class="st0" d="M60,131.3c-2.8,0-5-2.2-5-5l0,0v-31c0-2.8,2.2-5,5-5s5,2.2,5,5v31C65,129.1,62.8,131.3,60,131.3L60,131.3z"/>
	<path class="st0" d="M42,164.3c-2.8,0-5-2.2-5-5v-31c0-2.8,2.2-5,5-5s5,2.2,5,5v31C47,162.1,44.8,164.3,42,164.3z"/>
	<path class="st0" d="M42,220.3c-2.8,0-5-2.2-5-5v-31c0-2.8,2.2-5,5-5s5,2.2,5,5v31C47,218.1,44.8,220.3,42,220.3z"/>
	<path class="st0" d="M92,131.3c-2.8,0-5-2.2-5-5l0,0v-31c0-2.8,2.2-5,5-5s5,2.2,5,5v31C97,129.1,94.8,131.3,92,131.3L92,131.3z"/>
	<path class="st0" d="M126,131.3c-2.8,0-5-2.2-5-5l0,0v-31c0-2.8,2.2-5,5-5c2.8,0,5,2.2,5,5v31C131,129.1,128.8,131.3,126,131.3
		L126,131.3z"/>
	<path class="st0" d="M160,131.3c-2.8,0-5-2.2-5-5l0,0v-31c0-2.8,2.2-5,5-5s5,2.2,5,5v31C165,129.1,162.8,131.3,160,131.3L160,131.3
		z"/>
	<path class="st0" d="M42,192.3c-1.8,0-3.4-1-4.3-2.5L22,162.6c-1.4-2.4-0.6-5.4,1.8-6.8c0.8-0.4,1.6-0.7,2.5-0.7h31.4
		c2.8,0,5,2.2,5,5c0,0.9-0.2,1.7-0.7,2.5l-15.7,27.2C45.4,191.4,43.8,192.3,42,192.3z M35,165.1l7,12.2l7-12.2H35z"/>
	<path class="st0" d="M42,248.3c-10.5,0-19-8.5-19-19s8.5-19,19-19c2.8,0,5,2.2,5,5s-2.2,5-5,5c-5,0-9,4-9,9s4,9,9,9s9-4,9-9
		c0-2.8,2.2-5,5-5s5,2.2,5,5C61,239.8,52.5,248.3,42,248.3z"/>
</g>
</svg>
