<?xml version="1.0" encoding="utf-8"?>
<!-- Generator: Adobe Illustrator 26.5.0, SVG Export Plug-In . SVG Version: 6.00 Build 0)  -->
<svg version="1.1" id="Layer_1" xmlns="http://www.w3.org/2000/svg" xmlns:xlink="http://www.w3.org/1999/xlink" x="0px" y="0px"
	 viewBox="0 0 100 125" style="enable-background:new 0 0 100 125;" xml:space="preserve">
<style type="text/css">
	.st0{fill:#2A8E5C;}
</style>
<path class="st0" d="M28.4,31.1h3.8c0.4,1.8,1.1,3.4,2,4.9l-2.7,2.7c-0.5,0.5-0.5,1.2,0,1.7l4.7,4.7c0.5,0.5,1.2,0.5,1.7,0l2.7-2.7
	c1.5,0.9,3.2,1.6,4.9,2v3.8c0,0.7,0.5,1.2,1.2,1.2h6.6c0.7,0,1.2-0.5,1.2-1.2v-3.8c1.8-0.4,3.4-1.1,4.9-2l2.7,2.7
	c0.5,0.5,1.2,0.5,1.7,0l4.7-4.7c0.5-0.5,0.5-1.2,0-1.7L65.8,36c0.9-1.5,1.6-3.2,2-4.9h3.8c0.7,0,1.2-0.5,1.2-1.2v-6.6
	c0-0.7-0.5-1.2-1.2-1.2h-3.8c-0.4-1.7-1.1-3.4-2-4.9l2.7-2.7c0.5-0.5,0.5-1.2,0-1.7l-4.7-4.7c-0.5-0.5-1.2-0.5-1.7,0l-2.7,2.7
	c-1.5-0.9-3.2-1.6-4.9-2V5c0-0.7-0.5-1.2-1.2-1.2h-6.6c-0.7,0-1.2,0.5-1.2,1.2v3.8c-1.7,0.4-3.4,1.1-4.9,2l-2.7-2.7
	c-0.5-0.5-1.2-0.5-1.7,0l-4.7,4.7c-0.5,0.5-0.5,1.2,0,1.7l2.7,2.7c-0.9,1.5-1.6,3.2-2,4.9h-3.8c-0.7,0-1.2,0.5-1.2,1.2v6.6
	C27.2,30.5,27.8,31.1,28.4,31.1z M50,15.5c6.1,0,11.1,5,11.1,11.1c-0.6,14.7-21.6,14.7-22.2,0C38.9,20.5,43.9,15.5,50,15.5z
	 M66.1,52.3h19c1.6,0,3,0.9,3.8,2.5l3.8,7.6l0.9,1.7H71.5l0,0l0,0l-2.7-5.4c-1.3-2.5-3.7-4-6.4-4C63.2,53.2,64.6,52.3,66.1,52.3z
	 M0.5,61.9c1,0.1,3.7-0.2,4.4,0.3c0,0-1,1.9-0.9,1.9c0,0-1.2,0-1.3,0C1.6,64.1,0.6,63.1,0.5,61.9z M93,72c0.2,0.4,0.1,0.9,0.3,1.4
	c-0.1-0.1-0.1-0.3-0.1-0.4c0,3.1-4,3.1-4.1,0c0,0.1,0,0.2-0.1,0.3c0-1,0.4-2.2,1.5-2.6c0.6-0.2,1.4,0,1.9,0.4l0,0
	C92.7,71.4,92.9,71.7,93,72z M98.3,85.3c0.1-0.1,0.2-0.2,0.3-0.4c0,0.5,0.2,1.8-0.6,1.9h-4.7c-0.2,0-0.3-0.1-0.4-0.2
	c0.6,0,2.6,0.1,3.2-0.1C96.9,86.4,97.7,85.9,98.3,85.3z M99.6,71.7l-0.8,5v0.1l-1,5.2c-0.2,1.4-1.3,2.5-2.5,2.5H80.1l0.3-1.7h4.1
	c0.7,0,1.3-0.8,1-1.5l-1.3-3C83.7,77,82.5,76,81,75.6l0,0l0,0l0,0l0,0c-0.1-0.5-0.3-1-0.6-1.5h6.8c1.1,4.6,7.2,4.4,8.1-0.2
	c-0.3,0-0.7,0.2-1.1,0.1C96.1,73.9,98,72.9,99.6,71.7z M82.2,79.2l0.6,1.5h-2.1l0.3-1.9l0,0c0-0.2,0.1-0.5,0.1-0.7
	C81.7,78.3,82,78.7,82.2,79.2z M77.6,94c0.1-0.1,0.2-0.3,0.3-0.4c-0.1,0.8,0.3,2.6-0.8,2.6h-5.3c-0.3,0-0.6-0.2-0.7-0.5
	c0.5,0,3.1,0,3.5,0C75.7,95.5,76.8,94.8,77.6,94z M71.6,79.5c1,4-4.5,5.2-4.8,0.9C66.8,77.1,70.7,76.5,71.6,79.5z M73.7,79.1
	c-0.6-2.6-3.5-4.5-6.1-3.3c-1.4,0.6-2.5,2-2.8,3.5H38.5c-0.1-0.4-0.2-0.8-0.4-1.2c-1.9-4-7.4-3.3-8.4,1c-2-0.5-3.8-1.8-5.1-3.4l0,0
	l0,0l0,0l0,0c0.3-0.7,0.7-1.3,1.2-1.8c0.8-0.9,2-1.2,3.2-1.3c0.3,0.1,45.2,0,45.5,0c1.1,0,2.2,0.4,3.1,1.2l0,0
	c0.6,0.5,0.9,1.2,1.2,1.9c-0.5,0.6-1,1.1-1.6,1.6c-0.1,0.1-0.1,0.1-0.2,0.1l-0.1,0.1c-0.2,0.2-0.5,0.4-0.8,0.5l0,0
	C75.4,78.4,74.5,78.8,73.7,79.1z M22.1,77.4c0,0.1,0,0.1,0,0.2l0,0l0,0l0,0l0,0c0,0.7,0.3,2.3,0.4,3H17l0.7-1.5
	c0.4-1,1.8-1.8,3.3-1.8h1.1V77.4z M78.1,79.2c-0.3,0.2-0.5,0.4-0.8,0.6l0,0c-1.1,0.7-2.3,1.2-3.6,1.5c-0.9,5.2-7.8,5.3-8.9,0.2
	c0.4,0,1.2,0.1,1.5-0.2c-0.3,0.3-1.2,0.2-1.5,0.2H38.5c-0.3,0-1.3,0.1-1.5-0.2c0.3,0.3,1.1,0.2,1.5,0.2c-1.1,5.2-8,5-8.9-0.2
	c-2-0.4-3.8-1.4-5.3-2.7l0.5,3.2l0,0l0,0c0.3,1.9,1.2,6.9,1.5,8.9c0.3,1.7,1.5,2.9,3,2.9H74c1.5,0,2.7-1.2,3-2.9l1-5.9l0.5-2.9v-0.1
	l0,0l0,0l0.5-3.2C78.7,78.7,78.4,78.9,78.1,79.2z M62.6,90.9c-0.2,0.3-0.5,0.5-0.9,0.5H41.6c-0.7,0-1.3-0.8-1-1.5l1.4-3.4
	c0.9-2,3.2-3.4,5.8-3.4h7.5c2.6,0,5,1.3,5.8,3.4l1.4,3.4C62.8,90.2,62.8,90.6,62.6,90.9z M29.4,95.6h2.9c-0.1,0.3-0.4,0.5-0.7,0.5
	h-5.3c-1.1,0-0.8-1.9-0.8-2.6C26.3,94.8,27.8,95.6,29.4,95.6z M4.7,86.6h2.4c-0.1,0.1-0.3,0.2-0.4,0.2H1.9c-0.8,0-0.6-1.3-0.6-1.9
	C2.2,86,3.4,86.6,4.7,86.6z M22.9,82.8l0.3,1.7H4.7c-1.2,0-2.3-1.1-2.5-2.5l-0.9-5.2l-0.9-5.1c1.3,1,2.8,1.8,4.4,2.2
	c0.9,4.6,7,4.8,8.1,0.2H23c-0.2,0.4-0.4,0.8-0.5,1.3l0,0h-1.4c-2.4,0-4.5,1.2-5.3,3.1l-1.3,3c-0.1,0.3-0.1,0.7,0.1,1
	c0.2,0.3,0.5,0.5,0.9,0.5h7.4V82.8z M11.3,69.4c-0.4-0.3-0.8-0.5-1.3-0.7l0,0c-0.7-0.2-1.5-0.2-2.2,0c-1.4,0.4-2.5,1.6-2.9,3
	c0,0,0,0,0,0.1l0,0c-1.3-0.4-2.6-1.1-3.6-2.1l0,0c-0.2-0.2-0.5-0.5-0.7-0.7c0.6-1.8,2.2-2.8,3.9-2.6c0.1,0,26.1,0,26.2,0
	c0,0-0.5,1.1-0.6,1.1L28,70.6l0,0c-1.3,0.1-2.5,0.7-3.5,1.5H12.7C12.6,70.9,12.1,70,11.3,69.4z M69.9,65.6c0.5,1.1,1.9,3.8,2.4,4.8
	H31c0.6-1.2,1.9-3.6,2.4-4.8l3-5.9c0.3-0.6,0.8-1.2,1.3-1.7c0.9-0.7,2-1.2,3.1-1.2h21.6c1,0,2,0.3,2.7,0.9l0,0
	c1.5,0.9,2.9,4.6,3.7,6C69,63.8,69.8,65.4,69.9,65.6z M96,64.1l-0.9-1.9l0,0c0.7-0.6,3.6-0.2,4.4-0.3c-0.1,1.2-1.1,2.2-2.2,2.2
	C97.2,64.1,96,64.1,96,64.1L96,64.1L96,64.1z M93.4,69.2c-1-0.7-2.3-0.9-3.4-0.5l0,0c-0.3,0.1-0.6,0.2-0.8,0.4
	c-0.1,0-0.1,0.1-0.2,0.1c-1,0.6-1.6,1.6-1.8,2.7h-8.4c-0.7-0.6-1.4-1-2.3-1.3l0,0c-0.6-0.2-1.1-0.2-1.7-0.3l-2.1-4.2h22.7h0.2
	c1.7-0.1,3.3,0.9,3.9,2.6c-1.1,1.4-2.6,2.4-4.3,2.9c-0.2-0.9-0.8-1.7-1.5-2.3C93.6,69.4,93.5,69.3,93.4,69.2
	C93.5,69.3,93.4,69.3,93.4,69.2z M10.9,73c0,0.2,0,0.3,0.1,0.4C10.9,73.3,10.9,73.2,10.9,73c-0.1,3-3.9,3.1-4.1,0.1
	c-0.1-1.5,1.4-3.1,2.9-2.2c0,0,0,0,0.1,0.1l0,0l0,0c0.1,0,0.1,0.1,0.1,0.1c0.1,0.1,0.3,0.2,0.4,0.4C10.7,71.8,10.9,72.4,10.9,73z
	 M31.8,64.1H6.3c0.5-1,4.1-8.1,4.7-9.3c0.8-1.5,2.2-2.5,3.8-2.5h19.1c1.8,0,3.3,1.3,4.1,3c-0.2,0.1-0.3,0.2-0.5,0.3
	c-0.3,0.2-0.7,0.4-1,0.7l0,0C34.7,57.6,32.9,62.3,31.8,64.1L31.8,64.1L31.8,64.1z M22.4,75.5L22.4,75.5L22.4,75.5L22.4,75.5z
	 M36.5,79.8c0.5,3.9-4.7,4.5-4.8,0.5c0,0.2,0,0.3-0.1,0.4c0.1-0.4,0.1-0.9,0.2-1.3c0.1-0.5,0.4-1,0.8-1.4
	C34.1,76.7,36.3,78,36.5,79.8z M22.4,75.5C22.4,75.4,22.4,75.4,22.4,75.5L22.4,75.5C22.5,75.4,22.4,75.4,22.4,75.5z M31.3,81.1
	C31.3,81.1,31.2,81.2,31.3,81.1C31.2,81.1,31.3,81.1,31.3,81.1L31.3,81.1z M29.9,81.3c0.2,0,0.5,0.1,0.7,0.1
	C30.4,81.4,30.1,81.3,29.9,81.3z M71.7,80.5c0,0.1,0.1,0.3,0.2,0.4C71.8,80.8,71.8,80.7,71.7,80.5z M72.9,81.3
	c0.2,0,0.4-0.1,0.6-0.1c-0.3,0-0.5,0.1-0.8,0.1C72.8,81.4,72.8,81.4,72.9,81.3z M72.1,81.1L72.1,81.1L72.1,81.1
	C72.1,81.2,72.1,81.1,72.1,81.1z M59.3,87.3l0.8,1.9H43.2l0.8-1.9c0.5-1.2,2.1-2.1,3.9-2.1h7.5C57.2,85.2,58.8,86.1,59.3,87.3z"/>
</svg>
