<?xml version="1.0" encoding="utf-8"?>
<!-- Generator: Adobe Illustrator 26.5.0, SVG Export Plug-In . SVG Version: 6.00 Build 0)  -->
<svg version="1.1" id="Layer_1" xmlns="http://www.w3.org/2000/svg" xmlns:xlink="http://www.w3.org/1999/xlink" x="0px" y="0px"
	 viewBox="0 0 64 80" style="enable-background:new 0 0 64 80;" xml:space="preserve">
<style type="text/css">
	.st0{fill:#2A8E5C;}
</style>
<path class="st0" d="M18,32h6.6l2.7,2.7c0.2,0.2,0.4,0.3,0.7,0.3h11h4c1.7,0,3-1.3,3-3c0-0.8-0.3-1.5-0.8-2c0.5-0.5,0.8-1.2,0.8-2
	s-0.3-1.5-0.8-2c0.5-0.5,0.8-1.2,0.8-2c0-0.8-0.3-1.5-0.8-2c0.4-0.4,0.7-0.9,0.7-1.5c0.1-0.9-0.1-1.8-0.7-2.4S43.9,17,43,17h-6.6
	l0.6-1.7c0-0.1,0.1-0.2,0.1-0.3v-4.1C37,8.7,35.3,7,33.1,7c-1.7,0-3.2,1.1-3.7,2.8l-1.3,4.6L24.7,17H18c-0.6,0-1,0.4-1,1v13
	C17,31.6,17.4,32,18,32z M29.6,15.8c0.2-0.1,0.3-0.3,0.4-0.5l1.4-4.9c0.2-0.8,1-1.3,1.8-1.3c1,0,1.9,0.8,1.9,1.9v4l-0.9,2.8
	c-0.1,0.3-0.1,0.6,0.1,0.9c0.2,0.3,0.5,0.4,0.8,0.4h8c0.3,0,0.6,0.1,0.8,0.4c0.2,0.2,0.3,0.5,0.2,0.8c-0.1,0.5-0.6,0.8-1.1,0.8H37v2
	h5.9H43c0.6,0,1,0.4,1,1s-0.4,1-1,1h-6v2h6c0.6,0,1,0.4,1,1s-0.4,1-1,1h-6v2h6c0.6,0,1,0.4,1,1c0,0.6-0.4,1-1,1h-4H28.4L26,30.6
	V18.5L29.6,15.8z M19,19h5v11h-5V19z"/>
<path class="st0" d="M61,54h-6.3c0.3-0.6,0.4-1.3,0.4-2c0-2.6-2.1-4.8-4.7-5c-0.7-1.5-1.9-2.6-3.3-3.3c5-4.5,7.8-10.9,7.8-17.7
	C55,12.8,44.2,2,31,2S7,12.8,7,26c0,5.8,2.1,11.4,5.9,15.7C10.1,40.5,7.5,40,7.3,40c-0.3,0-0.5,0-0.8,0.2c-0.2,0.2-0.4,0.4-0.4,0.7
	c0,0.3-0.8,6.4,1.1,9.6c0.8,1.3,1.8,2.4,2.9,3.5H3c-0.6,0-1,0.4-1,1c0,3.9,3.1,7,7,7h46c3.9,0,7-3.1,7-7C62,54.4,61.6,54,61,54z
	 M48.9,48.4c0.2,0.4,0.6,0.7,1,0.7l0.3,0c1.7,0,3,1.3,3,3c0,0.7-0.3,1.4-0.8,2h-4.6c-0.2-0.1-0.4-0.1-0.6,0h-4.1c0,0,0,0,0-0.1
	c0-0.1,0-0.3-0.1-0.4c0-0.2-0.1-0.4-0.1-0.6c0-0.2-0.1-0.3-0.1-0.5c0-0.2-0.1-0.3-0.1-0.5c-0.1-0.2-0.1-0.4-0.2-0.5
	c0-0.1-0.1-0.3-0.1-0.4c-0.1-0.2-0.1-0.4-0.2-0.6c-0.1-0.1-0.1-0.2-0.2-0.3c-0.1-0.2-0.2-0.4-0.3-0.6c-0.1-0.1-0.1-0.2-0.2-0.3
	c-0.1-0.2-0.2-0.4-0.3-0.5c0-0.1-0.1-0.1-0.1-0.2c-0.3-0.5-0.7-0.9-1.1-1.3c0,0,0,0,0,0c0,0,0-0.1,0.1-0.1c0.1-0.2,0.2-0.3,0.3-0.5
	c0.1-0.1,0.1-0.1,0.2-0.2c0.1-0.1,0.2-0.2,0.3-0.3c0.1-0.1,0.1-0.1,0.2-0.2c0.1-0.1,0.2-0.2,0.3-0.2c0.1,0,0.2-0.1,0.2-0.1
	c0.1-0.1,0.2-0.1,0.3-0.2c0.1,0,0.2-0.1,0.2-0.1c0.1-0.1,0.3-0.1,0.4-0.1c0.1,0,0.2-0.1,0.2-0.1c0.1,0,0.3-0.1,0.4-0.1
	c0.1,0,0.1,0,0.2,0c0.2,0,0.4,0,0.7,0c0.3,0,0.5,0,0.8,0.1C46.8,45.4,48.3,46.6,48.9,48.4z M18.3,54c-0.1-0.1-0.2-0.2-0.2-0.3
	c-0.1-0.1-0.2-0.2-0.3-0.3c-0.1-0.1-0.2-0.3-0.3-0.5c-0.1-0.1-0.2-0.3-0.3-0.4c-0.1-0.2-0.2-0.3-0.3-0.5c-0.1-0.2-0.2-0.3-0.2-0.5
	c-0.1-0.2-0.2-0.4-0.2-0.5c-0.1-0.2-0.2-0.3-0.2-0.5c-0.1-0.2-0.1-0.4-0.2-0.6c-0.1-0.2-0.1-0.4-0.2-0.5c-0.1-0.2-0.1-0.4-0.2-0.6
	c0-0.2-0.1-0.3-0.1-0.5c-0.1-0.2-0.1-0.5-0.1-0.7c0-0.1-0.1-0.3-0.1-0.4c-0.1-0.4-0.1-0.8-0.1-1.2c0-0.3,0-0.6,0-1c0,0,0,0,0,0
	c0-0.3,0.1-0.7,0.2-1.1c0,0,0,0,0,0c0.1-0.4,0.2-0.8,0.3-1.1c0,0,0,0,0-0.1c0.7-2.1,1.9-4.1,2.6-5.2c0.6,0.5,1.5,1.4,2.4,2.4
	c0.1,0.1,0.1,0.1,0.2,0.2c0,0,0,0,0,0c1.6,1.9,3.2,4.4,3.1,6.8c0,0.2,0,0.3,0,0.5c-0.1,0.2-0.3,0.3-0.4,0.5c0,0,0,0.1-0.1,0.1
	c-0.7,0.8-1.2,1.7-1.6,2.7c0,0,0,0.1,0,0.1c-0.1,0.3-0.2,0.6-0.3,0.9c0,0.1,0,0.1-0.1,0.2c-0.1,0.3-0.1,0.5-0.2,0.8
	c0,0.1,0,0.2-0.1,0.3c0,0.3-0.1,0.5-0.1,0.8c0,0.1,0,0.2,0,0.2c0,0,0,0,0,0.1L18.3,54L18.3,54z M23.3,53.7c0-0.2,0-0.3,0.1-0.5
	c0,0,0,0,0-0.1c0.2-1,0.6-2,1.2-2.9c0,0,0-0.1,0.1-0.1c0.1-0.2,0.2-0.3,0.4-0.5c0-0.1,0.1-0.1,0.1-0.2c0.1-0.1,0.2-0.3,0.4-0.4
	c0.1-0.1,0.1-0.1,0.2-0.2c0,0,0,0,0,0v0c0.2-0.2,0.4-0.4,0.7-0.6c0,0,0,0,0.1,0c0.2-0.2,0.4-0.3,0.6-0.5c0.1-0.1,0.1-0.1,0.2-0.1
	c0.2-0.1,0.3-0.2,0.5-0.3c0.1-0.1,0.2-0.1,0.3-0.2c0.1-0.1,0.3-0.1,0.4-0.2c0.1-0.1,0.3-0.1,0.4-0.2c0.1-0.1,0.3-0.1,0.4-0.1
	c0.1-0.1,0.3-0.1,0.4-0.1c0.1,0,0.3-0.1,0.4-0.1c0.1,0,0.3-0.1,0.4-0.1c0.2,0,0.3-0.1,0.5-0.1c0.1,0,0.2,0,0.4-0.1
	c0.3,0,0.6,0,0.9,0c0.3,0,0.6,0,0.8,0c0.2,0,0.4,0,0.5,0.1c0.1,0,0.2,0,0.3,0c0.2,0,0.5,0.1,0.7,0.2c0,0,0.1,0,0.1,0
	c0.2,0.1,0.5,0.1,0.7,0.2c0,0,0,0,0,0c0.2,0.1,0.5,0.2,0.7,0.3c0,0,0,0,0,0c0.2,0.1,0.5,0.2,0.7,0.4c0,0,0,0,0,0
	c0.2,0.1,0.4,0.3,0.7,0.4c0,0,0,0,0,0c0.2,0.2,0.4,0.3,0.6,0.5c0,0,0,0,0,0c0.5,0.4,0.9,0.9,1.3,1.4c0,0,0,0,0,0.1
	c0.2,0.2,0.3,0.5,0.5,0.7c0,0,0.1,0.1,0.1,0.1c0.1,0.2,0.2,0.4,0.3,0.7c0,0.1,0.1,0.1,0.1,0.2c0.1,0.2,0.2,0.5,0.3,0.7
	c0,0.1,0,0.1,0.1,0.2c0.1,0.3,0.2,0.5,0.2,0.8c0,0,0,0.1,0,0.1c0.1,0.3,0.1,0.6,0.1,0.9H23.2C23.2,53.9,23.3,53.8,23.3,53.7z M31,4
	c12.1,0,22,9.9,22,22c0,6.7-2.9,12.8-8.1,17c-0.1,0-0.3,0-0.4,0c-0.1,0-0.2,0-0.4,0c0,0-0.1,0-0.1,0c-0.3,0-0.5,0-0.8,0.1
	c0,0-0.1,0-0.1,0c-1.6,0.2-3.1,1-4.2,2.3c-0.1,0.1-0.1,0.2-0.2,0.3c-0.1,0.1-0.2,0.3-0.3,0.4c0,0,0,0,0,0c-0.1-0.1-0.3-0.2-0.5-0.3
	c-0.1-0.1-0.2-0.1-0.3-0.2c-0.2-0.1-0.3-0.2-0.5-0.3c-0.1-0.1-0.2-0.1-0.4-0.2c-0.2-0.1-0.3-0.2-0.5-0.2c-0.1-0.1-0.3-0.1-0.4-0.2
	c-0.2-0.1-0.5-0.2-0.7-0.2c-0.2-0.1-0.4-0.1-0.6-0.1c-0.1,0-0.3-0.1-0.4-0.1c-0.2,0-0.4-0.1-0.6-0.1c-0.1,0-0.2,0-0.3,0
	c-0.3,0-0.7,0-1,0c-0.3,0-0.7,0-1,0.1c-0.1,0-0.2,0-0.3,0c-0.3,0-0.6,0.1-0.8,0.1c-0.1,0-0.1,0-0.2,0c-0.7,0.1-1.3,0.3-2,0.6
	c0,0-0.1,0-0.1,0.1c-0.3,0.1-0.5,0.2-0.8,0.4c0,0-0.1,0-0.1,0.1c-0.3,0.2-0.5,0.3-0.8,0.5c0-0.3-0.1-0.7-0.2-1c0,0,0-0.1,0-0.1
	c-0.1-0.3-0.2-0.6-0.3-0.9c0-0.1-0.1-0.2-0.1-0.4c-0.1-0.2-0.2-0.4-0.3-0.7c-0.1-0.1-0.1-0.3-0.2-0.4c-0.1-0.2-0.2-0.4-0.3-0.6
	c-0.1-0.1-0.2-0.3-0.2-0.4c-0.1-0.2-0.2-0.4-0.3-0.5c-0.1-0.1-0.2-0.3-0.3-0.4c-0.1-0.2-0.2-0.3-0.4-0.5c-0.1-0.1-0.2-0.3-0.3-0.4
	c-0.1-0.2-0.2-0.3-0.4-0.4c-0.1-0.1-0.2-0.2-0.3-0.4c-0.1-0.1-0.2-0.3-0.4-0.4c-0.1-0.1-0.2-0.2-0.3-0.3c-0.1-0.1-0.2-0.2-0.3-0.4
	c-0.1-0.1-0.2-0.2-0.3-0.3c-0.1-0.1-0.2-0.2-0.3-0.3c-0.1-0.1-0.2-0.2-0.3-0.3c-0.1-0.1-0.2-0.2-0.3-0.3c-0.1-0.1-0.2-0.2-0.2-0.2
	c-0.1-0.1-0.2-0.2-0.3-0.2c-0.1-0.1-0.1-0.1-0.2-0.2c-0.1-0.1-0.1-0.1-0.2-0.2c-0.1,0-0.1-0.1-0.2-0.1c-0.1-0.1-0.1-0.1-0.2-0.1
	c0,0-0.1-0.1-0.1-0.1c-0.1,0-0.1-0.1-0.1-0.1C18.6,35,18.3,35,18,35l0,0h0c-0.1,0-0.1,0-0.2,0.1c-0.1,0-0.1,0-0.2,0.1c0,0,0,0,0,0
	c-0.1,0.1-0.2,0.2-0.3,0.3c-0.1,0.1-1.3,1.8-2.4,4.1c0,0,0,0,0,0c-0.1,0.3-0.3,0.6-0.4,0.9c0,0,0,0,0,0.1C10.9,36.5,9,31.4,9,26
	C9,13.9,18.9,4,31,4z M9,49.5c-1.1-1.8-1.1-5.2-1-7.3c1.2,0.3,3.3,0.9,5.2,1.9c0,0,0,0,0,0.1c0,0.3-0.1,0.5-0.1,0.8
	c0,0.1,0,0.1,0,0.2c0,0.3,0,0.6,0,0.9c0,0.4,0.1,0.8,0.1,1.3c0,0.1,0,0.3,0.1,0.4c0.1,0.3,0.1,0.6,0.2,0.9c0,0.1,0.1,0.3,0.1,0.4
	c0.1,0.4,0.2,0.8,0.3,1.1c0,0,0,0.1,0,0.1c0.1,0.4,0.3,0.8,0.4,1.2c0,0.1,0.1,0.2,0.1,0.3c0.1,0.3,0.3,0.6,0.4,0.8
	c0.1,0.1,0.1,0.2,0.2,0.3c0.2,0.3,0.3,0.6,0.5,0.8c0,0.1,0.1,0.1,0.1,0.2c0,0,0,0,0,0h-2.2C11.7,52.8,10.1,51.2,9,49.5z M55,60H9
	c-2.4,0-4.4-1.7-4.9-4h9.2h4.6h0h4.3h20h5.3h0.1h5.2h7.1C59.4,58.3,57.4,60,55,60z"/>
<rect x="31.2" y="48" class="st0" width="2" height="3"/>
<rect x="26.2" y="49.6" transform="matrix(0.7071 -0.7071 0.7071 0.7071 -28.1051 34.1478)" class="st0" width="2" height="2.8"/>
<rect x="35.8" y="50" transform="matrix(0.7071 -0.7071 0.7071 0.7071 -25.1763 41.2188)" class="st0" width="2.8" height="2"/>
</svg>
