<?xml version="1.0" encoding="utf-8"?>
<!-- Generator: Adobe Illustrator 26.5.0, SVG Export Plug-In . SVG Version: 6.00 Build 0)  -->
<svg version="1.1" id="Layer_1" xmlns="http://www.w3.org/2000/svg" xmlns:xlink="http://www.w3.org/1999/xlink" x="0px" y="0px"
	 viewBox="0 0 95 118.8" style="enable-background:new 0 0 95 118.8;" xml:space="preserve">
<style type="text/css">
	.st0{fill-rule:evenodd;clip-rule:evenodd;fill:#2A8E5C;}
</style>
<path class="st0" d="M55.5,18c9.4,0,17,7.6,17,17s-7.6,17-17,17c0,0,0,0,0,0v0c-9.4,0-17-7.6-17-17S46.1,18,55.5,18
	C55.5,18,55.5,18,55.5,18L55.5,18L55.5,18z M22,66.1L14,69l5.6,15.6l8-2.8c0,0,0.1,0,0.1,0c0.8-0.3,1.3-1.2,1-2.1c0,0,0-0.1,0-0.1
	l-4.4-12.4c-0.1-0.4-0.5-0.8-0.9-1C22.9,66,22.5,66,22,66.1L22,66.1z M30.9,79.4c0-0.2-0.1-0.4-0.2-0.6l-4.4-12.5c0,0,0-0.1,0-0.1
	c1.1-3.4,4.6-5.3,8.1-4.4l7.5,2l0,0l16.4,4.4c0.9,0.2,1.7,0.8,2.2,1.7v0c0.5,0.8,0.6,1.8,0.4,2.7l0,0l0,0c-0.5,1.9-2.5,3-4.4,2.5
	l-17.9-4.8c-0.6-0.2-1.2,0.2-1.4,0.8c-0.2,0.6,0.2,1.2,0.8,1.4l17.9,4.8c3.1,0.8,6.3-1,7.2-4.1c0.1-0.4,0.2-0.8,0.2-1.2l12.3-8.3
	c0.1,0,0.1-0.1,0.2-0.1l0,0c0.8-0.4,1.7-0.6,2.6-0.4c0.8,0.1,1.6,0.6,2,1.3c0,0,0.1,0.1,0.1,0.2c0.5,0.9,0.7,1.9,0.5,2.8
	c-0.2,0.9-0.7,1.7-1.4,2.2c-4,2.8-7.1,5.2-9.6,7.1l0,0c-5.2,4-8.1,6.1-11.1,6.8c-3.6,0.8-7.9-0.3-17.3-2.7c-1.9-0.5-3.9-1-5.4-1.4
	l-0.3,0L30.9,79.4L30.9,79.4z M38.6,56.2l0.4-2.9c7.9,7.2,19.6,8.4,28.8,3.1l0,0c10-5.8,14.7-17.8,11.2-28.8
	c-0.2-0.6-0.8-0.9-1.4-0.7c-0.6,0.2-0.9,0.8-0.7,1.4c3.2,10-1,20.9-10.1,26.2l0,0c-8,4.6-18.1,3.8-25.3-2l1.9,0.2
	c0.6,0.1,1.2-0.4,1.2-1s-0.4-1.2-1-1.2l-5.2-0.6c-0.6-0.1-1.2,0.4-1.2,1l-0.6,5.2c-0.1,0.6,0.4,1.2,1,1.2S38.5,56.8,38.6,56.2
	C38.6,56.2,38.6,56.2,38.6,56.2z M72.4,14.2l-0.3,2.5c-7.9-7.2-19.6-8.5-28.9-3.1h0c-10,5.8-14.7,17.8-11.2,28.8
	c0.2,0.6,0.8,0.9,1.4,0.7s0.9-0.8,0.7-1.4c-3.2-10,1-20.9,10.1-26.2l0,0c8.3-4.8,18.7-3.8,25.9,2.5l-2.5-0.3c-0.6-0.1-1.2,0.3-1.3,1
	c-0.1,0.6,0.3,1.2,1,1.3c0,0,0,0,0,0l5.2,0.6c0.6,0.1,1.2-0.4,1.2-1l0.6-5.2c0.1-0.6-0.4-1.2-1-1.2C73,13.2,72.4,13.6,72.4,14.2
	C72.4,14.2,72.4,14.2,72.4,14.2z M55.5,26.9c-2.6,0-4.7,2.1-4.7,4.7s2.1,4.7,4.7,4.7c2.6,0,4.7-2.1,4.7-4.7
	C60.2,28.9,58.1,26.9,55.5,26.9C55.5,26.9,55.5,26.9,55.5,26.9z M45.4,45.8c3.6-5.5,11-7.1,16.6-3.5c1.4,0.9,2.6,2.1,3.5,3.5
	c0.1-0.1,0.3-0.2,0.4-0.4c5.8-5.8,5.8-15.1,0-20.9c-2.8-2.8-6.5-4.3-10.4-4.3l0,0c-8.1,0-14.7,6.6-14.8,14.7c0,3.9,1.6,7.7,4.3,10.4
	C45.2,45.5,45.3,45.6,45.4,45.8z"/>
</svg>
