<?xml version="1.0" encoding="utf-8"?>
<!-- Generator: Adobe Illustrator 26.5.0, SVG Export Plug-In . SVG Version: 6.00 Build 0)  -->
<svg version="1.1" id="Layer_1" xmlns="http://www.w3.org/2000/svg" xmlns:xlink="http://www.w3.org/1999/xlink" x="0px" y="0px"
	 viewBox="0 0 100 125" style="enable-background:new 0 0 100 125;" xml:space="preserve">
<style type="text/css">
	.st0{fill-rule:evenodd;clip-rule:evenodd;fill:#2A8E5C;}
</style>
<path class="st0" d="M57.6,42.2c-1.4,0-1.4-2.2,0-2.2h14.2c1.4,0,1.4,2.2,0,2.2C71.8,42.2,57.6,42.2,57.6,42.2z M33.7,68.4v5.1
	l0.9-0.9c0.4-0.5,1.2-0.5,1.6,0l0.8,0.9v-5.1C37,68.4,33.7,68.4,33.7,68.4z M39.2,68.4h8.4v24.5H23.1V68.4h8.4v8c0,1,1.3,1.5,2,0.7
	l1.9-2.1l2,2.2c0.7,0.8,1.9,0.3,1.9-0.7L39.2,68.4C39.2,68.4,39.2,68.4,39.2,68.4z M57,62.2v8.3l1.7-1.5c0.4-0.4,1-0.4,1.5,0
	l1.6,1.5v-8.3H57z M64,62.2l0,10.7c0,0.9-1.1,1.4-1.8,0.8l-2.7-2.4l-2.7,2.4c-0.7,0.7-1.9,0.2-1.9-0.8V62.2H44.1v4h4.6
	c0.6,0,1.1,0.5,1.1,1.1v25.5h24.9V62.2L64,62.2L64,62.2z M28.5,42.2v8.6l2.8-1.9c0.4-0.3,0.9-0.2,1.2,0l2.8,1.9v-8.6H28.5z
	 M37.6,42.2h14.3V60H43c-0.6,0-1.1,0.5-1.1,1.1v5.1H22c-0.6,0-1.1,0.5-1.1,1.1V82H12V42.2h14.3v10.7c0,0.9,1,1.4,1.8,0.9l3.9-2.6
	l3.9,2.7c0.7,0.5,1.7,0,1.7-0.9L37.6,42.2L37.6,42.2L37.6,42.2z M20.9,84.2v9.7c0,0.6,0.5,1.1,1.1,1.1h53.8c0.6,0,1.1-0.5,1.1-1.1
	V83.5h10c1.7,0,3.3-1.3,3.3-3.1V13.6c0-1.8-1.6-3.1-3.3-3.1H73.3v-0.4c0-1.5-1.2-2.7-2.7-2.7h-0.4c-1-1.5-2.8-2.4-4.6-2.4h-7.1
	c-1.8,0-3.6,0.9-4.6,2.4h-0.4c-1.5,0-2.7,1.2-2.7,2.7v0.4H37.2c-1.7,0-3.3,1.3-3.3,3.1V40h-23c-0.6,0-1.1,0.5-1.1,1.1v42.1
	c0,0.6,0.5,1.1,1.1,1.1C10.9,84.2,20.9,84.2,20.9,84.2z M36.1,40V13.6c0-0.6,0.6-0.9,1.1-0.9h13.6v3.1h-10c-0.6,0-1.1,0.5-1.1,1.1
	V40C39.7,40,36.1,40,36.1,40z M41.9,40H53c0.6,0,1.1,0.5,1.1,1.1V60h21.8c0.6,0,1.1,0.5,1.1,1.1v15h5.4V17.9H41.9L41.9,40L41.9,40
	L41.9,40z M76.9,78.3h6.5c0.6,0,1.1-0.6,1.1-1.2V16.8c0-0.6-0.5-1.1-1.1-1.1l-10,0v-3.1h13.6c0.5,0,1.1,0.3,1.1,0.9v66.8
	c0,0.6-0.6,0.9-1.1,0.9h-10V78.3L76.9,78.3L76.9,78.3z M57.6,56.9c-1.4,0-1.4-2.2,0-2.2h14.2c1.4,0,1.4,2.2,0,2.2
	C71.8,56.9,57.6,56.9,57.6,56.9z M68.6,9c0.2,0.4,0.6,0.7,1,0.7h1.1c0.2,0,0.5,0.2,0.5,0.5v5.6H53v-5.6c0-0.2,0.2-0.5,0.5-0.5h1.1
	c0.5,0,0.8-0.3,1-0.7c0.6-1.1,1.7-1.8,3-1.8h7.1C66.9,7.2,68,7.9,68.6,9L68.6,9L68.6,9z M57.6,32c-1.4,0-1.4-2.2,0-2.2h18.5
	c1.4,0,1.4,2.2,0,2.2C76.1,32,57.6,32,57.6,32z M57.6,27.4c-1.4,0-1.4-2.2,0-2.2h14.2c1.4,0,1.4,2.2,0,2.2
	C71.8,27.4,57.6,27.4,57.6,27.4z M46.3,24.1h6.8c0.6,0,1.1,0.5,1.1,1.1V32c0,0.6-0.5,1.1-1.1,1.1h-6.8c-0.6,0-1.1-0.5-1.1-1.1v-6.8
	C45.2,24.6,45.7,24.1,46.3,24.1L46.3,24.1z M52,26.3v4.6h-4.6v-4.6C47.4,26.3,52,26.3,52,26.3z M57.6,46.8c-1.4,0-1.4-2.2,0-2.2
	h18.5c1.4,0,1.4,2.2,0,2.2H57.6z"/>
</svg>
