<?xml version="1.0" encoding="utf-8"?>
<!-- Generator: Adobe Illustrator 26.5.0, SVG Export Plug-In . SVG Version: 6.00 Build 0)  -->
<svg version="1.1" id="Layer_1" xmlns="http://www.w3.org/2000/svg" xmlns:xlink="http://www.w3.org/1999/xlink" x="0px" y="0px"
	 viewBox="0 0 16 20" style="enable-background:new 0 0 16 20;" xml:space="preserve">
<style type="text/css">
	.st0{fill-rule:evenodd;clip-rule:evenodd;fill:#2A8E5C;}
</style>
<path class="st0" d="M15,4.6H1v8.9c0,0.1,0.1,0.2,0.2,0.2h13.4c0.1,0,0.2-0.1,0.2-0.2C15,13.5,15,4.6,15,4.6z M2.5,12.6h2.8
	c0.1,0,0.2-0.1,0.2-0.2s-0.1-0.2-0.2-0.2H2.5c-0.1,0-0.2,0.1-0.2,0.2S2.3,12.6,2.5,12.6z M10.2,10.4c0-0.1-0.1-0.2-0.2-0.2H8.7
	c-0.1,0-0.2,0.1-0.2,0.2v1.2c0,0.1,0.1,0.2,0.2,0.2h1.2c0.1,0,0.2-0.1,0.2-0.2V10.4z M9.7,10.6v0.7H9v-0.7H9.7z M2.5,11.4h4.8
	c0.1,0,0.2-0.1,0.2-0.2s-0.1-0.2-0.2-0.2H2.5c-0.1,0-0.2,0.1-0.2,0.2S2.3,11.4,2.5,11.4z M10.9,11.2h2.9c0.1,0,0.2-0.1,0.2-0.2
	s-0.1-0.2-0.2-0.2h-2.9c-0.1,0-0.2,0.1-0.2,0.2S10.7,11.2,10.9,11.2z M7,5.4H2.5c-0.1,0-0.2,0.1-0.2,0.2v4.2c0,0.1,0.1,0.2,0.2,0.2
	H7c0.1,0,0.2-0.1,0.2-0.2V5.6C7.3,5.5,7.2,5.4,7,5.4z M10.2,8.2c0-0.1-0.1-0.2-0.2-0.2H8.7C8.6,8,8.5,8.1,8.5,8.2v1.2
	c0,0.1,0.1,0.2,0.2,0.2h1.2c0.1,0,0.2-0.1,0.2-0.2V8.2z M3.8,5.8H2.7v3.7h4.1V5.8H5.7V7c0,0.1-0.1,0.2-0.2,0.2H4
	C3.9,7.2,3.8,7.1,3.8,7C3.8,7,3.8,5.8,3.8,5.8z M9.7,8.5v0.7H9V8.5H9.7z M10.9,9.1h2.9C13.9,9.1,14,9,14,8.9c0-0.1-0.1-0.2-0.2-0.2
	h-2.9c-0.1,0-0.2,0.1-0.2,0.2C10.6,9,10.7,9.1,10.9,9.1z M9,5.8H8.7c-0.1,0-0.2,0.1-0.2,0.2v1.2c0,0.1,0.1,0.2,0.2,0.2h1.2
	c0.1,0,0.2-0.1,0.2-0.2V7c0-0.1-0.1-0.2-0.2-0.2S9.7,6.9,9.7,7H9V6.3h0c0.1,0,0.2-0.1,0.2-0.2S9.1,5.8,9,5.8z M10.9,6.9h2.9
	c0.1,0,0.2-0.1,0.2-0.2s-0.1-0.2-0.2-0.2h-2.9c-0.1,0-0.2,0.1-0.2,0.2S10.7,6.9,10.9,6.9z M9.4,6.9l0.8-0.5c0.1-0.1,0.1-0.2,0.1-0.3
	c-0.1-0.1-0.2-0.1-0.3-0.1L9.2,6.5C9.1,6.5,9,6.7,9.1,6.8C9.2,6.9,9.3,7,9.4,6.9z M4.3,5.8h1v0.9h-1V5.8z M1,4.2H15V2.5
	c0-0.1-0.1-0.2-0.2-0.2H1.3C1.1,2.2,1,2.3,1,2.5C1,2.5,1,4.2,1,4.2z M2.2,3.7h0.5C2.9,3.7,3,3.6,3,3.4S2.9,3.2,2.7,3.2H2.2
	C2.1,3.2,2,3.3,2,3.4S2.1,3.7,2.2,3.7z M3.7,3.7h0.5c0.1,0,0.2-0.1,0.2-0.2S4.3,3.2,4.2,3.2H3.7c-0.1,0-0.2,0.1-0.2,0.2
	S3.5,3.7,3.7,3.7z M5.1,3.7h0.5c0.1,0,0.2-0.1,0.2-0.2S5.7,3.2,5.6,3.2H5.1C5,3.2,4.9,3.3,4.9,3.4S5,3.7,5.1,3.7z M9,3.7h4.8
	c0.1,0,0.2-0.1,0.2-0.2s-0.1-0.2-0.2-0.2H9c-0.1,0-0.2,0.1-0.2,0.2S8.8,3.7,9,3.7z"/>
</svg>
