<?xml version="1.0" encoding="utf-8"?>
<!-- Generator: Adobe Illustrator 26.5.0, SVG Export Plug-In . SVG Version: 6.00 Build 0)  -->
<svg version="1.1" id="Layer_1" xmlns="http://www.w3.org/2000/svg" xmlns:xlink="http://www.w3.org/1999/xlink" x="0px" y="0px"
	 viewBox="0 0 64 80" style="enable-background:new 0 0 64 80;" xml:space="preserve">
<style type="text/css">
	.st0{fill:#2A8E5C;}
</style>
<path class="st0" d="M52,52c0,1.7-1.3,3-3,3h-8v2h9c2.2,0,4-1.8,4-4v-9h-2V52z"/>
<rect x="50" y="35" class="st0" width="6" height="3"/>
<rect x="52" y="40" class="st0" width="2" height="2"/>
<path class="st0" d="M36,3H6C4.3,3,3,4.3,3,6v52c0,1.7,1.3,3,3,3l0,0h30c1.7,0,3-1.3,3-3l0,0V6C39,4.3,37.7,3,36,3z M8,8h12
	c1.7,0,3,1.3,3,3s-1.3,3-3,3H8c-1.7,0-3-1.3-3-3S6.3,8,8,8z M20,17v2H8v-2H20z M5,25c0-1.7,1.3-3,3-3h12c1.7,0,3,1.3,3,3s-1.3,3-3,3
	H8C6.3,28,5,26.7,5,25z M28,59H14c-1.7,0-3-1.3-3-3s1.3-3,3-3h14c1.7,0,3,1.3,3,3S29.7,59,28,59z M35,50c0,0.6-0.4,1-1,1H8
	c-0.6,0-1-0.4-1-1V34c0-0.6,0.4-1,1-1h26c0.6,0,1,0.4,1,1V50z M31,31c-3.3,0-6-2.7-6-6s2.7-6,6-6s6,2.7,6,6S34.3,31,31,31z M31,17
	c-3.3,0-6-2.7-6-6s2.7-6,6-6s6,2.7,6,6S34.3,17,31,17z"/>
<path class="st0" d="M31,21c-2.2,0-4,1.8-4,4s1.8,4,4,4s4-1.8,4-4S33.2,21,31,21z M34,26h-3v-2h3V26z"/>
<path class="st0" d="M31,7c-2.2,0-4,1.8-4,4s1.8,4,4,4s4-1.8,4-4S33.2,7,31,7z M30.3,11.7l-2-2l1.4-1.4l2,2L30.3,11.7z"/>
<path class="st0" d="M9,49h24V35H9V49z M11,38h4v-1h2v1h14v2H17v1h-2v-1h-4V38z M11,44h13v-1h2v1h5v2h-5v1h-2v-1H11V44z"/>
<rect x="49" y="19" class="st0" width="8" height="6"/>
<path class="st0" d="M45,15v18h16V15H45z M50,31h-2v-2h2V31z M54,31h-2v-2h2V31z M58,31h-2v-2h2V31z M59,26c0,0.6-0.4,1-1,1H48
	c-0.6,0-1-0.4-1-1v-8c0-0.6,0.4-1,1-1h10c0.6,0,1,0.4,1,1V26z"/>
<path class="st0" d="M8,12h12c0.6,0,1-0.4,1-1s-0.4-1-1-1H8c-0.6,0-1,0.4-1,1S7.4,12,8,12z"/>
<path class="st0" d="M28,55H14c-0.6,0-1,0.4-1,1s0.4,1,1,1h14c0.6,0,1-0.4,1-1S28.6,55,28,55z"/>
<path class="st0" d="M20,26c0.6,0,1-0.4,1-1s-0.4-1-1-1H8c-0.6,0-1,0.4-1,1s0.4,1,1,1H20z"/>
</svg>
