<?xml version="1.0" encoding="utf-8"?>
<!-- Generator: Adobe Illustrator 26.5.0, SVG Export Plug-In . SVG Version: 6.00 Build 0)  -->
<svg version="1.1" id="Layer_1" xmlns="http://www.w3.org/2000/svg" xmlns:xlink="http://www.w3.org/1999/xlink" x="0px" y="0px"
	 viewBox="0 0 66 82.5" style="enable-background:new 0 0 66 82.5;" xml:space="preserve">
<style type="text/css">
	.st0{fill:#2A8E5C;}
</style>
<g>
	<path class="st0" d="M51.7,34v-6h1c0.6,0,1-0.4,1-1v-2.1c0.6-0.2,1.2-0.4,1.8-0.7l1.5,1.5c0.4,0.4,1,0.4,1.4,0l2.9-2.9
		c0.2-0.2,0.3-0.4,0.3-0.7s-0.1-0.5-0.3-0.7l-1.5-1.5c0.3-0.6,0.5-1.2,0.7-1.8h2.1c0.6,0,1-0.4,1-1V13c0-0.6-0.4-1-1-1h-2.1
		c-0.2-0.6-0.4-1.2-0.7-1.8l1.5-1.5c0.2-0.2,0.3-0.4,0.3-0.7s-0.1-0.5-0.3-0.7l-2.9-2.9C58,4,57.4,4,57,4.4l-1.5,1.5
		c-0.6-0.3-1.2-0.5-1.8-0.7V3.1c0-0.6-0.4-1-1-1h-4.1c-0.6,0-1,0.4-1,1v2.1c-0.6,0.2-1.2,0.4-1.8,0.7l-1.5-1.5
		c-0.2-0.2-0.4-0.3-0.7-0.3S43.2,4.2,43,4.4l-2.9,2.9c-0.4,0.4-0.4,1,0,1.4l1.5,1.5c-0.3,0.6-0.5,1.2-0.7,1.8h-2.1c-0.6,0-1,0.4-1,1
		v4c0,0.6,0.4,1,1,1h2.1c0.2,0.6,0.4,1.2,0.7,1.8l-1.5,1.5c-0.2,0.2-0.3,0.4-0.3,0.7s0.1,0.5,0.3,0.7l2.9,2.9c0.4,0.4,1,0.4,1.4,0
		l1.5-1.5c0.6,0.3,1.2,0.5,1.8,0.7v2.1c0,0.6,0.4,1,1,1h1v5.9c-3.8,0.1-7.3,1.5-10,4.1l-8.1-8.1l0.8-0.8c0.2-0.2,0.3-0.4,0.3-0.7
		s-0.1-0.5-0.3-0.7l-1.5-1.5c0.3-0.6,0.5-1.2,0.7-1.8h2.1c0.6,0,1-0.4,1-1v-4.1c0-0.6-0.4-1-1-1h-2.1c-0.2-0.6-0.4-1.2-0.7-1.8
		l1.5-1.5c0.4-0.4,0.4-1,0-1.4l-2.9-2.9c-0.2-0.2-0.4-0.3-0.7-0.3s-0.5,0.1-0.7,0.3l-1.5,1.5c-0.6-0.3-1.2-0.5-1.8-0.7V9.5
		c0-0.6-0.4-1-1-1h-4.1c-0.6,0-1,0.4-1,1v2.1c-0.6,0.2-1.2,0.4-1.8,0.7l-1.5-1.5c-0.2-0.2-0.4-0.3-0.7-0.3l0,0
		c-0.3,0-0.5,0.1-0.7,0.3l-2.9,2.9c-0.4,0.4-0.4,1,0,1.4l1.5,1.5c-0.3,0.6-0.5,1.2-0.7,1.8h-2c-0.6,0-1,0.4-1,1v4.1c0,0.6,0.4,1,1,1
		H12c0.2,0.6,0.4,1.2,0.7,1.8l-1.5,1.5c-0.4,0.4-0.4,1,0,1.4l2.9,2.9c0.2,0.2,0.4,0.3,0.7,0.3s0.5-0.1,0.7-0.3l1.5-1.5
		c0.6,0.3,1.2,0.5,1.8,0.7v2.1c0,0.6,0.4,1,1,1h4.1c0.6,0,1-0.4,1-1v-2.1c0.6-0.2,1.2-0.4,1.8-0.7l1.5,1.5c0.4,0.4,1,0.4,1.4,0
		l0.7-0.7l8.1,8.1c-2.2,2.7-3.4,6-3.4,9.5c0,0.4,0,0.7,0.1,1.1h-8.2v-1c0-0.6-0.4-1-1-1h-2.1c-0.2-0.6-0.4-1.2-0.7-1.8l1.5-1.5
		c0.4-0.4,0.4-1,0-1.4l-2.9-2.9c-0.2-0.2-0.4-0.3-0.7-0.3s-0.5,0.1-0.7,0.3L18.8,42c-0.6-0.3-1.2-0.5-1.8-0.7V39c0-0.6-0.4-1-1-1
		h-4.1c-0.6,0-1,0.4-1,1v2.1c-0.6,0.2-1.2,0.4-1.8,0.7l-1.5-1.5C7.4,40.1,7.2,40,6.9,40l0,0c-0.3,0-0.5,0.1-0.7,0.3l-2.9,2.9
		c-0.4,0.4-0.4,1,0,1.4l1.5,1.5c-0.3,0.6-0.5,1.2-0.7,1.8H2c-0.6,0-1,0.4-1,1V53c0,0.6,0.4,1,1,1h2.1c0.2,0.6,0.4,1.2,0.7,1.8
		l-1.5,1.5c-0.4,0.4-0.4,1,0,1.4l2.9,2.9c0.2,0.2,0.4,0.3,0.7,0.3s0.5-0.1,0.7-0.3l1.5-1.5c0.6,0.3,1.2,0.5,1.8,0.7v2.1
		c0,0.6,0.4,1,1,1H16c0.6,0,1-0.4,1-1v-2.1c0.6-0.2,1.2-0.4,1.8-0.7l1.5,1.5c0.4,0.4,1,0.4,1.4,0l2.9-2.9c0.2-0.2,0.3-0.4,0.3-0.7
		s-0.1-0.5-0.3-0.7L23,55.8c0.3-0.6,0.5-1.2,0.7-1.8h2.1c0.6,0,1-0.4,1-1v-1h8.4c1.4,6.9,7.5,12,14.7,12c8.1,0,15-6.6,15-15
		C65,41.1,59.1,34.8,51.7,34z M48.9,23.1c-0.9-0.2-1.8-0.6-2.6-1.1c-0.4-0.3-0.9-0.2-1.2,0.1l-1.3,1.3L42.3,22l1.3-1.3
		c0.3-0.3,0.4-0.8,0.1-1.2c-0.5-0.8-0.9-1.7-1.1-2.6c-0.1-0.5-0.5-0.8-1-0.8h-1.8V14h1.8c0.5,0,0.9-0.3,1-0.8
		c0.2-0.9,0.6-1.8,1.1-2.6c0.3-0.4,0.2-0.9-0.1-1.2L42.3,8l1.5-1.5L45,7.9c0.3,0.3,0.8,0.4,1.2,0.1c0.8-0.5,1.7-0.9,2.6-1.1
		c0.5-0.1,0.8-0.5,0.8-1V4.1h2.1v1.8c0,0.5,0.3,0.9,0.8,1c0.9,0.2,1.8,0.6,2.6,1.1c0.4,0.3,0.9,0.2,1.2-0.1l1.3-1.3L59.2,8l-1.3,1.3
		c-0.3,0.3-0.4,0.8-0.1,1.2c0.5,0.8,0.9,1.7,1.1,2.6c0.1,0.5,0.5,0.8,1,0.8h1.8V16h-1.8c-0.5,0-0.9,0.3-1,0.8
		c-0.2,0.9-0.6,1.8-1.1,2.6c-0.3,0.4-0.2,0.9,0.1,1.2l1.3,1.3l-1.5,1.5l-1.3-1.3c-0.3-0.3-0.8-0.4-1.2-0.1c-0.8,0.5-1.7,0.9-2.6,1.1
		c-0.5,0.1-0.8,0.5-0.8,1v1.8h-2.1v-1.8C49.7,23.6,49.3,23.2,48.9,23.1z M27.5,28.6c-0.3-0.3-0.8-0.4-1.2-0.1
		c-0.8,0.5-1.7,0.9-2.6,1.1c-0.5,0.1-0.8,0.5-0.8,1v1.8h-2.1v-1.8c0-0.5-0.3-0.9-0.8-1c-0.9-0.2-1.8-0.6-2.6-1.1
		c-0.4-0.3-0.9-0.2-1.2,0.1l-1.3,1.3l-1.5-1.5l1.3-1.3c0.3-0.3,0.4-0.8,0.1-1.2c-0.5-0.8-0.9-1.7-1.1-2.6c-0.1-0.5-0.5-0.8-1-0.8
		h-1.8v-2.1h1.8c0.5,0,0.9-0.3,1-0.8c0.2-0.9,0.6-1.8,1.1-2.6c0.3-0.4,0.2-0.9-0.1-1.2l-1.3-1.3l1.5-1.5l1.3,1.3
		c0.3,0.3,0.8,0.4,1.2,0.1c0.8-0.5,1.7-0.9,2.6-1.1c0.5-0.1,0.8-0.5,0.8-1v-1.8h2.1v1.8c0,0.5,0.3,0.9,0.8,1
		c0.9,0.2,1.8,0.6,2.6,1.1c0.4,0.3,0.9,0.2,1.2-0.1l1.3-1.3l1.5,1.5L29,15.7c-0.3,0.3-0.4,0.8-0.1,1.2c0.5,0.8,0.9,1.7,1.1,2.6
		c0.1,0.5,0.5,0.8,1,0.8h1.8v2.1H31c-0.5,0-0.9,0.3-1,0.8c-0.2,0.9-0.6,1.8-1.1,2.6c-0.3,0.4-0.2,0.9,0.1,1.2l1.3,1.3l-0.8,0.8l0,0
		l0,0l-0.7,0.7L27.5,28.6z M24.8,52H23c-0.5,0-0.9,0.3-1,0.8c-0.2,0.9-0.6,1.8-1.1,2.6c-0.3,0.4-0.2,0.9,0.1,1.2l1.3,1.3l-1.5,1.5
		l-1.3-1.3c-0.3-0.3-0.8-0.4-1.2-0.1c-0.8,0.5-1.7,0.9-2.6,1.1c-0.5,0.1-0.8,0.5-0.8,1v1.8h-2.1V60c0-0.5-0.3-0.9-0.8-1
		c-0.9-0.2-1.8-0.6-2.6-1.1C9,57.6,8.5,57.7,8.2,58l-1.3,1.3l-1.5-1.5l1.3-1.3c0.3-0.3,0.4-0.8,0.1-1.2c-0.5-0.8-0.9-1.7-1.1-2.6
		c-0.1-0.5-0.5-0.8-1-0.8H3v-2.1h1.8c0.5,0,0.9-0.3,1-0.8c0.2-0.9,0.6-1.8,1.1-2.6c0.3-0.4,0.2-0.9-0.1-1.2L5.5,44L7,42.5l1.3,1.3
		c0.3,0.3,0.8,0.4,1.2,0.1c0.8-0.5,1.7-0.9,2.6-1.1c0.5-0.1,0.8-0.5,0.8-1V40H15v1.8c0,0.5,0.3,0.9,0.8,1c0.9,0.2,1.8,0.6,2.6,1.1
		c0.4,0.2,0.9,0.2,1.2-0.1l1.3-1.3l1.5,1.5l-1.3,1.3c-0.3,0.3-0.4,0.8-0.1,1.2c0.5,0.8,0.9,1.7,1.1,2.6c0.1,0.5,0.5,0.8,1,0.8h1.8
		V52H24.8z M55.6,43c1.4,1.4,2.2,3.3,2.2,5.3c0,2.7-1.3,4.8-3.9,5.9c-0.4,0.2-0.6,0.5-0.6,0.9l0.1,6.3c-1,0.3-2.1,0.4-3,0.5l0,0
		c-0.8,0-2,0-3-0.3l-0.1-6.4c0-0.4-0.2-0.8-0.6-0.9c-2.5-1.1-4.1-3.4-4.1-6c0-2,0.8-3.8,2.1-5.2l0.1,4.5c0,1.9,1.6,3.5,3.6,3.5l0,0
		h3.8c0.9,0,1.8-0.4,2.5-1c0.7-0.7,1-1.6,1-2.5L55.6,43z M55.4,60.7l-0.1-4.9c2.9-1.5,4.6-4.2,4.5-7.5c0-2.5-1-4.9-2.8-6.7
		c-0.8-0.8-2.1-0.7-2.9,0c-0.4,0.4-0.6,0.9-0.6,1.5l0.1,4.5c0,0.4-0.1,0.8-0.4,1.1c-0.3,0.3-0.7,0.4-1.1,0.4h-3.8
		c-0.8,0-1.5-0.7-1.5-1.5l-0.1-4.5c0-1.1-0.9-2-2-2c-0.5,0-1,0.2-1.4,0.6c-1.7,1.8-2.7,4.2-2.7,6.6c0,3.2,1.8,6,4.7,7.5l0.1,5.1
		c-5-1.9-8.4-6.6-8.4-12.2c0-7.2,5.8-13,13-13s13,5.8,13,13C63,54.2,59.9,58.7,55.4,60.7z"/>
	<path class="st0" d="M13.9,44.2c-3.7,0-6.8,3-6.8,6.8s3,6.8,6.8,6.8s6.8-3,6.8-6.8S17.7,44.2,13.9,44.2z M13.9,55.8
		c-2.6,0-4.8-2.2-4.8-4.8s2.2-4.8,4.8-4.8s4.8,2.2,4.8,4.8S16.6,55.8,13.9,55.8z"/>
	<path class="st0" d="M21.8,14.6c-3.7,0-6.8,3-6.8,6.8s3,6.8,6.8,6.8s6.8-3,6.8-6.8S25.6,14.6,21.8,14.6z M21.8,26.2
		c-2.6,0-4.8-2.2-4.8-4.8s2.2-4.8,4.8-4.8s4.8,2.2,4.8,4.8S24.5,26.2,21.8,26.2z"/>
	<path class="st0" d="M57.5,15c0-3.7-3-6.8-6.8-6.8s-6.8,3-6.8,6.8s3,6.8,6.8,6.8S57.5,18.8,57.5,15z M45.9,15
		c0-2.6,2.2-4.8,4.8-4.8s4.8,2.2,4.8,4.8s-2.2,4.8-4.8,4.8C48.1,19.8,45.9,17.7,45.9,15z"/>
</g>
</svg>
