<?xml version="1.0" encoding="utf-8"?>
<!-- Generator: Adobe Illustrator 26.5.0, SVG Export Plug-In . SVG Version: 6.00 Build 0)  -->
<svg version="1.1" id="Layer_1" xmlns="http://www.w3.org/2000/svg" xmlns:xlink="http://www.w3.org/1999/xlink" x="0px" y="0px"
	 viewBox="0 0 96 120" style="enable-background:new 0 0 96 120;" xml:space="preserve">
<style type="text/css">
	.st0{fill-rule:evenodd;clip-rule:evenodd;fill:#2A8E5C;}
</style>
<path class="st0" d="M53.1,28.5c1.8,0.5,3.4,1.2,5,2.1l2.3-2.3c1.6-1.5,4-1.5,5.6,0l1.6,1.6c1.5,1.6,1.5,4,0,5.6L65.3,38
	c0.9,1.5,1.5,3.2,2,4.9h3.4c2.2,0,4,1.8,4,4v2.3c0,2.2-1.8,4-4,4h-3.4c-0.5,1.7-1.1,3.4-2,4.9l2.4,2.4c1.5,1.6,1.5,4,0,5.6L66,67.6
	c-1.6,1.5-4,1.5-5.6,0l-2.3-2.3c-1.6,0.9-3.2,1.7-5,2.1v3.2c0,2.2-1.8,4-4,4h-2.3c-2.2,0-4-1.8-4-4v-3.2c-1.8-0.5-3.4-1.2-5-2.1
	l-2.3,2.3c-1.6,1.5-4,1.5-5.6,0L28.4,66c-1.5-1.6-1.5-4,0-5.6l2.4-2.4c-0.9-1.5-1.5-3.2-2-4.9h-3.4c-2.2,0-3.9-1.8-4-4v-2.3
	c0-2.2,1.8-3.9,4-4h3.4c0.5-1.7,1.1-3.4,2-4.9l-2.4-2.4c-1.5-1.6-1.5-4,0-5.6l1.6-1.7c1.6-1.5,4-1.5,5.6,0l2.3,2.3
	c1.6-0.9,3.2-1.7,5-2.1v-3.2c0-2.2,1.8-3.9,4-4h2.3c2.2,0,3.9,1.8,4,4L53.1,28.5L53.1,28.5z M48,0.3c3,0,5.4,2.4,5.4,5.4
	c0,2.5-1.7,4.6-4,5.2v5.7c0,0.7-0.6,1.4-1.3,1.4c-0.7,0-1.4-0.6-1.4-1.4v-5.7c-2.9-0.7-4.6-3.7-3.9-6.5C43.4,2,45.5,0.3,48,0.3z
	 M22.7,20.8c1.5-2.6,0.6-5.8-1.9-7.4s-5.8-0.6-7.4,1.9s-0.6,5.8,1.9,7.4c1.7,1,3.8,1,5.4,0l4,4c0.5,0.5,1.4,0.5,1.9,0s0.5-1.4,0-1.9
	l0,0L22.7,20.8z M16.2,16.2c1-1,2.7-1,3.8,0s1,2.7,0,3.8s-2.7,1-3.8,0c0,0,0,0,0,0C15.2,18.9,15.2,17.2,16.2,16.2z M10.9,46.7h5.7
	c0.7,0,1.4,0.6,1.4,1.3c0,0.7-0.6,1.4-1.4,1.4h-5.7c-0.7,2.9-3.7,4.6-6.5,3.8c-2.9-0.7-4.6-3.7-3.8-6.5s3.7-4.6,6.5-3.8
	C8.9,43.3,10.4,44.8,10.9,46.7z M3,48c0,1.5,1.2,2.7,2.7,2.7c1.5,0,2.7-1.2,2.7-2.7c0-1.5-1.2-2.7-2.7-2.7c0,0,0,0,0,0
	C4.2,45.3,3,46.5,3,48z M20.8,73.3c-2.6-1.5-5.8-0.6-7.4,1.9s-0.6,5.8,1.9,7.4c2.6,1.5,5.8,0.6,7.4-1.9c1-1.7,1-3.8,0-5.4l4-4
	c0.5-0.5,0.5-1.4,0-1.9c-0.5-0.5-1.4-0.5-1.9,0l0,0L20.8,73.3z M16.2,79.8c-1-1-1-2.7,0-3.8s2.7-1,3.8,0s1,2.7,0,3.8c0,0,0,0,0,0
	C18.9,80.8,17.2,80.8,16.2,79.8z M46.6,85.1v-5.7c0-0.7,0.6-1.3,1.4-1.3c0.7,0,1.3,0.6,1.3,1.3v5.7c2.9,0.7,4.6,3.7,3.8,6.5
	c-0.7,2.9-3.7,4.6-6.5,3.8c-2.9-0.7-4.6-3.7-3.8-6.5C43.3,87.1,44.8,85.6,46.6,85.1z M48,93c1.5,0,2.7-1.2,2.7-2.7
	c0-1.5-1.2-2.7-2.7-2.7c-1.5,0-2.7,1.2-2.7,2.7c0,0,0,0,0,0C45.3,91.8,46.5,93,48,93z M73.3,75.2c-1.5,2.6-0.6,5.8,1.9,7.4
	s5.8,0.6,7.4-1.9c1.5-2.6,0.6-5.8-1.9-7.4c-1.7-1-3.8-1-5.4,0l-4-4c-0.5-0.5-1.4-0.5-1.9,0s-0.5,1.4,0,1.9L73.3,75.2z M79.8,79.8
	c-1,1-2.7,1-3.8,0c-1-1-1-2.7,0-3.8c1-1,2.7-1,3.8,0c0,0,0,0,0,0C80.8,77.1,80.8,78.8,79.8,79.8z M85.1,49.3h-5.7
	c-0.7,0-1.3-0.6-1.3-1.3c0-0.7,0.6-1.4,1.3-1.4h5.7c0.7-2.9,3.7-4.6,6.5-3.8c2.9,0.7,4.6,3.7,3.8,6.5c-0.7,2.9-3.7,4.6-6.5,3.8
	C87.1,52.7,85.6,51.2,85.1,49.3z M93,48c0-1.5-1.2-2.7-2.7-2.7c-1.5,0-2.7,1.2-2.7,2.7c0,1.5,1.2,2.7,2.7,2.7c0,0,0,0,0,0
	C91.8,50.7,93,49.5,93,48z M75.2,22.7c2.6,1.5,5.8,0.6,7.4-1.9c1.5-2.6,0.6-5.8-1.9-7.4c-2.6-1.5-5.8-0.6-7.4,1.9
	c-1,1.7-1,3.8,0,5.4l-4,4c-0.5,0.5-0.5,1.4,0,1.9c0.5,0.5,1.4,0.5,1.9,0L75.2,22.7z M79.8,16.2c1,1,1,2.7,0,3.8c-1,1-2.7,1-3.8,0
	s-1-2.7,0-3.8c0,0,0,0,0,0C77.1,15.2,78.8,15.2,79.8,16.2z M48,3c-1.5,0-2.7,1.2-2.7,2.7c0,1.5,1.2,2.7,2.7,2.7
	c1.5,0,2.7-1.2,2.7-2.7c0,0,0,0,0,0C50.7,4.2,49.5,3,48,3z M48,33.4c-8,0-14.6,6.5-14.6,14.6S40,62.6,48,62.5
	c8,0,14.6-6.5,14.6-14.5C62.6,40,56,33.4,48,33.4L48,33.4z M48,36.1c-6.6,0-11.9,5.3-11.9,11.9S41.4,59.9,48,59.8
	c6.5,0,11.9-5.3,11.9-11.8C59.9,41.4,54.6,36.1,48,36.1L48,36.1z"/>
</svg>
