<?xml version="1.0" encoding="utf-8"?>
<!-- Generator: Adobe Illustrator 26.5.0, SVG Export Plug-In . SVG Version: 6.00 Build 0)  -->
<svg version="1.1" id="Layer_1" xmlns="http://www.w3.org/2000/svg" xmlns:xlink="http://www.w3.org/1999/xlink" x="0px" y="0px"
	 viewBox="0 0 100 125" style="enable-background:new 0 0 100 125;" xml:space="preserve">
<style type="text/css">
	.st0{fill:none;stroke:#2A8E5C;stroke-width:4;stroke-miterlimit:10;}
	.st1{fill:none;stroke:#2A8E5C;stroke-width:4;stroke-linejoin:round;stroke-miterlimit:10;}
</style>
<g>
	<circle class="st0" cx="31.6" cy="25.2" r="7.4"/>
	<path class="st1" d="M37.8,43.4v5.4H26.5c1-4.5,3.6-11.2,5.9-11.2c1.5,0,2.8,0.7,3.8,1.7C37.2,40.4,37.8,41.8,37.8,43.4z"/>
	<path class="st1" d="M26.2,56.1h11.6v20.2c0,3.2-2.4,5.8-5.4,5.8c-1.5,0-2.8-0.7-3.8-1.7c-1-1.1-1.6-2.5-1.6-4.1L26.2,56.1z"/>
	<circle class="st0" cx="55.6" cy="25.2" r="7.4"/>
	<path class="st1" d="M61.8,43.4v5.4H50.5c1-4.5,3.6-11.2,5.9-11.2c1.5,0,2.8,0.7,3.8,1.7C61.2,40.4,61.8,41.8,61.8,43.4z"/>
	<path class="st1" d="M50.2,56.1h11.6v20.2c0,3.2-2.4,5.8-5.4,5.8c-1.5,0-2.8-0.7-3.8-1.7c-1-1.1-1.6-2.5-1.6-4.1L50.2,56.1z"/>
	<circle class="st0" cx="79.6" cy="25.2" r="7.4"/>
	<path class="st1" d="M85.8,43.4v5.4H74.5c1.1-4.5,3.6-11.2,5.9-11.2c1.5,0,2.8,0.7,3.8,1.7C85.2,40.4,85.8,41.8,85.8,43.4z"/>
	<path class="st1" d="M74.2,56.1h11.6v20.2c0,3.2-2.4,5.8-5.4,5.8c-1.5,0-2.8-0.7-3.8-1.7c-1-1.1-1.6-2.5-1.6-4.1L74.2,56.1z"/>
	<rect x="7.5" y="37.6" class="st1" width="9.2" height="44.5"/>
	<rect x="16.8" y="48.8" class="st1" width="75.8" height="7.3"/>
</g>
</svg>
