<?xml version="1.0" encoding="utf-8"?>
<!-- Generator: Adobe Illustrator 26.5.0, SVG Export Plug-In . SVG Version: 6.00 Build 0)  -->
<svg version="1.1" id="Layer_1" xmlns="http://www.w3.org/2000/svg" xmlns:xlink="http://www.w3.org/1999/xlink" x="0px" y="0px"
	 viewBox="0 0 95 118.8" style="enable-background:new 0 0 95 118.8;" xml:space="preserve">
<style type="text/css">
	.st0{fill:#2A8E5C;}
</style>
<path class="st0" d="M10.2,61.7v16.7C10.2,86.6,19,94,25.1,94S40,86.6,40,78.3V61.7c-5.4,0.1-10.7-1.7-14.9-5.2
	C20.9,59.9,15.6,61.8,10.2,61.7z M34.9,68.1c1.6,1.6,1.6,4.1,0,5.7l-9.5,9.5c-1.6,1.6-4.1,1.6-5.7,0c0,0,0,0,0,0l-4.8-4.8
	c-1.6-1.6-1.6-4.1,0-5.7c1.6-1.6,4.1-1.6,5.7,0l1.9,1.9l6.6-6.6C30.8,66.5,33.3,66.5,34.9,68.1L34.9,68.1z M22.6,77.8
	c0.3,0,0.7-0.1,0.9-0.4l7.6-7.6c0.6-0.5,1.5-0.5,2,0.1c0.5,0.5,0.5,1.4,0,1.9l-9.5,9.5c-0.6,0.6-1.5,0.6-2,0l-4.8-4.8
	c-0.6-0.6-0.6-1.5,0-2c0.6-0.6,1.5-0.6,2,0l2.9,2.9C21.9,77.7,22.2,77.8,22.6,77.8z M45.1,6.8c-0.2-1-0.2-2-0.2-3
	C45.1,1.9,47.8,1,50.5,1c2.7,0,5.4,0.9,5.5,2.7c0,1,0,2-0.2,3C52.8,4,48.2,4,45.1,6.8z M50.5,7.3c3,0,5.3,2.4,5.3,5.3
	S53.4,18,50.5,18c-3,0-5.3-2.4-5.3-5.3c0,0,0,0,0,0C45.1,9.7,47.5,7.3,50.5,7.3z M57.4,16.6c1.2-2,1.4-4.4,0.6-6.6
	c0-0.2,0.1-0.4,0.1-0.5c0.3-1.7,0.5-3.2,0.5-4.5c4.8,2.6,8.1,7.2,8.9,12.6H57.4C57.4,17.3,57.4,16.9,57.4,16.6z M43.6,17.6H33.5
	c0.8-5.4,4.1-10,8.9-12.6c0.1,1.3,0.3,2.8,0.5,4.5c0,0.2,0.1,0.3,0.1,0.5c-0.7,2.2-0.5,4.6,0.6,6.6C43.6,16.9,43.6,17.3,43.6,17.6
	L43.6,17.6z M71.3,83.3v-14c0-0.7-0.6-1.3-1.3-1.3c-0.7,0-1.3,0.6-1.3,1.3c0,0,0,0,0,0v14H41.7c0.6-1.6,0.9-3.3,0.9-5V61.7
	c0-1.4-1.2-2.6-2.6-2.6c-3.7,0.1-7.4-0.9-10.7-2.8c3.2-2.5,6.8-4.4,10.6-5.6c4.7,5,16.3,5,21.1,0c14.2,4.6,23.8,17.8,23.8,32.7
	L71.3,83.3z M39.2,38.4c-2.2-3.2-3.8-6.9-4.7-10.7h31.9c-0.9,3.8-2.5,7.4-4.7,10.7C57.3,44.5,43.6,44.5,39.2,38.4z M30.6,23v-0.6
	c0-1.2,1-2.1,2.1-2.1h35.5c1.2,0,2.1,1,2.1,2.1V23c0,1.2-1,2.1-2.1,2.1H32.7C31.6,25.1,30.6,24.1,30.6,23z"/>
</svg>
