<?xml version="1.0" encoding="utf-8"?>
<!-- Generator: Adobe Illustrator 26.5.0, SVG Export Plug-In . SVG Version: 6.00 Build 0)  -->
<svg version="1.1" id="Layer_1" xmlns="http://www.w3.org/2000/svg" xmlns:xlink="http://www.w3.org/1999/xlink" x="0px" y="0px"
	 viewBox="0 0 60 75" style="enable-background:new 0 0 60 75;" xml:space="preserve">
<style type="text/css">
	.st0{fill:#2A8E5C;}
</style>
<path class="st0" d="M19,16.1V22h5.9C24.5,18.9,22.1,16.5,19,16.1z M19,16.1V22h5.9C24.5,18.9,22.1,16.5,19,16.1z M14,28
	c-0.6,0-1-0.4-1-1v-6.9c-3.8,0.6-6.5,4.1-5.9,7.9s4.1,6.5,7.9,5.9c3.1-0.4,5.5-2.9,5.9-5.9H14z M42,26v15h2V26H42z M34,35v6h2v-6H34
	z M19,16.1V22h5.9C24.5,18.9,22.1,16.5,19,16.1z M14,28c-0.6,0-1-0.4-1-1v-6.9c-3.8,0.6-6.5,4.1-5.9,7.9s4.1,6.5,7.9,5.9
	c3.1-0.4,5.5-2.9,5.9-5.9H14z M19,16.1V22h5.9C24.5,18.9,22.1,16.5,19,16.1z M19,16.1V22h5.9C24.5,18.9,22.1,16.5,19,16.1z M14,28
	c-0.6,0-1-0.4-1-1v-6.9c-3.8,0.6-6.5,4.1-5.9,7.9s4.1,6.5,7.9,5.9c3.1-0.4,5.5-2.9,5.9-5.9H14z M50,18v23h2V18H50z M42,26v15h2V26
	H42z M34,35v6h2v-6H34z M19,16.1V22h5.9C24.5,18.9,22.1,16.5,19,16.1z M14,28c-0.6,0-1-0.4-1-1v-6.9c-3.8,0.6-6.5,4.1-5.9,7.9
	s4.1,6.5,7.9,5.9c3.1-0.4,5.5-2.9,5.9-5.9H14z M19,16.1V22h5.9C24.5,18.9,22.1,16.5,19,16.1z M50,18v23h2V18H50z M42,26v15h2V26H42z
	 M19,16.1V22h5.9C24.5,18.9,22.1,16.5,19,16.1z M14,28c-0.6,0-1-0.4-1-1v-6.9c-3.8,0.6-6.5,4.1-5.9,7.9s4.1,6.5,7.9,5.9
	c3.1-0.4,5.5-2.9,5.9-5.9H14z M50,18v23h2V18H50z M42,26v15h2V26H42z M34,35v6h2v-6H34z M42,26v15h2V26H42z M19,16.1V22h5.9
	C24.5,18.9,22.1,16.5,19,16.1z M14,28c-0.6,0-1-0.4-1-1v-6.9c-3.8,0.6-6.5,4.1-5.9,7.9s4.1,6.5,7.9,5.9c3.1-0.4,5.5-2.9,5.9-5.9H14z
	 M19,16.1V22h5.9C24.5,18.9,22.1,16.5,19,16.1z M50,18v23h2V18H50z M42,26v15h2V26H42z M34,35v6h2v-6H34z M26,37v4h2v-4H26z
	 M19,16.1V22h5.9C24.5,18.9,22.1,16.5,19,16.1z M14,28c-0.6,0-1-0.4-1-1v-6.9c-3.8,0.6-6.5,4.1-5.9,7.9s4.1,6.5,7.9,5.9
	c3.1-0.4,5.5-2.9,5.9-5.9H14z M50,18v23h2V18H50z M42,26v15h2V26H42z M34,35v6h2v-6H34z M34,35v6h2v-6H34z M26,37v4h2v-4H26z M42,26
	v15h2V26H42z M19,16.1V22h5.9C24.5,18.9,22.1,16.5,19,16.1z M14,28c-0.6,0-1-0.4-1-1v-6.9c-3.8,0.6-6.5,4.1-5.9,7.9s4.1,6.5,7.9,5.9
	c3.1-0.4,5.5-2.9,5.9-5.9H14z M19,16.1V22h5.9C24.5,18.9,22.1,16.5,19,16.1z M50,18v23h2V18H50z M42,26v15h2V26H42z M34,35v6h2v-6
	H34z M26,37v4h2v-4H26z M19,16.1V22h5.9C24.5,18.9,22.1,16.5,19,16.1z M14,28c-0.6,0-1-0.4-1-1v-6.9c-3.8,0.6-6.5,4.1-5.9,7.9
	s4.1,6.5,7.9,5.9c3.1-0.4,5.5-2.9,5.9-5.9H14z M50,18v23h2V18H50z M42,26v15h2V26H42z M34,35v6h2v-6H34z M34,35v6h2v-6H34z M26,41h2
	v-4h-2V41z M42,26v15h2V26H42z M19,16.1V22h5.9C24.5,18.9,22.1,16.5,19,16.1z M13,27v-6.9c-3.8,0.6-6.5,4.1-5.9,7.9s4.1,6.5,7.9,5.9
	c3.1-0.4,5.5-2.9,5.9-5.9H14C13.4,28,13,27.6,13,27z M19,16.1V22h5.9C24.5,18.9,22.1,16.5,19,16.1z M52,18h-2v23h2V18z M42,41h2V26
	h-2V41z M34,41h2v-6h-2V41z M26,41h2v-4h-2V41z M19,16.1V22h5.9C24.5,18.9,22.1,16.5,19,16.1z M14,28c-0.6,0-1-0.4-1-1v-6.9
	c-3.8,0.6-6.5,4.1-5.9,7.9s4.1,6.5,7.9,5.9c3.1-0.4,5.5-2.9,5.9-5.9H14z M57,9H40V6c0-2.2-1.8-4-4-4c0,0,0,0,0,0h-5V1
	c0-0.6-0.4-1-1-1s-1,0.4-1,1v1h-5c-2.2,0-4,1.8-4,4c0,0,0,0,0,0v3H3c-1.7,0-3,1.3-3,3v35c0,1.7,1.3,3,3,3v1c0,1.7,1.3,3,3,3h5.8
	c0.6,0.6,1.4,1,2.2,1h32c0.8,0,1.7-0.4,2.2-1H54c1.7,0,3-1.3,3-3v-1c1.7,0,3-1.3,3-3V12C60,10.3,58.7,9,57,9z M22,6c0-1.1,0.9-2,2-2
	h12c1.1,0,2,0.9,2,2v3H22V6z M17,15c0-0.6,0.4-1,1-1c5,0,9,4,9,9c0,0.6-0.4,1-1,1h-8c-0.6,0-1-0.4-1-1V15z M11,52H6
	c-0.6,0-1-0.4-1-1v-1h6V52z M5,27c0-5,4-9,9-9c0.6,0,1,0.4,1,1v7h7c0.6,0,1,0.4,1,1c0,5-4,9-9,9S5,32,5,27z M20,51h-4
	c-0.6,0-1-0.4-1-1s0.4-1,1-1h4c0.6,0,1,0.4,1,1S20.6,51,20,51z M28,51h-4c-0.6,0-1-0.4-1-1s0.4-1,1-1h4c0.6,0,1,0.4,1,1
	S28.6,51,28,51z M30,41c0,1.1-0.9,2-2,2h-2c-1.1,0-2-0.9-2-2v-4c0-1.1,0.9-2,2-2h2c1.1,0,2,0.9,2,2V41z M36,51h-4c-0.6,0-1-0.4-1-1
	s0.4-1,1-1h4c0.6,0,1,0.4,1,1S36.6,51,36,51z M38,41c0,1.1-0.9,2-2,2h-2c-1.1,0-2-0.9-2-2v-6c0-1.1,0.9-2,2-2h2c1.1,0,2,0.9,2,2V41z
	 M44,51h-4c-0.6,0-1-0.4-1-1s0.4-1,1-1h4c0.6,0,1,0.4,1,1S44.6,51,44,51z M46,41c0,1.1-0.9,2-2,2h-2c-1.1,0-2-0.9-2-2V26
	c0-1.1,0.9-2,2-2h2c1.1,0,2,0.9,2,2V41z M45,20H30c-0.6,0-1-0.4-1-1s0.4-1,1-1h15c0.6,0,1,0.4,1,1S45.6,20,45,20z M45,16H30
	c-0.6,0-1-0.4-1-1s0.4-1,1-1h15c0.6,0,1,0.4,1,1S45.6,16,45,16z M48,41V18c0-1.1,0.9-2,2-2h2c1.1,0,2,0.9,2,2v23c0,1.1-0.9,2-2,2h-2
	C48.9,43,48,42.1,48,41z M55,51c0,0.6-0.4,1-1,1h-5v-2h6V51z M14,28c-0.6,0-1-0.4-1-1v-6.9c-3.8,0.6-6.5,4.1-5.9,7.9
	s4.1,6.5,7.9,5.9c3.1-0.4,5.5-2.9,5.9-5.9H14z M19,16.1V22h5.9C24.5,18.9,22.1,16.5,19,16.1z M26,37v4h2v-4H26z M34,35v6h2v-6H34z
	 M42,26v15h2V26H42z M50,18v23h2V18H50z M19,16.1V22h5.9C24.5,18.9,22.1,16.5,19,16.1z M14,28c-0.6,0-1-0.4-1-1v-6.9
	c-3.8,0.6-6.5,4.1-5.9,7.9s4.1,6.5,7.9,5.9c3.1-0.4,5.5-2.9,5.9-5.9H14z M19,16.1V22h5.9C24.5,18.9,22.1,16.5,19,16.1z M42,26v15h2
	V26H42z M26,37v4h2v-4H26z M34,35v6h2v-6H34z M34,35v6h2v-6H34z M42,26v15h2V26H42z M50,18v23h2V18H50z M14,28c-0.6,0-1-0.4-1-1
	v-6.9c-3.8,0.6-6.5,4.1-5.9,7.9s4.1,6.5,7.9,5.9c3.1-0.4,5.5-2.9,5.9-5.9H14z M19,16.1V22h5.9C24.5,18.9,22.1,16.5,19,16.1z M26,37
	v4h2v-4H26z M34,35v6h2v-6H34z M42,26v15h2V26H42z M50,18v23h2V18H50z M19,16.1V22h5.9C24.5,18.9,22.1,16.5,19,16.1z M14,28
	c-0.6,0-1-0.4-1-1v-6.9c-3.8,0.6-6.5,4.1-5.9,7.9s4.1,6.5,7.9,5.9c3.1-0.4,5.5-2.9,5.9-5.9H14z M19,16.1V22h5.9
	C24.5,18.9,22.1,16.5,19,16.1z M42,26v15h2V26H42z M26,37v4h2v-4H26z M34,35v6h2v-6H34z M34,35v6h2v-6H34z M42,26v15h2V26H42z
	 M50,18v23h2V18H50z M14,28c-0.6,0-1-0.4-1-1v-6.9c-3.8,0.6-6.5,4.1-5.9,7.9s4.1,6.5,7.9,5.9c3.1-0.4,5.5-2.9,5.9-5.9H14z M19,16.1
	V22h5.9C24.5,18.9,22.1,16.5,19,16.1z M34,35v6h2v-6H34z M42,26v15h2V26H42z M50,18v23h2V18H50z M19,16.1V22h5.9
	C24.5,18.9,22.1,16.5,19,16.1z M14,28c-0.6,0-1-0.4-1-1v-6.9c-3.8,0.6-6.5,4.1-5.9,7.9s4.1,6.5,7.9,5.9c3.1-0.4,5.5-2.9,5.9-5.9H14z
	 M19,16.1V22h5.9C24.5,18.9,22.1,16.5,19,16.1z M34,35v6h2v-6H34z M42,26v15h2V26H42z M42,26v15h2V26H42z M50,18v23h2V18H50z M14,28
	c-0.6,0-1-0.4-1-1v-6.9c-3.8,0.6-6.5,4.1-5.9,7.9s4.1,6.5,7.9,5.9c3.1-0.4,5.5-2.9,5.9-5.9H14z M19,16.1V22h5.9
	C24.5,18.9,22.1,16.5,19,16.1z M50,18v23h2V18H50z M19,16.1V22h5.9C24.5,18.9,22.1,16.5,19,16.1z M14,28c-0.6,0-1-0.4-1-1v-6.9
	c-3.8,0.6-6.5,4.1-5.9,7.9s4.1,6.5,7.9,5.9c3.1-0.4,5.5-2.9,5.9-5.9H14z M19,16.1V22h5.9C24.5,18.9,22.1,16.5,19,16.1z M34,35v6h2
	v-6H34z M42,26v15h2V26H42z M14,28c-0.6,0-1-0.4-1-1v-6.9c-3.8,0.6-6.5,4.1-5.9,7.9s4.1,6.5,7.9,5.9c3.1-0.4,5.5-2.9,5.9-5.9H14z
	 M19,16.1V22h5.9C24.5,18.9,22.1,16.5,19,16.1z M19,16.1V22h5.9C24.5,18.9,22.1,16.5,19,16.1z M14,28c-0.6,0-1-0.4-1-1v-6.9
	c-3.8,0.6-6.5,4.1-5.9,7.9s4.1,6.5,7.9,5.9c3.1-0.4,5.5-2.9,5.9-5.9H14z M19,16.1V22h5.9C24.5,18.9,22.1,16.5,19,16.1z M34,35v6h2
	v-6H34z M42,26v15h2V26H42z M19,16.1V22h5.9C24.5,18.9,22.1,16.5,19,16.1z"/>
</svg>
