<?xml version="1.0" encoding="utf-8"?>
<!-- Generator: Adobe Illustrator 26.5.0, SVG Export Plug-In . SVG Version: 6.00 Build 0)  -->
<svg version="1.1" id="Layer_1" xmlns="http://www.w3.org/2000/svg" xmlns:xlink="http://www.w3.org/1999/xlink" x="0px" y="0px"
	 viewBox="0 0 96 120" style="enable-background:new 0 0 96 120;" xml:space="preserve">
<style type="text/css">
	.st0{fill-rule:evenodd;clip-rule:evenodd;fill:#2A8E5C;}
</style>
<path class="st0" d="M52.2,78.9v6.3H40.6v-6.3H52.2z M74.6,55.9c8.6,0,15.5,6.9,15.5,15.5s-6.9,15.5-15.5,15.5
	c-8.6,0-15.5-6.9-15.5-15.5c0,0,0,0,0,0C59.1,62.8,66,55.8,74.6,55.9L74.6,55.9z M80.7,66.2l-8.2,7.4l-2.4-2.8
	c-0.5-0.6-1.3-0.6-1.9-0.2c-0.6,0.5-0.6,1.3-0.2,1.9c0,0,0,0,0,0l3.2,3.8c0.4,0.6,1.3,0.7,1.9,0.3c0,0,0.1-0.1,0.1-0.1l9.2-8.3
	c0.6-0.5,0.7-1.3,0.2-1.9c-0.5-0.6-1.3-0.7-1.9-0.2C80.7,66.1,80.7,66.1,80.7,66.2L80.7,66.2z M51.2,8.3c1.6,0.4,3.2,1.1,4.7,2
	L58,8.2c1.4-1.4,3.8-1.5,5.2,0c0,0,0,0,0,0l1.6,1.5c1.4,1.5,1.4,3.8,0,5.2l-2.2,2.2c0.8,1.4,1.4,3,1.9,4.6h3.2c2,0,3.7,1.7,3.7,3.7
	v2.2c0,2-1.7,3.7-3.7,3.7h-3.2c-0.4,1.6-1,3.2-1.8,4.6l2.2,2.2c1.4,1.5,1.4,3.8,0,5.2L63.2,45c-1.4,1.4-3.8,1.5-5.2,0c0,0,0,0,0,0
	l-2.1-2.1c-1.5,0.9-3,1.6-4.7,2v3c0,2-1.7,3.7-3.7,3.7l0,0h-2.2c-2,0-3.7-1.7-3.7-3.7v-3c-1.6-0.4-3.2-1.1-4.7-2L34.8,45
	c-1.4,1.4-3.8,1.5-5.2,0c0,0,0,0,0,0L28,43.4c-1.4-1.4-1.5-3.8,0-5.2c0,0,0,0,0,0l2.2-2.2c-0.8-1.4-1.4-3-1.9-4.6h-3.2
	c-2,0-3.7-1.7-3.7-3.7v-2.2c0-2,1.7-3.7,3.7-3.7c0,0,0,0,0,0h3.2c0.4-1.6,1-3.1,1.9-4.6L28,15c-1.4-1.4-1.5-3.8,0-5.2c0,0,0,0,0,0
	l1.5-1.5c1.4-1.4,3.8-1.5,5.2,0c0,0,0,0,0,0l2.1,2.1c1.5-0.9,3-1.6,4.7-2v-3c0-2,1.7-3.7,3.7-3.7h2.2c2,0,3.7,1.7,3.7,3.7L51.2,8.3
	L51.2,8.3z M46.4,12.8c-7.6,0-13.7,6.1-13.7,13.7s6.1,13.7,13.7,13.7s13.7-6.1,13.7-13.7l0,0C60.1,19,54,12.8,46.4,12.8z M46.4,15.5
	c-6.1,0-11,4.9-11,11s4.9,11,11,11s11-4.9,11-11S52.5,15.5,46.4,15.5z M26.6,94.3h39.6v-4.1c0-1.3-1-2.3-2.3-2.3H28.9
	c-1.3,0-2.3,1-2.3,2.3C26.6,90.2,26.6,94.3,26.6,94.3z M10.2,23.8c-2.3,0-4.2,1.9-4.3,4.2v43.9c0,2.3,1.9,4.2,4.3,4.2H57
	c-0.4-1.6-0.6-3.2-0.7-4.8c0-10,8.1-18.2,18.2-18.2c4.6,0,9,1.7,12.3,4.8V28c0-2.3-1.9-4.2-4.2-4.2h-8.9c0.2,0.6,0.2,1.1,0.2,1.7
	v2.2c0,3.5-2.9,6.4-6.4,6.4h-1.2c-0.2,0.5-0.3,0.9-0.6,1.3l0.8,0.8c2.5,2.5,2.5,6.6,0,9.1l-1.6,1.5c-2.5,2.5-6.6,2.5-9.1,0l-0.7-0.7
	c-0.5,0.2-1,0.4-1.5,0.6v1c0,3.5-2.9,6.4-6.4,6.4h-2.2c-3.5,0-6.4-2.9-6.4-6.4v-1c-0.5-0.2-1-0.4-1.5-0.6l-0.7,0.7
	c-2.5,2.5-6.6,2.5-9.1,0l-1.5-1.5c-2.5-2.5-2.5-6.6,0-9.1l0.9-0.8c-0.2-0.4-0.4-0.9-0.5-1.3h-1.2c-3.5,0-6.4-2.9-6.4-6.4v-2.2
	c0-0.6,0.1-1.2,0.2-1.7H10.2z"/>
</svg>
