<?xml version="1.0" encoding="utf-8"?>
<!-- Generator: Adobe Illustrator 26.5.0, SVG Export Plug-In . SVG Version: 6.00 Build 0)  -->
<svg version="1.1" id="Layer_1" xmlns="http://www.w3.org/2000/svg" xmlns:xlink="http://www.w3.org/1999/xlink" x="0px" y="0px"
	 viewBox="0 0 36 45" style="enable-background:new 0 0 36 45;" xml:space="preserve">
<style type="text/css">
	.st0{fill:#2A8E5C;}
</style>
<path class="st0" d="M34.5,9.1l-16-8c0,0,0,0-0.1,0c-0.1,0-0.1,0-0.2,0c-0.1,0-0.1,0-0.2,0s-0.1,0-0.2,0c-0.1,0-0.1,0-0.2,0
	c0,0,0,0-0.1,0l-16,8C1.2,9.3,1,9.6,1,10v24c0,0.5,0.4,1,1,1h32c0.5,0,1-0.5,1-1V10C35,9.6,34.8,9.3,34.5,9.1z M21,25h-6v-6h6V25z
	 M14,27h3v6h-6v-6H14z M19,33v-6h6v6H19z M27,33v-7c0-0.5-0.5-1-1-1h-3v-7c0-0.5-0.5-1-1-1h-8c-0.6,0-1,0.5-1,1v7h-3
	c-0.6,0-1,0.5-1,1v7H7V13h22v20H27z M33,33h-2V12c0-0.6-0.5-1-1-1H6c-0.6,0-1,0.4-1,1v21H3V10.6l15-7.5l15,7.5V33z"/>
</svg>
