<?xml version="1.0" encoding="utf-8"?>
<!-- Generator: Adobe Illustrator 26.5.0, SVG Export Plug-In . SVG Version: 6.00 Build 0)  -->
<svg version="1.1" id="Layer_1" xmlns="http://www.w3.org/2000/svg" xmlns:xlink="http://www.w3.org/1999/xlink" x="0px" y="0px"
	 viewBox="0 0 100 125" style="enable-background:new 0 0 100 125;" xml:space="preserve">
<style type="text/css">
	.st0{fill:#2A8E5C;}
</style>
<g>
	<path class="st0" d="M50,9.2L2,27.7v5.7l7.2-2.8v60.2h81.5V30.6l7.2,2.8v-5.7L50,9.2z M30.9,88.8H18.4V76.3h1.7V80h9.2v-3.6h1.7
		L30.9,88.8z M22,78v-1.7h5.3V78H22z M45.4,88.8H32.9V74.4H18.4V54.6h63.1v16.1h-8.9v-7.2H49V78h-3.6V88.8z M81.6,52.7H18.4V40.2
		h63.1V52.7z M69.1,72.7h5.3V78h-5.3V72.7z M63.5,65.5v1.7h-5.3v-1.7L63.5,65.5z M51,80h5.3v1.7H51V80z M59.9,88.9H47.4V80H49v3.6
		h9.2V80h1.7V88.9z M59.9,78H51V65.5h5.3v3.6h9.2v-3.6h5.3v5.3H59.9V78z M81.6,88.9H61.8V72.7h5.3V80h9.2v-7.2h5.3L81.6,88.9z
		 M88.8,88.9h-5.3V38.2H16.5v50.6h-5.3v-59L50,14.9l38.8,14.9L88.8,88.9z M96,30.5L50,12.8L4,30.5V29l46-17.7L96,29L96,30.5z"/>
	<rect x="21.1" y="45.4" class="st0" width="57.9" height="2"/>
	<rect x="21.1" y="41.8" class="st0" width="57.9" height="2"/>
	<rect x="21.1" y="49.1" class="st0" width="57.9" height="2"/>
	<path class="st0" d="M38.2,20.1v16.4h23.7V20.1H38.2z M47.4,22.1h5.3v5.3h-5.3V22.1z M59.9,34.6H40.1V22.1h5.3v7.2h9.2v-7.2h5.3
		L59.9,34.6z"/>
</g>
</svg>
