<?xml version="1.0" encoding="utf-8"?>
<!-- Generator: Adobe Illustrator 26.5.0, SVG Export Plug-In . SVG Version: 6.00 Build 0)  -->
<svg version="1.1" id="Layer_1" xmlns="http://www.w3.org/2000/svg" xmlns:xlink="http://www.w3.org/1999/xlink" x="0px" y="0px"
	 viewBox="0 0 100 125" style="enable-background:new 0 0 100 125;" xml:space="preserve">
<style type="text/css">
	.st0{fill:#2A8E5C;}
</style>
<path class="st0" d="M10.5,17.9c-1.8,0-3.3,1.5-3.3,3.3c0,1.8,1.5,3.3,3.3,3.3c0.7,0,1.4-0.2,1.9-0.6c1.7,2.4,2.5,5.3,2.4,8.2h-0.6
	c-0.6,0-1,0.4-1,1v10.7c0,0,0,0,0,0.1s0,0,0,0.1l3.6,24.9v6.2c0,10.8,8.7,19.5,19.5,19.5h7.4c10.8,0,19.5-8.7,19.5-19.5V24.9
	c0-3,2.5-5.5,5.5-5.5s5.5,2.5,5.5,5.5l0,0v62.9c0,0.6,0.4,1,1,1h12c0.6,0,1-0.4,1-1V24.9c0-10.8-8.7-19.5-19.5-19.5
	s-19.5,8.7-19.5,19.5v50.2c0,3-2.5,5.5-5.5,5.5h-7.4c-3,0-5.5-2.5-5.5-5.5v-6.2l3.6-24.9c0,0,0,0,0-0.1s0,0,0-0.1V33.1
	c0-0.6-0.4-1-1-1h-0.6c-0.1-2.9,0.8-5.8,2.4-8.2c1.5,1,3.6,0.7,4.6-0.8s0.7-3.6-0.8-4.6s-3.6-0.7-4.6,0.8c-0.4,0.6-0.6,1.2-0.6,1.9
	c0,0.3,0.1,0.7,0.2,1c-2.2,2.8-3.3,6.3-3.2,9.9h-2.4c-0.5-3.8,0-7.6,1.3-11.2C30,21,30.3,21,30.5,21c1.8,0,3.3-1.5,3.4-3.3
	c0-1.8-1.5-3.3-3.3-3.4c-1.8,0-3.3,1.5-3.4,3.3c0,0.8,0.3,1.6,0.8,2.2c-1.5,3.9-2.1,8.1-1.6,12.2h-1.6V17.9c1.7-0.6,2.7-2.4,2.2-4.2
	s-2.4-2.7-4.2-2.2s-2.7,2.4-2.2,4.2c0.3,1,1.1,1.8,2.2,2.2v14.1h-1.6c0.5-4.2-0.1-8.4-1.6-12.2c0.5-0.6,0.8-1.4,0.8-2.1
	c0-1.8-1.5-3.3-3.3-3.3c-1.8,0-3.3,1.5-3.3,3.3c0,1.8,1.5,3.3,3.3,3.3c0,0,0,0,0,0c0.3,0,0.5,0,0.8-0.1c1.3,3.6,1.8,7.4,1.3,11.2
	h-2.4c0.1-3.6-1-7-3.2-9.9c0.6-1.7-0.3-3.6-2-4.2C11.2,17.9,10.9,17.9,10.5,17.9z M37.1,19.9c0.7,0,1.3,0.6,1.3,1.3
	s-0.6,1.3-1.3,1.3c-0.7,0-1.3-0.6-1.3-1.3C35.8,20.5,36.4,19.9,37.1,19.9C37.1,19.9,37.1,19.9,37.1,19.9z M30.5,16.4
	c0.7,0,1.3,0.6,1.3,1.3c0,0.7-0.6,1.3-1.3,1.3c-0.7,0-1.3-0.6-1.3-1.3c0,0,0,0,0,0C29.2,17,29.8,16.4,30.5,16.4z M23.8,13.5
	c0.7,0.1,1.3,0.7,1.2,1.4c-0.1,0.6-0.6,1.1-1.2,1.2c-0.7,0.1-1.4-0.5-1.4-1.2c-0.1-0.7,0.5-1.4,1.2-1.4
	C23.7,13.5,23.7,13.5,23.8,13.5z M15.8,17.7c-0.1-0.7,0.5-1.4,1.2-1.4s1.4,0.5,1.4,1.2c0,0.1,0,0.2,0,0.2c-0.1,0.7-0.7,1.3-1.4,1.2
	C16.4,18.8,15.9,18.3,15.8,17.7z M32.5,34.1v8.7H15.2v-8.7H32.5z M36.3,82.6h7.4c4.1,0,7.5-3.4,7.5-7.5l0,0V24.9
	c0-9.7,7.8-17.5,17.5-17.5s17.5,7.8,17.5,17.5v61.9h-10V24.9c0-4.1-3.4-7.5-7.5-7.5s-7.5,3.4-7.5,7.5v50.2c0,9.7-7.8,17.5-17.5,17.5
	h-7.4c-9.7,0-17.5-7.8-17.5-17.5v-5.3h10v5.3C28.8,79.2,32.2,82.6,36.3,82.6L36.3,82.6z M29,67.8H18.7l-3.4-23h17L29,67.8z
	 M10.5,22.5c-0.7,0-1.3-0.6-1.3-1.3c0-0.7,0.6-1.3,1.3-1.3c0.7,0,1.3,0.6,1.3,1.3l0,0C11.8,21.9,11.2,22.5,10.5,22.5z"/>
</svg>
