<?xml version="1.0" encoding="utf-8"?>
<!-- Generator: Adobe Illustrator 26.5.0, SVG Export Plug-In . SVG Version: 6.00 Build 0)  -->
<svg version="1.1" id="Layer_1" xmlns="http://www.w3.org/2000/svg" xmlns:xlink="http://www.w3.org/1999/xlink" x="0px" y="0px"
	 viewBox="0 0 90 112.5" style="enable-background:new 0 0 90 112.5;" xml:space="preserve">
<style type="text/css">
	.st0{fill:#2A8E5C;}
</style>
<path class="st0" d="M64.1,36.1c0-0.5,0.1-0.9,0.1-1.3c0-10.5-8.6-19.1-19.1-19.1s-19.1,8.6-19.1,19.1c0,0.4,0,0.8,0.1,1.3
	C15.6,36.4,7.4,44.8,7.4,55.2c0,10.5,8.6,19.1,19.1,19.1h37.1c10.5,0,19.1-8.6,19.1-19.1C82.6,44.8,74.4,36.4,64.1,36.1z M63.5,72.3
	H26.5c-9.4,0-17.1-7.7-17.1-17.1c0-9.4,7.7-17.1,17.1-17.1c0.1,0,0.2,0,0.3,0c0.1,0,0.2,0,0.3,0c0.3,0,0.6-0.1,0.8-0.3
	c0.2-0.2,0.3-0.5,0.3-0.8c-0.1-0.8-0.2-1.5-0.2-2.2c0-9.4,7.7-17.1,17.1-17.1s17.1,7.7,17.1,17.1c0,0.7,0,1.4-0.2,2.2
	c0,0.3,0.1,0.6,0.3,0.8c0.2,0.2,0.5,0.3,0.8,0.3c0.1,0,0.2,0,0.3,0c0.1,0,0.2,0,0.3,0c9.4,0,17.1,7.7,17.1,17.1
	C80.6,64.6,73,72.3,63.5,72.3z"/>
<path class="st0" d="M57.5,47.3c-1.9-5.1-6.8-8.7-12.5-8.7s-10.6,3.6-12.5,8.7c0,0.1,0,0.1-0.1,0.2c-0.5,1.4-0.8,2.9-0.8,4.5
	s0.3,3.1,0.8,4.5c0,0.1,0,0.1,0.1,0.2c1.9,5.1,6.8,8.7,12.5,8.7s10.6-3.6,12.5-8.7c0-0.1,0-0.1,0.1-0.2c0.5-1.4,0.8-2.9,0.8-4.5
	s-0.3-3.1-0.8-4.5C57.6,47.4,57.6,47.4,57.5,47.3z M40.4,41.6c-0.9,1.4-1.6,3.2-2.1,5.2h-3.5C36.1,44.5,38,42.6,40.4,41.6z M33.6,52
	c0-1.1,0.2-2.2,0.5-3.2H38c-0.1,1-0.2,2.1-0.2,3.2s0.1,2.2,0.2,3.2h-3.9C33.8,54.2,33.6,53.1,33.6,52z M34.9,57.2h3.5
	c0.5,2.1,1.2,3.8,2.1,5.2C38,61.4,36.1,59.5,34.9,57.2z M44,63.1c-1.4-0.7-2.8-2.8-3.6-5.9H44V63.1z M44,55.2h-4
	c-0.1-1-0.2-2.1-0.2-3.2s0.1-2.2,0.2-3.2h4V55.2z M44,46.8h-3.6c0.8-3.1,2.2-5.2,3.6-5.9V46.8z M55.1,46.8h-3.5
	c-0.5-2.1-1.2-3.8-2.1-5.2C52,42.6,53.9,44.5,55.1,46.8z M46,40.9c1.4,0.7,2.8,2.8,3.6,5.9H46V40.9z M46,48.8h4
	c0.1,1,0.2,2.1,0.2,3.2s-0.1,2.2-0.2,3.2h-4V48.8z M46,63.1v-5.9h3.6C48.8,60.3,47.4,62.4,46,63.1z M49.6,62.4
	c0.9-1.4,1.6-3.2,2.1-5.2h3.5C53.9,59.5,52,61.4,49.6,62.4z M55.9,55.2H52c0.1-1,0.2-2.1,0.2-3.2s-0.1-2.2-0.2-3.2h3.9
	c0.3,1,0.5,2.1,0.5,3.2S56.2,54.2,55.9,55.2z"/>
</svg>
