<?xml version="1.0" encoding="utf-8"?>
<!-- Generator: Adobe Illustrator 26.5.0, SVG Export Plug-In . SVG Version: 6.00 Build 0)  -->
<svg version="1.1" id="Layer_1" xmlns="http://www.w3.org/2000/svg" xmlns:xlink="http://www.w3.org/1999/xlink" x="0px" y="0px"
	 viewBox="0 0 512 640" style="enable-background:new 0 0 512 640;" xml:space="preserve">
<style type="text/css">
	.st0{fill:#2A8E5C;}
</style>
<g>
	<g>
		<g>
			<g>
				<path class="st0" d="M322.4,99.3H189.6c-12.4,0-22.4-10.1-22.4-22.4v-3.2c0-12.4,10.1-22.4,22.4-22.4h132.9
					c12.4,0,22.4,10.1,22.4,22.4v3.2C344.8,89.3,334.8,99.3,322.4,99.3z M189.6,58.7c-8.3,0-15,6.7-15,15v3.2c0,8.3,6.7,15,15,15
					h132.9c8.3,0,15-6.7,15-15v-3.2c0-8.3-6.7-15-15-15C322.5,58.7,189.6,58.7,189.6,58.7z"/>
				<g>
					<g>
						<path class="st0" d="M201.5,82.5c-2,0-3.7-1.6-3.7-3.7v-7.1c0-2,1.6-3.7,3.7-3.7c2,0,3.7,1.6,3.7,3.7v7.1
							C205.1,80.9,203.5,82.5,201.5,82.5z"/>
						<path class="st0" d="M220,82.5c-2,0-3.7-1.6-3.7-3.7v-7.1c0-2,1.6-3.7,3.7-3.7s3.7,1.6,3.7,3.7v7.1
							C223.7,80.9,222,82.5,220,82.5z"/>
						<path class="st0" d="M238.5,82.5c-2,0-3.7-1.6-3.7-3.7v-7.1c0-2,1.6-3.7,3.7-3.7c2,0,3.7,1.6,3.7,3.7v7.1
							C242.2,80.9,240.5,82.5,238.5,82.5z"/>
					</g>
					<path class="st0" d="M310.5,78.6H272c-2,0-3.7-1.6-3.7-3.7s1.6-3.7,3.7-3.7h38.5c2,0,3.7,1.6,3.7,3.7S312.6,78.6,310.5,78.6z"
						/>
				</g>
			</g>
			<g>
				<path class="st0" d="M322.4,158.8H189.6c-12.4,0-22.4-10.1-22.4-22.4v-3.2c0-12.4,10.1-22.4,22.4-22.4h132.9
					c12.4,0,22.4,10.1,22.4,22.4v3.2C344.8,148.8,334.8,158.8,322.4,158.8z M189.6,118.2c-8.3,0-15,6.7-15,15v3.2
					c0,8.3,6.7,15,15,15h132.9c8.3,0,15-6.7,15-15v-3.2c0-8.3-6.7-15-15-15H189.6z"/>
				<g>
					<g>
						<path class="st0" d="M201.5,142c-2,0-3.7-1.6-3.7-3.7v-7.1c0-2,1.6-3.7,3.7-3.7c2,0,3.7,1.6,3.7,3.7v7.1
							C205.1,140.4,203.5,142,201.5,142z"/>
						<path class="st0" d="M220,142c-2,0-3.7-1.6-3.7-3.7v-7.1c0-2,1.6-3.7,3.7-3.7s3.7,1.6,3.7,3.7v7.1
							C223.7,140.4,222,142,220,142z"/>
						<path class="st0" d="M238.5,142c-2,0-3.7-1.6-3.7-3.7v-7.1c0-2,1.6-3.7,3.7-3.7c2,0,3.7,1.6,3.7,3.7v7.1
							C242.2,140.4,240.5,142,238.5,142z"/>
					</g>
					<path class="st0" d="M310.5,138.1H272c-2,0-3.7-1.6-3.7-3.7c0-2,1.6-3.7,3.7-3.7h38.5c2,0,3.7,1.6,3.7,3.7
						C314.2,136.4,312.6,138.1,310.5,138.1z"/>
				</g>
			</g>
			<g>
				<path class="st0" d="M322.4,218.3H189.6c-12.4,0-22.4-10.1-22.4-22.4v-3.2c0-12.4,10.1-22.4,22.4-22.4h132.9
					c12.4,0,22.4,10.1,22.4,22.4v3.2C344.8,208.3,334.8,218.3,322.4,218.3z M189.6,177.7c-8.3,0-15,6.7-15,15v3.2
					c0,8.3,6.7,15,15,15h132.9c8.3,0,15-6.7,15-15v-3.2c0-8.3-6.7-15-15-15H189.6z"/>
				<g>
					<g>
						<path class="st0" d="M201.5,201.5c-2,0-3.7-1.6-3.7-3.7v-7.1c0-2,1.6-3.7,3.7-3.7c2,0,3.7,1.6,3.7,3.7v7.1
							C205.1,199.9,203.5,201.5,201.5,201.5z"/>
						<path class="st0" d="M220,201.5c-2,0-3.7-1.6-3.7-3.7v-7.1c0-2,1.6-3.7,3.7-3.7s3.7,1.6,3.7,3.7v7.1
							C223.7,199.9,222,201.5,220,201.5z"/>
						<path class="st0" d="M238.5,201.5c-2,0-3.7-1.6-3.7-3.7v-7.1c0-2,1.6-3.7,3.7-3.7c2,0,3.7,1.6,3.7,3.7v7.1
							C242.2,199.9,240.5,201.5,238.5,201.5z"/>
					</g>
					<path class="st0" d="M310.5,197.6H272c-2,0-3.7-1.6-3.7-3.7c0-2,1.6-3.7,3.7-3.7h38.5c2,0,3.7,1.6,3.7,3.7
						C314.2,195.9,312.6,197.6,310.5,197.6z"/>
				</g>
			</g>
		</g>
		<g>
			<path class="st0" d="M281.2,279.2h-51.7v-34.4h51.7V279.2z M236.9,271.8h36.9v-19.7h-36.9V271.8z"/>
			<path class="st0" d="M231.9,265.7H118.2c-2,0-3.7-1.6-3.7-3.7s1.6-3.7,3.7-3.7h113.6c2,0,3.7,1.6,3.7,3.7
				S233.9,265.7,231.9,265.7z"/>
			<path class="st0" d="M392.6,265.7H279c-2,0-3.7-1.6-3.7-3.7s1.6-3.7,3.7-3.7h113.6c2,0,3.7,1.6,3.7,3.7S394.6,265.7,392.6,265.7z
				"/>
			<path class="st0" d="M118.2,295.4c-2,0-3.7-1.6-3.7-3.7V262c0-2,1.6-3.7,3.7-3.7c2,0,3.7,1.6,3.7,3.7v29.7
				C121.9,293.8,120.3,295.4,118.2,295.4z"/>
			<path class="st0" d="M393.8,295.4c-2,0-3.7-1.6-3.7-3.7V262c0-2,1.6-3.7,3.7-3.7s3.7,1.6,3.7,3.7v29.7
				C397.4,293.8,395.8,295.4,393.8,295.4z"/>
			<path class="st0" d="M255.3,252.2c-2,0-3.7-1.6-3.7-3.7V233c0-2,1.6-3.7,3.7-3.7s3.7,1.6,3.7,3.7v15.5
				C259,250.5,257.4,252.2,255.3,252.2z"/>
		</g>
		<g>
			<g>
				<path class="st0" d="M182.1,341.7H49.3c-12.4,0-22.4-10.1-22.4-22.4v-3.2c0-12.4,10.1-22.4,22.4-22.4h132.9
					c12.4,0,22.4,10.1,22.4,22.4v3.2C204.5,331.6,194.5,341.7,182.1,341.7z M49.3,301c-8.3,0-15,6.7-15,15v3.2c0,8.3,6.7,15,15,15
					h132.9c8.3,0,15-6.7,15-15V316c0-8.3-6.7-15-15-15H49.3z"/>
				<g>
					<g>
						<path class="st0" d="M61.2,324.9c-2,0-3.7-1.6-3.7-3.7v-7.1c0-2,1.6-3.7,3.7-3.7c2,0,3.7,1.6,3.7,3.7v7.1
							C64.8,323.2,63.2,324.9,61.2,324.9z"/>
						<path class="st0" d="M79.7,324.9c-2,0-3.7-1.6-3.7-3.7v-7.1c0-2,1.6-3.7,3.7-3.7s3.7,1.6,3.7,3.7v7.1
							C83.4,323.2,81.7,324.9,79.7,324.9z"/>
						<path class="st0" d="M98.2,324.9c-2,0-3.7-1.6-3.7-3.7v-7.1c0-2,1.6-3.7,3.7-3.7s3.7,1.6,3.7,3.7v7.1
							C101.9,323.2,100.2,324.9,98.2,324.9z"/>
					</g>
					<path class="st0" d="M170.2,320.9h-38.5c-2,0-3.7-1.6-3.7-3.7c0-2,1.6-3.7,3.7-3.7h38.5c2,0,3.7,1.6,3.7,3.7
						C173.9,319.2,172.3,320.9,170.2,320.9z"/>
				</g>
			</g>
			<g>
				<path class="st0" d="M182.1,401.2H49.3c-12.4,0-22.4-10.1-22.4-22.4v-3.2c0-12.4,10.1-22.4,22.4-22.4h132.9
					c12.4,0,22.4,10.1,22.4,22.4v3.2C204.5,391.1,194.5,401.2,182.1,401.2z M49.3,360.5c-8.3,0-15,6.7-15,15v3.2c0,8.3,6.7,15,15,15
					h132.9c8.3,0,15-6.7,15-15v-3.2c0-8.3-6.7-15-15-15H49.3z"/>
				<g>
					<g>
						<path class="st0" d="M61.2,384.4c-2,0-3.7-1.6-3.7-3.7v-7.1c0-2,1.6-3.7,3.7-3.7c2,0,3.7,1.6,3.7,3.7v7.1
							C64.8,382.7,63.2,384.4,61.2,384.4z"/>
						<path class="st0" d="M79.7,384.4c-2,0-3.7-1.6-3.7-3.7v-7.1c0-2,1.6-3.7,3.7-3.7s3.7,1.6,3.7,3.7v7.1
							C83.4,382.7,81.7,384.4,79.7,384.4z"/>
						<path class="st0" d="M98.2,384.4c-2,0-3.7-1.6-3.7-3.7v-7.1c0-2,1.6-3.7,3.7-3.7s3.7,1.6,3.7,3.7v7.1
							C101.9,382.7,100.2,384.4,98.2,384.4z"/>
					</g>
					<path class="st0" d="M170.2,380.4h-38.5c-2,0-3.7-1.6-3.7-3.7c0-2,1.6-3.7,3.7-3.7h38.5c2,0,3.7,1.6,3.7,3.7
						C173.9,378.7,172.3,380.4,170.2,380.4z"/>
				</g>
			</g>
			<g>
				<path class="st0" d="M182.1,460.7H49.3c-12.4,0-22.4-10.1-22.4-22.4v-3.2c0-12.4,10.1-22.4,22.4-22.4h132.9
					c12.4,0,22.4,10.1,22.4,22.4v3.2C204.5,450.6,194.5,460.7,182.1,460.7z M49.3,420c-8.3,0-15,6.7-15,15v3.2c0,8.3,6.7,15,15,15
					h132.9c8.3,0,15-6.7,15-15V435c0-8.3-6.7-15-15-15H49.3z"/>
				<g>
					<g>
						<path class="st0" d="M61.2,443.9c-2,0-3.7-1.6-3.7-3.7v-7.1c0-2,1.6-3.7,3.7-3.7c2,0,3.7,1.6,3.7,3.7v7.1
							C64.8,442.2,63.2,443.9,61.2,443.9z"/>
						<path class="st0" d="M79.7,443.9c-2,0-3.7-1.6-3.7-3.7v-7.1c0-2,1.6-3.7,3.7-3.7s3.7,1.6,3.7,3.7v7.1
							C83.4,442.2,81.7,443.9,79.7,443.9z"/>
						<path class="st0" d="M98.2,443.9c-2,0-3.7-1.6-3.7-3.7v-7.1c0-2,1.6-3.7,3.7-3.7s3.7,1.6,3.7,3.7v7.1
							C101.9,442.2,100.2,443.9,98.2,443.9z"/>
					</g>
					<path class="st0" d="M170.2,439.9h-38.5c-2,0-3.7-1.6-3.7-3.7c0-2,1.6-3.7,3.7-3.7h38.5c2,0,3.7,1.6,3.7,3.7
						C173.9,438.2,172.3,439.9,170.2,439.9z"/>
				</g>
			</g>
		</g>
		<g>
			<g>
				<path class="st0" d="M462.7,341.7H329.9c-12.4,0-22.4-10.1-22.4-22.4v-3.2c0-12.4,10.1-22.4,22.4-22.4h132.9
					c12.4,0,22.4,10.1,22.4,22.4v3.2C485.1,331.6,475.1,341.7,462.7,341.7z M329.9,301c-8.3,0-15,6.7-15,15v3.2c0,8.3,6.7,15,15,15
					h132.9c8.3,0,15-6.7,15-15V316c0-8.3-6.7-15-15-15H329.9z"/>
				<g>
					<g>
						<path class="st0" d="M341.8,324.9c-2,0-3.7-1.6-3.7-3.7v-7.1c0-2,1.6-3.7,3.7-3.7s3.7,1.6,3.7,3.7v7.1
							C345.4,323.2,343.8,324.9,341.8,324.9z"/>
						<path class="st0" d="M360.3,324.9c-2,0-3.7-1.6-3.7-3.7v-7.1c0-2,1.6-3.7,3.7-3.7s3.7,1.6,3.7,3.7v7.1
							C364,323.2,362.3,324.9,360.3,324.9z"/>
						<path class="st0" d="M378.8,324.9c-2,0-3.7-1.6-3.7-3.7v-7.1c0-2,1.6-3.7,3.7-3.7c2,0,3.7,1.6,3.7,3.7v7.1
							C382.5,323.2,380.8,324.9,378.8,324.9z"/>
					</g>
					<path class="st0" d="M450.8,320.9h-38.5c-2,0-3.7-1.6-3.7-3.7c0-2,1.6-3.7,3.7-3.7h38.5c2,0,3.7,1.6,3.7,3.7
						C454.5,319.2,452.9,320.9,450.8,320.9z"/>
				</g>
			</g>
			<g>
				<path class="st0" d="M462.7,401.2H329.9c-12.4,0-22.4-10.1-22.4-22.4v-3.2c0-12.4,10.1-22.4,22.4-22.4h132.9
					c12.4,0,22.4,10.1,22.4,22.4v3.2C485.1,391.1,475.1,401.2,462.7,401.2z M329.9,360.5c-8.3,0-15,6.7-15,15v3.2
					c0,8.3,6.7,15,15,15h132.9c8.3,0,15-6.7,15-15v-3.2c0-8.3-6.7-15-15-15H329.9z"/>
				<g>
					<g>
						<path class="st0" d="M341.8,384.4c-2,0-3.7-1.6-3.7-3.7v-7.1c0-2,1.6-3.7,3.7-3.7s3.7,1.6,3.7,3.7v7.1
							C345.4,382.7,343.8,384.4,341.8,384.4z"/>
						<path class="st0" d="M360.3,384.4c-2,0-3.7-1.6-3.7-3.7v-7.1c0-2,1.6-3.7,3.7-3.7s3.7,1.6,3.7,3.7v7.1
							C364,382.7,362.3,384.4,360.3,384.4z"/>
						<path class="st0" d="M378.8,384.4c-2,0-3.7-1.6-3.7-3.7v-7.1c0-2,1.6-3.7,3.7-3.7c2,0,3.7,1.6,3.7,3.7v7.1
							C382.5,382.7,380.8,384.4,378.8,384.4z"/>
					</g>
					<path class="st0" d="M450.8,380.4h-38.5c-2,0-3.7-1.6-3.7-3.7c0-2,1.6-3.7,3.7-3.7h38.5c2,0,3.7,1.6,3.7,3.7
						C454.5,378.7,452.9,380.4,450.8,380.4z"/>
				</g>
			</g>
			<g>
				<path class="st0" d="M462.7,460.7H329.9c-12.4,0-22.4-10.1-22.4-22.4v-3.2c0-12.4,10.1-22.4,22.4-22.4h132.9
					c12.4,0,22.4,10.1,22.4,22.4v3.2C485.1,450.6,475.1,460.7,462.7,460.7z M329.9,420c-8.3,0-15,6.7-15,15v3.2c0,8.3,6.7,15,15,15
					h132.9c8.3,0,15-6.7,15-15V435c0-8.3-6.7-15-15-15H329.9z"/>
				<g>
					<g>
						<path class="st0" d="M341.8,443.9c-2,0-3.7-1.6-3.7-3.7v-7.1c0-2,1.6-3.7,3.7-3.7s3.7,1.6,3.7,3.7v7.1
							C345.4,442.2,343.8,443.9,341.8,443.9z"/>
						<path class="st0" d="M360.3,443.9c-2,0-3.7-1.6-3.7-3.7v-7.1c0-2,1.6-3.7,3.7-3.7s3.7,1.6,3.7,3.7v7.1
							C364,442.2,362.3,443.9,360.3,443.9z"/>
						<path class="st0" d="M378.8,443.9c-2,0-3.7-1.6-3.7-3.7v-7.1c0-2,1.6-3.7,3.7-3.7c2,0,3.7,1.6,3.7,3.7v7.1
							C382.5,442.2,380.8,443.9,378.8,443.9z"/>
					</g>
					<path class="st0" d="M450.8,439.9h-38.5c-2,0-3.7-1.6-3.7-3.7c0-2,1.6-3.7,3.7-3.7h38.5c2,0,3.7,1.6,3.7,3.7
						C454.5,438.2,452.9,439.9,450.8,439.9z"/>
				</g>
			</g>
		</g>
	</g>
</g>
</svg>
