<?xml version="1.0" encoding="utf-8"?>
<!-- Generator: Adobe Illustrator 26.5.0, SVG Export Plug-In . SVG Version: 6.00 Build 0)  -->
<svg version="1.1" id="Layer_1" xmlns="http://www.w3.org/2000/svg" xmlns:xlink="http://www.w3.org/1999/xlink" x="0px" y="0px"
	 viewBox="0 0 96 120" style="enable-background:new 0 0 96 120;" xml:space="preserve">
<style type="text/css">
	.st0{display:none;}
	.st1{display:inline;opacity:0.2;}
	.st2{stroke:#EC2227;stroke-width:0.5;stroke-miterlimit:10;}
	.st3{fill:none;stroke:#EC2227;stroke-width:0.5;stroke-miterlimit:10;}
	.st4{fill:#2A8E5C;}
</style>
<g class="st0">
	<g class="st1">
		<g>
			<path class="st2" d="M90.6,84.5c0,3.3-2.7,6.1-6.1,6.1H11.6c-3.3,0-6.1-2.7-6.1-6.1V11.6c0-3.3,2.7-6.1,6.1-6.1h72.9
				c3.3,0,6.1,2.7,6.1,6.1V84.5z"/>
			<path class="st2" d="M20.7,94.6c-3.1,0-5.6-2.6-5.6-5.7V7.3c0-3.1,2.5-5.7,5.6-5.7h54.5c3.1,0,5.6,2.6,5.6,5.7v81.6
				c0,3.1-2.5,5.7-5.6,5.7H20.7z"/>
			<path class="st2" d="M7.3,80.9c-3.2,0-5.8-2.5-5.8-5.5V20.6c0-3,2.6-5.5,5.8-5.5h81.4c3.2,0,5.8,2.5,5.8,5.5v54.7
				c0,3-2.6,5.5-5.8,5.5H7.3z"/>
		</g>
		<circle class="st2" cx="48" cy="48" r="19.4"/>
		<circle class="st2" cx="48" cy="48" r="46.5"/>
		<line class="st3" x1="0" y1="0" x2="96" y2="96"/>
		<line class="st3" x1="96" y1="0" x2="0" y2="96"/>
	</g>
</g>
<g>
	<path class="st4" d="M86.5,55H9.5c-6.1,0-7.1,9.4-7.2,12.2h91.4C93.6,64.3,92.6,55,86.5,55z M11.9,65.1c-2.2,0-4-1.8-4-4s1.8-4,4-4
		s4,1.8,4,4S14.1,65.1,11.9,65.1z M81.6,64.7H20.4v-7.4h61.2C81.6,57.3,81.6,64.7,81.6,64.7z"/>
	<rect x="21.9" y="58.8" class="st4" width="58.2" height="4.4"/>
	<circle class="st4" cx="11.9" cy="61.1" r="2.5"/>
	<polygon class="st4" points="15.1,28.2 14.6,28.7 39.4,53.5 40.1,54.2 40.6,54.7 41.2,54.2 41.7,53.7 41.5,53.5 15.7,27.6 	"/>
	<polygon class="st4" points="54.5,53.5 54.3,53.7 54.8,54.2 55.4,54.7 55.9,54.2 56.6,53.5 81.4,28.7 80.9,28.1 80.4,27.6 	"/>
</g>
</svg>
