<?xml version="1.0" encoding="utf-8"?>
<!-- Generator: Adobe Illustrator 26.5.0, SVG Export Plug-In . SVG Version: 6.00 Build 0)  -->
<svg version="1.1" id="Layer_1" xmlns:serif="http://www.serif.com/"
	 xmlns="http://www.w3.org/2000/svg" xmlns:xlink="http://www.w3.org/1999/xlink" x="0px" y="0px" viewBox="0 0 96 120"
	 style="enable-background:new 0 0 96 120;" xml:space="preserve">
<style type="text/css">
	.st0{fill-rule:evenodd;clip-rule:evenodd;fill:#2A8E5C;}
</style>
<path class="st0" d="M13,77.2H3.6c-0.8,0-1.5-0.7-1.5-1.5v-4.3c0-0.8,0.7-1.5,1.5-1.5H13v-0.1c0-0.8,0.7-1.5,1.5-1.5h4.7v-3.2H8.4
	c-3,0-5.5-2.5-5.5-5.5v-50c0-3,2.5-5.5,5.5-5.5h32.4c3,0,5.5,2.5,5.5,5.5v50c0,3-2.5,5.5-5.5,5.5H30.1v3.2h4.7
	c0.8,0,1.5,0.7,1.5,1.5v0.1h9.5c0.8,0,1.5,0.7,1.5,1.5v4.3c0,0.8-0.7,1.5-1.5,1.5h-9.5v0.1c0,0.8-0.7,1.5-1.5,1.5H14.5
	c-0.8,0-1.5-0.7-1.5-1.5V77.2z M13,72.8c-2.7,0-8,0-8,0v1.4h8V72.8z M22.1,68.3h5.1v-3.2h-5.1V68.3z M36.2,72.8v1.4c2.7,0,8,0,8,0
	v-1.4H36.2z M43.4,9.6c0-1.4-1.2-2.6-2.6-2.6H8.4C7,7,5.8,8.1,5.8,9.6v50c0,1.4,1.2,2.6,2.6,2.6h32.4c1.4,0,2.6-1.2,2.6-2.6V9.6z
	 M38,8.2c1.5,0,2.8,1.2,2.8,2.8s-1.2,2.8-2.8,2.8c-1.5,0-2.8-1.2-2.8-2.8S36.5,8.2,38,8.2z M41.2,33.5v8.3c0,1.2-1,2.1-2.1,2.1H10.1
	C9,43.9,8,43,8,41.8v-8.3c0-1.2,1-2.1,2.1-2.1h28.9C40.3,31.4,41.2,32.3,41.2,33.5z M15,34.3h-4.1V41h27.3v-6.7h-4.1L33,37.9
	c-0.2,0.6-0.8,1-1.4,1h-14c-0.6,0-1.2-0.4-1.4-1L15,34.3z M31.1,34.3h-13c0.3,0.8,0.6,1.6,0.6,1.6h11.9L31.1,34.3z M41.2,49.3v8.3
	c0,1.2-1,2.1-2.1,2.1H10.1c-1.2,0-2.1-1-2.1-2.1v-8.3c0-1.2,1-2.1,2.1-2.1h28.9C40.3,47.2,41.2,48.1,41.2,49.3z M15,50.1h-4.1v6.7
	h27.3v-6.7h-4.1L33,53.7c-0.2,0.6-0.8,1-1.4,1h-14c-0.6,0-1.2-0.4-1.4-1L15,50.1z M31.1,50.1h-13c0.3,0.8,0.6,1.6,0.6,1.6h11.9
	L31.1,50.1z M41.2,17.7V26c0,1.2-1,2.1-2.1,2.1H10.1C9,28.1,8,27.2,8,26v-8.3c0-1.2,1-2.1,2.1-2.1h28.9
	C40.3,15.6,41.2,16.6,41.2,17.7z M15,18.5h-4.1v6.7h27.3v-6.7h-4.1L33,22.1c-0.2,0.6-0.8,1-1.4,1h-14c-0.6,0-1.2-0.4-1.4-1L15,18.5z
	 M31.1,18.5h-13c0.3,0.8,0.6,1.6,0.6,1.6h11.9L31.1,18.5z M33.3,75.8v-4.6H16v4.6H33.3z M65.1,83.7h-8.7c-2.4,0-4.4-2-4.4-4.4V59.2
	c0-2.4,2-4.4,4.4-4.4h32.2c2.4,0,4.4,2,4.4,4.4v20.1c0,2.4-2,4.4-4.4,4.4h-8.7v1.7h3c2.3,0,4,1.7,4,3.5v2c0,0.8-0.7,1.5-1.5,1.5
	H59.6c-0.8,0-1.5-0.7-1.5-1.5v-2c0-1.8,1.7-3.5,4-3.5h3V83.7z M77,83.7h-9v1.7h9V83.7z M56.4,57.7c-0.8,0-1.5,0.7-1.5,1.5v20.1
	c0,0.8,0.7,1.5,1.5,1.5h32.2c0.8,0,1.5-0.7,1.5-1.5V59.2c0-0.8-0.7-1.5-1.5-1.5H56.4z M61,89.4H84v-0.5c0-0.1-0.1-0.2-0.2-0.3
	c-0.2-0.2-0.5-0.3-0.8-0.3H62.1c-0.3,0-0.6,0.1-0.8,0.3c-0.1,0.1-0.2,0.2-0.2,0.3V89.4z"/>
</svg>
