<?xml version="1.0" encoding="utf-8"?>
<!-- Generator: Adobe Illustrator 26.5.0, SVG Export Plug-In . SVG Version: 6.00 Build 0)  -->
<svg version="1.1" id="Layer_1" xmlns="http://www.w3.org/2000/svg" xmlns:xlink="http://www.w3.org/1999/xlink" x="0px" y="0px"
	 viewBox="0 0 333.3 416.7" style="enable-background:new 0 0 333.3 416.7;" xml:space="preserve">
<style type="text/css">
	.st0{fill:#2A8E5C;}
</style>
<g>
	<path class="st0" d="M170.6,4.4l43.8,25.3c2.4,1.4,3.8,4,3.8,6.6h0v50.7c0,3-1.8,5.7-4.3,6.9l-43.5,25.1c-2.5,1.4-5.4,1.3-7.7-0.1
		l-43.8-25.3c-2.4-1.4-3.8-4-3.8-6.6h0V36.4c0-3,1.8-5.6,4.3-6.9l43.5-25.1C165.3,2.9,168.3,3.1,170.6,4.4L170.6,4.4z M69.4,171.3
		v32.9l10.5-6.1l0.4-0.2L98,187.6v-32.9C98,154.8,69.4,171.3,69.4,171.3z M54.1,204.2v-32.9l-17.7-10.2l-0.4-0.2l-10.5-6.1v32.9
		l18.1,10.5v0L54.1,204.2L54.1,204.2z M32.8,141.4l10.7,6.2l0.4,0.2l17.7,10.2l28.9-16.7l-10.7-6.2v0l-18.1-10.5l-18.1,10.5
		l-0.4,0.2C43.2,135.5,32.8,141.4,32.8,141.4z M279.3,171.3v32.9l10.5-6.1l0.4-0.2l17.7-10.2v-32.9L297,161l0,0L279.3,171.3
		L279.3,171.3z M264,204.2v-32.9l-28.6-16.5v32.9l18.1,10.5v0L264,204.2L264,204.2z M242.8,141.4l28.9,16.7l17.7-10.2l0,0l11.1-6.4
		l-10.7-6.2v0l-18.1-10.5l-18.1,10.5l-0.4,0.2L242.8,141.4L242.8,141.4z M174.3,276.2v32.9l28.6-16.5v-32.9l-10.9,6.3l0,0
		L174.3,276.2L174.3,276.2z M159,309.1v-32.9L141.3,266l-0.4-0.2l-10.5-6v32.9L159,309.1L159,309.1z M137.8,246.4l10.7,6.2l0.4,0.2
		l17.7,10.2l17.7-10.2l0,0l11.1-6.4l-28.9-16.7L137.8,246.4L137.8,246.4z M174.3,66.3v32.9L203,82.7V49.8l-10.5,6l-0.4,0.2
		C192.1,56.1,174.3,66.3,174.3,66.3z M159,99.2V66.3l-17.7-10.2l0,0l-10.9-6.3v32.9L159,99.2L159,99.2z M137.8,36.5l11.1,6.4l0,0
		l17.7,10.2l17.7-10.2l0.4-0.2l10.7-6.2l-10.7-6.2l-18.1-10.5C166.7,19.8,137.8,36.5,137.8,36.5z M257.6,89c2.7,3.2,2.4,8-0.8,10.8
		c-3.2,2.7-8,2.4-10.8-0.8c-1.8-2.1-3.6-4.1-5.5-6c-1.9-1.9-3.9-3.7-5.9-5.5c-3.2-2.7-3.6-7.6-0.8-10.8c2.7-3.2,7.6-3.6,10.8-0.8
		c2.4,2,4.6,4.1,6.9,6.3C253.5,84.4,255.6,86.7,257.6,89L257.6,89z M88.9,75.9c3.2-2.7,8-2.4,10.8,0.8c2.7,3.2,2.4,8-0.8,10.8
		c-2.1,1.8-4.1,3.6-5.9,5.5c-1.9,1.9-3.8,3.9-5.5,6c-2.7,3.2-7.6,3.6-10.8,0.8c-3.2-2.7-3.6-7.6-0.8-10.8c2-2.3,4.1-4.6,6.3-6.8
		C84.3,80,86.6,77.9,88.9,75.9z M75.8,244.2c-2.7-3.2-2.4-8,0.8-10.8c3.2-2.7,8-2.4,10.8,0.8c1.8,2.1,3.6,4.1,5.5,6
		c1.9,1.9,3.9,3.7,5.9,5.5c3.2,2.7,3.6,7.6,0.8,10.8c-2.7,3.2-7.6,3.6-10.8,0.8c-2.3-2-4.6-4.1-6.8-6.4
		C79.9,248.9,77.8,246.6,75.8,244.2L75.8,244.2z M244.5,257.4c-3.2,2.7-8,2.4-10.8-0.8c-2.7-3.2-2.4-8,0.8-10.8
		c2.1-1.8,4.1-3.6,5.9-5.5c1.9-1.9,3.8-3.9,5.5-6c2.7-3.2,7.6-3.6,10.8-0.8c3.2,2.7,3.6,7.6,0.8,10.8c-2,2.3-4.1,4.6-6.3,6.8
		C249.1,253.3,246.8,255.4,244.5,257.4L244.5,257.4z M36,122l21.9-12.6c2.3-1.4,5.3-1.5,7.7-0.1l22,12.7l0,0l21.3,12.3
		c2.6,1.2,4.5,3.9,4.5,7V192h0c0,2.6-1.4,5.2-3.8,6.6l-21.5,12.4l-0.4,0.2l-21.9,12.6c-2.3,1.4-5.3,1.5-7.7,0.1l-22-12.7l0,0
		L14.6,199c-2.6-1.2-4.5-3.9-4.5-7v-50.7h0c0-2.6,1.4-5.2,3.8-6.6l21.5-12.4L36,122L36,122z M245.9,122l21.9-12.6
		c2.3-1.4,5.3-1.5,7.7-0.1l22,12.7l0,0l21.3,12.3c2.6,1.2,4.5,3.9,4.5,7V192h0c0,2.6-1.4,5.2-3.8,6.6l-21.5,12.4l-0.4,0.2
		l-21.9,12.6c-2.3,1.4-5.3,1.5-7.7,0.1l-22-12.7l0,0L224.5,199c-2.6-1.2-4.5-3.9-4.5-7v-50.7h0c0-2.6,1.4-5.2,3.8-6.6l21.5-12.4
		L245.9,122L245.9,122z M140.9,226.9l21.9-12.6c2.3-1.4,5.3-1.5,7.7-0.1l43.5,25.1c2.6,1.2,4.3,3.9,4.3,6.9V297h0
		c0,2.6-1.4,5.2-3.8,6.6l-43.8,25.3c-2.3,1.4-5.3,1.5-7.7,0l-43.5-25.1c-2.6-1.2-4.3-3.9-4.3-6.9v-50.7h0c0-2.6,1.4-5.2,3.8-6.6
		L140.9,226.9L140.9,226.9z"/>
</g>
</svg>
