<?xml version="1.0" encoding="utf-8"?>
<!-- Generator: Adobe Illustrator 26.5.0, SVG Export Plug-In . SVG Version: 6.00 Build 0)  -->
<svg version="1.1" id="Layer_1" xmlns="http://www.w3.org/2000/svg" xmlns:xlink="http://www.w3.org/1999/xlink" x="0px" y="0px"
	 viewBox="0 0 66 82.5" style="enable-background:new 0 0 66 82.5;" xml:space="preserve">
<style type="text/css">
	.st0{fill:#2A8E5C;}
</style>
<path class="st0" d="M59.3,7.8H44.2c0,0,0,0,0,0C42,3.9,37.8,1.2,33,1.2s-9,2.7-11.1,6.6c0,0,0,0,0,0H6.7c-2.6,0-4.6,2.1-4.6,4.6
	v35.4c0,2.6,2.1,4.6,4.6,4.6h18.7v4.9h-4.1c-2,0-3.7,1.7-3.7,3.7s1.6,3.7,3.7,3.7h23.5c2,0,3.7-1.7,3.7-3.7s-1.7-3.7-3.7-3.7h-4.2
	v-4.9h18.7c2.6,0,4.6-2.1,4.6-4.6V12.5C63.9,9.9,61.8,7.8,59.3,7.8z M33,2.8c6.2,0,11.2,5,11.2,11.1c0,5.4-8.8,17.4-11.2,20.6
	c-2.4-3.2-11.1-15.2-11.1-20.6C21.9,7.8,26.9,2.8,33,2.8z M3.6,12.5c0-1.7,1.4-3.1,3.1-3.1h14.5c-0.5,1.4-0.9,2.9-0.9,4.6
	c0,5.7,8.3,17.3,11.1,21.1H13.2v-2.4h3.6c1,0,1.7-0.8,1.7-1.7V25v-3.6c0-0.4-0.3-0.8-0.8-0.8h-6.1V20c0-0.4-0.3-0.8-0.8-0.8H7.1
	c-0.4,0-0.8,0.3-0.8,0.8v5v5.9c0,1,0.8,1.7,1.7,1.7h3.6V35H7.1c-0.4,0-0.8,0.3-0.8,0.8s0.3,0.8,0.8,0.8h51.8c0.4,0,0.8-0.3,0.8-0.8
	S59.3,35,58.9,35h-4.6v-2.4h3.6c1,0,1.7-0.8,1.7-1.7V25v-3.6c0-0.4-0.3-0.8-0.8-0.8h-6.1V20c0-0.4-0.3-0.8-0.8-0.8h-3.9
	c-0.4,0-0.8,0.3-0.8,0.8v5v5.9c0,1,0.8,1.7,1.7,1.7h3.6V35H34.5c2.8-3.8,11.1-15.4,11.1-21.1c0-1.6-0.3-3.1-0.9-4.6h14.5
	c1.7,0,3.1,1.4,3.1,3.1v30.3H3.6V12.5z M11,22.1h6.1v2.1H7.8v-3.5h2.4v0.6C10.2,21.8,10.6,22.1,11,22.1z M7.8,25.8h9.2v5.1
	c0,0.1-0.1,0.2-0.2,0.2H8.1c-0.1,0-0.2-0.1-0.2-0.2V25.8z M52.1,22.1h6.1v2.1h-9.2v-3.5h2.4v0.6C51.3,21.8,51.7,22.1,52.1,22.1z
	 M48.9,25.8h9.2v5.1c0,0.1-0.1,0.2-0.2,0.2h-8.8c-0.1,0-0.2-0.1-0.2-0.2V25.8z M46.9,61.1c0,1.2-1,2.2-2.2,2.2H21.2
	c-1.2,0-2.2-1-2.2-2.2s1-2.2,2.2-2.2h23.5C46,58.9,46.9,59.9,46.9,61.1z M39.1,57.4H26.9v-4.9h12.2V57.4z M62.4,47.8
	c0,1.7-1.4,3.1-3.1,3.1H6.7c-1.7,0-3.1-1.4-3.1-3.1v-3.5h58.8V47.8z"/>
<circle class="st0" cx="33" cy="47.7" r="1"/>
<path class="st0" d="M33,20.6c3.7,0,6.7-3,6.7-6.7s-3-6.7-6.7-6.7s-6.7,3-6.7,6.7S29.3,20.6,33,20.6z M33,8.7c2.9,0,5.2,2.4,5.2,5.2
	s-2.3,5.2-5.2,5.2s-5.2-2.4-5.2-5.2S30.1,8.7,33,8.7z"/>
</svg>
