<?xml version="1.0" encoding="utf-8"?>
<!-- Generator: Adobe Illustrator 26.5.0, SVG Export Plug-In . SVG Version: 6.00 Build 0)  -->
<svg version="1.1" id="Layer_1" xmlns="http://www.w3.org/2000/svg" xmlns:xlink="http://www.w3.org/1999/xlink" x="0px" y="0px"
	 viewBox="0 0 100 125" style="enable-background:new 0 0 100 125;" xml:space="preserve">
<style type="text/css">
	.st0{fill-rule:evenodd;clip-rule:evenodd;fill:#2A8E5C;}
</style>
<path class="st0" d="M42.4,24.3v-7.4c0-4.1,3.3-7.4,7.4-7.4c4.1,0,7.4,3.3,7.4,7.4v7.4H42.4L42.4,24.3z M45.9,94.5v2.8h24.2v-2.8
	H45.9L45.9,94.5L45.9,94.5z M71,91.4H45.6C44.3,85,39.7,81,34.2,68.9c-2.1-4.8,2.8-7.5,6-3.5l6.2,7.9V46.7c0-1.9,1.5-3.5,3.4-3.5
	s3.5,1.6,3.5,3.5V65c0-1.9,1.6-3.5,3.5-3.5s3.5,1.6,3.5,3.5v3.2c0-1.9,1.5-3.5,3.4-3.5s3.5,1.6,3.5,3.5v3.1c0-1.9,1.5-3.5,3.4-3.5
	c1.9,0,3.5,1.6,3.5,3.5v4.7C74,79.6,73.6,86.5,71,91.4L71,91.4L71,91.4z M16.1,57.2c0-0.4-0.1-0.9-0.2-1.3l3.9-3.8h9.4v3.1
	c0,0,0,0.1,0,0.1l-7.3,2.4c-0.4,0.1-0.7,0.4-0.9,0.7l-5.1,9c-0.1,0-0.2,0-0.3,0c-2,0-3.7,1.7-3.7,3.7c0,2,1.6,3.7,3.7,3.7
	s3.7-1.7,3.7-3.7c0-0.8-0.3-1.6-0.7-2.2l4.8-8.5l7-2.2c0.8,0.9,2,1.4,3.2,1.4h9.8V46.7c0-1.9,0.8-3.6,2.1-4.8
	c-0.5-0.8-0.9-1.8-0.9-2.9c0-2.9,2.4-5.3,5.3-5.3c2.9,0,5.3,2.4,5.3,5.3c0,1.1-0.3,2.1-0.9,2.9c1.3,1.2,2.1,2.9,2.1,4.7v11.8
	c0.1,0,0.3,0,0.4,0c1.4,0,2.6,0.4,3.7,1.1h5.7c1.3,0,2.5-0.6,3.3-1.5l7.2,2.3l4.8,8.5c-0.4,0.6-0.7,1.4-0.7,2.2c0,2,1.6,3.7,3.7,3.7
	c2,0,3.7-1.7,3.7-3.7c0-2-1.6-3.7-3.7-3.7c-0.1,0-0.2,0-0.3,0l-5.1-9c-0.2-0.3-0.5-0.6-0.9-0.7l-7.6-2.4v-3.1h9.7l3.9,3.8
	c-0.1,0.4-0.2,0.8-0.2,1.3c0,2,1.6,3.7,3.7,3.7s3.7-1.6,3.7-3.7c0-2-1.6-3.7-3.7-3.7c-0.5,0-0.9,0.1-1.3,0.2L82,49.6
	c-0.3-0.3-0.7-0.5-1.2-0.5H70.6v-5.6h13.6c0.6,1.3,1.9,2.2,3.3,2.2c2,0,3.7-1.6,3.7-3.7c0-2-1.6-3.7-3.7-3.7c-1.5,0-2.8,0.9-3.3,2.2
	H70.6v-5.6h10.3c0.5,0,0.9-0.2,1.2-0.5l4.2-4.1c0.4,0.2,0.9,0.2,1.3,0.2c2,0,3.7-1.7,3.7-3.7c0-2-1.6-3.7-3.7-3.7s-3.7,1.6-3.7,3.7
	c0,0.4,0.1,0.9,0.2,1.3l-3.9,3.8h-9.7V29l7.7-2.8c0.4-0.1,0.6-0.4,0.8-0.7l5.1-9c0.1,0,0.2,0,0.3,0c2,0,3.7-1.6,3.7-3.7
	c0-2-1.6-3.7-3.7-3.7c-2,0-3.7,1.6-3.7,3.7c0,0.8,0.3,1.6,0.7,2.2l-4.8,8.5l-6.9,2.6c-0.8-1.1-2.1-1.8-3.5-1.8H64v-7.4
	c0-7.8-6.4-14.1-14.1-14.1c-7.8,0-14.1,6.4-14.1,14.1v7.4h-2.2c-1.4,0-2.7,0.7-3.5,1.7l-6.7-2.5L18.6,15c0.4-0.6,0.7-1.4,0.7-2.2
	c0-2-1.6-3.7-3.7-3.7s-3.7,1.6-3.7,3.7c0,2,1.6,3.7,3.7,3.7c0.1,0,0.2,0,0.3,0l5.1,9c0.2,0.3,0.5,0.6,0.8,0.7l7.4,2.7v2.8h-9.4
	L15.9,28c0.1-0.4,0.2-0.8,0.2-1.3c0-2-1.6-3.7-3.7-3.7c-2,0-3.7,1.6-3.7,3.7c0,2,1.6,3.7,3.7,3.7c0.5,0,0.9-0.1,1.3-0.2l4.2,4.1
	c0.3,0.3,0.7,0.5,1.2,0.5h10v5.6H15.8c-0.6-1.3-1.9-2.2-3.4-2.2c-2,0-3.7,1.7-3.7,3.7c0,2,1.6,3.7,3.7,3.7c1.5,0,2.8-0.9,3.4-2.2
	h13.4v5.6h-10c-0.5,0-0.9,0.2-1.2,0.5l-4.2,4.1c-0.4-0.2-0.9-0.2-1.3-0.2c-2,0-3.7,1.6-3.7,3.7c0,2,1.6,3.7,3.7,3.7
	C14.5,60.9,16.1,59.2,16.1,57.2L16.1,57.2z"/>
</svg>
