<?xml version="1.0" encoding="utf-8"?>
<!-- Generator: Adobe Illustrator 26.5.0, SVG Export Plug-In . SVG Version: 6.00 Build 0)  -->
<svg version="1.1" id="Layer_1" xmlns:serif="http://www.serif.com/"
	 xmlns="http://www.w3.org/2000/svg" xmlns:xlink="http://www.w3.org/1999/xlink" x="0px" y="0px" viewBox="0 0 32 40"
	 style="enable-background:new 0 0 32 40;" xml:space="preserve">
<style type="text/css">
	.st0{fill:none;}
	.st1{fill:#2A8E5C;}
</style>
<rect x="23" y="-50.8" class="st0" width="32" height="32"/>
<g transform="matrix(1.00008,0,0,1.00008,-36.9765,-112.011)">
	<path class="st1" d="M64.4,126.8c0.4,0,0.6,0.3,0.9,0.6c2.2,2.9,2.2,7.2-0.2,10.1c-0.3,0.4-0.9,0.6-1.3,0.4
		c-0.5-0.3-0.7-1.1-0.2-1.6c1.8-2.1,2-5.4,0.2-7.7c-0.1-0.1-0.2-0.2-0.2-0.2c-0.1-0.2-0.2-0.3-0.2-0.4c-0.1-0.5,0.3-1.1,0.9-1.2
		C64.3,126.8,64.4,126.8,64.4,126.8z"/>
</g>
<g transform="matrix(1,0,0,1,-36,-115)">
	<path class="st1" d="M44.1,131.2c3.6-1.5,7.2-3.1,10.8-4.6c0.4-0.2,0.8-0.2,1.2-0.2c1.6,0,3,1.4,3,3c0,0.5,0,1,0,1.5l2.5,1.7
		c0.3,0.2,0.4,0.5,0.4,0.8v4c0,0.3-0.2,0.6-0.4,0.8l-2.5,1.7c0,0.5,0,1,0,1.5c0,1.6-1.5,3-3.1,3c-0.4,0-0.7-0.1-1.1-0.2l-8.2-3.5
		c-0.7-0.3-0.8-1.5,0-1.8c0.2-0.1,0.4-0.1,0.6,0c0.1,0,0.1,0,0.1,0.1c2.7,1.2,5.5,2.4,8.2,3.5c0.6,0.2,1.4-0.2,1.4-0.9
		c0-0.6,0-1.3,0-1.9c0,0,0-0.1,0-0.1c0-3.3,0-6.6,0-9.9c0-0.6-0.7-1.2-1.4-0.9l-0.6,0.3v10.6c0,0.2,0,0.3-0.1,0.4
		c-0.3,0.6-1.2,0.7-1.7,0.2c-0.1-0.2-0.2-0.4-0.2-0.6v-9.8l-8,3.4c0,0.1,0,0.2,0,0.3c0,0-0.1,0.6-0.5,0.9c-0.4,0.2-0.9,0.2-1.2-0.1
		c-0.4-0.3-0.2-0.9-0.5-1.3c-0.2-0.3-0.5-0.4-0.8-0.4c-0.5,0-1.1-0.1-1.5,0.1c-0.3,0.2-0.5,0.5-0.5,0.8c0,1.3,0,2.7,0,4
		c0,0.5,0.5,1,1,1c0.6,0,1.2,0.1,1.6-0.2c0.3-0.2,0.4-0.5,0.5-0.8v-1c0-0.8,1-1.3,1.7-0.7c0.2,0.2,0.3,0.4,0.3,0.6
		c0,0.1,0,0.1,0,0.1c0,0.9,0,1.8-0.4,2.5c-0.5,0.9-1.5,1.4-2.5,1.5c-0.3,0-0.7,0-1,0c0,1.5,0,3,0,4.5c0,0.4,0.7,0.7,1,0.2
		c0-0.1,0-0.1,0-0.2v-2.5c0-0.7,0.7-1.2,1.4-0.9c0.4,0.1,0.6,0.5,0.6,0.9v2.5c0,1.4-1.2,2.6-2.6,2.5c-1.3-0.1-2.4-1.2-2.4-2.5v-5.3
		c-0.6-0.6-1-1.4-1-2.2c0-1.4,0-2.7,0-4.1c0-1.5,1.3-3,3-3c0.4,0,0.7,0,1.1,0C42.8,130.3,43.6,130.6,44.1,131.2z M59,133.2
		c0,1.4,0,2.8,0,4.2l1-0.7v-2.9L59,133.2z"/>
</g>
</svg>
