<?xml version="1.0" encoding="UTF-8"?>
<svg id="Layer_2" data-name="Layer 2" xmlns="http://www.w3.org/2000/svg" viewBox="0 0 787.73 774.65">
  <defs>
    <style>
      .cls-1 {
        fill: #2a8e5c;
      }
    </style>
  </defs>
  <g id="Layer_1-2" data-name="Layer 1">
    <g>
      <path class="cls-1" d="M307.86,637.37V277.85c0-11.14-9.06-20.21-20.21-20.21h-.79v-38h.79c11.14,0,20.21-9.06,20.21-20.21v-69.79c0-3.79-2.14-7.25-5.53-8.94-42.88-21.44-94.07-21.44-136.94,0-3.39,1.69-5.53,5.16-5.53,8.94v69.79c0,11.14,9.06,20.21,20.21,20.21h.79v38h-.79c-11.14,0-20.21,9.06-20.21,20.21v359.53c-33.32,4.86-59,33.62-59,68.27,0,38.05,30.95,69,69,69h128c38.05,0,69-30.95,69-69,0-34.66-25.68-63.42-59-68.28Zm-20,58.27h-108v-124h108v124ZM179.86,199.43v-63.45c34.23-15.16,73.77-15.16,108,0v63.45c0,.11-.09,.21-.21,.21h-107.58c-.12,0-.21-.09-.21-.21Zm.21,78.21h107.58c.11,0,.21,.09,.21,.21v273.79h-108V277.85c0-.12,.09-.21,.21-.21Z"/>
      <path class="cls-1" d="M627.86,636.48V276.96c0-11.14-9.06-20.21-20.21-20.21h-.79v-38h.79c11.14,0,20.21-9.06,20.21-20.21v-69.79c0-3.79-2.14-7.25-5.53-8.94-42.88-21.44-94.07-21.44-136.94,0-3.39,1.69-5.53,5.16-5.53,8.94v69.79c0,11.14,9.06,20.21,20.21,20.21h.79v38h-.79c-11.14,0-20.21,9.06-20.21,20.21v359.53c-33.32,4.86-59,33.62-59,68.27,0,38.05,30.95,69,69,69h128c38.05,0,69-30.95,69-69,0-34.66-25.68-63.42-59-68.28Zm-20,58.27h-108v-124h108v124Zm-108-496.21v-63.45c34.23-15.16,73.77-15.16,108,0v63.45c0,.11-.09,.21-.21,.21h-107.58c-.12,0-.21-.09-.21-.21Zm.21,78.21h107.58c.11,0,.21,.09,.21,.21v273.79h-108V276.96c0-.12,.09-.21,.21-.21Z"/>
      <rect class="cls-1" x="-315.43" y="375.64" width="778.59" height="20" transform="translate(-318.68 395.1) rotate(-80.54)"/>
      <rect class="cls-1" x="703.86" y="-3.65" width="20" height="778.59" transform="translate(-53.69 122.61) rotate(-9.46)"/>
      <rect class="cls-1" x="383.86" y="57.64" width="20" height="88"/>
      <rect class="cls-1" x="383.86" y="249.64" width="20" height="88"/>
      <rect class="cls-1" x="383.86" y="441.64" width="20" height="88"/>
    </g>
  </g>
</svg>