<?xml version="1.0" encoding="utf-8"?>
<!-- Generator: Adobe Illustrator 26.5.0, SVG Export Plug-In . SVG Version: 6.00 Build 0)  -->
<svg version="1.1" id="Layer_1" xmlns="http://www.w3.org/2000/svg" xmlns:xlink="http://www.w3.org/1999/xlink" x="0px" y="0px"
	 viewBox="0 0 64 80" style="enable-background:new 0 0 64 80;" xml:space="preserve">
<style type="text/css">
	.st0{fill:#2A8E5C;}
</style>
<g>
	<g>
		<path class="st0" d="M53,6H11c-2.8,0-5,2.2-5,5v42c0,2.8,2.2,5,5,5h42c2.8,0,5-2.2,5-5V11C58,8.2,55.8,6,53,6z M56,53
			c0,1.7-1.3,3-3,3H11c-1.7,0-3-1.3-3-3V11c0-1.7,1.3-3,3-3h42c1.7,0,3,1.3,3,3V53z M53,6H11c-2.8,0-5,2.2-5,5v42c0,2.8,2.2,5,5,5
			h42c2.8,0,5-2.2,5-5V11C58,8.2,55.8,6,53,6z M56,53c0,1.7-1.3,3-3,3H11c-1.7,0-3-1.3-3-3V11c0-1.7,1.3-3,3-3h42c1.7,0,3,1.3,3,3
			V53z M53,6H11c-2.8,0-5,2.2-5,5v42c0,2.8,2.2,5,5,5h42c2.8,0,5-2.2,5-5V11C58,8.2,55.8,6,53,6z M56,53c0,1.7-1.3,3-3,3H11
			c-1.7,0-3-1.3-3-3V11c0-1.7,1.3-3,3-3h42c1.7,0,3,1.3,3,3V53z M53,6H11c-2.8,0-5,2.2-5,5v42c0,2.8,2.2,5,5,5h42c2.8,0,5-2.2,5-5
			V11C58,8.2,55.8,6,53,6z M56,53c0,1.7-1.3,3-3,3H11c-1.7,0-3-1.3-3-3V11c0-1.7,1.3-3,3-3h42c1.7,0,3,1.3,3,3V53z M55,2H9
			C5.1,2,2,5.1,2,9v46c0,3.9,3.1,7,7,7h46c3.9,0,7-3.1,7-7V9C62,5.1,58.9,2,55,2z M60,55c0,2.8-2.2,5-5,5H9c-2.8,0-5-2.2-5-5V9
			c0-2.8,2.2-5,5-5h46c2.8,0,5,2.2,5,5V55z M53,6H11c-2.8,0-5,2.2-5,5v42c0,2.8,2.2,5,5,5h42c2.8,0,5-2.2,5-5V11C58,8.2,55.8,6,53,6
			z M56,53c0,1.7-1.3,3-3,3H11c-1.7,0-3-1.3-3-3V11c0-1.7,1.3-3,3-3h42c1.7,0,3,1.3,3,3V53z M53,6H11c-2.8,0-5,2.2-5,5v42
			c0,2.8,2.2,5,5,5h42c2.8,0,5-2.2,5-5V11C58,8.2,55.8,6,53,6z M56,53c0,1.7-1.3,3-3,3H11c-1.7,0-3-1.3-3-3V11c0-1.7,1.3-3,3-3h42
			c1.7,0,3,1.3,3,3V53z M53,6H11c-2.8,0-5,2.2-5,5v42c0,2.8,2.2,5,5,5h42c2.8,0,5-2.2,5-5V11C58,8.2,55.8,6,53,6z M56,53
			c0,1.7-1.3,3-3,3H11c-1.7,0-3-1.3-3-3V11c0-1.7,1.3-3,3-3h42c1.7,0,3,1.3,3,3V53z"/>
		<path class="st0" d="M49,21h-2.3l0.2-0.6c0.2-0.5-0.1-1.1-0.6-1.3C46.2,19,46.1,19,46,19h-3l0.9-1.5c0.3-0.5,0.1-1.1-0.4-1.4
			C43.4,16,43.2,16,43,16H20c-0.6,0-1,0.4-1,1v5c0,0.6,0.4,1,1,1h1v5c0,0.6,0.4,1,1,1h7v2c0,1.3,0.8,2.4,2,2.8V36c0,0.6-0.4,1-1,1
			h-8c0-2.8-2.2-5-5-5h-2c-0.6,0-1,0.4-1,1v14c0,0.6,0.4,1,1,1h2c2.8,0,5-2.2,5-5h10c2.8,0,5-2.2,5-5v-4.2c1.2-0.4,2-1.6,2-2.8v-2h4
			c0.4,0,0.8-0.3,0.9-0.6l0.5-1.4H49c0.6,0,1-0.4,1-1v-4C50,21.4,49.6,21,49,21z M20,43c0,1.7-1.3,3-3,3h-1V34h1c1.7,0,3,1.3,3,3V43
			z M37,31c0,0.6-0.4,1-1,1h-4c-0.6,0-1-0.4-1-1v-2h6V31z M42.3,27H23v-4h17c0.4,0,0.7-0.2,0.9-0.5l0.9-1.5h2.8L42.3,27z"/>
	</g>
</g>
</svg>
