<?xml version="1.0" encoding="utf-8"?>
<!-- Generator: Adobe Illustrator 26.5.0, SVG Export Plug-In . SVG Version: 6.00 Build 0)  -->
<svg version="1.1" id="Layer_1" xmlns="http://www.w3.org/2000/svg" xmlns:xlink="http://www.w3.org/1999/xlink" x="0px" y="0px"
	 viewBox="0 0 5000 6250" style="enable-background:new 0 0 5000 6250;" xml:space="preserve">
<style type="text/css">
	.st0{fill:#2A8E5C;}
	.st1{font-family:'Arial-BoldMT';}
	.st2{font-size:5px;}
</style>
<g>
	<path class="st0" d="M4154.9,3103.8c-82.6-131.3-193.8-241.4-301.4-347.9c-6.2-6.1-12.3-12.2-18.5-18.3
		c-127.3-126.3-307.3-378.3-81.4-648.1c18.1-21.6,20-51,4.9-75s-43.6-35.4-70.9-28.5c-108.6,27.7-204.3,69.1-284.4,122.9
		c-71.4,48-130.9,106-176.8,172.4c-74.6,108-112.6,239.9-104.3,361.9c10.3,151.9,68.2,247.2,114.6,323.8
		c24.2,40,45.2,74.5,57.4,111.5c23.8,72.3,12.2,146.1-31.8,202.5c-36.8,47.1-90.6,72.9-144.1,69c-117.6-8.5-192.8-95.8-201.2-233.3
		c-1.2-20.3,0.3-47.2,4.7-80c3.7-28.5-11.4-55.7-37.8-67.5c-26.1-11.7-56.2-5.1-74.8,16.4c-105.7,121.8-166,276.4-179.2,459.3
		c-17.7,243.7,58,469.2,213,635.1c155.1,166,376.3,257.3,623.4,257.3c1.5,0,3.1,0,4.6,0c208.7-1,406.8-78,557.9-216.9
		c152.8-140.5,242.9-331.4,253.7-537.7C4291.3,3411,4249.6,3254.4,4154.9,3103.8z M4219.6,3579.4c-20.3,388-349.3,693.3-749.2,695.1
		c-1.4,0-2.8,0-4.3,0c-229.5,0-434.5-84.2-577.6-237.4c-142.9-153-212.6-361.7-196.2-587.7c12.3-169.1,67.5-311.4,164.1-422.7
		c0.3-0.4,0.5-0.5,0.5-0.5c0.3-0.1,1.4,0.2,2.1,0.9c0.3,0.3,0.5,0.4,0.3,1.5c-4.8,36.8-6.5,67.8-5.1,92
		c4.9,80.2,30.3,149.6,73.5,200.8c45.9,54.3,110.1,85.9,185.7,91.4c5.1,0.4,10.1,0.5,15.1,0.5c69.2,0,136.7-34.3,183-93.6
		c26.7-34.2,44.9-75.1,52.7-118.4c8.5-47,4.9-94.9-10.8-142.4c-14.4-43.8-38.2-82.9-63.3-124.4c-45.2-74.5-96.4-158.9-105.7-295.5
		c-14.2-208.5,113.1-488.7,518.5-592.2c0.9-0.2,1-0.1,1.4,0.2c0.7,0.6,1.2,1.4,1.2,1.9c-0.1,0.1-0.1,0.2-0.3,0.4
		c-62.2,74.3-101.2,152.9-115.9,233.7c-12.6,69.3-7.6,140.6,15,212.2c39,123.3,122.8,224.2,186.3,287.1c6.2,6.1,12.3,12.2,18.5,18.3
		C4020.2,3009.1,4238.1,3224.8,4219.6,3579.4z"/>
	<path class="st0" d="M3421.6,3963.4c-17.3-1.2-32.3,11.7-33.6,29s11.7,32.3,29,33.6c15.5,1.1,30.9,1.7,46.2,1.7
		c54.4,0,106.8-7.2,156.3-21.5c62.8-18.1,119.3-47.2,167.8-86.5c49.1-39.8,88.7-88.8,117.6-145.8c29.7-58.5,47.4-124.2,52.7-195
		c1.3-17.3-11.7-32.3-29-33.6s-32.3,11.7-33.6,29C3876.6,3822.3,3681.9,3982.3,3421.6,3963.4z"/>
	<path class="st0" d="M2260.9,1646.1c-128.8,0-233.6,104.8-233.6,233.6v661.7c-42.7-45.8-103.4-74.4-170.8-74.4
		c-86.3,0-161.7,47-202.2,116.7c-40.4-69.7-115.9-116.7-202.2-116.7c-120.1,0-219.3,91.2-232.1,207.9
		c-42.7-46.6-104.1-75.9-172.2-75.9c-128.8,0-233.6,104.8-233.6,233.6v795.3c0,93.3,18.3,183.8,54.3,269
		c34.8,82.3,84.6,156.2,148.1,219.7s137.4,113.3,219.7,148.1c85.2,36,175.7,54.3,269,54.3h298c93.3,0,183.8-18.3,269-54.3
		c82.3-34.8,156.2-84.6,219.7-148.1s113.3-137.4,148.1-219.7c36-85.2,54.3-175.7,54.3-269V1879.8
		C2494.5,1750.9,2389.7,1646.1,2260.9,1646.1z M1803.4,4256.1h-298c-346.5,0-628.3-281.9-628.3-628.3v-795.3
		c0-94.2,76.6-170.8,170.8-170.8s170.8,76.6,170.8,170.8V3029c0,17.3,14.1,31.4,31.4,31.4c2.2,0,4.3-0.2,6.3-0.6
		c14.3-2.9,25.1-15.6,25.1-30.7v-196.6c0,0,0,0,0-0.1v-131.9c0-94.2,76.6-170.8,170.8-170.8c94.2,0,170.8,76.6,170.8,170.8V3029
		c0,17.3,14.1,31.4,31.4,31.4s31.4-14.1,31.4-31.4v-328.5c0-94.2,76.6-170.8,170.8-170.8c94.2,0,170.8,76.6,170.8,170.8V3029
		c0,1.1,0.1,2.2,0.2,3.2c0.2,1.6,0.4,3.1,0.8,4.6c0.1,0.5,0.3,1,0.4,1.5c4,12.8,15.9,22.1,30,22.1c2.2,0,4.3-0.2,6.3-0.6
		c14.3-2.9,25.1-15.6,25.1-30.7V1879.7c0-94.2,76.6-170.8,170.8-170.8s170.8,76.6,170.8,170.8v1748.1
		C2431.7,3974.2,2149.8,4256.1,1803.4,4256.1z"/>
	<path class="st0" d="M3036.3,2783.2c0-17.3-14.1-31.4-31.4-31.4h-394.8c-17.3,0-31.4,14.1-31.4,31.4c0,17.3,14.1,31.4,31.4,31.4
		h394.8C3022.3,2814.6,3036.3,2800.5,3036.3,2783.2z"/>
	<path class="st0" d="M1243.9,2436.4c17.3,0,31.4-14.1,31.4-31.4V1001.2c0-121.7,99-220.7,220.7-220.7h1529.9
		c121.7,0,220.7,99,220.7,220.7v1020.2c0,17.3,14.1,31.4,31.4,31.4s31.4-14.1,31.4-31.4V1001.2c0-75.7-29.5-146.9-83-200.5
		c-53.5-53.5-124.7-83-200.5-83H1496c-75.7,0-146.9,29.5-200.5,83c-53.5,53.5-83,124.7-83,200.5V2405
		C1212.5,2422.4,1226.5,2436.4,1243.9,2436.4z"/>
	<path class="st0" d="M2587.2,2064.1c-11.7,12.8-10.8,32.6,2,44.3s32.6,10.8,44.3-2c85.1-93.2,132-214,132-340.3
		c0-68.1-13.3-134.2-39.7-196.4c-25.4-60.1-61.8-114.1-108.1-160.4s-100.3-82.7-160.4-108.1c-62.2-26.3-128.3-39.7-196.4-39.7
		s-134.2,13.3-196.4,39.7c-60.1,25.4-114.1,61.8-160.4,108.1s-82.7,100.3-108.1,160.4c-26.3,62.2-39.7,128.3-39.7,196.4
		c0,126.3,46.9,247.1,132,340.3c6.2,6.8,14.7,10.2,23.2,10.2c7.6,0,15.1-2.7,21.2-8.2c12.8-11.7,13.7-31.5,2-44.3
		c-74.5-81.6-115.6-187.4-115.6-298c0-243.7,198.2-441.9,441.9-441.9s441.9,198.2,441.9,441.9
		C2702.8,1876.7,2661.7,1982.6,2587.2,2064.1z"/>
	<path class="st0" d="M2610.1,2548.5c-17.3,0-31.4,14.1-31.4,31.4c0,17.3,14.1,31.4,31.4,31.4h361.3c17.3,0,31.4-14.1,31.4-31.4
		s-14.1-31.4-31.4-31.4H2610.1z"/>
	<path class="st0" d="M3074.6,2310.6c17.3,0,31.4-14.1,31.4-31.4V1034.7c0-62.7-51-113.6-113.6-113.6h-1463
		c-62.7,0-113.6,51-113.6,113.6v1315.9c0,17.3,14.1,31.4,31.4,31.4s31.4-14.1,31.4-31.4V1034.7c0-28,22.8-50.9,50.9-50.9h1463
		c28,0,50.9,22.8,50.9,50.9v1244.6C3043.3,2296.6,3057.3,2310.6,3074.6,2310.6z"/>
</g>
<text transform="matrix(1 0 0 1 0 5015)" class="st1 st2">Created by bsd studio</text>
<text transform="matrix(1 0 0 1 0 5020)" class="st1 st2">from the Noun Project</text>
</svg>
