<?xml version="1.0" encoding="utf-8"?>
<!-- Generator: Adobe Illustrator 26.5.0, SVG Export Plug-In . SVG Version: 6.00 Build 0)  -->
<svg version="1.1" id="Layer_1" xmlns="http://www.w3.org/2000/svg" xmlns:xlink="http://www.w3.org/1999/xlink" x="0px" y="0px"
	 viewBox="0 0 50 62.5" style="enable-background:new 0 0 50 62.5;" xml:space="preserve">
<style type="text/css">
	.st0{fill:#2A8E5C;}
</style>
<g>
	<path class="st0" d="M43.9,1.9c0-0.3-0.2-0.5-0.4-0.7S43,1,42.7,1l-9.6,1.8c-0.5,0.1-0.8,0.5-0.8,1V8c-0.7,0.4-1.2,1.1-1.4,1.9
		h-4.2c-0.2,0-0.4,0.1-0.6,0.2l-0.9,0.7c0.5,0.4,1,0.9,1.3,1.5l0.5-0.4h3.7v1c1-0.3,2-0.4,3-0.4c1.2,0,2.3,0.2,3.4,0.5v-2.3
		c0-0.3-0.1-0.6-0.2-0.9l3.1,0.4l1.2,3.4c0.1,0.4,0.5,0.7,0.9,0.7c0.1,0,0.2,0,0.3,0c0.5-0.2,0.8-0.8,0.6-1.3l-1.4-3.9
		c-0.1-0.3-0.4-0.6-0.8-0.6l-2.3-0.3l4.9-2.4c0.4-0.2,0.6-0.6,0.6-1L43.9,1.9z"/>
	<path class="st0" d="M38.2,15.6c-4.9-2.9-12.3-0.3-12.3,5.9v4.7h15.7l-0.1-5.7C41.4,20.4,41.3,17.5,38.2,15.6z"/>
	<path class="st0" d="M25.8,39.4V48c0,0.5,0.4,1,1,1h14c0.3,0,0.5-0.1,0.7-0.3s0.3-0.5,0.3-0.7l-0.1-8.6H25.8z"/>
	<polygon class="st0" points="25.8,37.4 41.6,37.4 41.5,28.2 25.8,28.2 	"/>
	<path class="st0" d="M21.5,11.1c-0.4-0.1-0.7,0-1,0.3L6.4,24.3l0,0l0,0C6,24.7,5.6,25.5,6.3,27c0.4,0.8,1.1,1.8,1.9,2.6
		c1.4,1.4,2.9,2.2,4,2.2c0.7,0,1.1-0.3,1.3-0.5c0,0,0,0,0.1-0.1l0,0l0,0c0,0,0,0,0.1-0.1l11.5-14.5c0.1-0.2,0.2-0.4,0.3-0.7
		C25.7,12.9,23.5,11.4,21.5,11.1z M9.6,28.2c-1-0.9-1.5-1.8-1.7-2.3c0.5,0.1,1.4,0.6,2.4,1.6s1.5,1.8,1.7,2.3
		C11.5,29.6,10.6,29.1,9.6,28.2z"/>
</g>
</svg>
