<?xml version="1.0" encoding="UTF-8"?>
<svg id="Layer_1" data-name="Layer 1" xmlns="http://www.w3.org/2000/svg" viewBox="0 0 508 508">
  <defs>
    <style>
      .cls-1, .cls-2 {
        fill: #2a8e5c;
      }

      .cls-2 {
        stroke: #fff;
        stroke-miterlimit: 10;
      }
    </style>
  </defs>
  <path class="cls-1" d="M290.65,138.67h-73.3v-51.31c0-19.73,15.79-35.52,35.52-35.52h1.69c19.73,0,35.52,15.79,35.52,35.52v51.31h.56Z"/>
  <path class="cls-1" d="M298.54,146.56h-89.09v-9.02c0-4.51,3.38-7.89,7.89-7.89h72.74c4.51,0,7.89,3.38,7.89,7.89v9.02h.56Z"/>
  <g>
    <path class="cls-1" d="M244.41,76.64c-5.07,4.51-11.84,6.2-14.66,3.95-2.82-2.82-1.13-9.02,3.95-13.53s11.84-6.2,14.66-3.95c3.38,2.26,1.13,8.46-3.95,13.53Z"/>
    <path class="cls-1" d="M252.87,18c-1.69,0-3.38,1.13-3.38,2.82v15.79c0,1.69,1.69,2.82,3.38,2.82s3.38-1.13,3.38-2.82v-15.79c0-1.69-1.69-2.82-3.38-2.82Z"/>
    <path class="cls-1" d="M287.83,32.1c-1.13-1.13-3.38-1.13-4.51,0l-11.84,11.28c-1.13,1.13-1.13,3.38,0,4.51,1.13,1.13,3.38,1.13,4.51,0l11.84-11.28c1.13-1.13,1.13-3.38,0-4.51Z"/>
    <path class="cls-1" d="M217.91,32.1c1.13-1.13,3.38-1.13,4.51,0l11.84,11.28c1.13,1.13,1.13,3.38,0,4.51-1.13,1.13-3.38,1.13-4.51,0l-11.84-11.28c-1.13-1.13-1.13-3.38,0-4.51Z"/>
  </g>
  <rect class="cls-1" x="389.89" y="170.24" width="38.34" height="315.76"/>
  <path class="cls-1" d="M452.48,486v-10.15c0-6.2-5.07-11.84-11.84-11.84h-63.15c-6.2,0-11.84,5.07-11.84,11.84v10.15h86.83Z"/>
  <rect class="cls-1" x="79.77" y="170.24" width="38.34" height="315.76"/>
  <path class="cls-1" d="M480.11,146.56H27.89c-2.82,0-5.64,2.26-5.64,5.64v139.27c0,2.82,2.26,5.64,5.64,5.64H480.11c2.82,0,5.64-2.26,5.64-5.64V152.2c0-3.38-2.82-5.64-5.64-5.64Z"/>
  <g>
    <polygon class="cls-2" points="459.24 297.11 412.44 297.11 380.87 146.56 427.67 146.56 459.24 297.11"/>
    <polygon class="cls-2" points="348.16 297.11 301.93 297.11 270.35 146.56 317.15 146.56 348.16 297.11"/>
    <polygon class="cls-2" points="237.65 297.11 190.85 297.11 159.84 146.56 206.07 146.56 237.65 297.11"/>
    <polygon class="cls-2" points="127.13 297.11 80.33 297.11 48.76 146.56 95.56 146.56 127.13 297.11"/>
  </g>
  <path class="cls-1" d="M142.36,486v-10.15c0-6.2-5.07-11.84-11.84-11.84h-63.15c-6.2,0-11.84,5.07-11.84,11.84v10.15h86.83Z"/>
</svg>