<?xml version="1.0" encoding="UTF-8"?>
<svg id="Layer_2" data-name="Layer 2" xmlns="http://www.w3.org/2000/svg" viewBox="0 0 87.29 115.53">
  <defs>
    <style>
      .cls-1 {
        fill: #2a8e5c;
      }
    </style>
  </defs>
  <g id="Layer_1-2" data-name="Layer 1">
    <path class="cls-1" d="M11.36,54.93c3.13,0,5.68-2.55,5.68-5.68s-2.55-5.68-5.68-5.68-5.68,2.55-5.68,5.68,2.55,5.68,5.68,5.68Zm0-9.47c2.09,0,3.79,1.7,3.79,3.79s-1.7,3.79-3.79,3.79-3.79-1.7-3.79-3.79,1.7-3.79,3.79-3.79Zm6.63,48.3H4.73v-3.79h13.26v3.79Zm-13.26,5.68v-3.79h7.58v3.79H4.73Zm9.47-3.79h3.79v3.79h-3.79v-3.79Zm29.04-55.07c-1.66-3.72-12.58-14.04-20.51-15.77V4.73c0-2.61-2.12-4.73-4.73-4.73H4.73C2.12,0,0,2.12,0,4.73V115.53H22.73v-42.33l20.55-30.82c.46-.69,.09-1.53-.04-1.81Zm-22.41,63.6H1.89V9.47H20.83V104.17ZM4.73,1.89h13.26c1.57,0,2.84,1.27,2.84,2.84v2.84H1.89v-2.84c0-1.57,1.27-2.84,2.84-2.84ZM1.89,113.64v-7.58H20.83v7.58H1.89Zm20.83-43.85V26.74c7.72,1.93,18.29,12.48,18.86,14.76l-18.86,28.29Zm58.88-20.55c0-3.13-2.55-5.68-5.68-5.68s-5.68,2.55-5.68,5.68,2.55,5.68,5.68,5.68,5.68-2.55,5.68-5.68Zm-1.89,0c0,2.09-1.7,3.79-3.79,3.79s-3.79-1.7-3.79-3.79,1.7-3.79,3.79-3.79,3.79,1.7,3.79,3.79Zm-10.42,40.72h13.26v3.79h-13.26v-3.79Zm5.68,9.47v-3.79h7.58v3.79h-7.58Zm-1.89,0h-3.79v-3.79h3.79v3.79Zm-29.07-57.05l20.55,30.82v42.33h22.73V4.73c0-2.61-2.12-4.73-4.73-4.73h-13.26c-2.61,0-4.73,2.12-4.73,4.73V24.8c-7.93,1.73-18.85,12.05-20.51,15.77-.12,.28-.5,1.12-.04,1.81ZM66.46,9.47h18.94V104.17h-18.94V9.47Zm18.94-4.73v2.84h-18.94v-2.84c0-1.57,1.27-2.84,2.84-2.84h13.26c1.57,0,2.84,1.27,2.84,2.84Zm-18.94,108.9v-7.58h18.94v7.58h-18.94ZM45.7,41.5c.57-2.28,11.14-12.83,18.86-14.76v43.05l-18.86-28.29Z"/>
  </g>
</svg>