<?xml version="1.0" encoding="UTF-8"?>
<svg id="Layer_2" data-name="Layer 2" xmlns="http://www.w3.org/2000/svg" viewBox="0 0 504 503.88">
  <defs>
    <style>
      .cls-1 {
        fill: #2a8e5c;
      }
    </style>
  </defs>
  <g id="Layer_1-2" data-name="Layer 1">
    <g>
      <path class="cls-1" d="M473.32,125.44V23.23c0-12.81-10.42-23.23-23.23-23.23h-65.01c-12.81,0-23.23,10.42-23.23,23.23v109.05c0,12.81,10.42,23.23,23.23,23.23h27.35c-1.37,4.39-2.11,9.06-2.11,13.89v8.83h-13.62c-9.74,0-17.88,6.94-19.74,16.13h-89.35c-13.28,0-24.08,10.8-24.08,24.08v189.57c0,13.27,10.8,24.07,24.08,24.07h89.35c1.86,9.2,10,16.14,19.74,16.14h13.62v51.66c0,2.21,1.8,4,4,4h85.68c2.21,0,4-1.79,4-4V169.4c0-20.15-12.79-37.37-30.68-43.96Zm-96.76,298.64h-88.95c-8.87,0-16.08-7.21-16.08-16.07V218.44c0-8.87,7.21-16.08,16.08-16.08h88.95v221.72Zm33.76,16.14h-13.62c-6.7,0-12.14-5.45-12.14-12.14V198.36c0-6.69,5.44-12.13,12.14-12.13h13.62v253.99Zm-25.24-292.71c-8.4,0-15.23-6.83-15.23-15.23V23.23c0-8.4,6.83-15.23,15.23-15.23h1.24V93.48c0,2.21,1.79,4,4,4h54.53c2.21,0,4-1.79,4-4V8h1.24c8.4,0,15.23,6.83,15.23,15.23V123.29c-2.65-.47-5.37-.72-8.16-.72-17.92,0-33.51,10.12-41.39,24.94h-30.69Zm110.92,348.37h-77.68v-55.51h77.68v55.51Z"/>
      <path class="cls-1" d="M216.39,194.36H127.04c-1.86-9.19-10-16.13-19.74-16.13h-13.62v-8.83c0-25.82-21.02-46.83-46.84-46.83-25.83,0-46.84,21.01-46.84,46.83V499.88c0,2.21,1.79,4,4,4H89.68c2.2,0,4-1.79,4-4v-51.66h13.62c9.74,0,17.88-6.94,19.74-16.14h89.35c13.28,0,24.08-10.8,24.08-24.07V218.44c0-13.28-10.8-24.08-24.08-24.08ZM85.68,495.88H8v-55.51H85.68v55.51Zm33.76-67.8c0,6.69-5.44,12.14-12.14,12.14h-13.62V186.23h13.62c6.7,0,12.14,5.44,12.14,12.13v229.72Zm113.03-20.07c0,8.86-7.21,16.07-16.08,16.07H127.44V202.36h88.95c8.87,0,16.08,7.21,16.08,16.08v189.57Z"/>
    </g>
  </g>
</svg>