<?xml version="1.0" encoding="utf-8"?>
<!-- Generator: Adobe Illustrator 26.5.0, SVG Export Plug-In . SVG Version: 6.00 Build 0)  -->
<svg version="1.1" id="Layer_1" xmlns="http://www.w3.org/2000/svg" xmlns:xlink="http://www.w3.org/1999/xlink" x="0px" y="0px"
	 viewBox="0 0 3873 4841.2" style="enable-background:new 0 0 3873 4841.2;" xml:space="preserve">
<style type="text/css">
	.st0{fill:#2A8E5C;}
	.st1{font-family:'Arial-BoldMT';}
	.st2{font-size:5px;}
</style>
<g>
	<g>
		<path class="st0" d="M567.1,3379H255.8c-33.4,0-60.5-27.1-60.5-60.5V1256.8c0-119.2,97-216.2,216.2-216.2s216.2,97,216.2,216.2
			v2061.6C627.6,3351.9,600.5,3379,567.1,3379z M316.3,3257.9h190.2V1256.8c0-52.4-42.7-95.1-95.1-95.1s-95.1,42.7-95.1,95.1V3257.9
			L316.3,3257.9z"/>
	</g>
	<g>
		<path class="st0" d="M1812.2,3379H567.1c-33.4,0-60.5-27.1-60.5-60.5s27.1-60.5,60.5-60.5h1184.6V1191
			c-181.8,56-375.3,173.3-512.8,267.6c-118.1,81-256.1,123.9-399.1,123.9H567.1c-33.4,0-60.5-27.1-60.5-60.5s27.1-60.5,60.5-60.5
			h272.7c118.4,0,232.8-35.5,330.6-102.6c165.1-113.3,408.3-258.3,629.2-305.4c37.6-8,73.1,20.6,73.1,59.1v2205.9
			C1872.7,3351.9,1845.6,3379,1812.2,3379z"/>
	</g>
	<g>
		<path class="st0" d="M3617.2,3379h-311.3c-33.4,0-60.5-27.1-60.5-60.5V1256.8c0-119.2,97-216.2,216.2-216.2s216.2,97,216.2,216.2
			v2061.6C3677.7,3351.9,3650.6,3379,3617.2,3379z M3556.6,3257.9V1256.8c0-52.4-42.7-95.1-95.1-95.1s-95.1,42.7-95.1,95.1v2001.1
			C3377.6,3257.9,3545.4,3257.9,3556.6,3257.9z"/>
	</g>
	<g>
		<path class="st0" d="M3305.9,3379H2060.8c-33.4,0-60.5-27.1-60.5-60.5V1112.6c0-38.5,35.6-67.3,73.1-59.1
			c220.8,47.1,464,192,629.2,305.4c97.8,67.1,212.2,102.6,330.6,102.6h272.7c33.4,0,60.5,27.1,60.5,60.5s-27.1,60.5-60.5,60.5
			h-272.7c-143,0-281-42.8-399.1-123.9c-137.5-94.3-331-211.6-512.8-267.6v2067h1184.6c33.4,0,60.5,27.1,60.5,60.5
			S3339.3,3379,3305.9,3379z"/>
	</g>
	<g>
		<path class="st0" d="M411.4,1161.7c-33.4,0-60.5-27.1-60.5-60.5V908.4c0-33.4,27.1-60.5,60.5-60.5S472,875,472,908.4v192.8
			C472,1134.6,444.9,1161.7,411.4,1161.7z"/>
	</g>
	<g>
		<path class="st0" d="M411.5,968.9c-131,0-237.5-106.5-237.5-237.4S280.5,494,411.5,494S649,600.5,649,731.5
			S542.4,968.9,411.5,968.9z M411.5,615C347.2,615,295,667.3,295,731.5s52.2,116.4,116.4,116.4s116.4-52.2,116.4-116.4
			S475.7,615,411.5,615z"/>
	</g>
	<g>
		<path class="st0" d="M3461.5,1161.7c-33.4,0-60.5-27.1-60.5-60.5V908.4c0-33.4,27.1-60.5,60.5-60.5s60.5,27.1,60.5,60.5v192.8
			C3522,1134.6,3494.9,1161.7,3461.5,1161.7z"/>
	</g>
	<g>
		<path class="st0" d="M3461.5,968.9c-130.9,0-237.5-106.5-237.5-237.5S3330.6,494,3461.5,494S3699,600.5,3699,731.5
			S3592.5,968.9,3461.5,968.9z M3461.5,615c-64.2,0-116.4,52.2-116.4,116.4s52.2,116.4,116.4,116.4S3578,795.7,3578,731.5
			S3525.7,615,3461.5,615z"/>
	</g>
	<g>
		<path class="st0" d="M873.9,2622.8c-33.4,0-60.5-27.1-60.5-60.5V1521c0-33.4,27.1-60.5,60.5-60.5s60.5,27.1,60.5,60.5v1041.3
			C934.4,2595.7,907.3,2622.8,873.9,2622.8z"/>
	</g>
	<g>
		<path class="st0" d="M873.9,3379c-33.4,0-60.5-27.1-60.5-60.5v-494.6c0-33.4,27.1-60.5,60.5-60.5s60.5,27.1,60.5,60.5v494.6
			C934.4,3351.9,907.3,3379,873.9,3379z"/>
	</g>
	<g>
		<path class="st0" d="M1189.6,2622.8c-33.4,0-60.5-27.1-60.5-60.5V1418.7c0-33.4,27.1-60.5,60.5-60.5s60.5,27.1,60.5,60.5v1143.7
			C1250.1,2595.7,1223,2622.8,1189.6,2622.8z"/>
	</g>
	<g>
		<path class="st0" d="M1189.6,3379c-33.4,0-60.5-27.1-60.5-60.5v-494.6c0-33.4,27.1-60.5,60.5-60.5s60.5,27.1,60.5,60.5v494.6
			C1250.1,3351.9,1223,3379,1189.6,3379z"/>
	</g>
	<g>
		<path class="st0" d="M1505.3,2622.8c-33.4,0-60.5-27.1-60.5-60.5V1228.1c0-33.4,27.1-60.5,60.5-60.5s60.5,27.1,60.5,60.5v1334.2
			C1565.9,2595.7,1538.8,2622.8,1505.3,2622.8z"/>
	</g>
	<g>
		<path class="st0" d="M1505.3,3379c-33.4,0-60.5-27.1-60.5-60.5v-494.6c0-33.4,27.1-60.5,60.5-60.5s60.5,27.1,60.5,60.5v494.6
			C1565.9,3351.9,1538.8,3379,1505.3,3379z"/>
	</g>
	<g>
		<path class="st0" d="M2367.6,2622.8c-33.4,0-60.5-27.1-60.5-60.5V1228.1c0-33.4,27.1-60.5,60.5-60.5s60.5,27.1,60.5,60.5v1334.2
			C2428.1,2595.7,2401.1,2622.8,2367.6,2622.8z"/>
	</g>
	<g>
		<path class="st0" d="M2367.6,3379c-33.4,0-60.5-27.1-60.5-60.5v-494.6c0-33.4,27.1-60.5,60.5-60.5s60.5,27.1,60.5,60.5v494.6
			C2428.1,3351.9,2401.1,3379,2367.6,3379z"/>
	</g>
	<g>
		<path class="st0" d="M2683.4,2622.8c-33.4,0-60.5-27.1-60.5-60.5V1418.6c0-33.4,27.1-60.5,60.5-60.5s60.5,27.1,60.5,60.5v1143.7
			C2743.9,2595.7,2716.8,2622.8,2683.4,2622.8z"/>
	</g>
	<g>
		<path class="st0" d="M2683.4,3379c-33.4,0-60.5-27.1-60.5-60.5v-494.6c0-33.4,27.1-60.5,60.5-60.5s60.5,27.1,60.5,60.5v494.6
			C2743.9,3351.9,2716.8,3379,2683.4,3379z"/>
	</g>
	<g>
		<path class="st0" d="M2999.1,2622.8c-33.4,0-60.5-27.1-60.5-60.5V1521c0-33.4,27.1-60.5,60.5-60.5s60.5,27.1,60.5,60.5v1041.3
			C3059.6,2595.7,3032.5,2622.8,2999.1,2622.8z"/>
	</g>
	<g>
		<path class="st0" d="M2999.1,3379c-33.4,0-60.5-27.1-60.5-60.5v-494.6c0-33.4,27.1-60.5,60.5-60.5s60.5,27.1,60.5,60.5v494.6
			C3059.6,3351.9,3032.5,3379,2999.1,3379z"/>
	</g>
	<g>
		<path class="st0" d="M1812.2,2884.4H567.1c-33.4,0-60.5-27.1-60.5-60.5s27.1-60.5,60.5-60.5h1245.1c33.4,0,60.5,27.1,60.5,60.5
			C1872.7,2857.3,1845.6,2884.4,1812.2,2884.4z"/>
	</g>
	<g>
		<path class="st0" d="M1812.2,2622.8H567.1c-33.4,0-60.5-27.1-60.5-60.5s27.1-60.5,60.5-60.5h1245.1c33.4,0,60.5,27.1,60.5,60.5
			S1845.6,2622.8,1812.2,2622.8z"/>
	</g>
	<g>
		<path class="st0" d="M3305.9,2884.4H2060.8c-33.4,0-60.5-27.1-60.5-60.5s27.1-60.5,60.5-60.5h1245.1c33.4,0,60.5,27.1,60.5,60.5
			C3366.4,2857.3,3339.3,2884.4,3305.9,2884.4z"/>
	</g>
	<g>
		<path class="st0" d="M3305.9,2622.8H2060.8c-33.4,0-60.5-27.1-60.5-60.5s27.1-60.5,60.5-60.5h1245.1c33.4,0,60.5,27.1,60.5,60.5
			S3339.3,2622.8,3305.9,2622.8z"/>
	</g>
</g>
<text transform="matrix(1 0 0 1 0 3888)" class="st0 st1 st2">Created by Graphixs_Art</text>
<text transform="matrix(1 0 0 1 0 3893)" class="st0 st1 st2">from the Noun Project</text>
</svg>
