<?xml version="1.0" encoding="utf-8"?>
<!-- Generator: Adobe Illustrator 26.5.0, SVG Export Plug-In . SVG Version: 6.00 Build 0)  -->
<svg version="1.1" id="Layer_1" xmlns="http://www.w3.org/2000/svg" xmlns:xlink="http://www.w3.org/1999/xlink" x="0px" y="0px"
	 viewBox="0 0 90 112.5" style="enable-background:new 0 0 90 112.5;" xml:space="preserve">
<style type="text/css">
	.st0{fill:#2A8E5C;}
</style>
<path class="st0" d="M80,33H10V15h70V33z M12,31h66V17H12V31z"/>
<path class="st0" d="M57.3,53H32.7L15,40v-9h60v9L57.3,53z M33.3,51h23.3L73,38.9V33H17v5.9L33.3,51z"/>
<rect x="60.9" y="37" class="st0" width="13.1" height="2"/>
<rect x="60.9" y="44" class="st0" width="5.6" height="2"/>
<rect x="16" y="37" class="st0" width="13.1" height="2"/>
<rect x="23.5" y="44" class="st0" width="5.6" height="2"/>
<rect x="35.7" y="37" class="st0" width="18.8" height="2"/>
<rect x="35.7" y="44" class="st0" width="18.8" height="2"/>
<path class="st0" d="M45,29.2c-2.8,0-5.1-2.3-5.1-5.1s2.3-5.1,5.1-5.1c2.8,0,5.1,2.3,5.1,5.1C50.1,26.9,47.8,29.2,45,29.2z M45,20.9
	c-1.7,0-3.1,1.4-3.1,3.1s1.4,3.1,3.1,3.1c1.7,0,3.1-1.4,3.1-3.1c0,0,0,0,0,0C48.1,22.3,46.7,20.9,45,20.9z"/>
<path class="st0" d="M56.2,74.7c-0.1-0.1-2.7-2.9-0.2-8.2c2-4.1,0.2-6.8,0.1-6.9l1.6-1.2c0.1,0.1,2.6,3.7,0.1,8.9
	c-1.9,4-0.2,6-0.2,6L56.2,74.7z"/>
<path class="st0" d="M32.3,74.7c-0.1-0.1-2.7-2.9-0.2-8.2c1.9-4.1,0.2-6.8,0.1-6.9l1.6-1.2c0.1,0.1,2.6,3.7,0.1,8.9
	c-1.9,4-0.2,6-0.2,6L32.3,74.7z"/>
<path class="st0" d="M44.1,72.2C44,72.1,41.4,69.3,44,64c1.9-4.1,0.2-6.8,0.1-6.9l1.6-1.2c0.1,0.1,2.6,3.7,0.1,8.9
	c-1.9,4-0.2,6-0.2,6L44.1,72.2z"/>
</svg>
