<?xml version="1.0" encoding="utf-8"?>
<!-- Generator: Adobe Illustrator 26.5.0, SVG Export Plug-In . SVG Version: 6.00 Build 0)  -->
<svg version="1.1" id="Layer_1" xmlns:xodm="http://www.corel.com/coreldraw/odm/2003"
	 xmlns="http://www.w3.org/2000/svg" xmlns:xlink="http://www.w3.org/1999/xlink" x="0px" y="0px" viewBox="0 0 6553.6 8192"
	 style="enable-background:new 0 0 6553.6 8192;" xml:space="preserve">
<style type="text/css">
	.st0{fill:#2A8E5C;}
	.st1{font-family:'Arial-BoldMT';}
	.st2{font-size:0.3277px;}
</style>
<g>
	<path class="st0" d="M201.5,465.6c0-26.5,20.9-48.1,47.1-49.1L3220.8,33.9c10.8-1.4,0.6-0.1,15.1-2c31.8-4.1,47.5-6.2,65.6-6.3
		c17.9-0.1,32.8,1.5,62.1,4.8c10.7,1.2,15.4,1.7,19.2,2.2L4899,198.8c26.2,2.8,45.4,25.8,43.8,51.9l-2.4,400.4
		c0.6,10.7-2.2,21.6-8.9,31L4438,1381l1856.6,241.7c7.9,1,15.1,3.9,21.3,8.1c4.9,2.4,9.4,7,13.4,13.6c2.3,3.5,4.2,7.4,5.5,11.4
		c13.7,34.4,18.4,98.5,10.2,171.8c-8.1,72.3-26.6,135.6-47.7,170.4c-8.1,20.5-29.3,33.7-52.1,30.6l-2063.3-284.7l-125.2,177.3v818.5
		l860.4,1053.5c5.9,7.2,9.3,15.6,10.5,24.2c11.1,29.6-42.3,100.1-126.8,164.8c-91.4,70-184.5,106.9-208.1,82.4
		c-0.2-0.2-0.4-0.4-0.6-0.7c-4.8-2.9-9.2-6.7-12.9-11.3l-522.6-652.8v2049.1l282.4,97.1c29,10,46.1,20.8,56.3,43
		c10.4,22.7,7.1,42.8-5.1,71l-2.5,5.5c-144.6,319.6-867,569-1601.6,716.1c-730,146.1-1478.5,192.8-1678.6,106.4v-0.2l-509.4-180.5
		c-1.2-0.4-2.3-0.8-3.4-1.2l-360.3-127.7c-22.4-7.9-35.5-30.4-32.3-53.1c-0.4-2.4-0.6-4.9-0.6-7.4V2613.6v-108.1L201.5,465.6
		L201.5,465.6z M3982.2,5527.2l-3195,742.8l353,125.1l3.8,1.5c1.3,0.6,1.9,0.9,2.2,1l0-0.1c184.6,79.7,907.2,30.3,1620.6-112.5
		c701.1-140.3,1387-369.3,1526.9-650.7L3982.2,5527.2L3982.2,5527.2z M563.7,6190.9V2738.2l-263.8-61.7v3420.9L563.7,6190.9
		L563.7,6190.9z M4306.2,5629.7l-0.6-1.3l-0.4-0.2l0.3,0.9C4307.1,5632,4308,5633.6,4306.2,5629.7L4306.2,5629.7z M4305.6,5628.4
		c-0.6-1.2-0.6-1.1-0.4-0.2L4305.6,5628.4z M1146.2,6397.8L1146.2,6397.8C1145.7,6397.5,1143.8,6396.7,1146.2,6397.8z M4804.4,691.9
		l-3128.8,511c-0.2,0.3-0.4,0.6-0.6,0.9L721.4,2623.8l1356.3-320.1l191.4-401c-3.2-3.4-6.3-6.9-9.2-10.5
		c-10-12.2-18.8-25.3-26.2-39.4c-41.7-79.7-31.6-173.8,19.9-269.3c48.5-89.9,134.9-182.3,248.9-264.2
		c77.2-55.4,164-104.1,254.9-143.4c90.7-39.3,185.2-69.2,277.8-87.2c125.3-24.4,241.6-25.8,335.2-4.4
		c98.1,22.4,172.8,70,210.8,142.6c6.5,12.4,11.6,24.9,15.6,37.7c0.8,2.4,1.5,4.9,2.1,7.3l728.9,94.9L4804.4,691.9L4804.4,691.9z
		 M1683,1135.5l3159.6-516.1l1.9-315.9L1683,724.9L1683,1135.5L1683,1135.5z M3958.2,5432.1V3296.8c0-5.7,1-11.2,2.8-16.3
		l-888.3-1109.8l-544.2,132.1L1149.6,5192.3c-11.2,23.5-38.6,34-62.5,24.5c-37.4-2.3-89.8-16.4-145.7-40.8
		c-96.7-42.2-168.3-100.1-164.9-132.3c-0.5-8,1-16.3,4.7-24l1242.2-2602.4L662,2738.7v3459.8L3958.2,5432.1L3958.2,5432.1z
		 M1584.7,1162.7V723.9l-1284.9-201v1982.7v70.1l290.3,67.8L1584.7,1162.7L1584.7,1162.7z M3438.2,1982.6l545.5-128.3l88.6-125.5
		l-622.1-85.9c-26.7,27.4-56.2,54.1-88.2,79.8c-26.8,21.5-55.2,42.3-85.1,62.3L3438.2,1982.6L3438.2,1982.6z M3958.2,1961.2
		l-450.9,106l450.9,552.1V1961.2z M2582.9,2188.7l422.2-102.5L2904,1960c-42.3,12.8-83.5,23.1-123,30.8
		c-37.9,7.4-75.1,12.7-111.2,16L2582.9,2188.7z M829.4,937.2c15.7-14.9,40.5-14.3,55.4,1.4c14.9,15.7,14.3,40.5-1.4,55.4l-86.9,82.3
		l95.2,123c13.2,17.1,10.1,41.8-7.1,55s-41.8,10.1-55-7.1l-90.3-116.7l-81.1,76.8c-15.7,14.9-40.5,14.3-55.4-1.4
		c-14.9-15.7-14.3-40.5,1.4-55.4l86.9-82.3l-95.2-123c-13.2-17.1-10.1-41.8,7.1-55s41.8-10.1,55,7.1l90.3,116.7L829.4,937.2z
		 M2667.6,1533.2c-14.6,10.5-35,7.2-45.6-7.4c-10.5-14.6-7.2-35,7.4-45.6c59.5-42.7,126.4-80.2,196.4-110.5
		c69.9-30.2,142.7-53.3,214.1-67.2c17.7-3.4,34.9,8.2,38.3,26c3.4,17.7-8.2,34.9-26,38.3c-67.1,13.1-135.3,34.6-200.5,62.9
		C2786.2,1458,2723.4,1493.1,2667.6,1533.2L2667.6,1533.2z M884.7,5031c28.2,6.9,60,17.7,93,32.1c37.7,16.5,71.7,35.4,98.8,54.1
		l1591.7-3335.5c2.4-9.3-12.5-24.9-33.9-40.5c-14-10.2-31.1-19.6-49.6-27.6c-18.3-7.9-37-13.8-54.5-17.1c-28.2-5.4-51.2-6.3-54.6,1
		l-0.2,0.8L884.7,5031L884.7,5031z M4635.2,3966.1c21.2-23.4,48.5-48.5,80.2-72.8c35.7-27.4,71.6-49.6,103.6-65.2L3107.6,1732.7
		l-1.6-2.4c-19.1-28.2-51.8-31.4-83.7-21.4c-18.9,5.9-37.7,16.3-54.4,29.2c-16.6,12.9-30.4,27.7-39.4,42.8
		c-11.1,18.5-14.6,37.1-3.7,48.6l2.7,3.3L4635.2,3966.1L4635.2,3966.1z M6223.5,1926.8c-1.7-29.2-0.8-63,3.2-99.1
		c4.6-41.6,12.8-80.1,22.8-112l-2920.3-380.1l-1.5-0.2c-25.2-4.1-45.3,10.9-58.2,33.2c-7.6,13-13,28.3-16.1,44.4
		c-3.2,16.3-3.9,33.3-1.9,49.3c3.5,28.6,15.8,53.1,37.8,59.7L6223.5,1926.8L6223.5,1926.8z M3214.4,1708.6
		c31-20.2,59.7-41.1,86.1-62.2c8.5-6.8,16.8-13.7,24.9-20.6l-54.5-7.5l-2.6-0.6c-69.5-16.8-106-76-114.3-143.6
		c-3.2-25.9-2.1-53.2,3-79.6c5.2-26.6,14.5-52.5,27.6-75.1c32.4-55.8,86.5-92.6,158.9-80.8l0,0l141.8,18.5
		c-26.6-37.2-74.4-63-136.6-77.2c-80.4-18.4-182.7-16.7-294.9,5.1c-86.2,16.8-173.8,44.5-257.5,80.7
		c-84.3,36.5-164.8,81.6-236.4,133.1c-101.9,73.2-178.1,154-219.8,231.2c-34.5,64-44.1,123.9-22.5,171.4l69.3-145.1l0.1,0.1
		c26-55.8,91-69.4,161.4-56c25.1,4.8,50.9,12.8,75.2,23.3c24.1,10.3,47.6,23.5,68.4,38.7c57.3,41.8,91.1,98.2,67,157.3l-1.2,2.7
		l-38,79.6c13.9-2.1,28-4.6,42.4-7.4c25.1-4.9,50.3-10.7,75.6-17.4c-29.4-45.4-22.3-98.3,6.6-146.3c15.6-26,37.7-50.2,63.2-70
		c25.4-19.7,54.9-35.7,85.5-45.3c69.7-21.9,143.5-11.6,192.1,57.5L3214.4,1708.6z M489.3,697l521.1,78.3l0,0
		c9.6,1.5,18.2,6.3,24.5,13.3c6.6,7.4,10.6,16.9,10.6,27.3v590.9c0,5.6-1.2,11.2-3.7,16.7c-2.4,5.4-5.8,10.1-10.1,13.9
		c-4.2,3.7-9.2,6.6-15,8.5l0,0c-6,1.9-12.3,2.4-19,1.3l-521.1-87.7c-9.3-1.6-17.7-6.3-23.9-13.2h-0.2c-6.5-7.3-10.4-16.7-10.4-27.3
		V737.6c0-5.6,1.2-11.2,3.7-16.7c2.4-5.4,5.8-10.1,10.1-14c4.3-3.8,9.3-6.7,14.9-8.5l0,0c5.7-1.8,11.8-2.3,18.1-1.4L489.3,697
		L489.3,697z M966.8,848.2l-446-67v506.3l446,75V848.2L966.8,848.2z M597.5,470.4l1036.8,162.2l2853-380.2L3353,127.9
		c-26.8-3-40.3-4.5-51-4.4c-11.3,0.1-25.2,1.9-53.3,5.5c-5.1,0.7,6.3-0.8-15.5,2L597.5,470.4L597.5,470.4z"/>
</g>
<text transform="matrix(1 0 0 1 0 6554.583)" class="st0 st1 st2">Created by Oleksandr Panasovskyi</text>
<text transform="matrix(1 0 0 1 0 6554.9111)" class="st0 st1 st2">from the Noun Project</text>
</svg>
