<?xml version="1.0" encoding="utf-8"?>
<!-- Generator: Adobe Illustrator 26.5.0, SVG Export Plug-In . SVG Version: 6.00 Build 0)  -->
<svg version="1.1" id="Layer_1" xmlns="http://www.w3.org/2000/svg" xmlns:xlink="http://www.w3.org/1999/xlink" x="0px" y="0px"
	 viewBox="0 0 90 112.5" style="enable-background:new 0 0 90 112.5;" xml:space="preserve">
<style type="text/css">
	.st0{fill:#2A8E5C;}
</style>
<g>
	<g>
		<path class="st0" d="M63.2,47.4c-1-1-2.7-1-3.7,0c-1,1-1,2.7,0,3.7c1.9,1.9,2.9,4.3,2.9,7c0,2.6-1,5.1-2.9,7c-1,1-1,2.7,0,3.7
			c0.5,0.5,1.2,0.8,1.9,0.8s1.3-0.3,1.9-0.8c2.9-2.9,4.4-6.6,4.4-10.7C67.7,54,66.1,50.2,63.2,47.4z"/>
		<path class="st0" d="M70.8,40.3c-1-1-2.7-1-3.7,0c-1,1-1,2.7,0,3.7c4,4,6.3,9.4,6.3,15.1S71.1,70.3,67,74.3c-1,1-1,2.7,0,3.7
			c0.5,0.5,1.2,0.8,1.9,0.8c0.7,0,1.3-0.3,1.9-0.8c5-5,7.8-11.7,7.8-18.9C78.6,52,75.8,45.3,70.8,40.3z"/>
		<path class="st0" d="M78.9,32.4c-1-1-2.7-1-3.7,0c-1,1-1,2.7,0,3.7c6.2,6.2,9.5,14.3,9.5,23c0,8.7-3.4,16.9-9.5,23
			c-1,1-1,2.7,0,3.7c0.5,0.5,1.2,0.8,1.9,0.8c0.7,0,1.3-0.3,1.9-0.8C86.1,78.7,90,69.3,90,59.2C90,49.1,86.1,39.6,78.9,32.4z"/>
		<path class="st0" d="M55.3,36.5c0,0,0.1-0.1,0.1-0.1c0,0,0-0.1,0.1-0.1c0,0,0-0.1,0.1-0.1c0,0,0-0.1,0.1-0.1c0,0,0-0.1,0-0.1
			c0,0,0-0.1,0.1-0.1c0,0,0-0.1,0-0.1c0,0,0-0.1,0-0.1c0,0,0-0.1,0-0.1c0,0,0-0.1,0-0.1c0,0,0-0.1,0-0.1c0,0,0-0.1,0-0.1
			c0,0,0-0.1,0-0.1c0,0,0-0.1,0-0.1c0,0,0-0.1,0-0.1c0,0,0-0.1,0-0.1c0,0,0-0.1,0-0.1c0,0,0-0.1,0-0.1c0,0,0-0.1,0-0.1
			c0,0,0-0.1,0-0.1c0,0,0-0.1,0-0.1c0-0.1,0-0.1-0.1-0.2c0,0,0-0.1,0-0.1c0-0.1-0.1-0.1-0.1-0.2c0,0,0,0,0-0.1c0,0,0,0,0,0
			c0,0-0.1-0.1-0.1-0.1c0,0,0-0.1-0.1-0.1s0-0.1-0.1-0.1c0,0-0.1-0.1-0.1-0.1c0,0,0,0,0,0L32.8,11.6c-0.1-0.1-0.1-0.1-0.2-0.2
			L30,4.1c-0.5-1.4-2-2.1-3.4-1.6c-1.4,0.5-2.1,2-1.6,3.4l2.9,8.1c0.2,0.6,0.6,1,1,1.3c0.1,0.1,0.1,0.2,0.2,0.2L49,34.6l-7.5,5
			c-0.3,0.2-0.6,0.5-0.8,0.8c-1,0.6-1.5,1.7-1.3,2.9l1.5,6.6c-22.5,0.8-33.9,10-34.4,10.4c0,0,0,0,0,0c-0.1,0.1-0.1,0.1-0.2,0.2
			c0,0-0.1,0.1-0.1,0.1c0,0-0.1,0.1-0.1,0.1c0,0-0.1,0.1-0.1,0.1c0,0,0,0,0,0.1c0,0-0.1,0.1-0.1,0.1c0,0,0,0,0,0.1
			c0,0,0,0.1-0.1,0.2c0,0,0,0.1,0,0.1c0,0.1,0,0.1-0.1,0.2c0,0,0,0,0,0.1c0,0.1,0,0.2-0.1,0.2c0,0,0,0,0,0c0,0.2-0.1,0.4-0.1,0.6
			c0,5,2.1,10.2,5.8,14.8c3.5,4.4,8.2,7.7,13.2,9.4c2.4,0.8,4.8,1.2,7.1,1.2c5.7,0,10.9-2.6,14.7-7.5c0.9-1.1,0.7-2.8-0.5-3.7
			s-2.8-0.7-3.7,0.5C37,83.8,30,82.7,26.3,81.5c-8-2.7-14.6-10.6-15.4-18c1.4-0.9,4.1-2.6,8.2-4.1c5.1-2,13.4-4.3,24.6-4.4
			c0.2,0,0.4,0.1,0.6,0.1c0.2,0,0.4,0,0.6-0.1c0,0,0,0,0,0c0.7,0,1.3,0,2,0c1.4,0,2.7-1.1,2.7-2.6c0-1.5-1.1-2.7-2.6-2.7
			c-0.2,0-0.4,0-0.7,0l-1.4-6.2l9.7-6.4c0,0,0,0,0,0c0,0,0.1-0.1,0.1-0.1c0,0,0.1,0,0.1-0.1c0,0,0,0,0.1-0.1c0,0,0.1-0.1,0.1-0.1
			c0,0,0,0,0,0c0,0,0,0,0,0C55.1,36.7,55.2,36.6,55.3,36.5C55.2,36.5,55.2,36.5,55.3,36.5z"/>
		<path class="st0" d="M12.8,27.3c4.6-0.6,9.1-2.8,12.8-6.4c1-1,1.1-2.7,0.1-3.7c-1-1-2.7-1.1-3.7-0.1c-2.9,2.8-6.4,4.5-9.8,4.9
			c-3.2,0.4-5.9-0.4-7.7-2.3c-1-1-2.7-1.1-3.7-0.1c-1,1-1.1,2.7-0.1,3.7c2.5,2.6,6,4,9.9,4C11.4,27.4,12.1,27.4,12.8,27.3z"/>
	</g>
</g>
</svg>
