<?xml version="1.0" encoding="utf-8"?>
<!-- Generator: Adobe Illustrator 26.5.0, SVG Export Plug-In . SVG Version: 6.00 Build 0)  -->
<svg version="1.1" id="Layer_1" xmlns="http://www.w3.org/2000/svg" xmlns:xlink="http://www.w3.org/1999/xlink" x="0px" y="0px"
	 viewBox="0 0 100 125" style="enable-background:new 0 0 100 125;" xml:space="preserve">
<style type="text/css">
	.st0{fill:#2A8E5C;}
</style>
<g>
	<path class="st0" d="M26.6,27.1h2c0.7,0,1.2-0.6,1.2-1.2c0-0.7-0.6-1.2-1.2-1.2h-0.7v-2.3c0-0.7-0.6-1.2-1.2-1.2
		c-0.7,0-1.2,0.6-1.2,1.2v3.5C25.3,26.6,25.9,27.1,26.6,27.1z"/>
	<path class="st0" d="M45.2,27.1h2c0.7,0,1.2-0.6,1.2-1.2c0-0.7-0.6-1.2-1.2-1.2h-0.7v-2.3c0-0.7-0.6-1.2-1.2-1.2
		c-0.7,0-1.2,0.6-1.2,1.2v3.5C44,26.6,44.5,27.1,45.2,27.1z"/>
	<path class="st0" d="M34.9,30.7c-0.1,0.2-0.2,0.4-0.2,0.7v1.3v0.8V35c0,0.2,0.1,0.4,0.2,0.6c0.2,0.4,0.6,0.7,1.1,0.7h2
		c0.4,0,0.7-0.2,1-0.5c0.2-0.2,0.3-0.5,0.3-0.8c0-0.6-0.5-1.1-1-1.2c-0.1,0-0.1,0-0.2,0h-0.7v-1.9v-0.4l0,0c0-0.7-0.6-1.2-1.2-1.2
		C35.5,30.1,35.1,30.3,34.9,30.7z"/>
	<path class="st0" d="M87.1,44.4H75.3c-1.2-9.8-10-17.3-20.1-16.6c-0.7,0-1.4,0.1-2.1,0.3c0.6-1.7,1.1-3.5,0.9-5.8c-0.4-3.9-4-7-8-7
		h0c-4,0-7.6,3.1-7.9,7c-0.1,0.8-0.1,1.4,0,2.1c-0.4-0.1-0.8-0.1-1.2-0.1h-0.1c-0.4,0-0.8,0-1.2,0.1c0.1-0.7,0.1-1.3,0-2.1
		c-0.4-3.9-4-7-7.9-7h-0.1c-4,0-7.6,3.1-8,7c-0.2,2.4,0.3,4.2,0.9,6c0.6,1.7,0.2,2.2-0.5,2.5c-0.5,0.3-1,0.5-1.6,0.8
		c-2,0.9-4.3,2-5.6,4c-1,1.5-1,3.3-1,4.7v8.4c0,0.3,0.1,0.6,0.4,0.9c0.2,0.2,0.6,0.4,0.9,0.4h6.6c0,0,0,0,0,0.1
		c-0.5,6,0.9,10.8,4,14.2c1.8,1.9,4.2,3.5,6.7,4.9c-0.5,0.8-0.8,1.8-0.6,2.9c0.2,1.2,0.8,2.3,1.7,3.1l0.6,0.5c1,0.8,2.1,1.3,3.4,1.3
		c1.3,0,2.4-0.5,3.2-1.4l1.9-2.1c0.5,0.2,1.2,0.3,1.9,0.3c0.4,0,0.8,0,1.1-0.1c1.3-0.3,2.3-1.3,2.7-2.6c0.4-1.5,0.2-2.7-0.4-3.6
		l2.8-3.2c0.7,0.3,1.5,0.6,2.2,0.9v20.7c0,0.7,0.6,1.2,1.2,1.2h35.2c0.7,0,1.2-0.6,1.2-1.2V45.6C88.3,44.9,87.8,44.4,87.1,44.4z
		 M85.8,84.3H53.2V65.4v-1.3v-1.3v-0.1v-1.3v-1.3v-1.4v-1.3v-1.3v-6.4v-2.5v-0.4h6h2.5h4.8h1.2H69h1.3h1.2h1.2H73h1.2h1.2h10.4
		C85.8,46.8,85.8,84.3,85.8,84.3z M46.2,62.7l-2.3,2.7c-0.3-0.2-0.7-0.4-0.9-0.5c-0.7-0.4-1.7-1-3-1.7c-0.3-0.2-0.7-0.4-1-0.6
		l3.1-3.5c0.1,0.1,0.2,0.2,0.3,0.3c0.2,0.2,0.3,0.3,0.5,0.5s0.5,0.5,0.7,0.7c0.3,0.3,0.7,0.6,1,0.9c0.2,0.2,0.5,0.4,0.8,0.6
		c0.2,0.1,0.4,0.3,0.6,0.4C46,62.5,46.1,62.6,46.2,62.7z M43.6,70c-0.2,0.6-0.4,0.7-0.6,0.8C42.8,71,42.5,71,42.2,71
		c-0.5,0-1-0.1-1.2-0.2l0,0l-0.2-0.1l0,0c-0.4-0.1-0.8-0.3-1.2-0.5c-1.7-0.6-3.6-1.4-5.4-2.2c-0.4-0.2-0.8-0.4-1.2-0.6
		s-0.8-0.4-1.2-0.6c-2.5-1.3-4.8-2.8-6.5-4.6c-0.9-1-1.7-2.2-2.2-3.5c-0.2-0.4-0.3-0.8-0.4-1.2c-0.2-0.5-0.3-1.1-0.4-1.7
		C22,54.1,21.9,52.1,22,50c0-0.1,0-0.2,0-0.2c0-0.4,0.1-0.7,0.2-1.1c0.1-0.5,0.4-1,0.6-1.4c0.4-0.7,0.9-1.4,1.6-2l0,0
		c1-1.2,2.6-1.9,4.2-2.7c0.6-0.3,1.2-0.5,1.7-0.8l0,0c0.3-0.2,0.5-0.3,0.8-0.5c0.4,0.4,1,0.8,1.7,1.1c1,0.6,2.3,1,3.8,1
		c0.1,0,0.1,0,0.2,0c0.3,0,0.7,0,1-0.1c-0.2,1.3-0.3,2.6-0.3,3.9c0,0.2,0,0.5,0,0.7c0,0.6,0.1,1.2,0.2,1.8c0.4,2.3,1.2,4.5,2.3,6.5
		h-9.2l0,0c-0.4-1-0.4-2.1-0.4-3.4c0-0.3,0-0.6,0-0.9c0-0.7-0.6-1.2-1.3-1.2c-0.3,0-0.5,0.1-0.7,0.2c-0.3,0.2-0.5,0.6-0.5,1
		c0,0.3,0,0.6,0,0.8c0,1.1,0,2.2,0.3,3.4c0.1,0.3,0.2,0.6,0.3,0.9c0,0.1,0.1,0.2,0.1,0.3c0.2,0.5,0.5,0.9,0.8,1.2
		c0.7,0.9,1.7,1.6,2.5,2.3c0.3,0.2,0.5,0.4,0.8,0.6c0.5,0.4,1.4,1,2.3,1.5c0.4,0.2,0.7,0.4,1.1,0.6c0.4,0.2,0.7,0.4,1.1,0.6
		c0.5,0.3,1,0.6,1.5,0.8c1.2,0.7,2.3,1.3,2.9,1.7c0.1,0,0.1,0.1,0.2,0.1c0,0,0.1,0.1,0.3,0.2c0.3,0.2,0.7,0.4,1,0.8
		c0.3,0.3,0.5,0.8,0.5,1.3C43.7,69.5,43.7,69.8,43.6,70z M33.5,73.6l-0.6-0.5c-0.5-0.4-0.8-1-0.9-1.6c-0.1-0.5,0.1-1,0.4-1.4V70
		c1.8,0.9,3.6,1.6,5.4,2.3l-1.3,1.4C35.9,74.5,34.5,74.4,33.5,73.6z M39,58.8l-2.2,2.5c-1-0.6-1.9-1.2-2.5-1.6
		c-0.3-0.2-0.6-0.4-0.8-0.6c-0.1-0.1-0.2-0.2-0.3-0.3C33.2,58.8,39,58.8,39,58.8z M41.7,29.8c0.1,0.2,0.2,0.4,0.3,0.7
		c0.1,0.3,0.2,0.7,0.2,1c0.1,0.7,0,1.4-0.1,2.1c0,0.3-0.1,0.7-0.2,1c-0.1,0.1-0.2,0.3-0.3,0.4c-0.6,0.7-1.1,1.4-1.5,2.2
		c-0.7,1.1-1.2,2.3-1.6,3.6c-0.6,0.2-1.1,0.3-1.7,0.3h-0.1c-1.6,0-3-0.9-3.9-1.5c-0.2-0.1-0.3-0.3-0.5-0.4c0.1-0.8,0-1.7-0.4-2.8
		c-0.2-0.4-0.3-0.8-0.4-1.2c-0.2-0.5-0.3-1.1-0.4-1.6C31,32.9,31,32.2,31,31.5c0-0.3,0.1-0.7,0.2-1c0.1-0.2,0.2-0.5,0.3-0.7
		c0.6-1.2,1.8-2.2,3.2-2.7c0.6-0.2,1.2-0.3,1.8-0.3h0.1c0.6,0,1.2,0.1,1.8,0.3C39.9,27.5,41.1,28.5,41.7,29.8z M48.6,61.2
		C48.6,61.2,48.5,61.2,48.6,61.2c-1.2-0.7-2.3-1.5-3.3-2.4c-0.4-0.4-0.8-0.8-1.2-1.2c-0.3-0.3-0.6-0.7-0.8-1l0,0
		c-0.1-0.1-0.1-0.2-0.2-0.2c-1.4-1.9-2.3-4.1-2.8-6.5c-0.1-0.7-0.2-1.3-0.3-2c0-0.2,0-0.3,0-0.5c-0.1-1.7,0.1-3.3,0.5-4.8v-0.1
		c0.2-0.8,0.5-1.5,0.8-2.3c0.3-0.6,0.5-1.2,0.9-1.8l0.1-0.1c0.2-0.3,0.4-0.6,0.5-0.8c0.4-0.6,0.9-1.2,1.4-1.8
		c0.4-0.4,0.8-0.8,1.2-1.2c1.5-1.4,3.3-2.5,5.3-3.2c0.7-0.3,1.5-0.5,2.3-0.7c0.1,0,0.2-0.1,0.3-0.1c0.7-0.1,1.4-0.2,2-0.3
		c0.4,0,0.8,0,1.1,0c8.2,0,15.1,6.1,16.3,14.1h-0.2h-1.3H70h-1.2c-0.9-4.6-4.3-8.3-8.6-9.6c-1.4-0.4-2.9-0.6-4.5-0.5
		c-0.1,0-0.3,0-0.4,0.1c-4.1,0.4-7.6,2.8-9.5,6.1c-0.2,0.4-0.4,0.7-0.6,1.1c-0.2,0.4-0.3,0.8-0.5,1.2c-0.5,1.5-0.7,3-0.7,4.7
		c0,0.1,0,0.2,0,0.3c0.1,0.8,0.2,1.5,0.4,2.2c0.3,1.3,0.8,2.5,1.5,3.6s1.5,2.1,2.5,2.9c0.6,0.5,1.1,0.9,1.8,1.2
		c0.2,0.1,0.3,0.2,0.5,0.3v1v0.5v1.4V62v0.2C50,61.9,49.2,61.6,48.6,61.2z M51.4,44.5c-0.4,0.2-0.7,0.6-0.7,1.1v0.1v1.6v2.5v5.1
		c-0.3-0.2-0.5-0.4-0.8-0.6c-0.7-0.6-1.4-1.4-1.9-2.2c-0.4-0.7-0.8-1.5-1-2.2c-0.3-0.8-0.4-1.6-0.5-2.4v-0.1
		c-0.1-1.2,0.1-2.4,0.4-3.5c0.1-0.4,0.3-0.8,0.4-1.2c0.2-0.4,0.4-0.7,0.6-1.1c1.6-2.7,4.5-4.6,7.9-4.8c0.2,0,0.5,0,0.7,0
		c0.7,0,1.5,0.1,2.2,0.2c1.1,0.2,2.1,0.6,3,1.2c2.3,1.4,4,3.6,4.6,6.3h-4.5h-2.5H52C51.8,44.4,51.6,44.4,51.4,44.5z M40.5,22.5
		c0.3-2.6,2.8-4.7,5.5-4.7h0.1c2.7,0,5.2,2.2,5.5,4.7c0.2,1.7-0.2,3-0.8,4.9c-0.2,0.5-0.3,1-0.4,1.4c-2.1,0.7-4,1.7-5.6,3
		c0-0.2,0-0.4,0-0.6c-0.3-2.5-1.9-4.7-4-5.9C40.5,24.3,40.4,23.5,40.5,22.5z M21.9,22.5c0.3-2.6,2.8-4.7,5.5-4.7h0.1
		c2.7,0,5.2,2.2,5.5,4.7c0.1,1,0,1.9-0.2,2.8c-2.2,1.2-3.8,3.4-4,5.9c0,0.2,0,0.5,0,0.7c-0.6,0.1-1,0.1-1.4,0.1
		c-2,0-3.6-1.2-4.3-1.9c0.1-0.8,0-1.7-0.4-2.8C22,25.5,21.7,24.2,21.9,22.5z M14.2,47.3v-7.1c0-1.4,0.1-2.5,0.6-3.3
		c0.9-1.4,2.8-2.3,4.5-3.1c0.6-0.3,1.2-0.6,1.7-0.8c0.3-0.2,0.5-0.3,0.8-0.5c1.1,0.9,3.1,2.1,5.5,2.2c0.1,0,0.1,0,0.2,0
		c0.5,0,0.9-0.1,1.3-0.1c0.2,1,0.5,1.9,0.8,2.8c0.6,1.7,0.2,2.2-0.5,2.5c-0.5,0.3-1,0.5-1.6,0.8c-1.6,0.8-3.4,1.6-4.7,3l0,0
		c-1.3,1.1-2.2,2.5-2.8,3.9h-5.8V47.3z"/>
	<path class="st0" d="M73.9,50.4h-1.3h-0.1h-1.3h-1.3h-1.4h-1.3h-1.3h-8.7c-0.7,0-1.2,0.6-1.2,1.2v5.1V58v1.2v1.4v1.3v1.2v0.1v1.3
		v1.3V66c0,0.7,0.6,1.2,1.2,1.2h24.7c0.7,0,1.2-0.6,1.2-1.2V51.6c0-0.7-0.6-1.2-1.2-1.2h-6.7C75.2,50.4,73.9,50.4,73.9,50.4z
		 M80.6,64.6H62.8h-4.4v-0.3V63l0,0v-1.3v-1.3V59v-1.3v-1.3v-3.7h6H66h1.5H69h1.4h1.3h0.1h1.4h1.3h6.1
		C80.6,52.7,80.6,64.6,80.6,64.6z"/>
	<path class="st0" d="M65.5,70.2h-8.3c-0.7,0-1.2,0.6-1.2,1.2v8.3c0,0.7,0.6,1.2,1.2,1.2h8.3c0.7,0,1.2-0.6,1.2-1.2v-8.3
		C66.7,70.7,66.2,70.2,65.5,70.2z M64.2,78.5h-5.8v-5.8h5.8V78.5z"/>
	<polygon class="st0" points="69.9,71.4 69.9,72.7 83.2,72.7 83.2,71.4 83.2,70.2 69.9,70.2 	"/>
	<polygon class="st0" points="69.9,75.6 69.9,76.8 83.2,76.8 83.2,75.6 83.2,74.3 69.9,74.3 	"/>
	<polygon class="st0" points="69.9,79.8 69.9,81 83.2,81 83.2,79.8 83.2,78.5 69.9,78.5 	"/>
</g>
</svg>
