<?xml version="1.0" encoding="utf-8"?>
<!-- Generator: Adobe Illustrator 26.5.0, SVG Export Plug-In . SVG Version: 6.00 Build 0)  -->
<svg version="1.1" id="Layer_1" xmlns="http://www.w3.org/2000/svg" xmlns:xlink="http://www.w3.org/1999/xlink" x="0px" y="0px"
	 viewBox="0 0 32 40" style="enable-background:new 0 0 32 40;" xml:space="preserve">
<style type="text/css">
	.st0{fill:#2A8E5C;}
</style>
<path class="st0" d="M23.9,8.9c-0.6,0-1,0.4-1,1v0.9c0,0.6,0.4,1,1,1s1-0.4,1-1V9.9C24.9,9.3,24.4,8.9,23.9,8.9z"/>
<path class="st0" d="M23.9,13.7c-0.6,0-1,0.4-1,1v0.9c0,0.6,0.4,1,1,1s1-0.4,1-1v-0.9C24.9,14.1,24.4,13.7,23.9,13.7z"/>
<path class="st0" d="M23.9,18.4c-0.6,0-1,0.4-1,1v0.9c0,0.6,0.4,1,1,1s1-0.4,1-1v-0.9C24.9,18.9,24.4,18.4,23.9,18.4z"/>
<path class="st0" d="M23.9,23.2c-0.6,0-1,0.4-1,1v0.9c0,0.6,0.4,1,1,1s1-0.4,1-1v-0.9C24.9,23.7,24.4,23.2,23.9,23.2z"/>
<path class="st0" d="M3,29.3c6.9,0,19.1,0,26,0c1.3,0,1.3-2,0-2h-0.9V6.1c0-0.4-0.3-0.8-0.6-0.9l-6.4-2.4c-0.2-0.1-0.5-0.1-0.7,0
	L14,5.2c-0.4,0.1-0.6,0.5-0.6,0.9v11.3c0,1.3,2,1.3,2,0c0,0,0-10.6,0-10.6l4.4-1.7v22.2h-4.4v-5.9c0-1.3-2-1.3-2,0c0,0,0,5.9,0,5.9
	h-2.7V12.9l0.9,0.2c1.3,0.3,1.8-1.6,0.5-1.9c0,0-2.1-0.6-2.1-0.6c-0.3-0.1-0.5,0-0.8,0.1l-4.7,2.7c-0.3,0.2-0.5,0.5-0.5,0.9v13.1H3
	C1.7,27.3,1.7,29.3,3,29.3L3,29.3z M21.7,5.1l4.3,1.6v20.5h-4.3V5.1z M5.9,14.8l2.7-1.5v14H5.9C5.9,27.3,5.9,14.8,5.9,14.8z"/>
</svg>
