<?xml version="1.0" encoding="utf-8"?>
<!-- Generator: Adobe Illustrator 26.5.0, SVG Export Plug-In . SVG Version: 6.00 Build 0)  -->
<svg version="1.1" id="Layer_1" xmlns="http://www.w3.org/2000/svg" xmlns:xlink="http://www.w3.org/1999/xlink" x="0px" y="0px"
	 viewBox="0 0 100 125" style="enable-background:new 0 0 100 125;" xml:space="preserve">
<style type="text/css">
	.st0{fill-rule:evenodd;clip-rule:evenodd;fill:#2A8E5C;}
</style>
<path class="st0" d="M79.1,20.9C63,4.9,37,4.9,20.9,20.9S4.9,63,20.9,79.1s42.1,16.1,58.2,0S95.1,37,79.1,20.9
	C79.1,20.9,79.1,20.9,79.1,20.9z M50,6.2c24.2,0,43.8,19.6,43.8,43.8S74.2,93.8,50,93.8S6.2,74.2,6.2,50S25.8,6.2,50,6.2L50,6.2
	L50,6.2z M73,27C85.8,39.7,85.8,60.3,73,73S39.7,85.8,27,73S14.2,39.7,27,27S60.3,14.2,73,27L73,27z M50,14.8
	c19.5,0,35.2,15.8,35.2,35.2S69.5,85.2,50,85.2S14.8,69.5,14.8,50S30.5,14.8,50,14.8L50,14.8z M48.7,20.9c0-0.7,0.6-1.3,1.3-1.3
	s1.3,0.6,1.3,1.3v3.3c0,0.7-0.6,1.3-1.3,1.3s-1.3-0.6-1.3-1.3V20.9L48.7,20.9z M28.5,30.4c-0.5-0.5-0.5-1.4,0-1.9s1.4-0.5,1.9,0
	l2.4,2.4c0.5,0.5,0.5,1.4,0,1.9s-1.4,0.5-1.9,0L28.5,30.4L28.5,30.4z M20.9,51.3c-0.7,0-1.3-0.6-1.3-1.3s0.6-1.3,1.3-1.3h3.3
	c0.7,0,1.3,0.6,1.3,1.3s-0.6,1.3-1.3,1.3H20.9z M30.4,71.5c-0.5,0.5-1.4,0.5-1.9,0s-0.5-1.4,0-1.9l2.4-2.4c0.5-0.5,1.4-0.5,1.9,0
	c0.5,0.5,0.5,1.4,0,1.9L30.4,71.5L30.4,71.5z M51.3,79.1c0,0.7-0.6,1.3-1.3,1.3s-1.3-0.6-1.3-1.3v-3.3c0-0.7,0.6-1.3,1.3-1.3
	s1.3,0.6,1.3,1.3V79.1L51.3,79.1z M71.5,69.6c0.5,0.5,0.5,1.4,0,1.9s-1.4,0.5-1.9,0l-2.4-2.4c-0.5-0.5-0.5-1.4,0-1.9s1.4-0.5,1.9,0
	L71.5,69.6L71.5,69.6z M79.1,48.7c0.7,0,1.3,0.6,1.3,1.3s-0.6,1.3-1.3,1.3h-3.3c-0.7,0-1.3-0.6-1.3-1.3s0.6-1.3,1.3-1.3H79.1z
	 M69.6,28.5c0.5-0.5,1.4-0.5,1.9,0s0.5,1.4,0,1.9l-2.4,2.4c-0.5,0.5-1.4,0.5-1.9,0s-0.5-1.4,0-1.9L69.6,28.5L69.6,28.5z M50.9,49.1
	c0.5,0.5,0.5,1.3,0,1.9c-0.8,0.8-2.2,0.2-2.2-0.9S50.1,48.2,50.9,49.1L50.9,49.1L50.9,49.1z M51.3,46.3c2.2,0.8,3.3,3.3,2.3,5.4
	l5.8,5.8l-0.1-1.2c0-0.7,0.5-1.3,1.3-1.4c0.7,0,1.3,0.5,1.4,1.3l0.2,4.5c0.1,0.9-0.6,1.6-1.5,1.5c-1.5-0.1-3-0.1-4.5-0.2
	c-0.7,0-1.3-0.7-1.3-1.4c0-0.7,0.7-1.3,1.4-1.3l1.2,0.1l-5.8-5.8C49.1,54.8,46,52.9,46,50c0-1.7,1.1-3.2,2.6-3.7V33.1L47.9,34
	c-0.5,0.5-1.3,0.6-1.9,0.1c-0.5-0.5-0.6-1.3-0.1-1.9l3-3.3c0.6-0.7,1.5-0.7,2.1,0c1,1.1,2,2.2,3,3.3c0.5,0.5,0.5,1.4-0.1,1.9
	c-0.5,0.5-1.4,0.5-1.9-0.1l-0.8-0.9L51.3,46.3L51.3,46.3z"/>
</svg>
