<?xml version="1.0" encoding="utf-8"?>
<!-- Generator: Adobe Illustrator 26.5.0, SVG Export Plug-In . SVG Version: 6.00 Build 0)  -->
<svg version="1.1" id="Layer_1" xmlns="http://www.w3.org/2000/svg" xmlns:xlink="http://www.w3.org/1999/xlink" x="0px" y="0px"
	 viewBox="0 0 62.8 77.5" style="enable-background:new 0 0 62.8 77.5;" xml:space="preserve">
<style type="text/css">
	.st0{fill:#2A8E5C;}
</style>
<g>
	<path class="st0" d="M25.8,44V30h3.8L14.8,17.7L0,30h3.8v14H25.8z M19.8,42h-4v-8h4V42z M13.8,42h-4v-8h4V42z M23.8,42h-2V32h-14
		v10h-2V30h18V42z M14.8,20.3L24,28H5.5L14.8,20.3z"/>
	<path class="st0" d="M31.8,16c2.8,0,5-2.2,5-5s-2.2-5-5-5s-5,2.2-5,5S29,16,31.8,16z M31.8,8c1.7,0,3,1.3,3,3s-1.3,3-3,3
		s-3-1.3-3-3S30.1,8,31.8,8z"/>
	<rect x="30.8" class="st0" width="2" height="4"/>
	<rect x="24.4" y="2.6" transform="matrix(0.7072 -0.707 0.707 0.7072 4.1582 19.3145)" class="st0" width="2" height="4"/>
	<rect x="20.8" y="10" class="st0" width="4" height="2"/>
	<rect x="23.4" y="16.4" transform="matrix(0.7071 -0.7071 0.7071 0.7071 -4.8392 23.0444)" class="st0" width="4" height="2"/>
	<rect x="30.8" y="18" class="st0" width="2" height="4"/>
	<rect x="37.1" y="15.4" transform="matrix(0.7072 -0.707 0.707 0.7072 -1.1149 32.0404)" class="st0" width="2" height="4"/>
	<rect x="38.8" y="10" class="st0" width="4" height="2"/>
	<rect x="36.1" y="3.6" transform="matrix(0.7071 -0.7071 0.7071 0.7071 7.8885 28.3169)" class="st0" width="4" height="2"/>
	<path class="st0" d="M58.4,19.4l4.4,2.2V10.4l-4.4,2.2c-0.5-0.9-1.5-1.6-2.6-1.6h-5.9c-2.3-2.1-4.9-3.7-7.7-4.9l-0.8,1.8
		c2,0.8,3.8,1.9,5.5,3.2c-1.2,0.4-2.2,1.5-2.2,2.9v4c0,1.7,1.3,3,3,3h6.9c0.8,1.9,1.4,4,1.8,6c-2,0.2-3.7,1.9-3.7,4v2.2
		c-1.2,0.4-2,1.5-2,2.8v4c0,1.6,1.3,3,2.9,3c-1.4,2.6-3.3,4.9-5.5,6.8l1.3,1.5c2.7-2.4,4.8-5.2,6.4-8.3h3.8c1.7,0,3-1.3,3-3v-4
		c0-1.3-0.8-2.4-2-2.8V31c0-1.6-0.9-2.9-2.3-3.6c-0.3-2.3-0.9-4.5-1.8-6.6C57.5,20.6,58,20.1,58.4,19.4z M60.8,18.4l-2-1v-2.8l2-1
		V18.4z M60.8,40c0,0.6-0.4,1-1,1h-6c-0.6,0-1-0.4-1-1v-4c0-0.6,0.4-1,1-1h6c0.6,0,1,0.4,1,1V40z M58.8,33h-4v-2c0-1.1,0.9-2,2-2
		s2,0.9,2,2V33z M56.8,18c0,0.6-0.4,1-1,1h-8c-0.6,0-1-0.4-1-1v-4c0-0.6,0.4-1,1-1h8c0.6,0,1,0.4,1,1V18z"/>
	<path class="st0" d="M35.8,53c0-3.9-3.1-7-7-7h-1c-1.7,0-3,1.3-3,3v7.2c-0.3-0.1-0.6-0.2-1-0.2c-1.7,0-3,1.3-3,3s1.3,3,3,3
		s3-1.3,3-3v-6.8l9,2V53z M23.8,60c-0.6,0-1-0.4-1-1s0.4-1,1-1s1,0.4,1,1S24.3,60,23.8,60z M26.8,50.2V49c0-0.6,0.4-1,1-1h1
		c2.3,0,4.3,1.6,4.8,3.7L26.8,50.2z"/>
	<path class="st0" d="M46.8,53v-9c0-1.1-0.9-2-2-2h-2c-1.1,0-2,0.9-2,2v9c-0.7,0.5-1.2,1.1-1.5,1.8c-3.3,1-6.9,1.4-10.4,1l-0.2,2
		c1,0.1,2.1,0.2,3.1,0.2c2.4,0,4.7-0.3,7-0.9c0,0.4,0,0.8,0.1,1.2c0.4,1.8,1.9,3.2,3.7,3.6C43,62,43.4,62,43.8,62
		c1.1,0,2.2-0.4,3.1-1.1c1.2-1,1.9-2.4,1.9-3.9C48.8,55.4,48,54,46.8,53z M45.6,59.4c-0.7,0.6-1.7,0.8-2.6,0.6
		c-1-0.2-1.9-1.1-2.2-2.1c-0.3-1.3,0.2-2.7,1.4-3.3l0.5-0.3V44h2v10.1l0.5,0.3c0.9,0.5,1.5,1.5,1.5,2.6
		C46.8,57.9,46.3,58.8,45.6,59.4z"/>
	<path class="st0" d="M11.3,45.4l-1.6,1.2c2.7,3.8,6.4,6.9,10.6,8.9l0.8-1.8C17.3,51.8,13.9,49,11.3,45.4z"/>
	<path class="st0" d="M22.1,7.9l-0.8-1.8c-6.5,2.7-11.8,8-14.5,14.5l1.8,0.8C11.2,15.4,16.1,10.4,22.1,7.9z"/>
</g>
</svg>
