<?xml version="1.0" encoding="utf-8"?>
<!-- Generator: Adobe Illustrator 26.5.0, SVG Export Plug-In . SVG Version: 6.00 Build 0)  -->
<svg version="1.1" id="Layer_1" xmlns="http://www.w3.org/2000/svg" xmlns:xlink="http://www.w3.org/1999/xlink" x="0px" y="0px"
	 viewBox="0 0 100 125" style="enable-background:new 0 0 100 125;" xml:space="preserve">
<style type="text/css">
	.st0{display:none;}
	.st1{display:inline;}
	.st2{display:inline;stroke:#000000;stroke-width:3;stroke-miterlimit:10;}
	.st3{display:inline;fill:none;stroke:#000000;stroke-width:3;stroke-miterlimit:10;}
	.st4{font-family:'ArialMT';}
	.st5{font-size:23.5224px;}
	.st6{display:inline;fill:none;stroke:#000000;stroke-width:2;stroke-miterlimit:10;}
	.st7{fill:none;stroke:#000000;stroke-width:2;stroke-miterlimit:10;}
	.st8{display:inline;fill:none;stroke:#000000;stroke-width:3.0969;stroke-miterlimit:10;}
	.st9{fill:none;stroke:#2A8E5C;stroke-width:3;stroke-miterlimit:10;}
	.st10{display:inline;fill:none;stroke:#000000;stroke-miterlimit:10;}
	.st11{fill:none;stroke:#000000;stroke-width:3;stroke-miterlimit:10;}
	.st12{display:inline;fill:none;stroke:#000000;stroke-width:5;stroke-miterlimit:10;}
	.st13{font-size:17.7672px;}
	.st14{display:inline;fill:none;stroke:#000000;stroke-width:1.5;stroke-miterlimit:10;}
	.st15{font-size:14.5828px;}
	.st16{display:inline;fill:none;}
	.st17{font-size:12px;}
	.st18{font-size:21.199px;}
	.st19{fill:none;stroke:#000000;stroke-width:4;stroke-miterlimit:10;}
	.st20{font-size:17.4452px;}
	.st21{font-size:9.4773px;}
	.st22{fill:none;stroke:#000000;stroke-width:5;stroke-miterlimit:10;}
	.st23{display:inline;fill:none;stroke:#000000;stroke-width:3.3892;stroke-miterlimit:10;}
	.st24{display:inline;fill:none;stroke:#000000;stroke-width:3.1162;stroke-miterlimit:10;}
</style>
<g class="st0">
	<rect class="st1" width="100" height="100"/>
</g>
<g class="st0">
	<g class="st1">
		<path d="M39.3,33.2l-1-2.8c0.6-0.2,14.6-5.3,28.6,0l-1.1,2.8C52.8,28.2,39.4,33.1,39.3,33.2z"/>
	</g>
	<g class="st1">
		<path d="M81.2,86.1H63.9v-7.6c-7.7,1.7-16.2,1.7-23.9,0v7.6H22.6V70.7c-3.8-2.9-6.9-6.4-8.9-10.2H1.5V38.2h12.2
			c2.2-4.1,5.5-7.8,9.8-10.9l-1.2-15.4l13,9.6c2.8-0.9,5.6-1.6,8.6-2c1.1-3.8,4.5-6.4,8.6-6.4s7.6,2.8,8.6,6.6
			c14.7,2.5,26.3,10.8,30.3,21.6c0.3,0,0.5-0.1,0.8-0.1c3.7,0,6.7,3.7,6.7,8.2s-3,8.2-6.7,8.2c-0.3,0-0.6,0-0.9-0.1
			c-1.8,4.9-5.3,9.4-10.2,13.1L81.2,86.1L81.2,86.1z M66.9,83.1h11.3v-14l0.6-0.4c5.1-3.7,8.6-8.3,10.2-13.4l0.5-1.7l1.6,0.7
			c0.4,0.2,0.8,0.3,1.2,0.3c2,0,3.7-2.4,3.7-5.2s-1.7-5.2-3.7-5.2c-0.4,0-0.8,0.1-1.1,0.3l-1.6,0.7l-0.5-1.7
			c-3.2-10.5-14.7-18.8-29.4-21l-1.1-0.2l-0.1-1.1c-0.5-2.9-3-5.2-6-5.2c-2.9,0-5.4,2.1-5.9,5l-0.2,1.1l-1.1,0.1
			c-3.4,0.4-6.7,1.2-9.8,2.3l-0.7,0.3l-9-6.6l0.8,10.6l-0.7,0.5c-4.5,3-7.9,6.8-9.9,11l-0.4,0.8H4.5v16.3h11.1l0.4,0.8
			c1.9,3.9,5,7.4,9,10.3l0.6,0.4v13.9h11.3v-8.5l1.9,0.5c8.4,2.2,17.8,2.2,26.2,0l1.9-0.5V83.1z"/>
	</g>
	<circle class="st2" cx="52.5" cy="19.2" r="9.3"/>
</g>
<g class="st0">
	<g class="st1">
		<path d="M48.4,98.8l-2.8-3.6l-7-1.6l-4.3-1.5l-0.6,1.6h-6.5l-2.8-1.8l0.5-4.5l1-4.5l4.2-6.6l-3.3-0.6l-1.9-1.9h-5.5l-3.2-5.6
			l0.7-3.5l-1.7-3.2l1.3-3.5l-1.9-3.8V50l1.5-4.8l-2-6.6h4.6l2.7-1.5l1.4-4.1l-1.3-2.5L24,28l0.5-4.7l-1.8-1.9l2.6-5.1l3.9,0.1
			l3.5-0.7l1.9,4.4l0,0c0.3-0.9,0.7-2.4,1.6-5.1l0.3-1.1H38l-1.3-2.5l0.7-2.3l-1.7-6.8h9l2.6,4l0.9,1.6l2.4-0.1L57,11l-2.5,2.2
			l1.9,0.3l1.9-2.6l4.1-0.7l5.7-2.8l3.2,3.3l3,0.6l0.9,3.2l3.4,2l2.1,7.1L79,26.9l3.9,3.6l-0.8,2.1l0.8,1V39l1.8,3.2l1.2,4.1
			l-1.6,6.6l-4.1-2.1L79,52.5l-3.4,1.4l-1.7,2.5l-7.1,2.7l-2.2,0.6l1,1.6l1.5,3.5l0.3,2.8l3.3,2.2l7.8,6.3v3.3L76,80.8l-2.1,2.7
			l-2.8,2.8l1.4,7.4l-6.9-0.9l-2.4,0.9l-6.9,2.4l-3.5-0.9H51L48.4,98.8z M39.5,90.8l7.8,1.8l1,1.4l1.3-1.6h3.8l2.8,0.7l6-2.1l3-1.2
			l3.5,0.5l-0.9-4.9l3.8-3.8l2.3-3l1.6-0.8L69,72.3l-4.3-2.8l-0.4-3.8l-1.3-3L59.9,58l6.1-1.7l6-2.3l1.7-2.5l3.5-1.4l2.2-3.2l3,1.6
			l0.5-2.2L82,43.2l-2-3.4v-5.1l-1.1-1.6l0.6-1.7l-4.1-3.8l2.4-4.6l-1.4-4.8l-3.5-2L72,13.6l-2.2-0.4l-2.3-2.4l-4.1,2l-3.3,0.5
			L58,16.4l-5.1-0.7l-2.4-3.2l1.3-1.1l-1.7-0.8l-3.5,0.1l-1.7-3.1l-1.7-2.5h-3.6l1,3.9L40,11l2.9,5.8h-4.1c-0.7,2.2-1.3,4.3-1.4,4.7
			C37.3,22,37,23,35.3,23c-0.8,0-1.8-0.2-1.9-0.2l-0.8-0.1L31,19l-1.5,0.3l-2.3-0.1l-0.8,1.5l1.3,1.4L27,29.2L25.2,31l0.9,1.7
			l-2.2,6.4l-4.4,2.5h-1.3l1.1,3.6l-1.6,5.2v3.1l2.2,4.3l-1.3,3.4l1.6,3l-0.7,3.4l1.8,3.1h5l2.1,2.1l3.7,0.6l1.7,2.7l-5,7.8
			l-0.9,3.9l-0.3,2.4l0.5,0.3h3.5l0.9-2.4L39.5,90.8z"/>
	</g>
	<circle class="st1" cx="38.5" cy="33.3" r="2"/>
	<circle class="st1" cx="48.1" cy="23.8" r="2.9"/>
	<circle class="st1" cx="54.2" cy="27" r="1.7"/>
	<circle class="st1" cx="68.2" cy="31.3" r="3.5"/>
	<polygon class="st1" points="71.7,35.3 71.7,35.3 71.7,35.3 	"/>
	<circle class="st1" cx="63.7" cy="35.3" r="1"/>
	<circle class="st1" cx="68.2" cy="38.3" r="2"/>
	<circle class="st1" cx="53.7" cy="42.5" r="1.5"/>
	<circle class="st1" cx="28.3" cy="53.2" r="1.5"/>
	<circle class="st1" cx="59" cy="85.2" r="1.5"/>
	<circle class="st1" cx="37.7" cy="57.8" r="3.2"/>
	<circle class="st1" cx="33" cy="47.5" r="2.5"/>
	<circle class="st1" cx="63.7" cy="48.8" r="1.6"/>
	<circle class="st1" cx="70.2" cy="47.2" r="1.6"/>
	<circle class="st1" cx="47.8" cy="50.5" r="1.3"/>
	<circle class="st1" cx="45.7" cy="80" r="3.2"/>
	<circle class="st1" cx="52.5" cy="75.8" r="1.2"/>
	<circle class="st1" cx="68.2" cy="76.8" r="1.3"/>
	<circle class="st1" cx="57.2" cy="62.5" r="1.8"/>
	<circle class="st1" cx="36.5" cy="68.2" r="2.8"/>
	<circle class="st1" cx="38.5" cy="83.7" r="0.8"/>
	<circle class="st1" cx="47.8" cy="63.5" r="1.7"/>
	<circle class="st1" cx="29.8" cy="37.3" r="1.5"/>
	<circle class="st1" cx="25" cy="63.5" r="1.8"/>
	<circle class="st1" cx="46.7" cy="14" r="1.2"/>
	<circle class="st1" cx="40.5" cy="25.3" r="1.2"/>
</g>
<g class="st0">
	<polyline class="st3" points="79.4,39.6 85.6,43.6 85.6,94 14.4,94 14.4,43.6 20.3,39.3 	"/>
	<polyline class="st3" points="57.3,71 79.4,49.6 79.7,6 20.3,6 20.3,49.3 42.7,71 	"/>
	<line class="st3" x1="14.4" y1="43.6" x2="42.7" y2="71"/>
	<line class="st3" x1="85.6" y1="43.6" x2="57.3" y2="71"/>
	<polygon class="st3" points="16.6,94 83.4,94 50,64.5 	"/>
	<line class="st3" x1="28.6" y1="17.3" x2="58.2" y2="17.3"/>
	<line class="st3" x1="28.6" y1="23.2" x2="58.2" y2="23.2"/>
	<line class="st3" x1="28.6" y1="29" x2="58.2" y2="29"/>
	<text transform="matrix(1 0 0 1 35.6616 53.3208)" class="st1 st4 st5">$</text>
</g>
<g class="st0">
	<rect x="23.7" y="13.5" class="st6" width="51.1" height="68.9"/>
	<circle class="st6" cx="49.3" cy="88.9" r="2.7"/>
	<g class="st1">
		<circle class="st7" cx="40.7" cy="37.1" r="9.8"/>
		<polyline class="st7" points="50.5,35.1 40.7,37.1 43,27.5 		"/>
	</g>
	<line class="st6" x1="54" y1="39.6" x2="64.8" y2="39.6"/>
	<line class="st6" x1="54" y1="43.7" x2="66.7" y2="43.7"/>
	<polyline class="st6" points="60.3,74.1 32.9,74.1 32.9,55.9 	"/>
	<rect x="37" y="65.6" class="st6" width="3.8" height="8.5"/>
	<rect x="43.8" y="60.4" class="st6" width="3.8" height="13.8"/>
	<rect x="50.6" y="63.1" class="st6" width="3.8" height="11.1"/>
	<path class="st3" d="M73.8,95.5H24.7c-4.2,0-7.7-3.5-7.7-7.7V11.6c0-4.2,3.5-7.7,7.7-7.7h49.1c4.2,0,7.7,3.5,7.7,7.7v76.2
		C81.5,92,78,95.5,73.8,95.5z"/>
</g>
<g class="st0">
	<g class="st1">
		<path d="M62.6,95H38.3c-5.8,0-10.5-4.7-10.5-10.5V15.6C27.8,9.8,32.5,5,38.3,5h24.3c5.8,0,10.5,4.7,10.5,10.5v68.9
			C73.1,90.2,68.4,95,62.6,95z M38.3,6.8c-4.8,0-8.7,3.9-8.7,8.7v68.9c0,4.8,3.9,8.7,8.7,8.7h24.3c4.8,0,8.7-3.9,8.7-8.7V15.6
			c0-4.8-3.9-8.7-8.7-8.7H38.3V6.8z"/>
	</g>
	<g class="st1">
		<rect x="28.7" y="21.4" width="43.6" height="1.8"/>
	</g>
	<g class="st1">
		<rect x="28.7" y="76.8" width="43.6" height="1.8"/>
	</g>
	<g class="st1">
		<path d="M50.4,90.6c-2.5,0-4.5-2-4.5-4.5s2-4.5,4.5-4.5s4.5,2,4.5,4.5C55,88.6,52.9,90.6,50.4,90.6z M50.4,83.4
			c-1.5,0-2.7,1.2-2.7,2.7s1.2,2.7,2.7,2.7s2.7-1.2,2.7-2.7C53.2,84.6,51.9,83.4,50.4,83.4z"/>
	</g>
	<g class="st1">
		<path d="M57.4,19.7H43.5c-1.4,0-2.5-1.1-2.5-2.5s1.1-2.5,2.5-2.5h13.9c1.4,0,2.5,1.1,2.5,2.5S58.8,19.7,57.4,19.7z M43.5,16.5
			c-0.4,0-0.7,0.3-0.7,0.7c0,0.4,0.3,0.7,0.7,0.7h13.9c0.4,0,0.7-0.3,0.7-0.7c0-0.4-0.3-0.7-0.7-0.7H43.5z"/>
	</g>
</g>
<g class="st0">
	<path class="st8" d="M62.9,94.2H37.4c-5.4,0-9.8-4.4-9.8-9.8v-69c0-5.4,4.4-9.8,9.8-9.8h25.5c5.4,0,9.8,4.4,9.8,9.8v69
		C72.7,89.8,68.3,94.2,62.9,94.2z"/>
	<line class="st8" x1="27.7" y1="79.7" x2="72.7" y2="79.7"/>
	<line class="st8" x1="27.7" y1="21" x2="72.7" y2="21"/>
	<path class="st6" d="M59.1,15.9H40.9c-0.8,0-1.4-0.6-1.4-1.4v-0.3c0-0.8,0.6-1.4,1.4-1.4h18.2c0.8,0,1.4,0.6,1.4,1.4v0.3
		C60.5,15.3,59.9,15.9,59.1,15.9z"/>
	<circle class="st6" cx="50.2" cy="86.2" r="2.8"/>
</g>
<g>
	<path class="st9" d="M34,77.8H15.2c0,0,0-20.2,0-40S31.1,4.7,50.8,4.7s35.6,13.4,35.6,33.2c0,15.4,0,40,0,40H67.6 M67.7,77.8
		C74,70.9,78,60.3,78,48.3c0-20.8-12.2-37.6-27.2-37.6 M34,77.8c4.6,5.1,10.5,8.1,16.9,8.1s12.2-3,16.9-8.1 M50.8,10.7
		c-15,0-27.2,16.8-27.2,37.6c0,12,4,22.6,10.4,29.5 M78,48.3c-16.3,0-39.5-20.1-39.5-20.1s-4.1,9.4-13.8,9.4 M67.8,92.5
		c9.7,0,7.6-27.2,7.6-27.2s6.7-1.7,6.7-7.7s-5.4-5.9-5.4-5.9 M24.4,51.8c0,0-5.4,0-5.4,5.9s7.6,7.8,7.6,7.8 M61.3,88.6
		c-3.6,0-6.6,1.8-6.6,3.9s2.9,3.9,6.6,3.9c3.7,0,6.6-1.8,6.6-3.9S64.9,88.6,61.3,88.6z"/>
</g>
<g class="st0">
	<path class="st3" d="M72.9,84.1h-1.6c0-0.3,0.1-0.6,0.1-0.9V12.5c0-4.2-3.4-7.7-7.7-7.7h-37c-4.2,0-7.7,3.4-7.7,7.7v70.7
		c0,0.3,0,0.6,0.1,0.9h-1.6c-1.9,0-3.4,1.5-3.4,3.4v5.8c0,1.1,0.9,1.9,1.9,1.9h58.4c1.1,0,1.9-0.9,1.9-1.9v-5.8
		C76.3,85.6,74.7,84.1,72.9,84.1z"/>
	<rect x="28.4" y="15.9" class="st6" width="33.5" height="20.8"/>
	<path class="st3" d="M71.3,46.5h4.3c2,0,3.7,1.7,3.7,3.7v19c0,2,1.7,3.7,3.7,3.7h1.8c2,0,3.7-1.7,3.7-3.7V46.5V38"/>
	<path class="st3" d="M87.3,39.5c0.6-0.7,1.3-1.1,1.3-1.9l0.1-19.4c0-0.9-0.7-1.6-1.6-1.7l0,0c-1,0-1.9,0.8-2,1.9l-0.7,9.8
		c0,0.5-0.3,1-0.6,1.3l-2.3,2.2c-1.7,1.6-1.8,5.5-0.8,7.4C82.8,42.9,87.3,39.5,87.3,39.5z"/>
	<line class="st3" x1="19.1" y1="84.1" x2="71.3" y2="84.1"/>
	<ellipse class="st10" cx="39.9" cy="23" rx="4" ry="2.1"/>
	<path class="st10" d="M43.9,28.6c0,1.2-1.8,2.1-4,2.1s-4-0.9-4-2.1"/>
	<path class="st10" d="M43.9,26.7c0,1.2-1.8,2.1-4,2.1s-4-0.9-4-2.1"/>
	<path class="st10" d="M43.9,24.8c0,1.2-1.8,2.1-4,2.1s-4-0.9-4-2.1"/>
	<path class="st10" d="M43.9,23.2v7.3c0,1.2-1.8,2.1-4,2.1s-4-0.9-4-2.1v-7.3"/>
	<ellipse class="st10" cx="50.9" cy="26.7" rx="4" ry="2.1"/>
	<path class="st10" d="M54.9,28.6c0,1.2-1.8,2.1-4,2.1s-4-0.9-4-2.1"/>
	<path class="st10" d="M54.9,26.9v3.6c0,1.2-1.8,2.1-4,2.1s-4-0.9-4-2.1v-3.6"/>
</g>
<g class="st0">
	<line class="st3" x1="8.1" y1="71.5" x2="2.4" y2="71.5"/>
	<g class="st1">
		<path class="st11" d="M8.1,21v50.6H14c0-4.2,3.4-7.5,7.5-7.5s7.5,3.4,7.5,7.5h33.2V21H8.1z"/>
		<path class="st11" d="M14,71.5c0,4.2,3.4,7.5,7.5,7.5s7.5-3.4,7.5-7.5"/>
	</g>
	<g class="st1">
		<path class="st11" d="M85.6,47.9l-3.9-11.3H62.2v34.9H69c0-4.2,3.4-7.5,7.5-7.5c4.2,0,7.5,3.4,7.5,7.5h1.5h7.2v-18L85.6,47.9z"/>
		<path class="st11" d="M69,71.5c0,4.2,3.4,7.5,7.5,7.5c4.2,0,7.5-3.4,7.5-7.5"/>
	</g>
	<polygon class="st6" points="79.1,49.9 68,49.9 68,42.6 77.1,42.6 	"/>
</g>
<g class="st0">
	<path class="st3" d="M83.7,74.8H16.3c-4.3,0-7.7-3.5-7.7-7.7V32.9c0-4.3,3.5-7.7,7.7-7.7h67.4c4.3,0,7.7,3.5,7.7,7.7v34.2
		C91.4,71.4,88,74.8,83.7,74.8z"/>
	<line class="st12" x1="8.6" y1="62.7" x2="91.4" y2="62.7"/>
	<text transform="matrix(1 0 0 1 73.5703 46.6069)" class="st1 st4 st13">$</text>
</g>
<g class="st0">
	<path class="st3" d="M74.1,88.6h-5.4V6.5H21.8v82.1h-5.4c-0.7,0-1.2,0.6-1.2,1.2V94h60.1v-4.1C75.3,89.2,74.8,88.6,74.1,88.6z"/>
	<rect x="29.1" y="13.3" class="st3" width="32.2" height="23.6"/>
	<path class="st3" d="M68.7,68.2h3.5c1.7,0,3.1,1.4,3.1,3.1v6.6c0,1.7,1.4,3.1,3.1,3.1h3.4c1.7,0,3.1-1.4,3.1-3.1V42.8l-3.2-10.7
		L76,24.8"/>
	<polyline class="st3" points="82.1,33.7 76.8,37.9 79.5,45.2 84.8,45.9 	"/>
	<ellipse class="st14" cx="38.9" cy="20.7" rx="4.6" ry="2.5"/>
	<path class="st14" d="M56.2,23.9c0,1.4-2,2.7-4.5,2.7s-4.6-1.4-4.6-2.7s2.1-2.2,4.6-2.2S56.2,22.5,56.2,23.9z"/>
	<path class="st14" d="M43.4,26.8c0,1.4-2,2.5-4.6,2.5s-4.6-1.1-4.6-2.5"/>
	<path class="st14" d="M43.4,23.9c0,1.4-2,2.5-4.6,2.5s-4.6-1.1-4.6-2.5"/>
	<path class="st14" d="M56.2,27c0,1.4-2,2.5-4.6,2.5S47,28.4,47,27"/>
	<path class="st14" d="M43.4,20.7v9.2c0,1.4-2,2.5-4.6,2.5s-4.6-1.1-4.6-2.5v-9.2"/>
	<path class="st14" d="M56.2,23.9v6c0,1.4-2,2.5-4.6,2.5S47,31.3,47,29.9V24"/>
	<g class="st1">
		<path d="M30,50.8v4.7c0,0,7.2-8.6,25.9-6.3c0,0-4.8-1.8-10.9-1.7C36.4,47.5,30,50.8,30,50.8z"/>
		<path d="M60.5,62.7v-3.5c0,0-7.4,7.2-26,5.2c0,0,5,1.8,11,1.7C54.1,66,60.5,62.7,60.5,62.7z"/>
		<polygon points="43,52.7 40.2,61.3 46.9,61.3 47.6,59.2 43.5,59.2 43.9,58 47.3,58 48,55.9 44.6,55.9 44.9,54.9 48.8,54.8 
			49.6,52.7 		"/>
		<polygon points="50.2,52.7 49.6,54.9 51.1,54.9 49,61.3 51.8,61.3 53.9,54.9 57,54.9 57.7,52.7 		"/>
		<path d="M33.6,59.1L33,61.3l1.9,0.2c0,0,2.3,0.1,2.9-0.4c0.7-0.5,1.4-1.6,1.7-2.3s2-6,2-6h-2.7l-1.6,4.9c0,0-0.3,1.6-1.7,1.6
			L33.6,59.1z"/>
	</g>
</g>
<g class="st0">
	<path class="st3" d="M76.1,89.6h-5.4V7.5H23.9v82.1h-5.4c-0.7,0-1.2,0.6-1.2,1.2V95h60.1v-4.1C77.4,90.2,76.8,89.6,76.1,89.6z"/>
	<rect x="31.2" y="14.3" class="st3" width="32.2" height="23.6"/>
	<path class="st3" d="M70.8,69.2h3.5c1.7,0,3.1,1.4,3.1,3.1v6.6c0,1.7,1.4,3.1,3.1,3.1h3.4c1.7,0,3.1-1.4,3.1-3.1V43.8l-3.2-10.7
		l-5.7-7.3"/>
	<polyline class="st3" points="84.1,34.7 78.8,38.9 81.5,46.2 86.9,46.9 	"/>
</g>
<g class="st0">
	<path class="st3" d="M33,81.9C37.6,87,43.5,90,49.9,90s12.2-3,16.9-8.1 M66.7,81.9C73,75,77.1,64.3,77.1,52.4
		c0-2.5-0.9-2.3-0.9-2.3C54.4,50.1,35.8,36,35.8,36s-2.7,9.4-12.6,9.4c0,0-0.6,2.9-0.6,7c0,12,4,22.6,10.4,29.5 M23.5,55.8
		c0,0-5.4,0-5.4,5.9s7.5,7.5,7.5,7.5 M74.3,68.8c0,0,7.3-1.1,7.3-7.1s-5.4-5.9-5.4-5.9"/>
	<path class="st3" d="M19.9,57.1c0,0-9.5-47.4,30-47.1s29.6,46.8,29.6,46.8"/>
</g>
<g class="st0">
	<rect x="29.7" y="6.3" class="st3" width="40.6" height="71.4"/>
	<path class="st3" d="M38.3,93.7h23.5c2.4,0,4.3-1.9,4.3-4.3V77.7H34v11.7C34,91.8,35.9,93.7,38.3,93.7z"/>
	<line class="st3" x1="44.4" y1="93.7" x2="44.4" y2="77.7"/>
	<rect x="36.2" y="14.7" class="st6" width="27.7" height="19.2"/>
	<path class="st6" d="M41.3,45.2h-4c-0.6,0-1.1-0.5-1.1-1.1v-2.8c0-0.6,0.5-1.1,1.1-1.1h4c0.6,0,1.1,0.5,1.1,1.1v2.8
		C42.3,44.7,41.9,45.2,41.3,45.2z"/>
	<path class="st6" d="M52,45.2h-4c-0.6,0-1.1-0.5-1.1-1.1v-2.8c0-0.6,0.5-1.1,1.1-1.1h4c0.6,0,1.1,0.5,1.1,1.1v2.8
		C53,44.7,52.5,45.2,52,45.2z"/>
	<path class="st6" d="M62.8,45.2h-4c-0.6,0-1.1-0.5-1.1-1.1v-2.8c0-0.6,0.5-1.1,1.1-1.1h4c0.6,0,1.1,0.5,1.1,1.1v2.8
		C63.8,44.7,63.4,45.2,62.8,45.2z"/>
	<path class="st6" d="M41.3,55h-4c-0.6,0-1.1-0.5-1.1-1.1v-2.8c0-0.6,0.5-1.1,1.1-1.1h4c0.6,0,1.1,0.5,1.1,1.1v2.8
		C42.3,54.5,41.9,55,41.3,55z"/>
	<path class="st6" d="M52,55h-4c-0.6,0-1.1-0.5-1.1-1.1v-2.8c0-0.6,0.5-1.1,1.1-1.1h4c0.6,0,1.1,0.5,1.1,1.1v2.8
		C53,54.5,52.5,55,52,55z"/>
	<path class="st6" d="M62.8,55h-4c-0.6,0-1.1-0.5-1.1-1.1v-2.8c0-0.6,0.5-1.1,1.1-1.1h4c0.6,0,1.1,0.5,1.1,1.1v2.8
		C63.8,54.5,63.4,55,62.8,55z"/>
	<path class="st6" d="M41.3,64.9h-4c-0.6,0-1.1-0.5-1.1-1.1V61c0-0.6,0.5-1.1,1.1-1.1h4c0.6,0,1.1,0.5,1.1,1.1v2.8
		C42.3,64.4,41.9,64.9,41.3,64.9z"/>
	<path class="st6" d="M52,64.9h-4c-0.6,0-1.1-0.5-1.1-1.1V61c0-0.6,0.5-1.1,1.1-1.1h4c0.6,0,1.1,0.5,1.1,1.1v2.8
		C53,64.4,52.5,64.9,52,64.9z"/>
	<path class="st6" d="M62.8,64.9h-4c-0.6,0-1.1-0.5-1.1-1.1V61c0-0.6,0.5-1.1,1.1-1.1h4c0.6,0,1.1,0.5,1.1,1.1v2.8
		C63.8,64.4,63.4,64.9,62.8,64.9z"/>
	<text transform="matrix(1 0 0 1 45.1343 29.2274)" class="st1 st4 st15">$</text>
	<polyline class="st3" points="29.7,77.7 29.7,83.3 34,83.3 	"/>
	<polyline class="st3" points="66,83.3 70.3,83.3 70.3,77.7 	"/>
</g>
<g class="st0">
	<path class="st3" d="M84.7,68.7H18.1c-2.1,0-3.8-1.7-3.8-3.8V22c0-2.1,1.7-3.8,3.8-3.8h66.6c2.1,0,3.8,1.7,3.8,3.8v42.9
		C88.5,67,86.8,68.7,84.7,68.7z"/>
	<rect x="45" y="68.7" class="st6" width="12.5" height="8.8"/>
	<rect x="29.4" y="77.5" class="st6" width="43.7" height="5.2"/>
	<line class="st6" x1="14.3" y1="61.9" x2="88.5" y2="61.9"/>
	<rect x="28.8" y="37.4" class="st16" width="49.6" height="9.2"/>
	<text transform="matrix(1 0 0 1 28.7498 46.1764)" class="st1 st4 st17">MS </text>
</g>
<g class="st0">
	<path class="st1" d="M2.8,23.6V38c0,0,22.1-26.4,79-19.4c0,0-14.8-5.5-33.3-5.3C22.2,13.6,2.8,23.6,2.8,23.6z"/>
	<path class="st1" d="M95.8,59.8V49.2c0,0-22.5,21.9-79.4,15.9c0,0,15.2,5.5,33.7,5.3C76.3,70.1,95.8,59.8,95.8,59.8z"/>
	<polygon class="st1" points="42.2,29.5 33.8,55.7 54.3,55.7 56.4,49.2 44,49.2 45.1,45.6 55.4,45.5 57.7,39.2 47.4,39.2 48.3,36 
		60.1,35.9 62.4,29.5 	"/>
	<polygon class="st1" points="64.4,29.5 62.4,36 67.2,36 60.5,55.7 69.2,55.7 75.7,36.1 85.2,36.1 87.3,29.5 	"/>
	<path class="st1" d="M13.8,49l-2,6.5l5.8,0.7c0,0,7,0.2,9-1.2c2-1.5,4.2-4.8,5.1-7.2c1-2.4,6-18.2,6-18.2h-8.3l-4.8,15
		c0,0-1,5-5.3,4.9L13.8,49z"/>
</g>
<g class="st0">
	<line class="st3" x1="31.3" y1="20.6" x2="58.1" y2="20.6"/>
	<line class="st3" x1="31.3" y1="26" x2="58.1" y2="26"/>
	<line class="st3" x1="31.3" y1="31.3" x2="58.1" y2="31.3"/>
	<line class="st3" x1="31.3" y1="36.7" x2="58.1" y2="36.7"/>
	<line class="st3" x1="31.3" y1="42.1" x2="58.1" y2="42.1"/>
	<text transform="matrix(1 0 0 1 32.3223 66.2191)" class="st1 st4 st18">$</text>
	<polyline class="st3" points="51.5,84 24.7,84 24.7,9 66.1,9 76.2,19.9 76.2,84 73.5,84 	"/>
	<polyline class="st3" points="76.2,19.9 66.1,19.9 66.1,9 	"/>
	<g class="st1">
		<polyline class="st19" points="70.9,78.5 63,86.4 55.1,78.5 		"/>
		<line class="st19" x1="63" y1="86.4" x2="63" y2="69.2"/>
	</g>
</g>
<g class="st0">
	<text transform="matrix(1 0 0 1 30.5599 53.2783)" class="st1 st4 st20">$</text>
	<polyline class="st3" points="51.5,84 24.7,84 24.7,9 66.1,9 76.2,19.9 76.2,84 73.5,84 	"/>
	<polyline class="st3" points="76.2,19.9 66.1,19.9 66.1,9 	"/>
	<g class="st1">
		<polyline class="st19" points="70.9,78.5 63,86.4 55.1,78.5 		"/>
		<line class="st19" x1="63" y1="86.4" x2="63" y2="69.2"/>
	</g>
	<rect x="30.6" y="25" class="st16" width="35.5" height="22.8"/>
	<text transform="matrix(1 0 0 1 30.5598 33.7598)" class="st1 st4 st17">PDF</text>
</g>
<g class="st0">
	<path class="st3" d="M80,33H13.5c-0.9,0-1.7-0.8-1.7-1.7V19.7c0-0.9,0.8-1.7,1.7-1.7H80c0.9,0,1.7,0.8,1.7,1.7v11.6
		C81.7,32.2,80.9,33,80,33z"/>
	<path class="st3" d="M80,56.3H13.5c-0.9,0-1.7-0.8-1.7-1.7V43c0-0.9,0.8-1.7,1.7-1.7H80c0.9,0,1.7,0.8,1.7,1.7v11.6
		C81.7,55.5,80.9,56.3,80,56.3z"/>
	<line class="st3" x1="17.7" y1="33" x2="17.7" y2="41.3"/>
	<line class="st3" x1="17.7" y1="56.3" x2="17.7" y2="64.6"/>
	<line class="st3" x1="75.8" y1="33" x2="75.8" y2="41.3"/>
	<line class="st3" x1="75.8" y1="56.3" x2="75.8" y2="64.6"/>
	<circle class="st1" cx="75.8" cy="25.5" r="1.6"/>
	<circle class="st1" cx="75.8" cy="48.8" r="1.6"/>
	<rect x="61" y="72.1" class="st6" width="29.6" height="14.3"/>
	<path class="st3" d="M81.7,71.3v-4.7c0-1.1-0.9-2-2-2H13.8c-1.1,0-2,0.9-2,2v10.9c0,1.1,0.9,2,2,2h46.9"/>
	<rect x="67.1" y="75.7" class="st16" width="32.9" height="17.2"/>
	<text transform="matrix(1 0 0 1 67.1251 82.6077)" class="st1 st4 st21">pdf</text>
</g>
<g class="st0">
	<path class="st12" d="M77.6,82.5H25.4c-2.4,0-4.4-2-4.4-4.4V43.4c0-2.4,2-4.4,4.4-4.4h52.2c2.4,0,4.4,2,4.4,4.4v34.7
		C82,80.5,80,82.5,77.6,82.5z"/>
	<path class="st12" d="M37,39v-9.1c0-6,4.8-10.8,10.8-10.8h7.4c6,0,10.8,4.8,10.8,10.8V39"/>
	<polyline class="st12" points="43.7,61.8 50,68.1 64.7,53.4 	"/>
</g>
<g class="st0">
	<g class="st1">
		<path class="st11" d="M72.1,44.6v-8.8c0-2.8-2.3-5.1-5.1-5.1H22.5c-2.8,0-5.1,2.3-5.1,5.1v19.6h10.5"/>
		<path class="st11" d="M27.9,55.5H17.4v2.9c0,2.8,2.3,5.1,5.1,5.1h5.4"/>
		<path class="st11" d="M27.9,72.3c0,2.8,2.3,5.1,5.1,5.1h44.5c2.8,0,5.1-2.3,5.1-5.1v-2.9H27.9V72.3z"/>
		<path class="st11" d="M77.5,44.6h-5.4v10.9v2.9c0,2.8-2.3,5.1-5.1,5.1H27.9v5.8h54.7V49.7C82.6,46.9,80.3,44.6,77.5,44.6z"/>
		<path class="st11" d="M67,63.5c2.8,0,5.1-2.3,5.1-5.1v-2.9H27.9"/>
		<line class="st11" x1="72.1" y1="55.5" x2="72.1" y2="44.6"/>
	</g>
	<path class="st1" d="M32.4,38.3v3.8c0,0,5.9-7,21-5.2c0,0-3.9-1.5-8.9-1.4C37.6,35.6,32.4,38.3,32.4,38.3z"/>
	<path class="st1" d="M57.1,47.9v-2.8c0,0-6,5.8-21.1,4.2c0,0,4.1,1.5,9,1.4C51.9,50.6,57.1,47.9,57.1,47.9z"/>
	<polygon class="st1" points="42.9,39.8 40.6,46.8 46.1,46.8 46.6,45.1 43.4,45.1 43.6,44.1 46.4,44.1 47,42.4 44.3,42.4 44.5,41.6 
		47.6,41.5 48.2,39.8 	"/>
	<polygon class="st1" points="48.8,39.8 48.2,41.6 49.5,41.6 47.8,46.8 50.1,46.8 51.8,41.6 54.3,41.6 54.9,39.8 	"/>
	<path class="st1" d="M35.3,45l-0.5,1.7l1.6,0.2c0,0,1.9,0.1,2.4-0.3c0.5-0.4,1.1-1.3,1.4-1.9c0.3-0.6,1.6-4.9,1.6-4.9h-2.2l-1.3,4
		c0,0-0.3,1.3-1.4,1.3L35.3,45z"/>
</g>
<g class="st0">
	<line class="st3" x1="24.9" y1="43.9" x2="21.2" y2="43.9"/>
	<g class="st1">
		<path class="st11" d="M24.9,11.8V44h3.8c0-2.6,2.1-4.8,4.8-4.8s4.8,2.1,4.8,4.8h21.1V11.8H24.9z"/>
		<path class="st11" d="M28.6,43.9c0,2.6,2.1,4.8,4.8,4.8s4.8-2.1,4.8-4.8"/>
	</g>
	<g class="st1">
		<path class="st11" d="M74.2,28.9l-2.5-7.2H59.3v22.2h4.3c0-2.6,2.1-4.8,4.8-4.8c2.6,0,4.8,2.1,4.8,4.8h1h4.6V32.5L74.2,28.9z"/>
		<path class="st11" d="M63.7,43.9c0,2.6,2.1,4.8,4.8,4.8c2.6,0,4.8-2.1,4.8-4.8"/>
	</g>
	<polygon class="st6" points="70.1,30.2 63,30.2 63,25.5 68.8,25.5 	"/>
	<g class="st1">
		<polygon class="st7" points="58.8,68.3 46.9,68.3 46.9,63.6 55.2,63.6 		"/>
		<polygon class="st7" points="43.9,68.3 37.1,68.3 39.3,63.6 43.9,63.6 		"/>
		<circle class="st11" cx="35" cy="80" r="4.8"/>
		<circle class="st11" cx="67.3" cy="80" r="4.8"/>
		<path class="st11" d="M64.9,68.5l-7.4-9.3H36.4l-4.8,9.1h-6.8V80h5.4c0-2.6,2.1-4.8,4.8-4.8c2.6,0,4.8,2.1,4.8,4.8h22.7
			c0,2.6,2.1,4.8,4.8,4.8c2.6,0,4.8-2.1,4.8-4.8H77v-9.2L64.9,68.5z"/>
	</g>
</g>
<g class="st0">
	<path class="st3" d="M60.5,34.9c0,10.4-5.8,18.9-14.2,18.9s-14.2-8.5-14.2-18.9s5.8-16.4,14.2-16.4S60.5,24.5,60.5,34.9z"/>
	<path class="st3" d="M46.3,86.9h23c0-16.7-5.1-31.2-12.6-38.3c2.9-3.4,3.8-8.3,3.8-13.7c0-10.4-5.8-16.4-14.2-16.4
		s-14.2,6-14.2,16.4c0,5.4,0.8,10.3,3.8,13.7c-7.5,7.1-12.6,21.6-12.6,38.3H46.3"/>
	<g class="st1">
		<line class="st22" x1="76.3" y1="41" x2="76.3" y2="57"/>
		<line class="st22" x1="84.3" y1="49" x2="68.3" y2="49"/>
	</g>
</g>
<g class="st0">
	<ellipse class="st3" cx="32.1" cy="37" rx="12.8" ry="7"/>
	<path class="st3" d="M80.7,45.8c0,3.9-5.7,7.7-12.8,7.7S55,49.7,55,45.8s5.8-6.3,12.9-6.3S80.7,42,80.7,45.8z"/>
	<path class="st3" d="M44.9,54.1c0,3.9-5.7,7-12.8,7s-12.8-3.1-12.8-7"/>
	<path class="st3" d="M44.9,45.8c0,3.9-5.7,7-12.8,7s-12.8-3.1-12.8-7"/>
	<path class="st3" d="M80.7,54.8c0,3.9-5.7,7-12.8,7s-12.8-3.1-12.8-7"/>
	<path class="st3" d="M44.9,37v26c0,3.9-5.7,7-12.8,7s-12.8-3.1-12.8-7V37"/>
	<path class="st3" d="M80.7,46.1v17c0,3.9-5.7,7-12.8,7s-12.8-3.1-12.8-7V46.4"/>
</g>
<g class="st0">
	<g class="st1">
		<path class="st11" d="M53.2,38.3v-5.9c0-4.2-3.4-7.6-7.6-7.6H17.8v54.4h21.9"/>
		<path class="st11" d="M69.6,64.7V43c0-2.6-2.1-4.7-4.7-4.7H53.2v33.4c0,3.7-2.6,6.8-6.1,7.4v9.2h18c2.6,0,4.7-2.1,4.7-4.7"/>
		<path class="st11" d="M45.6,79.2h-5.9v4.4c0,2.6,2.1,4.7,4.7,4.7H47v-9.2C46.6,79.2,46.1,79.2,45.6,79.2z"/>
		<path class="st11" d="M47,79.1c3.5-0.7,6.1-3.7,6.1-7.4V38.3"/>
		<path class="st11" d="M39.7,79.2h5.9c0.5,0,1,0,1.4-0.1"/>
	</g>
	<line class="st3" x1="59.3" y1="24.8" x2="59.3" y2="32.5"/>
	<line class="st3" x1="65.8" y1="24.8" x2="65.8" y2="32.5"/>
	<polyline class="st12" points="60.2,70.7 66.6,77 81.2,62.3 	"/>
</g>
<g class="st0">
	<path class="st3" d="M34.9,37.8c0,7.2-4,13-9.8,13s-9.8-5.8-9.8-13s4-11.3,9.8-11.3S34.9,30.6,34.9,37.8z"/>
	<path class="st3" d="M25.1,73.6H41c0-11.5-3.5-21.5-8.7-26.3c2-2.4,2.6-5.7,2.6-9.5c0-7.2-4-11.3-9.8-11.3s-9.8,4.1-9.8,11.3
		c0,3.7,0.6,7.1,2.6,9.5c-5.1,4.9-8.7,14.8-8.7,26.3H25.1"/>
	<path class="st3" d="M75.6,37.8c0,7.2-4,13-9.8,13S56,45,56,37.8s4-11.3,9.8-11.3C71.6,26.4,75.6,30.6,75.6,37.8z"/>
	<path class="st3" d="M78.7,53.9c-0.9-2.3-2.2-4.7-5.7-6.7c2-2.4,2.6-5.7,2.6-9.5c0-7.2-4-11.3-9.8-11.3S56,30.5,56,37.7
		c0,3.7,0.6,7.1,2.6,9.5C53.5,52.1,50,62.1,50,73.6h15.8"/>
	<path class="st3" d="M65.8,73.6h15.8c0-2.8-0.3-6.1-0.7-8.7"/>
	<g class="st1">
		<polygon class="st7" points="72.3,64 71,68 75,66.7 89,52.7 86.3,50 		"/>
		<line class="st7" x1="72.4" y1="63.8" x2="75.1" y2="66.5"/>
	</g>
</g>
<g class="st0">
	<path class="st23" d="M66,31c0,11.8-6.5,21.4-16,21.4S34,42.8,34,31s6.5-18.6,16-18.6S66,19.2,66,31z"/>
	<path class="st23" d="M50,89.8h26c0-18.9-5.8-35.2-14.2-43.2C65.1,42.7,66,37.2,66,31c0-11.8-6.5-18.6-16-18.6S34,19.2,34,31
		c0,6.1,0.9,11.6,4.2,15.5C29.8,54.6,24,70.9,24,89.8H50"/>
	<path class="st23" d="M61.8,46.6C65.1,42.7,66,37.2,66,31l0,0l0,0l0,0c0-0.7,0-1.5-0.1-2.2s-0.1-1.4-0.2-2
		c-0.2-1.3-0.5-2.5-0.9-3.7c-2.3-6.9-7.7-10.7-14.8-10.7c-3,0-5.7,0.7-8,2c-2.3-1.3-5-2-8-2c-0.6,0-1.2,0-1.7,0.1
		C23.7,13.3,18,20,18,31c0,6.1,0.9,11.6,4.2,15.5C13.8,54.6,8,70.9,8,89.8h16h10h16h10h16C76,70.9,70.2,54.6,61.8,46.6z"/>
	<path class="st23" d="M38.2,46.6C34.9,42.7,34,37.2,34,31l0,0l0,0l0,0c0-0.7,0-1.5,0.1-2.2s0.1-1.4,0.2-2c0.2-1.3,0.5-2.5,0.9-3.7
		c2.3-6.9,7.7-10.7,14.8-10.7c3,0,5.7,0.7,8,2c2.3-1.3,5-2,8-2c0.6,0,1.2,0,1.7,0.1C76.3,13.3,82,20,82,31c0,6.1-0.9,11.6-4.2,15.5
		c8.4,8,14.2,24.3,14.2,43.2H76H66H50H40H24C24,70.9,29.8,54.6,38.2,46.6z"/>
	<path class="st23" d="M22.2,46.6"/>
	<path class="st1" d="M36,64v4.3c0,0,6.6-7.9,23.7-5.8c0,0-4.5-1.7-10-1.6C41.9,61,36,64,36,64z"/>
	<path class="st1" d="M64,74.9v-3.2c0,0-6.8,6.6-23.9,4.8c0,0,4.6,1.7,10.1,1.6C58.1,78,64,74.9,64,74.9z"/>
	<polygon class="st1" points="47.9,65.7 45.3,73.6 51.5,73.6 52.1,71.7 48.4,71.7 48.7,70.6 51.9,70.6 52.5,68.7 49.4,68.7 
		49.7,67.7 53.3,67.7 53.9,65.7 	"/>
	<polygon class="st1" points="54.5,65.7 53.9,67.7 55.4,67.7 53.4,73.6 56,73.6 57.9,67.7 60.8,67.7 61.4,65.7 	"/>
	<path class="st1" d="M39.3,71.6l-0.6,2l1.8,0.2c0,0,2.1,0.1,2.7-0.4c0.6-0.4,1.3-1.4,1.5-2.2s1.8-5.5,1.8-5.5H44l-1.5,4.5
		c0,0-0.3,1.5-1.6,1.5L39.3,71.6z"/>
</g>
<g class="st0">
	<polygon class="st24" points="27.3,38.8 22.2,30 11.8,30 11.8,35.5 11.8,85.7 88.2,85.7 88.2,38.8 	"/>
	<polyline class="st24" points="16.9,30 16.9,18 75,18 84,26.9 84,38.8 	"/>
	<polyline class="st24" points="84,26.9 75.1,26.9 75.1,18 	"/>
	<line class="st24" x1="68" y1="26.9" x2="68" y2="38.8"/>
	<line class="st24" x1="60.8" y1="26.9" x2="60.8" y2="38.8"/>
	<line class="st24" x1="53.6" y1="26.9" x2="53.6" y2="38.8"/>
</g>
<g class="st0">
	<g class="st1">
		<polygon class="st11" points="62.5,45.1 43.7,45.1 43.7,37.7 56.8,37.7 		"/>
		<polygon class="st11" points="38.9,45.1 28,45.1 31.6,37.7 38.9,37.7 		"/>
		<circle class="st11" cx="24.7" cy="63.7" r="7.6"/>
		<circle class="st11" cx="76" cy="63.7" r="7.6"/>
		<path class="st11" d="M72.2,45.5L60.5,30.7H27l-7.6,14.4H8.6v18.5h8.5c0-4.2,3.4-7.6,7.6-7.6s7.6,3.4,7.6,7.6h36
			c0,4.2,3.4,7.6,7.6,7.6s7.6-3.4,7.6-7.6h7.8V49L72.2,45.5z"/>
	</g>
</g>
</svg>
