<?xml version="1.0" encoding="utf-8"?>
<!-- Generator: Adobe Illustrator 26.5.0, SVG Export Plug-In . SVG Version: 6.00 Build 0)  -->
<svg version="1.1" id="Layer_1" xmlns="http://www.w3.org/2000/svg" xmlns:xlink="http://www.w3.org/1999/xlink" x="0px" y="0px"
	 viewBox="0 0 1024 1280" style="enable-background:new 0 0 1024 1280;" xml:space="preserve">
<style type="text/css">
	.st0{fill:#2A8E5C;}
</style>
<g>
	<path class="st0" d="M469.1,312.2v142H278.9c1.3-63.6,10.5-125.5,27-180.7c4.2,1.9,8.4,3.8,12.7,5.6
		C366.4,299.3,417,310.4,469.1,312.2z"/>
	<path class="st0" d="M687.3,411.5c-7.6,2.4-15.1,5.2-22.5,8.4c-20.4,8.9-39,20.5-55.5,34.4H499.1v-142
		c52.1-1.8,102.7-12.9,150.6-33.1c4.3-1.8,8.5-3.7,12.7-5.6C675.2,316.3,683.6,362.6,687.3,411.5z"/>
	<path class="st0" d="M469.1,484.2v142c-57,1.9-111.8,14.9-163.3,38.7c-16.5-55.2-25.7-117.1-27-180.7H469.1z"/>
	<path class="st0" d="M529.3,626.3c0,0.7,0,1.4,0,2c-10-1.1-20.1-1.8-30.3-2.1v-142h80.8C547.8,523.6,529.3,573.5,529.3,626.3z"/>
	<path class="st0" d="M85.2,454.2c1.8-48.2,12.2-95,31-139.3c18.5-43.5,44.3-82.9,76.8-117.3c2.4,2.3,4.9,4.5,7.4,6.8
		c2.5,2.2,5,4.4,7.5,6.6c21.9,18.7,45.5,35,70.7,48.8c-18.3,59.3-28.5,125.9-29.8,194.4H85.2z"/>
	<path class="st0" d="M278.7,678.7c-25.2,13.9-48.8,30.2-70.7,48.8c-2.5,2.2-5,4.3-7.5,6.6c-2.5,2.2-5,4.5-7.4,6.8
		c-32.5-34.4-58.4-73.8-76.8-117.3c-18.8-44.3-29.2-91.1-31-139.3h163.6C250.2,552.7,260.4,619.4,278.7,678.7z"/>
	<path class="st0" d="M221.9,183.4c-2.5-2.2-5-4.5-7.4-6.8c47.3-43,103.4-73.5,164.1-89.5c-4.8,4.3-9.5,8.9-14.2,13.9
		c-0.3,0.3-0.6,0.6-0.9,1c-4.4,4.7-8.7,9.7-12.9,15c-24.5,30.4-45.6,69.2-62.2,114.1c-20.7-11.8-40.4-25.5-58.8-41
		C227,187.8,224.4,185.6,221.9,183.4z"/>
	<path class="st0" d="M610.7,842.6c-7.8,2.7-15.7,5.2-23.7,7.4c4.2-4.3,8.4-9.1,12.5-14.2c1.2-1.5,2.4-3,3.6-4.6
		c0.6,0.9,1.2,1.9,1.8,2.8C606.8,836.9,608.7,839.8,610.7,842.6z"/>
	<path class="st0" d="M378.4,851.3c-60.7-16.1-116.8-46.6-163.9-89.4c2.4-2.3,4.9-4.5,7.4-6.7s5.1-4.4,7.6-6.6
		c18.4-15.4,38-29.1,58.9-40.9c16.8,45.5,37.8,83.9,62,113.9c4.2,5.3,8.6,10.3,13,15C368.3,841.7,373.3,846.7,378.4,851.3z"/>
	<path class="st0" d="M467,74.1c0.7,0,1.4,0,2.1-0.1v208.1c-54-2-106.1-14.8-153.9-37.3c18.3-50.9,42.8-93.4,71-123.4
		c7.4-7.9,15.1-14.9,22.9-20.9c6.7-5.2,13.6-9.7,20.6-13.4C441.9,80.6,454.4,76.2,467,74.1z"/>
	<path class="st0" d="M315.3,693.6c48.4-22.9,100-35.4,153.8-37.4v208.1c-0.8,0-1.5,0-2.3-0.1c-12.5-2.1-24.9-6.5-37.1-13.1
		c-7-3.8-13.8-8.3-20.6-13.4l0,0c-8.1-6.2-16-13.4-23.6-21.6C357.6,786.2,333.4,744.1,315.3,693.6z"/>
	<path class="st0" d="M588.5,808.2l-3.9-2.7c-8.3,12.2-17.4,22.6-27.1,31.1c-5.8,5.1-11.9,9.6-18.2,13.4
		c-11.1,6.8-22.9,11.4-35.2,13.8c-1.7,0.1-3.4,0.2-5,0.3V656.3c10.9,0.4,21.8,1.3,32.5,2.5c4.9,37.2,18.2,76.8,39.6,118.2
		C576.4,787.3,582.2,797.7,588.5,808.2z"/>
	<path class="st0" d="M734.9,193.1c-17.4,14.2-35.8,26.9-55,37.8c-15.8-42.9-35.9-80.3-59-110.1c-4.2-5.4-8.5-10.6-12.9-15.5
		c-1.4-1.5-2.7-3-4.1-4.5c-3.6-3.8-7.3-7.5-11-10.9c58.2,17.1,112,47.7,157.3,90c-2.5,2.3-5,4.5-7.5,6.7
		C740,188.8,737.5,191,734.9,193.1z"/>
	<path class="st0" d="M874.6,436.1c-3.5-2.2-7-4.3-10.6-6.3c-3.5-2-7.1-3.8-10.7-5.6c-30.6-15-64.5-22.9-98.9-22.9
		c-12.7,0-25.2,1-37.6,3.1c-4.2-51.2-13.4-99.7-27.3-144.6c23.6-13,45.8-28.1,66.6-45.4c2.6-2.1,5.1-4.3,7.6-6.5s5-4.4,7.5-6.7
		c31,33.5,55.6,71.7,73.5,113.7C861.2,353.6,871.2,394.3,874.6,436.1z"/>
	<path class="st0" d="M582,121.5c28.3,30,52.7,72.5,71,123.4c-47.8,22.5-99.9,35.3-153.9,37.3V74.3c1.5,0.1,3.1,0.1,4.6,0.2
		c12.6,2.4,25.1,7.1,37.3,14c7,4,13.8,8.6,20.6,14C568.5,108.2,575.3,114.5,582,121.5z"/>
	<path class="st0" d="M875.6,486.6c-1-0.9-2-1.7-3-2.5c-2.2-1.9-4.5-3.7-6.8-5.4c-3.2-2.4-6.5-4.8-9.9-7
		c-30-19.7-65.4-30.4-101.6-30.4c-25.6,0-50.4,5.1-73.6,15.2c-67.7,29.4-111.4,96.1-111.4,169.8c0,1.3,0,2.6,0,3.9
		c0.5,26.3,6.5,54.7,17.7,84.7v0.1c5.3,14.2,11.9,28.8,19.6,43.8c0.6,1.3,1.3,2.5,2,3.8c8.3,15.6,17.8,31.7,28.6,48
		c1.8,2.8,3.7,5.6,5.7,8.4c1.2,1.8,2.4,3.6,3.7,5.3c0.7,1,1.4,2,2.1,3c39.8,56.4,84.1,101.4,105.7,122.1
		c44.3-42.7,185.1-188.7,185.1-323C939.4,572.5,916.2,521.8,875.6,486.6z M754.4,682.7c-31.1,0-56.4-25.3-56.4-56.4
		c0-31.1,25.3-56.4,56.4-56.4c31.1,0,56.4,25.3,56.4,56.4C810.8,657.4,785.5,682.7,754.4,682.7z"/>
</g>
</svg>
