<?xml version="1.0" encoding="utf-8"?>
<!-- Generator: Adobe Illustrator 26.5.0, SVG Export Plug-In . SVG Version: 6.00 Build 0)  -->
<svg version="1.1" id="Layer_1" xmlns="http://www.w3.org/2000/svg" xmlns:xlink="http://www.w3.org/1999/xlink" x="0px" y="0px"
	 viewBox="0 0 100 125" style="enable-background:new 0 0 100 125;" xml:space="preserve">
<style type="text/css">
	.st0{fill:#2A8E5C;}
</style>
<g>
	<path class="st0" d="M79,68H21c-2.8,0-5-2.2-5-5V32c0-2.8,2.2-5,5-5h58c2.8,0,5,2.2,5,5v31C84,65.8,81.8,68,79,68z M21,29
		c-1.7,0-3,1.3-3,3v31c0,1.7,1.3,3,3,3h58c1.7,0,3-1.3,3-3V32c0-1.7-1.3-3-3-3H21z"/>
</g>
<g>
	<polygon class="st0" points="59.9,73 40.1,73 43,68.7 43,67 45,67 45,69.3 43.9,71 56.1,71 55,69.3 55,67 57,67 57,68.7 	"/>
</g>
<g>
	<circle class="st0" cx="50" cy="55" r="2"/>
</g>
<g>
	<path class="st0" d="M49.9,41.9c4.1,0,7.9,1.5,10.8,3.9l1.4-1.4c-3.3-2.8-7.6-4.5-12.2-4.5c-4.5,0-8.7,1.6-11.9,4.2l1.4,1.4
		C42.3,43.2,45.9,41.9,49.9,41.9z"/>
	<path class="st0" d="M49.9,45.7c3,0,5.8,1.1,8.1,2.8l1.4-1.4c-2.6-2.1-5.9-3.4-9.5-3.4c-3.5,0-6.6,1.2-9.2,3.1l1.4,1.4
		C44.3,46.7,47,45.7,49.9,45.7z"/>
	<path class="st0" d="M49.9,50.1c1.8,0,3.5,0.6,4.9,1.5l1.4-1.4c-1.8-1.3-4-2.1-6.3-2.1c-2.2,0-4.3,0.7-6,1.9l1.4,1.4
		C46.6,50.6,48.2,50.1,49.9,50.1z"/>
</g>
</svg>
