<?xml version="1.0" encoding="utf-8"?>
<!-- Generator: Adobe Illustrator 26.5.0, SVG Export Plug-In . SVG Version: 6.00 Build 0)  -->
<svg version="1.1"
	 id="Layer_1" xmlns:inkscape="http://www.inkscape.org/namespaces/inkscape" xmlns:rdf="http://www.w3.org/1999/02/22-rdf-syntax-ns#" xmlns:cc="http://creativecommons.org/ns#" xmlns:dc="http://purl.org/dc/elements/1.1/" xmlns:sodipodi="http://sodipodi.sourceforge.net/DTD/sodipodi-0.dtd" xmlns:svg="http://www.w3.org/2000/svg"
	 xmlns="http://www.w3.org/2000/svg" xmlns:xlink="http://www.w3.org/1999/xlink" x="0px" y="0px" viewBox="0 0 100 125"
	 style="enable-background:new 0 0 100 125;" xml:space="preserve">
<style type="text/css">
	.st0{fill:#2A8E5C;}
</style>
<g transform="translate(0,-952.36218)">
	<path class="st0" d="M50,957.4c-7.1,0-14.2,1-20.3,3.1c-0.5,0.2-0.8,0.7-0.7,1.2l3.8,15.2c-2.6,4.1-4.4,9.7-4.8,16.5
		c0.2,3.3,0.5,7.4,2.7,9.7c0.4,0.4,1.1,0.4,1.4,0c0.4-0.4,0.4-1.1,0-1.4c-1.7-2.5-2-5.1-2.2-8.2c0.5-6.3,2-11.4,4.2-15.2
		c12.2-4,22.2-4,31.4,0c0.3,0.1,0.7-0.1,0.9-0.1c1.8,3,3.2,8.1,3.4,16.3c-0.3,2.4-0.5,5.3-2.2,7.1c-0.4,0.4-0.4,1.1,0,1.4
		c0.4,0.4,1.1,0.3,1.4,0c2-2.6,2.7-5.4,2.8-8.6c-0.3-8.4-1.6-13.8-3.7-17.3c-0.3-0.5-0.6-0.8-0.9-1.2l3.6-14.3
		c0.1-0.5-0.2-1-0.7-1.2C64.2,958.4,57.1,957.4,50,957.4L50,957.4z M50,959.4c6.6,0,13.1,0.9,18.7,2.7l-3.5,14.1
		c-11.1-3.6-19.3-3.6-30.6,0l-3.5-14.1C36.9,960.3,43.5,959.4,50,959.4z M49,962.4v3h-3v2h3v3h2v-3h3v-2h-3v-3H49z M59.1,979.7
		c-4.6,5.2-11.9,6.5-17.9,8.1c-3,0.8-5.6,1.8-7.4,3.6c-1.8,1.8-2.3,4.6-1.2,8.3c1.4,4.6,3.8,9.2,6.9,12.7c0.4,0.5,0.8,0.9,1.3,1.3
		l-1.5,3.6c-0.2-0.1-0.3-0.1-0.5-0.1c-6.2,2.1-12.8,3.4-18.2,4.7c-5.2,0.9-7,4.4-8,9.2c-1,5.2-1.9,10.7-2.5,15.1
		c-0.1,0.6,0.4,1.1,1,1.1h78c0.5,0,1-0.5,1-1c-0.3-6.7-0.6-10.5-1.2-15.1c-1.1-4.2-3.1-6.6-5.4-7.8c-7.3-2.3-15.2-3.7-21.9-6.1
		c-0.2-0.1-0.5-0.1-0.7,0l-1.4-3.5c0.4-0.4,0.9-0.9,1.3-1.4c3-3.5,5.5-8.1,6.8-12.7c1.2-3.9,0.3-7.7-1.2-11.1s-3.8-6.5-5.6-9
		c-0.2-0.3-0.5-0.5-0.9-0.4C59.5,979.3,59.3,979.6,59.1,979.7L59.1,979.7z M59.6,981.8c1.7,2.3,3.5,5,4.8,7.8
		c1.4,3.2,2.1,6.4,1.1,9.6c-1.3,4.3-3.6,8.7-6.4,12c-2.8,3.2-6,5.2-9,5.2c-3,0-6.3-2.1-9.1-5.3s-5.2-7.6-6.5-11.9
		c-1-3.3-0.5-5.1,0.8-6.4c1.3-1.3,3.6-2.2,6.5-3C47.2,988.2,54.5,986.9,59.6,981.8L59.6,981.8z M42.3,1015.2c2.4,1.9,5,3.2,7.7,3.2
		c2.7,0,5.3-1.2,7.7-3.1c0.5,1.4,1.3,3.4,1.9,4.4c-1.8,5.1-5.8,7.5-9.8,7.5c-3.9,0-7.8-2.4-9.6-7.5
		C41.1,1018.5,41.7,1016.6,42.3,1015.2z M63,1019.9c6.5,1.5,13.5,3.3,19.5,5.3c1.7,0.9,3.4,2.7,4.4,6.5c0.9,7.2,1,9.6,1.1,13.6H51.2
		c2.4-4.2,5.2-7.7,7.5-11.7C61.1,1029.7,62.8,1025.4,63,1019.9z M37,1020c0.1,5.4,1.9,9.7,4.2,13.7c2.3,3.9,5.1,7.5,7.5,11.7H12.2
		c0.7-4.8,1.3-8.9,2.3-13.8c1-4.5,2.7-6.6,6.5-7.6C26.4,1022.7,32.1,1021.7,37,1020L37,1020z M60.9,1021.6c-0.4,4.2-1.9,7.7-3.9,11
		c-2.1,3.5-4.7,6.9-7,10.8c-2.3-3.9-5-7.3-7-10.8c-1.9-3.3-3.4-6.7-3.8-10.8c2.2,4.8,6.4,7.4,10.7,7.4
		C54.3,1029.2,58.6,1026.5,60.9,1021.6L60.9,1021.6z"/>
</g>
</svg>
