<?xml version="1.0" encoding="utf-8"?>
<!-- Generator: Adobe Illustrator 26.5.0, SVG Export Plug-In . SVG Version: 6.00 Build 0)  -->
<svg version="1.1" id="Layer_1" xmlns="http://www.w3.org/2000/svg" xmlns:xlink="http://www.w3.org/1999/xlink" x="0px" y="0px"
	 viewBox="0 0 512 640" style="enable-background:new 0 0 512 640;" xml:space="preserve">
<style type="text/css">
	.st0{fill:#2A8E5C;}
</style>
<g>
	<path class="st0" d="M221.9,206.7V220h28.2v-11.9h45.5V220h28.2v-13.4c7.3-3,12.4-10.1,12.4-18.4v-14.6c0-7.1-3.8-13.4-9.4-16.9
		c-0.2-0.2-0.3-0.4-0.5-0.6L306,135.2c-1.8-1.9-4.5-3-7.1-3h-55.5c-2.8,0-5.7,1.4-7.5,3.5l-17.1,20.8c0,0-0.1,0.1-0.1,0.1
		c-5.7,3.5-9.4,9.8-9.4,16.9v14.6C209.3,196.6,214.5,203.8,221.9,206.7z M316.3,169.4c2.3,0,4.2,1.9,4.2,4.2v14.6
		c0,2.3-1.9,4.2-4.2,4.2h-87.1c-2.3,0-4.2-1.9-4.2-4.2v-14.6c0-2.3,1.9-4.2,4.2-4.2H316.3z M246.2,147.9h50.2l5.7,5.9h-60.8
		L246.2,147.9z"/>
	<path class="st0" d="M221.9,351.8v13.3h28.2v-11.9h45.5v11.9h28.2v-13.4c7.3-3,12.4-10.1,12.4-18.4v-14.6c0-7.1-3.8-13.4-9.4-16.9
		c-0.2-0.2-0.3-0.4-0.5-0.6L306,280.3c-1.8-1.9-4.5-3-7.1-3h-55.5c-2.8,0-5.7,1.4-7.5,3.5l-17.1,20.8c0,0-0.1,0.1-0.1,0.1
		c-5.7,3.5-9.4,9.8-9.4,16.9v14.6C209.3,341.7,214.5,348.9,221.9,351.8z M316.3,314.5c2.3,0,4.2,1.9,4.2,4.2v14.6
		c0,2.3-1.9,4.2-4.2,4.2h-87.1c-2.3,0-4.2-1.9-4.2-4.2v-14.6c0-2.3,1.9-4.2,4.2-4.2H316.3z M246.2,293h50.2l5.7,5.9h-60.8L246.2,293
		z"/>
	<path class="st0" d="M187.7,253v142.9c0,4.3,3.5,7.8,7.8,7.8h156.4c4.3,0,7.8-3.5,7.8-7.8V102.2h22.6l-58.7-63.4H75.7L17,102.2
		h25.6v293.7c0,4.3,3.5,7.8,7.8,7.8s7.8-3.5,7.8-7.8V253H187.7z M58.2,237.3V102.2h129.5v135.1H58.2z M344.1,237.3H203.4V102.2
		h140.7V237.3z M344.1,253v135.1H203.4V253H344.1z M82.6,54.4h234.2l29.7,32.1H52.8L82.6,54.4z"/>
	<path class="st0" d="M495,317.1c0-33.9-27.6-61.5-61.5-61.5c-33.9,0-61.5,27.6-61.5,61.5c0,31.5,23.8,57.5,54.3,61.1v79.4H128V325
		l19,19c1.5,1.5,3.5,2.3,5.5,2.3c2,0,4-0.8,5.5-2.3c3.1-3.1,3.1-8,0-11.1l-32.3-32.3c-1.5-1.5-3.5-2.3-5.5-2.3s-4.1,0.8-5.5,2.3
		l-32.3,32.3c-3.1,3.1-3.1,8,0,11.1c3.1,3.1,8,3.1,11.1,0l19-19v140.4c0,4.3,3.5,7.8,7.8,7.8h313.1c0.1,0,0.2,0,0.4,0
		c0.1,0,0.2,0,0.4,0c4.3,0,7.8-3.5,7.8-7.8v-87.3C471.8,373.9,495,348.2,495,317.1z M441.9,362.2v-4.8c0-4.3-3.5-7.8-7.8-7.8
		c-4.3,0-7.8,3.5-7.8,7.8v5c-21.9-3.5-38.7-22.5-38.7-45.3c0-25.3,20.6-45.9,45.9-45.9c25.3,0,45.9,20.6,45.9,45.9
		C479.3,339.5,463.2,358.3,441.9,362.2z"/>
	<path class="st0" d="M473.7,319.6c0-7.3-4.3-13.6-10.4-16.5l-10-11.1c-1.6-1.7-4-2.8-6.3-2.8h-28.9c-2.5,0-5,1.2-6.6,3.3l-8.2,10.7
		c-6.1,3-10.2,9.2-10.2,16.4c0,6.1,3,11.5,7.6,14.8V345h20.6v-7.2h24.2v7.2h20.6v-10.7C470.8,331,473.7,325.6,473.7,319.6z
		 M406.1,319.6c0-2.9,2.4-5.3,5.3-5.3h44.1c2.9,0,5.3,2.4,5.3,5.3c0,2.9-2.4,5.3-5.3,5.3h-44.1C408.5,324.9,406.1,322.5,406.1,319.6
		z"/>
</g>
</svg>
