<?xml version="1.0" encoding="utf-8"?>
<!-- Generator: Adobe Illustrator 26.5.0, SVG Export Plug-In . SVG Version: 6.00 Build 0)  -->
<svg version="1.1" id="Layer_1" xmlns="http://www.w3.org/2000/svg" xmlns:xlink="http://www.w3.org/1999/xlink" x="0px" y="0px"
	 viewBox="0 0 13.5 11.9" style="enable-background:new 0 0 13.5 11.9;" xml:space="preserve">
<style type="text/css">
	.st0{fill-rule:evenodd;clip-rule:evenodd;fill:#2A8E5C;}
</style>
<g>
	<path class="st0" d="M1.1,0c0.4,0,0.8,0.3,0.8,0.8c0,0.3-0.2,0.6-0.4,0.7v0.4C2.1,2.1,2,3.1,2,3.6C2,4,2,4.7,1.9,5
		c0,0.1-0.1,0.1-0.2,0.1v3.6h-1V5.1h0C0.6,5.1,0.5,5,0.4,4.9C0.3,4.4,0.1,2.2,0.9,2V1.5C0.6,1.4,0.4,1.1,0.4,0.8
		C0.4,0.3,0.7,0,1.1,0z M1.7,2.3l0,1.7C1.5,4.3,1,5.1,0.8,5.1c-0.3,0-0.5-0.4-0.4-0.6L1,3.7l0-1.4C0.9,2,1.7,2,1.7,2.3z"/>
	<path class="st0" d="M0.7,8.8h0.8c0.4,0,0.5,0.7,0.1,0.7l-1.3,0C0.1,9.5,0,9.5,0,9.4C0.1,9.1,0.4,9.2,0.7,8.8z"/>
	<path class="st0" d="M3.7,0c0.4,0,0.8,0.3,0.8,0.8c0,0.3-0.2,0.6-0.4,0.7v0.4c0.6,0.1,0.5,1.2,0.5,1.7c0,0.5,0.1,1.1,0,1.4
		c0,0.1-0.1,0.1-0.2,0.1v3.6h-1V5.1h0C3.1,5.1,3,5,3,4.9C2.8,4.4,2.6,2.2,3.4,2V1.5C3.1,1.4,2.9,1.1,2.9,0.8C2.9,0.3,3.2,0,3.7,0z
		 M4.2,2.3l0,1.7C4,4.3,3.5,5.1,3.4,5.1C3.1,5.1,2.9,4.7,3,4.5l0.5-0.8l0-1.4C3.5,2,4.2,2,4.2,2.3z"/>
	<path class="st0" d="M3.2,8.8H4c0.4,0,0.5,0.7,0.1,0.7l-1.3,0c-0.1,0-0.3,0-0.3-0.2C2.6,9.1,2.9,9.2,3.2,8.8z"/>
	<path class="st0" d="M6.5,1.5l0,0.5C6.9,2.2,7,3,6.7,3.6C6.4,4.2,7.3,4.9,6.6,5.1v3.6h-1V5.1c0,0-0.2-0.1-0.2-0.2
		C5.2,4.5,5.5,4.2,5.5,3.8c0-0.2-0.4-0.6-0.3-0.8c0.1-0.5,0.5-0.7,0.9-1.1l0-0.3C5.1,1.4,5.2,0,6.2,0C7,0,7.3,1.2,6.5,1.5z M6.6,2.3
		l0,1.7c-0.1,0.2-0.8,1-1,1C5.3,5,5.3,4.6,5.4,4.4L6,3.9l0-1.4C5.9,2,6.6,2.1,6.6,2.3z"/>
	<path class="st0" d="M5.7,8.8h0.7c0.3,0,0.4,0.7,0.1,0.7l-1.1,0c-0.1,0-0.3,0-0.2-0.2C5.2,9.1,5.4,9.2,5.7,8.8z"/>
	<path class="st0" d="M8.6,1.5l0,0.5C9,2.2,9.2,3,8.9,3.6C8.6,4.2,9.4,4.9,8.7,5.1v3.6h-1V5.1c0,0-0.2-0.1-0.2-0.2
		C7.3,4.5,7.6,4.2,7.6,3.8c0-0.2-0.4-0.6-0.3-0.8c0.1-0.5,0.5-0.7,0.9-1.1l0-0.3C7.2,1.4,7.4,0,8.3,0C9.1,0,9.4,1.2,8.6,1.5z
		 M8.7,2.3l0,1.7c-0.1,0.2-0.8,1-1,1C7.4,5,7.4,4.6,7.5,4.4l0.6-0.6l0-1.4C8.1,2,8.7,2.1,8.7,2.3z"/>
	<path class="st0" d="M7.8,8.8h0.7c0.3,0,0.4,0.7,0.1,0.7l-1.1,0c-0.1,0-0.3,0-0.2-0.2C7.3,9.1,7.5,9.2,7.8,8.8z"/>
	<path class="st0" d="M10.9,1.5l0,0.5c0.4,0.3,0.5,1,0.2,1.6c-0.3,0.6,0.5,1.3-0.1,1.6v3.6h-1V5.1c0,0-0.2-0.1-0.2-0.2
		C9.6,4.5,9.9,4.2,9.9,3.8c0-0.2-0.4-0.6-0.3-0.8c0.1-0.5,0.5-0.7,0.9-1.1l0-0.3C9.5,1.4,9.6,0,10.6,0C11.4,0,11.7,1.2,10.9,1.5z
		 M11,2.3L11,4c-0.1,0.2-0.8,1-1,1C9.7,5,9.7,4.6,9.8,4.4l0.6-0.6l0-1.4C10.3,2,11,2.1,11,2.3z"/>
	<path class="st0" d="M10.1,8.8h0.7c0.3,0,0.4,0.7,0.1,0.7l-1.1,0c-0.1,0-0.3,0-0.2-0.2C9.6,9.1,9.8,9.2,10.1,8.8z"/>
	<path class="st0" d="M12.7,0c0.4,0,0.8,0.3,0.8,0.8c0,0.3-0.2,0.6-0.4,0.7v0.4c0.6,0.1,0.5,1.2,0.5,1.7c0,0.5,0.1,1.1,0,1.4
		c0,0.1-0.1,0.1-0.2,0.1v3.6h-1V5.1h0C12.1,5.1,12,5,12,4.9c-0.2-0.5-0.3-2.7,0.4-3V1.5c-0.3-0.1-0.5-0.4-0.5-0.7
		C11.9,0.3,12.3,0,12.7,0z M13.3,2.3l0,1.7c-0.1,0.2-0.7,1.1-0.8,1.1c-0.3,0-0.5-0.4-0.4-0.6l0.5-0.8l0-1.4C12.5,2,13.3,2,13.3,2.3z
		"/>
	<path class="st0" d="M12.3,8.8H13c0.4,0,0.5,0.7,0.1,0.7l-1.3,0c-0.1,0-0.3,0-0.3-0.2C11.7,9.1,11.9,9.2,12.3,8.8z"/>
</g>
</svg>
