<?xml version="1.0" encoding="utf-8"?>
<!-- Generator: Adobe Illustrator 26.5.0, SVG Export Plug-In . SVG Version: 6.00 Build 0)  -->
<svg version="1.1" id="Layer_1" xmlns="http://www.w3.org/2000/svg" xmlns:xlink="http://www.w3.org/1999/xlink" x="0px" y="0px"
	 viewBox="0 0 100 125" style="enable-background:new 0 0 100 125;" xml:space="preserve">
<style type="text/css">
	.st0{fill:#2A8E5C;}
</style>
<path class="st0" d="M18,40.2c0,4.1,3.1,7.5,7.1,8C38,49.6,48.4,60,49.8,72.9c0.5,4.1,3.9,7.1,8,7.1H68c7.7,0,14-6.3,14-14V34
	c0-7.7-6.3-14-14-14H32c-7.7,0-14,6.3-14,14C18,34,18,40.2,18,40.2z M26,34c0-3.3,2.7-6,6-6h36c3.3,0,6,2.7,6,6v32c0,3.3-2.7,6-6,6
	H57.8C55.9,55.4,42.6,42.1,26,40.2V34z"/>
<path class="st0" d="M22,64c6.6,0,12,5.4,12,12c0,2.2,1.8,4,4,4s4-1.8,4-4c0-11-9-20-20-20c-2.2,0-4,1.8-4,4S19.8,64,22,64z"/>
<circle class="st0" cx="22" cy="76" r="4"/>
</svg>
