<?xml version="1.0" encoding="utf-8"?>
<!-- Generator: Adobe Illustrator 26.5.0, SVG Export Plug-In . SVG Version: 6.00 Build 0)  -->
<svg version="1.1" xmlns="http://www.w3.org/2000/svg" xmlns:xlink="http://www.w3.org/1999/xlink" x="0px" y="0px"
	 viewBox="0 0 100 125" style="enable-background:new 0 0 100 125;" xml:space="preserve">
<style type="text/css">
	.st0{fill:#2A8E5C;}
</style>
<g id="Layer_2">
</g>
<g id="Layer_1">
	<polygon class="st0" points="27.7,67.2 5,67.2 5,81.2 10.2,81.2 10.2,72.5 27.7,72.5 	"/>
	<rect x="38.9" y="67.2" class="st0" width="22.3" height="5.3"/>
	<polygon class="st0" points="72.3,72.5 89.8,72.5 89.8,81.2 95,81.2 95,67.2 72.3,67.2 	"/>
	<polygon class="st0" points="17.6,95 22.9,95 22.9,86.4 39.9,86.4 39.9,95 45.2,95 45.2,81 17.6,81 	"/>
	<polygon class="st0" points="54.8,95 60.1,95 60.1,86.4 77.1,86.4 77.1,95 82.4,95 82.4,81 54.8,81 	"/>
	<polygon class="st0" points="5,5 5,50.6 10.2,50.6 10.2,10.3 89.8,10.3 89.8,50.6 95,50.6 95,5 	"/>
	<rect x="20.3" y="54.5" class="st0" width="22.3" height="5.3"/>
	<rect x="57.4" y="54.5" class="st0" width="22.3" height="5.3"/>
</g>
</svg>
