<?xml version="1.0" encoding="utf-8"?>
<!-- Generator: Adobe Illustrator 26.5.0, SVG Export Plug-In . SVG Version: 6.00 Build 0)  -->
<svg version="1.1" id="Layer_1" xmlns="http://www.w3.org/2000/svg" xmlns:xlink="http://www.w3.org/1999/xlink" x="0px" y="0px"
	 viewBox="0 0 100 125" style="enable-background:new 0 0 100 125;" xml:space="preserve">
<style type="text/css">
	.st0{fill:#2A8E5C;}
</style>
<path class="st0" d="M81.9,20H58v12c-26.4,0-47.9,21.4-47.9,47.9v4h-8v31.9H74v-16l-8.2-4.1l4.2-8.2l-7.1-3.6l-4.2,8.3L42,83.9h-8
	v-8h-8v8h-8v-4C18.1,57.8,35.9,40,58,40v12h24c8.8,0,16-7.1,16-16S90.8,20,81.9,20z M40.1,91.9L66,104.8v3H42v-8h-8v8h-8v-8h-8v8h-8
	v-16H40.1z M81.9,44H66V28h16c4.4,0,8,3.6,8,8S86.3,44,81.9,44z"/>
</svg>
