<?xml version="1.0" encoding="utf-8"?>
<!-- Generator: Adobe Illustrator 26.5.0, SVG Export Plug-In . SVG Version: 6.00 Build 0)  -->
<svg version="1.1" id="Layer_1" xmlns="http://www.w3.org/2000/svg" xmlns:xlink="http://www.w3.org/1999/xlink" x="0px" y="0px"
	 viewBox="0 0 95 118.8" style="enable-background:new 0 0 95 118.8;" xml:space="preserve">
<style type="text/css">
	.st0{fill-rule:evenodd;clip-rule:evenodd;fill:#2A8E5C;}
</style>
<path class="st0" d="M41.1,30.9h17.6l0,0c0.2,0,0.4,0.1,0.6,0.2l6.7,4.7V32c0-0.6,0.5-1.1,1.1-1.1H70c0.4,0,0.7-0.3,0.7-0.7V10.3
	c0-0.4-0.3-0.7-0.7-0.7H41.1c-0.4,0-0.7,0.3-0.7,0.7v19.9C40.4,30.6,40.7,30.9,41.1,30.9z M44.2,15.3c-0.6,0-1.1-0.5-1.1-1.1
	c0-0.6,0.5-1.1,1.1-1.1h15.4c0.6,0,1.1,0.5,1.1,1.1s-0.5,1.1-1.1,1.1c0,0,0,0-0.1,0H44.2z M60,21.3c-0.6,0-1.1-0.5-1.1-1.1
	c0-0.6,0.5-1.1,1.1-1.1h6.8c0.6,0,1.1,0.5,1.1,1.1c0,0.6-0.5,1.1-1.1,1.1H60z M44.2,21.3c-0.6,0-1.1-0.5-1.1-1.1
	c0-0.6,0.5-1.1,1.1-1.1h12c0.6,0,1.1,0.5,1.1,1.1s-0.5,1.1-1.1,1.1c0,0,0,0-0.1,0H44.2z M44.2,27.4c-0.6,0-1.1-0.5-1.1-1.1
	c0-0.6,0.5-1.1,1.1-1.1h22.7c0.6,0,1.1,0.5,1.1,1.1c0,0.6-0.5,1.1-1.1,1.1H44.2z M54.6,33.1v2.8c0,0.4-0.3,0.7-0.7,0.7H36.3l0,0
	c-0.2,0-0.4,0.1-0.6,0.2L29,41.4v-3.8c0-0.6-0.5-1.1-1.1-1.1H25c-0.4,0-0.7-0.3-0.7-0.7V15.9c0-0.4,0.3-0.7,0.7-0.7h13.1v14.9
	c0,1.6,1.3,2.9,2.9,2.9L54.6,33.1z M26.3,65.2c-0.2,0.2-0.3,0.3-0.5,0.4c5,1.8,8.3,6.5,8.3,11.8c0,0.6-0.5,1.1-1.1,1.1
	s-1.1-0.5-1.1-1.1c0,0,0,0,0-0.1c0-5.7-4.6-10.3-10.3-10.3c-5.7,0-10.3,4.6-10.3,10.3c0,0.6-0.5,1.1-1.1,1.1s-1.1-0.5-1.1-1.1
	c0,0,0,0,0-0.1c0-5.3,3.3-10,8.3-11.8c-0.2-0.1-0.3-0.3-0.5-0.4c-2.6-2.6-2.6-6.8,0-9.4s6.8-2.6,9.4,0
	C28.9,58.5,28.9,62.6,26.3,65.2C26.3,65.2,26.3,65.2,26.3,65.2z M21.6,65c2.4,0,4.4-2,4.4-4.4s-2-4.4-4.4-4.4s-4.4,2-4.4,4.4
	c0,1.2,0.5,2.3,1.3,3.1C19.3,64.5,20.5,65,21.6,65z M35.2,52.7c-7.5-7.5-19.6-7.5-27.1,0s-7.5,19.6,0,27.1c7.5,7.5,19.6,7.5,27.1,0
	c3.6-3.6,5.6-8.5,5.6-13.5C40.8,61.2,38.7,56.3,35.2,52.7z M78.1,65.2c-0.2,0.2-0.3,0.3-0.5,0.4c5,1.8,8.3,6.5,8.3,11.8
	c0,0.6-0.5,1.1-1.1,1.1s-1.1-0.5-1.1-1.1c0,0,0,0,0-0.1c0-5.7-4.6-10.3-10.3-10.3c-5.7,0-10.3,4.6-10.3,10.3c0,0,0,0,0,0
	c0,0.6-0.5,1.1-1.1,1.1s-1.1-0.5-1.1-1.1c0,0,0,0,0-0.1c0-5.3,3.3-10,8.3-11.8c-0.2-0.1-0.3-0.3-0.5-0.4c-2.6-2.6-2.6-6.8,0-9.4
	c2.6-2.6,6.8-2.6,9.4,0C80.6,58.5,80.6,62.6,78.1,65.2z M73.4,65c2.4,0,4.4-2,4.4-4.4c0-2.4-2-4.4-4.4-4.4s-4.4,2-4.4,4.4
	c0,1.2,0.5,2.3,1.3,3.1C71.1,64.5,72.2,65,73.4,65z M86.9,52.7c-7.5-7.5-19.6-7.5-27.1,0c-7.5,7.5-7.5,19.6,0,27.1
	c7.5,7.5,19.6,7.5,27.1,0c3.6-3.6,5.6-8.5,5.6-13.5C92.5,61.2,90.5,56.3,86.9,52.7z"/>
</svg>
