<?xml version="1.0" encoding="utf-8"?>
<!-- Generator: Adobe Illustrator 26.5.0, SVG Export Plug-In . SVG Version: 6.00 Build 0)  -->
<svg version="1.1" id="Layer_1" xmlns="http://www.w3.org/2000/svg" xmlns:xlink="http://www.w3.org/1999/xlink" x="0px" y="0px"
	 viewBox="0 0 100 125" style="enable-background:new 0 0 100 125;" xml:space="preserve">
<style type="text/css">
	.st0{fill:#2A8E5C;}
</style>
<g>
	<path class="st0" d="M23.5,54.8V39.4c0-0.2,0.3-0.5,0.8-0.5h51.4c0.5,0,0.8,0.3,0.8,0.5v15.4c0,0.2-0.3,0.5-0.8,0.5H24.3
		C23.8,55.3,23.5,55,23.5,54.8z M94.9,57.5v7.3c0,0.9-0.5,1.7-1.3,2.1c0,0.1,0,0.2-0.1,0.4l-3.4,8.6c0.5,0.4,0.9,1,0.9,1.8
		c0,1.2-1,2.2-2.2,2.2h-1.6v13.2c0,0.6-0.4,1-1,1s-1-0.4-1-1v-4.3H72.8c0,0,0,0,0,0L71,93.4c-0.2,0.4-0.5,0.6-0.9,0.6
		c-0.1,0-0.2,0-0.4-0.1c-0.5-0.2-0.8-0.8-0.6-1.3L74,79.9H74c-1.2,0-2.2-1-2.2-2.2c0-1.2,1-2.2,2.2-2.2h14.3l0.9-2.2H78.6
		c-0.6,0-1-0.4-1-1c0-0.3,0.1-0.6,0.3-0.7c-0.5-0.4-0.9-1-0.9-1.7c0-1.1,0.9-2.1,2.1-2.1h6.6c1.1,0,2.1,0.9,2.1,2.1
		c0,0.5-0.2,1-0.6,1.4h2.7l1.7-4.2c-0.9-0.4-1.5-1.2-1.5-2.2v-7.3c0-1.3,1.1-2.4,2.4-2.4C93.9,55,94.9,56.1,94.9,57.5z M85.4,79.9
		h-9.2l-2.7,6.9h11.8L85.4,79.9L85.4,79.9z M30.9,92.7c0.2,0.5-0.1,1.1-0.6,1.3c-0.1,0-0.2,0.1-0.4,0.1c-0.4,0-0.8-0.2-0.9-0.6
		l-1.8-4.6c0,0,0,0,0,0H14.6v4.3c0,0.6-0.4,1-1,1s-1-0.4-1-1V79.9h-1.6c-1.2,0-2.2-1-2.2-2.2c0-0.7,0.4-1.4,0.9-1.8l-3.4-8.6
		c0-0.1-0.1-0.2-0.1-0.4c-0.8-0.4-1.3-1.2-1.3-2.1v-7.3c0-1.3,1.1-2.4,2.4-2.4c1.3,0,2.4,1.1,2.4,2.4v7.3c0,1-0.6,1.9-1.5,2.2
		l1.7,4.2h2.7c-0.3-0.4-0.6-0.9-0.6-1.4c0-1.1,0.9-2.1,2.1-2.1h6.6c1.1,0,2.1,0.9,2.1,2.1c0,0.7-0.3,1.3-0.9,1.7
		c0.2,0.2,0.3,0.4,0.3,0.7c0,0.6-0.4,1-1,1H10.9l0.9,2.2H26c1.2,0,2.2,1,2.2,2.2c0,1.2-1,2.2-2.2,2.2H26L30.9,92.7z M26.5,86.8
		l-2.7-6.9h-9.2v6.9H26.5z M72.7,74.1h-5.2v19c0,0.6-0.4,1-1,1s-1-0.4-1-1v-8H34.4v8c0,0.6-0.4,1-1,1s-1-0.4-1-1v-19h-5.2
		c-1.6,0-2.9-1.3-2.9-2.9s1.3-2.9,2.9-2.9h45.4c1.6,0,2.9,1.3,2.9,2.9C75.6,72.8,74.3,74.1,72.7,74.1z M65.6,74.1H34.4v9h31.1V74.1z
		 M51,7.5V6.9c0-0.6-0.4-1-1-1s-1,0.4-1,1v0.6c0.3,0,0.7-0.1,1-0.1S50.7,7.5,51,7.5z M38.8,17.1c0-0.6,0.4-1,1-1h0.6
		c0.5-4.5,4.1-8.1,8.6-8.6v1v1v0.3c0,0.6,0.4,1,1,1s1-0.4,1-1V9.5v-1v-1c4.5,0.5,8.1,4.1,8.6,8.6h0.6c0.6,0,1,0.4,1,1
		c0,0.6-0.4,1-1,1h-0.6c-0.5,4.5-4.1,8.1-8.6,8.6v-1v-1v-0.3c0-0.6-0.4-1-1-1s-1,0.4-1,1v0.3v1v1c-4.5-0.5-8.1-4.1-8.6-8.6h-0.6
		C39.3,18.1,38.8,17.6,38.8,17.1z M48.6,17c0,0.1,0,0.1,0,0.2c0,0.1,0,0.1,0,0.2c0,0.1,0.1,0.1,0.1,0.2c0,0,0,0.1,0.1,0.1l2,2.1
		c0.2,0.2,0.5,0.3,0.7,0.3c0.2,0,0.5-0.1,0.7-0.3c0.4-0.4,0.4-1,0-1.4L51,17l3.4-3.6c0.4-0.4,0.4-1,0-1.4c-0.4-0.4-1-0.4-1.4,0
		l-4,4.3c0,0-0.1,0.1-0.1,0.1c0,0.1-0.1,0.1-0.1,0.2c0,0.1,0,0.1,0,0.2C48.7,16.8,48.6,16.9,48.6,17z M49,26.7v0.6c0,0.6,0.4,1,1,1
		s1-0.4,1-1v-0.6c-0.3,0-0.7,0.1-1,0.1S49.3,26.7,49,26.7z M18.4,57.2V37c0-1.7,1.3-3,3-3h57.1c1.7,0,3,1.3,3,3v20.1
		c0,1.7-1.3,3-3,3H55.3v1.4H62c2.3,0,4.3,1.6,4.9,3.8c0.1,0.5-0.2,1.1-0.7,1.2c-0.1,0-0.2,0-0.2,0c0,0-0.1,0-0.1,0c0,0-0.1,0-0.1,0
		H34.4c0,0,0,0-0.1,0c-0.1,0-0.2,0-0.4,0c-0.5-0.1-0.9-0.7-0.7-1.2c0.5-2.2,2.5-3.8,4.9-3.8h6.7v-1.4H21.4
		C19.8,60.2,18.4,58.8,18.4,57.2z M21.5,54.8c0,1.4,1.3,2.5,2.8,2.5h51.4c1.5,0,2.8-1.1,2.8-2.5V39.4c0-1.4-1.3-2.5-2.8-2.5H24.3
		c-1.5,0-2.8,1.1-2.8,2.5C21.5,39.4,21.5,54.8,21.5,54.8z"/>
</g>
</svg>
