<?xml version="1.0" encoding="utf-8"?>
<!-- Generator: Adobe Illustrator 26.5.0, SVG Export Plug-In . SVG Version: 6.00 Build 0)  -->
<svg version="1.1" id="Layer_1" xmlns="http://www.w3.org/2000/svg" xmlns:xlink="http://www.w3.org/1999/xlink" x="0px" y="0px"
	 viewBox="0 0 64 80" style="enable-background:new 0 0 64 80;" xml:space="preserve">
<style type="text/css">
	.st0{fill:#2A8E5C;}
</style>
<g>
	<g>
		<g>
			<circle class="st0" cx="18" cy="23" r="5"/>
			<path class="st0" d="M18,12c-6.1,0-11,4.9-11,11s4.9,11,11,11s11-4.9,11-11S24.1,12,18,12z M18,30c-3.9,0-7-3.1-7-7s3.1-7,7-7
				s7,3.1,7,7S21.9,30,18,30z"/>
		</g>
		<g>
			<circle class="st0" cx="18" cy="44" r="2"/>
			<path class="st0" d="M18,36c-4.4,0-8,3.6-8,8s3.6,8,8,8s8-3.6,8-8S22.4,36,18,36z M18,48c-2.2,0-4-1.8-4-4s1.8-4,4-4s4,1.8,4,4
				S20.2,48,18,48z"/>
		</g>
		<path class="st0" d="M58,8H34c-0.8,0-1.5,0.3-2,0.8C31.5,8.3,30.8,8,30,8H6c-1.7,0-3,1.3-3,3v42c0,1.7,1.3,3,3,3h24
			c0.8,0,1.5-0.3,2-0.8c0.5,0.5,1.2,0.8,2,0.8h24c1.7,0,3-1.3,3-3V11C61,9.3,59.7,8,58,8z M30,54H6c-0.6,0-1-0.4-1-1V11
			c0-0.6,0.4-1,1-1h24c0.6,0,1,0.4,1,1v42C31,53.6,30.6,54,30,54z M59,53c0,0.6-0.4,1-1,1H34c-0.6,0-1-0.4-1-1V11c0-0.6,0.4-1,1-1
			h24c0.6,0,1,0.4,1,1V53z"/>
		<g>
			<circle class="st0" cx="46" cy="23" r="5"/>
			<path class="st0" d="M46,12c-6.1,0-11,4.9-11,11s4.9,11,11,11s11-4.9,11-11S52.1,12,46,12z M46,30c-3.9,0-7-3.1-7-7s3.1-7,7-7
				s7,3.1,7,7S49.9,30,46,30z"/>
		</g>
		<g>
			<path class="st0" d="M46,36c-4.4,0-8,3.6-8,8s3.6,8,8,8s8-3.6,8-8S50.4,36,46,36z M46,48c-2.2,0-4-1.8-4-4s1.8-4,4-4s4,1.8,4,4
				S48.2,48,46,48z"/>
			<circle class="st0" cx="46" cy="44" r="2"/>
		</g>
	</g>
</g>
</svg>
