<?xml version="1.0" encoding="utf-8"?>
<!-- Generator: Adobe Illustrator 26.5.0, SVG Export Plug-In . SVG Version: 6.00 Build 0)  -->
<svg version="1.1"
	 id="Layer_1" xmlns:inkscape="http://www.inkscape.org/namespaces/inkscape" xmlns:rdf="http://www.w3.org/1999/02/22-rdf-syntax-ns#" xmlns:cc="http://creativecommons.org/ns#" xmlns:dc="http://purl.org/dc/elements/1.1/" xmlns:sodipodi="http://sodipodi.sourceforge.net/DTD/sodipodi-0.dtd" xmlns:svg="http://www.w3.org/2000/svg"
	 xmlns="http://www.w3.org/2000/svg" xmlns:xlink="http://www.w3.org/1999/xlink" x="0px" y="0px" viewBox="0 0 100 125"
	 style="enable-background:new 0 0 100 125;" xml:space="preserve">
<style type="text/css">
	.st0{fill-rule:evenodd;clip-rule:evenodd;fill:#2A8E5C;}
</style>
<g transform="translate(0,-952.36218)">
	<path class="st0" d="M54.4,958.4c1.7,0,3.4,0.6,4.8,1.8c1.4,1.2,2.3,3.1,2.3,5.2v18l12.7-3.8c1.1-0.3,2.2,0.3,2.5,1.3c0,0,0,0,0,0
		l1.6,5.3l0.5-0.2c4.7-1.4,9.6,1.3,11,6l1.5,4.9c1.4,4.7-1.2,9.7-5.9,11.1l-0.5,0.2l1.6,5.3c0.3,1.1-0.3,2.2-1.3,2.5c0,0,0,0,0,0
		l-41.5,12.4l-15.1,17.1c-0.7,0.8-2,0.9-2.8,0.2c-0.3-0.2-0.5-0.6-0.6-0.9L8.3,988.6c-0.3-1.1,0.3-2.2,1.3-2.5
		c0.4-0.1,0.8-0.1,1.1,0l22,6l14.6-4.4v-22.2c0-2.2,0.9-4.1,2.2-5.2C51,958.9,52.7,958.4,54.4,958.4z M54.4,962.4
		c-0.8,0-1.6,0.3-2.2,0.8c-0.5,0.5-0.9,1.1-0.9,2.2v27.1c1-0.3,2-0.4,3.1-0.4c1.1,0,2.1,0.1,3.1,0.4v-27.1c0-1.2-0.4-1.8-0.9-2.2
		C56.1,962.7,55.3,962.4,54.4,962.4z M81.5,989.7c-0.5,0-1,0.1-1.4,0.2c0,0,0,0,0,0l-0.5,0.2l4.3,14.4l0.5-0.2
		c2.5-0.8,4-3.5,3.2-6.1l-1.5-4.9C85.4,991.1,83.6,989.7,81.5,989.7L81.5,989.7z M13.2,990.8l14.8,49.5l12.3-14l-9.2-30.6
		L13.2,990.8L13.2,990.8z M54.4,996.1c-1.4,0-2.6,0.4-3.7,1.1c0,0,0,0,0,0c-1.8,1.2-3,3.2-3,5.6c0,3.7,3,6.7,6.7,6.7s6.7-3,6.7-6.7
		c0-2.3-1.2-4.4-3-5.6C57.1,996.4,55.8,996.1,54.4,996.1z M75.4,1003.6c-0.1,0-0.1,0-0.2,0c-0.2,0-0.4,0-0.6,0.1l-6.2,1.9
		c-1.1,0.2-1.8,1.3-1.6,2.4c0.2,1.1,1.3,1.8,2.4,1.6c0.1,0,0.2-0.1,0.3-0.1l6.2-1.8c1.1-0.3,1.7-1.4,1.5-2.4
		C77,1004.3,76.2,1003.7,75.4,1003.6L75.4,1003.6z M76.9,1008.7c-0.1,0-0.1,0-0.2,0c-0.2,0-0.4,0-0.6,0.1l-11.8,3.5
		c-1.1,0.3-1.7,1.4-1.4,2.5c0.3,1.1,1.4,1.7,2.5,1.4l11.8-3.6c1.1-0.3,1.7-1.4,1.3-2.5C78.4,1009.4,77.7,1008.8,76.9,1008.7
		L76.9,1008.7z"/>
</g>
</svg>
