<?xml version="1.0" encoding="utf-8"?>
<!-- Generator: Adobe Illustrator 26.5.0, SVG Export Plug-In . SVG Version: 6.00 Build 0)  -->
<svg version="1.1" id="Layer_1" xmlns="http://www.w3.org/2000/svg" xmlns:xlink="http://www.w3.org/1999/xlink" x="0px" y="0px"
	 viewBox="0 0 157.8 184.2" style="enable-background:new 0 0 157.8 184.2;" xml:space="preserve">
<style type="text/css">
	.st0{fill:#2A8E5C;}
</style>
<g>
	<g>
		<path class="st0" d="M51.1,123.1c-1.4,0-2.5-1.1-2.5-2.5c0,0,0,0,0,0v-6.9c0-2.4-2-4.4-4.4-4.4H30.3c-2.4,0-4.4,2-4.4,4.4l0,0v6.9
			c0,1.4-1.1,2.5-2.5,2.5c-1.4,0-2.5-1.1-2.5-2.5v-6.9c0-5.2,4.2-9.5,9.5-9.5h13.9c5.2,0,9.5,4.2,9.5,9.5v6.9
			C53.7,122,52.5,123.1,51.1,123.1C51.1,123.1,51.1,123.1,51.1,123.1z M95.3,120.6v-6.9c0-5.2-4.2-9.5-9.5-9.5H72
			c-5.2,0-9.5,4.2-9.5,9.5v6.9c0,1.4,1.1,2.5,2.5,2.5s2.5-1.1,2.5-2.5c0,0,0,0,0,0v-6.9c0-2.4,2-4.4,4.4-4.4h13.8
			c2.4,0,4.4,2,4.4,4.4l0,0v6.9c0,1.4,1.1,2.5,2.5,2.5S95.3,122,95.3,120.6z M137,120.6v-6.9c0-5.2-4.3-9.5-9.5-9.5h-13.9
			c-5.2,0-9.5,4.2-9.5,9.5v6.9c0,1.4,1.1,2.5,2.5,2.5s2.5-1.1,2.5-2.5v-6.9c0-2.4,2-4.4,4.4-4.4l0,0h13.9c2.4,0,4.4,2,4.4,4.4v6.9
			c0.1,1.4,1.3,2.5,2.7,2.4C135.9,122.9,136.9,121.8,137,120.6L137,120.6z M32.8,144.9v-6.9c0-5.2-4.2-9.5-9.5-9.5H9.5
			c-5.2,0-9.5,4.3-9.5,9.5v6.9c0,1.4,1.1,2.5,2.5,2.5s2.5-1.1,2.5-2.5v-6.9c0-2.4,2-4.4,4.4-4.4h13.9c2.4,0,4.4,2,4.4,4.4v6.9
			c0,1.4,1.1,2.5,2.5,2.5C31.7,147.4,32.8,146.3,32.8,144.9z M74.5,144.9v-6.9c0-5.2-4.3-9.5-9.5-9.5h0H51.1c-5.2,0-9.5,4.3-9.5,9.5
			v6.9c0.1,1.4,1.3,2.5,2.7,2.4c1.3-0.1,2.3-1.1,2.4-2.4v-6.9c0-2.4,2-4.4,4.4-4.4H65c2.4,0,4.4,2,4.4,4.4v6.9
			c0.1,1.4,1.3,2.5,2.7,2.4C73.4,147.2,74.4,146.1,74.5,144.9L74.5,144.9z M116.2,144.9v-6.9c0-5.2-4.2-9.5-9.5-9.5H92.8
			c-5.2,0-9.5,4.3-9.5,9.5v6.9c0,1.4,1.1,2.5,2.5,2.5s2.5-1.1,2.5-2.5v-6.9c0-2.4,2-4.4,4.4-4.4h13.9c2.4,0,4.4,2,4.4,4.4v6.9
			c0,1.4,1.1,2.5,2.5,2.5S116.2,146.3,116.2,144.9z M157.8,144.9v-6.9c0-5.2-4.3-9.5-9.5-9.5h-13.9c-5.2,0-9.5,4.3-9.5,9.5v6.9
			c0.1,1.4,1.3,2.5,2.7,2.4c1.3-0.1,2.3-1.1,2.4-2.4v-6.9c0-2.4,2-4.4,4.4-4.4h13.9c2.4,0,4.4,2,4.4,4.4v6.9
			c0.1,1.4,1.3,2.5,2.7,2.4C156.7,147.2,157.7,146.1,157.8,144.9z M76.1,41V2.5c0-1.4-1.1-2.5-2.5-2.5c0,0,0,0,0,0H5
			C3.6,0,2.5,1.1,2.5,2.5V41c0,1.4,1.1,2.5,2.5,2.5h68.5C74.9,43.5,76.1,42.4,76.1,41z M7.5,5.1H71v33.4H7.5V5.1z M154.3,41V2.5
			c0-1.4-1.1-2.5-2.5-2.5c0,0,0,0,0,0H83.2c-1.4,0-2.5,1.1-2.5,2.5c0,0,0,0,0,0V41c0,1.4,1.1,2.5,2.5,2.5h68.5
			C153.2,43.5,154.3,42.4,154.3,41z M85.8,5.1h63.5v33.4H85.8V5.1z M76.1,89.3V50.9c0-1.4-1.1-2.5-2.5-2.5l0,0H5
			c-1.4,0-2.5,1.1-2.5,2.5v38.4c0,1.4,1.1,2.5,2.5,2.5c0,0,0,0,0,0h68.5C74.9,91.9,76.1,90.7,76.1,89.3L76.1,89.3z M7.5,53.4H71
			v33.4H7.5V53.4z M154.3,89.3V50.9c0-1.4-1.1-2.5-2.5-2.5H83.2c-1.4,0-2.5,1.1-2.5,2.5c0,0,0,0,0,0v38.4c0,1.4,1.1,2.5,2.5,2.5l0,0
			h68.5C153.2,91.9,154.3,90.7,154.3,89.3z M85.8,53.4h63.5v33.4H85.8V53.4z"/>
	</g>
</g>
</svg>
