<?xml version="1.0" encoding="utf-8"?>
<!-- Generator: Adobe Illustrator 26.5.0, SVG Export Plug-In . SVG Version: 6.00 Build 0)  -->
<svg version="1.1" id="Layer_1" xmlns="http://www.w3.org/2000/svg" xmlns:xlink="http://www.w3.org/1999/xlink" x="0px" y="0px"
	 viewBox="0 0 64 80" style="enable-background:new 0 0 64 80;" xml:space="preserve">
<style type="text/css">
	.st0{fill:#2A8E5C;}
</style>
<g>
	<path class="st0" d="M26.5,32.6L24,32l-4-1l-4-1V20c0-1.1-0.9-2-2-2s-2,0.9-2,2v17.4C12,35,10,33,7.6,33C6.7,33,6,33.7,6,34.6
		c0,0.3,0.1,0.5,0.2,0.7l1.2,2.4C7.8,38.6,8,39.5,8,40.4v4.5c0,1.4,0.5,2.7,1.3,3.7L12,52c-1.3,2-2,4.3-2,6.6V62h16v-3.4
		c0-2.4-0.7-4.6-2-6.6l2.7-3.4c0.9-1.1,1.3-2.4,1.3-3.7V34.6C28,33.6,27.4,32.8,26.5,32.6z"/>
	<path class="st0" d="M10.3,3.7C8.4,4.3,6.8,5.5,5.5,7h3.4C9.3,5.7,9.7,4.6,10.3,3.7z"/>
	<path class="st0" d="M8.4,9H4.2c-0.6,1.2-1,2.6-1.2,4h5C8.1,11.6,8.2,10.2,8.4,9z"/>
	<path class="st0" d="M8,15H3c0.1,1.4,0.5,2.8,1.2,4h4.2C8.2,17.7,8.1,16.4,8,15z"/>
	<path class="st0" d="M18,13c-0.1-1.4-0.2-2.8-0.5-4h-7c-0.2,1.2-0.4,2.6-0.5,4H18z"/>
	<path class="st0" d="M22.5,7c-1.2-1.5-2.9-2.7-4.8-3.3c0.6,0.9,1,2,1.4,3.3H22.5z"/>
	<path class="st0" d="M10.3,24.4c-0.6-0.9-1-2.1-1.4-3.4H5.5C6.7,22.5,8.4,23.7,10.3,24.4z"/>
	<path class="st0" d="M14,3c-1.1,0-2.2,1.5-3,4h6C16.2,4.5,15.1,3,14,3z"/>
	<path class="st0" d="M20,13h5c-0.1-1.4-0.5-2.8-1.2-4h-4.2C19.8,10.2,19.9,11.6,20,13z"/>
	<path class="st0" d="M25,15h-5c0,1.4-0.2,2.7-0.4,4h4.2C24.4,17.8,24.8,16.4,25,15z"/>
	<path class="st0" d="M22.5,21h-3.4c-0.4,1.3-0.9,2.4-1.4,3.4C19.6,23.7,21.3,22.5,22.5,21z"/>
	<path class="st0" d="M10.4,18.3C11,17,12.4,16,14,16s3,1,3.6,2.3c0.2-1.1,0.3-2.2,0.3-3.3h-8C10.1,16.2,10.2,17.3,10.4,18.3z"/>
	<path class="st0" d="M58.6,16.4l0.2-0.5l2.2-0.6v-2.5l-2.2-0.6l-0.2-0.5c-0.1-0.5-0.3-0.9-0.6-1.4l-0.3-0.5l1.1-2l-1.7-1.8l-2,1.1
		l-0.5-0.3c-0.5-0.2-0.9-0.4-1.4-0.6l-0.5-0.2L52.2,4h-2.5l-0.6,2.2l-0.5,0.2c-0.5,0.1-0.9,0.3-1.4,0.6l-0.5,0.3l-2-1.1l-1.7,1.8
		l1.1,2l-0.3,0.5c-0.2,0.4-0.4,0.9-0.6,1.4l-0.2,0.5L41,12.8v2.5l2.2,0.6l0.2,0.5c0.1,0.5,0.3,0.9,0.6,1.4l0.3,0.5l-1.1,2l1.7,1.8
		l2-1.1l0.5,0.3c0.5,0.2,0.9,0.4,1.4,0.6l0.5,0.2l0.6,2.2h2.5l0.6-2.2l0.5-0.2c0.5-0.1,0.9-0.3,1.4-0.6l0.5-0.3l2,1.1l1.7-1.8
		l-1.1-2l0.3-0.5C58.3,17.3,58.5,16.8,58.6,16.4z M51,19c-2.8,0-5-2.2-5-5s2.2-5,5-5s5,2.2,5,5S53.8,19,51,19z"/>
	<path class="st0" d="M51,52c1.1,0,2-0.9,2-2h-4C49,51.1,49.9,52,51,52z"/>
	<path class="st0" d="M55.7,33.8C54.4,32.6,52.7,32,51,32c-0.3,0-0.5,0-0.8,0c-3.1,0.4-5.7,2.9-6.1,6c-0.3,2.7,0.9,5.3,3.2,6.8
		c1,0.7,1.7,1.8,1.7,3.1h1v-7.3c-0.6-0.3-1-1-1-1.7c0-1.1,0.9-2,2-2s2,0.9,2,2c0,0.7-0.4,1.4-1,1.7V48h1c0.1-1.3,0.7-2.4,1.8-3.1
		c2-1.3,3.2-3.5,3.2-5.9C58,37,57.1,35.1,55.7,33.8z"/>
	<rect x="29" y="13" class="st0" width="8" height="2"/>
	<polygon class="st0" points="36.4,8 39,8 39,6 35.6,6 32.6,9 29,9 29,11 33.4,11 	"/>
	<polygon class="st0" points="35,19 29,19 29,21 33,21 33,39 40,39 40,37 35,37 	"/>
</g>
</svg>
