<?xml version="1.0" encoding="utf-8"?>
<!-- Generator: Adobe Illustrator 26.5.0, SVG Export Plug-In . SVG Version: 6.00 Build 0)  -->
<svg version="1.1" id="Layer_1" xmlns="http://www.w3.org/2000/svg" xmlns:xlink="http://www.w3.org/1999/xlink" x="0px" y="0px"
	 viewBox="0 0 100 125" style="enable-background:new 0 0 100 125;" xml:space="preserve">
<style type="text/css">
	.st0{fill:none;}
	.st1{fill:#2A8E5C;}
</style>
<path class="st0" d="M49.1,68.5c-4.3,0-8.3-1.6-11.4-4.2l-1.8,1.8c3.5,3.1,8.2,4.9,13.2,4.9c10.7,0,19.4-8.3,20.2-18.7h-2.6
	C65.9,61.3,58.4,68.5,49.1,68.5z"/>
<path class="st0" d="M49.1,57.6c-1.3,0-2.6-0.4-3.7-1.1l-7,7c2.9,2.4,6.6,3.9,10.7,3.9c8.7,0,15.8-6.7,16.6-15.2h-9.9
	C55.1,55.4,52.4,57.6,49.1,57.6z"/>
<path class="st0" d="M49.1,34.1c-9.2,0-16.7,7.5-16.7,16.7c0,4.1,1.5,7.8,3.9,10.7l7-7c-0.7-1.1-1.1-2.3-1.1-3.7
	c0-3.8,3.1-6.9,6.9-6.9c3.3,0,6,2.3,6.7,5.4h9.9C64.9,40.8,57.8,34.1,49.1,34.1z"/>
<path class="st0" d="M49.1,30.5c-11.2,0-20.2,9.1-20.2,20.2c0,5,1.9,9.6,4.9,13.2l1.8-1.8c-2.6-3.1-4.2-7-4.2-11.4
	C31.4,41,39.3,33,49.1,33c9.2,0,16.8,7.1,17.6,16.2h2.6C68.5,38.8,59.8,30.5,49.1,30.5z"/>
<path class="st1" d="M84.9,46.5c-1.8,0-3.4,1.2-3.9,2.8h-8.6c-0.7-11.6-10.1-20.9-21.7-21.7v-1.5c5.1,0.3,9.9,2.1,13.9,5.3
	c0,0,0,0,0.1,0l0.1,0.1c0,0,0.1,0,0.1,0.1c0,0,0.1,0,0.1,0.1h0.1h0.1c0.1,0,0.1,0,0.2,0c0,0,0,0,0.1,0h4.2c0.6,1.6,2.1,2.7,3.9,2.7
	c2.3,0,4.2-1.9,4.2-4.2S75.9,26,73.6,26c-1.8,0-3.3,1.1-3.9,2.7H66c-4.4-3.4-9.8-5.4-15.4-5.7v-5.5c1.6-0.6,2.7-2.1,2.7-3.9
	c0-2.3-1.9-4.2-4.2-4.2s-4.2,1.9-4.2,4.2c0,1.8,1.1,3.3,2.7,3.9V23c-14.1,0.8-25.4,12.1-26.2,26.2H19c-0.6-1.6-2.1-2.7-3.9-2.7
	c-2.3,0-4.2,1.9-4.2,4.2s1.9,4.2,4.2,4.2c1.8,0,3.3-1.1,3.9-2.7h3.9c0.8,0,1.5-0.7,1.5-1.5c0-13.1,10.3-23.9,23.2-24.7v1.5
	c-12.1,0.8-21.7,10.9-21.7,23.2c0,5.9,2.2,11.2,5.8,15.3l-4.5,4.5H19c-0.6-1.6-2.1-2.7-3.9-2.7c-2.3,0-4.2,1.9-4.2,4.2
	s1.9,4.2,4.2,4.2c1.8,0,3.3-1.1,3.9-2.7h8.7c0.2,0,0.4,0,0.5-0.1l0,0c0.2-0.1,0.4-0.2,0.5-0.3l5-5c4.1,3.6,9.5,5.8,15.3,5.8
	c12.3,0,22.4-9.6,23.2-21.7h1.5c-0.7,13-11.5,23.3-24.6,23.3c-0.8,0-1.5,0.7-1.5,1.5v5.3c-1.6,0.6-2.8,2.1-2.8,4
	c0,2.3,1.9,4.2,4.2,4.2s4.2-1.9,4.2-4.2c0-1.7-1.1-3.2-2.6-3.9v-3.9C64.7,77.7,76,66.4,76.8,52.3H81c0.6,1.5,2.1,2.6,3.9,2.6
	c2.3,0,4.2-1.9,4.2-4.2S87.2,46.5,84.9,46.5z M49.1,71c-5,0-9.6-1.9-13.2-4.9l1.8-1.8c3.1,2.6,7,4.2,11.4,4.2
	c9.2,0,16.8-7.1,17.6-16.2h2.6C68.5,62.8,59.8,71,49.1,71z M55.8,49.3c-0.7-3.1-3.4-5.4-6.7-5.4c-3.8,0-6.9,3.1-6.9,6.9
	c0,1.3,0.4,2.6,1.1,3.7l-7,7c-2.4-2.9-3.9-6.6-3.9-10.7c0-9.2,7.5-16.7,16.7-16.7c8.7,0,15.8,6.7,16.6,15.2H55.8z M65.7,52.3
	c-0.8,8.5-7.9,15.2-16.6,15.2c-4.1,0-7.8-1.5-10.7-3.9l7-7c1.1,0.7,2.3,1.1,3.7,1.1c3.3,0,6-2.3,6.7-5.4
	C55.8,52.3,65.7,52.3,65.7,52.3z M66.7,49.3c-0.8-9-8.4-16.2-17.6-16.2c-9.7,0-17.7,7.9-17.7,17.7c0,4.3,1.6,8.3,4.2,11.4L33.8,64
	c-3.1-3.5-4.9-8.2-4.9-13.2c0-11.2,9.1-20.2,20.2-20.2c10.7,0,19.4,8.3,20.2,18.7H66.7z"/>
</svg>
